<svg width="102" height="75" viewBox="0 0 102 75" fill="none" xmlns="http://www.w3.org/2000/svg">
<g clip-path="url(#clip0_1477_2850)">
<path d="M101.321 65.9102H0.679199V65.9605H101.321V65.9102Z" fill="#EBEBEB"/>
<path d="M91.2363 69.1487H84.5698V69.199H91.2363V69.1487Z" fill="#EBEBEB"/>
<path d="M67.348 69.6963H65.5989V69.7466H67.348V69.6963Z" fill="#EBEBEB"/>
<path d="M84.3685 67.2808H80.5059V67.3311H84.3685V67.2808Z" fill="#EBEBEB"/>
<path d="M19.9319 67.6189H11.2385V67.6692H19.9319V67.6189Z" fill="#EBEBEB"/>
<path d="M22.9995 67.6189H21.7253V67.6692H22.9995V67.6189Z" fill="#EBEBEB"/>
<path d="M45.998 68.4683H27.1418V68.5186H45.998V68.4683Z" fill="#EBEBEB"/>
<path d="M48.3852 56.9329H9.51749C8.88345 56.9329 8.36816 56.4176 8.36816 55.7835V1.14933C8.36816 0.515284 8.88345 0 9.51749 0H48.3852C49.0192 0 49.5345 0.515284 49.5345 1.14933V55.7835C49.5345 56.4176 49.0192 56.9329 48.3852 56.9329ZM9.51749 0.0503207C8.91163 0.0503207 8.41848 0.543464 8.41848 1.14933V55.7835C8.41848 56.3894 8.91163 56.8825 9.51749 56.8825H48.3852C48.9911 56.8825 49.4842 56.3894 49.4842 55.7835V1.14933C49.4842 0.543464 48.9911 0.0503207 48.3852 0.0503207H9.51749Z" fill="#EBEBEB"/>
<path d="M91.9228 56.9329H53.0551C52.421 56.9329 51.9058 56.4176 51.9058 55.7835V1.14933C51.9058 0.515284 52.421 0 53.0551 0H91.9228C92.5568 0 93.0721 0.515284 93.0721 1.14933V55.7835C93.0721 56.4176 92.5568 56.9329 91.9228 56.9329ZM53.0551 0.0503207C52.4492 0.0503207 51.9561 0.543464 51.9561 1.14933V55.7835C51.9561 56.3894 52.4492 56.8825 53.0551 56.8825H91.9228C92.5287 56.8825 93.0218 56.3894 93.0218 55.7835V1.14933C93.0218 0.543464 92.5287 0.0503207 91.9228 0.0503207H53.0551Z" fill="#EBEBEB"/>
<path d="M73.7146 14.4944C75.2465 14.4944 76.4883 13.2526 76.4883 11.7207C76.4883 10.1888 75.2465 8.94702 73.7146 8.94702C72.1827 8.94702 70.9409 10.1888 70.9409 11.7207C70.9409 13.2526 72.1827 14.4944 73.7146 14.4944Z" fill="#E0E0E0"/>
<path d="M73.7147 14.0778C75.0164 14.0778 76.0717 13.0225 76.0717 11.7208C76.0717 10.419 75.0164 9.36377 73.7147 9.36377C72.4129 9.36377 71.3577 10.419 71.3577 11.7208C71.3577 13.0225 72.4129 14.0778 73.7147 14.0778Z" fill="#F0F0F0"/>
<path d="M73.604 13.337V11.6885L72.511 12.3064" fill="#F0F0F0"/>
<path d="M73.604 13.337V11.6885L72.511 12.3064" stroke="#E0E0E0" stroke-width="1.65" stroke-linecap="round" stroke-linejoin="round"/>
<path d="M42.705 19.4478H24.509V20.3817H42.705V19.4478Z" fill="#E0E0E0"/>
<path d="M26.1475 16.002H25.3464V19.4479H26.1475V16.002Z" fill="#EBEBEB"/>
<path d="M30.0242 16.002H29.2231V19.4479H30.0242V16.002Z" fill="#EBEBEB"/>
<path d="M34.4259 15.9127L33.6365 16.0488L34.2218 19.4447L35.0113 19.3086L34.4259 15.9127Z" fill="#EBEBEB"/>
<path d="M27.1419 16.4548H26.3408V19.4459H27.1419V16.4548Z" fill="#EBEBEB"/>
<path d="M28.9835 16.4548H28.1824V19.4459H28.9835V16.4548Z" fill="#EBEBEB"/>
<path d="M33.6351 16.4548H32.834V19.4459H33.6351V16.4548Z" fill="#EBEBEB"/>
<path d="M31.0779 16.3511L30.2959 16.5249L30.9448 19.4447L31.7268 19.2709L31.0779 16.3511Z" fill="#EBEBEB"/>
<path d="M27.8341 15.8308H27.4336V19.4479H27.8341V15.8308Z" fill="#EBEBEB"/>
<path d="M32.6027 15.8308H32.2021V19.4479H32.6027V15.8308Z" fill="#EBEBEB"/>
<path d="M40.9579 16.7205H37.053V19.4176H40.9579V16.7205Z" fill="#EBEBEB"/>
<path d="M24.5091 27.3604L42.7051 27.3604V26.4264L24.5091 26.4264V27.3604Z" fill="#E0E0E0"/>
<path d="M41.0666 26.4263H41.8677V22.9803H41.0666V26.4263Z" fill="#EBEBEB"/>
<path d="M37.1899 26.4263H37.991V22.9803H37.1899V26.4263Z" fill="#EBEBEB"/>
<path d="M32.2042 26.2899L32.9937 26.426L33.579 23.0301L32.7895 22.8941L32.2042 26.2899Z" fill="#EBEBEB"/>
<path d="M40.0741 26.4263H40.8752V23.4352H40.0741V26.4263Z" fill="#EBEBEB"/>
<path d="M38.2304 26.4263H39.0315V23.4352H38.2304V26.4263Z" fill="#EBEBEB"/>
<path d="M33.5807 26.4263H34.3818V23.4352H33.5807V26.4263Z" fill="#EBEBEB"/>
<path d="M35.4899 26.2503L36.272 26.4241L36.9209 23.5042L36.1389 23.3304L35.4899 26.2503Z" fill="#EBEBEB"/>
<path d="M39.3797 26.4263H39.7803V22.8092H39.3797V26.4263Z" fill="#EBEBEB"/>
<path d="M34.6114 26.4263H35.012V22.8092H34.6114V26.4263Z" fill="#EBEBEB"/>
<path d="M26.2562 26.3943H30.1611V23.6971H26.2562V26.3943Z" fill="#EBEBEB"/>
<path d="M50.9999 74.9999C72.5537 74.9999 90.0266 73.9798 90.0266 72.7214C90.0266 71.463 72.5537 70.4429 50.9999 70.4429C29.446 70.4429 11.9731 71.463 11.9731 72.7214C11.9731 73.9798 29.446 74.9999 50.9999 74.9999Z" fill="#F5F5F5"/>
<path d="M65.6716 62.8848C64.7296 59.5254 67.6804 53.7707 67.6804 53.7707C67.6804 53.7707 73.0184 55.7574 75.2204 54.8758C76.2248 54.4752 76.6817 50.9487 76.8971 50.0993C77.0078 49.6666 78.2155 48.9963 78.3705 48.6441C78.6322 48.0462 77.7667 47.1364 77.7667 47.1364C77.7667 47.1364 78.9562 46.3494 79.1072 46.0314C79.4514 45.3068 78.5718 45.4276 78.9401 43.1832C78.9401 43.1832 81.7541 42.513 81.7541 41.3737C81.7541 41.3737 78.1853 38.4551 78.6724 35.5426C78.7711 34.9427 78.8777 34.2564 78.9583 33.5096H77.4889L77.6278 33.3445C77.7304 33.2218 77.7868 33.0688 77.7868 32.9118C77.7868 32.5414 77.4849 32.2395 77.1145 32.2395C76.7441 32.2395 76.4422 32.5414 76.4422 32.9118C76.4422 33.0668 76.4986 33.2218 76.6012 33.3445L76.7381 33.5096H74.4213V35.5727C74.5622 35.46 74.7353 35.3976 74.9125 35.3976C75.3432 35.3976 75.6914 35.7479 75.6914 36.1766C75.6914 36.6053 75.3432 36.9556 74.9125 36.9556C74.7333 36.9556 74.5602 36.8932 74.4213 36.7825V41.2449L74.2563 41.108C74.1355 41.0074 73.9825 40.951 73.8235 40.951C73.4532 40.951 73.1512 41.2509 73.1512 41.6213C73.1512 41.9917 73.4532 42.2936 73.8235 42.2936C73.9825 42.2936 74.1355 42.2372 74.2563 42.1366L74.4213 41.9997V44.3728H72.2757C72.3884 44.5117 72.4488 44.6848 72.4488 44.864C72.4488 45.2927 72.1005 45.6429 71.6738 45.6429C71.2471 45.6429 70.8928 45.2927 70.8928 44.864C70.8928 44.6848 70.9552 44.5117 71.066 44.3728H66.6055L66.7424 44.2078C66.845 44.085 66.8994 43.936 66.8994 43.775C66.8994 43.4047 66.5975 43.1047 66.2271 43.1047C65.8568 43.1047 65.5548 43.4047 65.5548 43.775C65.5548 43.936 65.6092 44.085 65.7118 44.2078L65.8487 44.3728H63.5581V46.4581C63.697 46.3494 63.8701 46.287 64.0492 46.287C64.478 46.287 64.8262 46.6353 64.8262 47.064C64.8262 47.4927 64.478 47.8429 64.0492 47.8429C63.8701 47.8429 63.697 47.7806 63.5581 47.6698V49.8055H61.1628L61.2977 49.6404C61.3983 49.5196 61.4527 49.3646 61.4527 49.2076C61.4527 48.8373 61.1528 48.5354 60.7844 48.5354C60.4161 48.5354 60.1121 48.8373 60.1121 49.2076C60.1121 49.3646 60.1665 49.5176 60.2691 49.6404L60.406 49.8055H55.9436C56.0563 49.9443 56.1187 50.1174 56.1187 50.2966C56.1187 50.7253 55.7705 51.0756 55.3397 51.0756C54.909 51.0756 54.5608 50.7253 54.5608 50.2966C54.5608 50.1174 54.6232 49.9443 54.7359 49.8055H52.554C52.558 53.5815 51.8978 58.2593 49.3757 62.3756C45.344 64.7406 43.7197 69.7123 43.5325 73.0415H75.4398C75.317 72.4639 74.3187 69.2272 67.1128 65.268C66.3962 64.3783 65.8547 63.543 65.6716 62.8848Z" fill="#6747C7"/>
<path d="M67.6621 10.3419C67.8876 10.7043 68.3646 10.817 68.7269 10.5915C68.8819 10.4949 68.9966 10.348 69.053 10.1789L70.154 11.9562L68.3022 13.1056C68.2861 13.1156 68.2781 13.1357 68.2801 13.1539C68.2841 13.174 68.2982 13.1881 68.3183 13.1921C68.5095 13.2263 68.6786 13.339 68.7813 13.5041C68.9785 13.8221 68.8799 14.2408 68.5619 14.438C68.2438 14.6353 67.8252 14.5367 67.6279 14.2186C67.5253 14.0536 67.4991 13.8523 67.5534 13.6651C67.5595 13.647 67.5534 13.6269 67.5373 13.6148C67.5212 13.6027 67.5011 13.6027 67.483 13.6128L65.6191 14.7682L64.5161 12.9908C64.6952 13.015 64.8784 12.9787 65.0334 12.8821C65.3937 12.6587 65.5044 12.1817 65.281 11.8194C65.0555 11.457 64.5805 11.3443 64.2182 11.5678C64.0632 11.6644 63.9485 11.8113 63.8901 11.9824L62.8052 10.2332L64.6691 9.07788C64.6852 9.06782 64.6932 9.04769 64.6912 9.02958C64.6872 9.00945 64.6731 8.99536 64.653 8.99133C64.4617 8.95711 64.2927 8.84238 64.19 8.67934C63.9927 8.36132 64.0914 7.94265 64.4094 7.74539C64.7274 7.54813 65.1461 7.64676 65.3434 7.96479C65.446 8.12984 65.4722 8.33113 65.4178 8.51832C65.4118 8.53643 65.4178 8.55656 65.4339 8.56864C65.45 8.58072 65.4702 8.58072 65.4883 8.57065L67.3401 7.42334L68.425 9.17249C68.2479 9.14632 68.0647 9.18456 67.9097 9.28118C67.5474 9.50662 67.4347 9.98366 67.6601 10.346L67.6621 10.3419Z" fill="#6747C7"/>
<path d="M74.3205 27.9745H72.2614C72.3781 27.8336 72.4425 27.6605 72.4425 27.4773C72.4425 27.0526 72.0963 26.7064 71.6716 26.7064C71.2469 26.7064 70.8987 27.0526 70.8987 27.4773C70.8987 27.6625 70.9611 27.8356 71.0779 27.9745H68.9805V25.7725C68.9805 25.7523 68.9684 25.7362 68.9503 25.7282C68.9322 25.7221 68.9121 25.7282 68.898 25.7403C68.7712 25.8852 68.586 25.9677 68.3907 25.9677C68.0163 25.9677 67.7124 25.6638 67.7124 25.2894C67.7124 24.915 68.0163 24.6111 68.3907 24.6111C68.586 24.6111 68.7691 24.6936 68.898 24.8385C68.91 24.8526 68.9322 24.8586 68.9503 24.8506C68.9684 24.8445 68.9805 24.8264 68.9805 24.8063V22.6365H71.0779C70.9611 22.7754 70.8987 22.9485 70.8987 23.1336C70.8987 23.5584 71.2449 23.9046 71.6716 23.9046C72.0984 23.9046 72.4425 23.5584 72.4425 23.1336C72.4425 22.9505 72.3781 22.7774 72.2614 22.6365H74.3205V24.8063C74.3205 24.8264 74.3326 24.8425 74.3507 24.8506C74.3688 24.8566 74.389 24.8526 74.403 24.8385C74.5339 24.6936 74.7191 24.6111 74.9123 24.6111C75.2867 24.6111 75.5906 24.915 75.5906 25.2894C75.5906 25.6638 75.2867 25.9677 74.9123 25.9677C74.7191 25.9677 74.5319 25.8852 74.403 25.7403C74.391 25.7262 74.3688 25.7201 74.3507 25.7282C74.3326 25.7342 74.3205 25.7523 74.3205 25.7725V27.9745Z" fill="#6747C7"/>
<path d="M49.2912 25.0517C49.2771 25.0396 49.255 25.0356 49.2389 25.0456C49.0658 25.1342 48.8625 25.1463 48.6813 25.0758C48.3331 24.939 48.16 24.5444 48.2969 24.1962C48.4338 23.848 48.8283 23.6749 49.1765 23.8118C49.3556 23.8822 49.4986 24.0271 49.567 24.2123C49.573 24.2304 49.5911 24.2425 49.6113 24.2425C49.6314 24.2425 49.6475 24.2304 49.6556 24.2123L50.4587 22.1572L52.399 22.9161C52.24 23.0046 52.1132 23.1435 52.0488 23.3126C51.8938 23.7091 52.0911 24.158 52.4876 24.313C52.8841 24.468 53.333 24.2707 53.488 23.8742C53.5544 23.7031 53.5584 23.5159 53.5001 23.3448L55.4304 24.0996L54.6272 26.1547C54.6192 26.1728 54.6252 26.1929 54.6393 26.207C54.6534 26.2211 54.6755 26.2231 54.6916 26.2131C54.8648 26.1225 55.0681 26.1124 55.2472 26.1829C55.5954 26.3198 55.7685 26.7143 55.6316 27.0625C55.4948 27.4107 55.1003 27.5838 54.752 27.4469C54.5709 27.3765 54.428 27.2316 54.3636 27.0484C54.3575 27.0303 54.3394 27.0182 54.3193 27.0162C54.2991 27.0162 54.281 27.0283 54.275 27.0464L53.484 29.0713L51.5537 28.3165C51.7127 28.2299 51.8375 28.089 51.9039 27.92C52.0589 27.5234 51.8616 27.0746 51.4651 26.9196C51.0686 26.7646 50.6197 26.9618 50.4647 27.3584C50.3983 27.5275 50.3963 27.7146 50.4546 27.8877L48.5143 27.1289L49.3053 25.104C49.3134 25.0859 49.3073 25.0658 49.2932 25.0517H49.2912Z" fill="#6747C7"/>
<path d="M63.4875 36.6135C63.4694 36.6195 63.4573 36.6376 63.4573 36.6578V38.8417H61.374C61.4888 38.7028 61.5532 38.5257 61.5532 38.3445C61.5532 37.9178 61.207 37.5716 60.7823 37.5716C60.3575 37.5716 60.0093 37.9178 60.0093 38.3445C60.0093 38.5257 60.0737 38.7008 60.1905 38.8417H58.1173V36.6578C58.1173 36.6376 58.1052 36.6215 58.0871 36.6135C58.069 36.6074 58.0488 36.6135 58.0347 36.6256C57.9059 36.7725 57.7207 36.855 57.5255 36.855C57.1511 36.855 56.8472 36.5511 56.8472 36.1767C56.8472 35.8023 57.1511 35.4984 57.5255 35.4984C57.7167 35.4984 57.9039 35.5829 58.0347 35.7299C58.0468 35.7439 58.069 35.75 58.0871 35.7419C58.1052 35.7359 58.1173 35.7178 58.1173 35.6976V33.5037H60.1885C60.0717 33.6446 60.0073 33.8197 60.0073 34.0008C60.0073 34.4276 60.3535 34.7738 60.7802 34.7738C61.207 34.7738 61.5512 34.4276 61.5512 34.0008C61.5512 33.8197 61.4867 33.6425 61.372 33.5037H63.4553V35.6976C63.4553 35.7178 63.4674 35.7339 63.4855 35.7419C63.5036 35.748 63.5237 35.7439 63.5378 35.7299C63.6686 35.5829 63.8538 35.4984 64.0471 35.4984C64.4194 35.4984 64.7234 35.8023 64.7234 36.1767C64.7234 36.5511 64.4194 36.855 64.0471 36.855C63.8518 36.855 63.6666 36.7705 63.5378 36.6256C63.5257 36.6115 63.5036 36.6054 63.4855 36.6135H63.4875Z" fill="#6747C7"/>
<path d="M53.973 15.0259C53.9529 15.0259 53.9368 15.0379 53.9287 15.0581L53.192 17.1152L51.2315 16.4127C51.3865 16.3201 51.5053 16.1752 51.5677 16.0041C51.7106 15.6035 51.5033 15.1607 51.1027 15.0158C50.7022 14.8729 50.2573 15.0822 50.1144 15.4828C50.054 15.6539 50.056 15.8411 50.1164 16.0121L48.166 15.3137L48.9027 13.2566C48.9087 13.2385 48.9027 13.2183 48.8886 13.2042C48.8725 13.1922 48.8524 13.1902 48.8342 13.1982C48.6632 13.2928 48.4599 13.3089 48.2767 13.2425C47.9244 13.1157 47.7413 12.7272 47.8661 12.375C47.9929 12.0227 48.3814 11.8395 48.7336 11.9643C48.9148 12.0288 49.0617 12.1717 49.1362 12.3528C49.1442 12.3709 49.1623 12.383 49.1805 12.383C49.2006 12.383 49.2167 12.3709 49.2247 12.3528L49.9655 10.2856L51.9159 10.9841C51.7589 11.0767 51.6381 11.2216 51.5777 11.3907C51.4348 11.7912 51.6442 12.2361 52.0447 12.379C52.4453 12.5219 52.8861 12.3126 53.031 11.912C53.0914 11.7409 53.0914 11.5537 53.031 11.3846L54.9915 12.0871L54.2508 14.1543C54.2447 14.1724 54.2508 14.1925 54.2649 14.2066C54.2789 14.2207 54.3011 14.2207 54.3172 14.2127C54.4903 14.1181 54.6936 14.102 54.8747 14.1664C55.225 14.2912 55.4081 14.6817 55.2813 15.0339C55.1545 15.3862 54.7661 15.5713 54.4158 15.4445C54.2327 15.3781 54.0857 15.2372 54.0153 15.056C54.0072 15.0379 53.9911 15.0259 53.971 15.0259H53.973Z" fill="#6747C7"/>
<path d="M39.7523 9.09002C39.7483 9.10814 39.7543 9.12827 39.7704 9.14034L41.5619 10.3923L40.3682 12.0992C40.3199 11.9261 40.2112 11.7711 40.0623 11.6685C39.7121 11.4249 39.231 11.5094 38.9874 11.8577C38.7439 12.2079 38.8284 12.689 39.1787 12.9345C39.3276 13.0372 39.5088 13.0855 39.6899 13.0714L38.5024 14.7702L36.7109 13.5182C36.6948 13.5062 36.6727 13.5062 36.6566 13.5182C36.6405 13.5303 36.6324 13.5484 36.6365 13.5686C36.6828 13.7578 36.6445 13.9591 36.5338 14.1181C36.3184 14.424 35.8957 14.5005 35.5898 14.2851C35.2838 14.0698 35.2074 13.6471 35.4227 13.3391C35.5334 13.1821 35.7085 13.0774 35.9038 13.0533C35.9239 13.0513 35.94 13.0372 35.944 13.0171C35.9481 12.9989 35.942 12.9788 35.9259 12.9667L34.1265 11.7087L35.314 10.0099C35.3623 10.185 35.469 10.34 35.618 10.4426C35.9682 10.6862 36.4493 10.6017 36.6948 10.2514C36.9384 9.90321 36.8518 9.42214 36.5036 9.17657C36.3547 9.07191 36.1735 9.0236 35.9944 9.03769L37.188 7.33081L38.9874 8.58883C39.0036 8.60091 39.0257 8.60091 39.0418 8.58883C39.0579 8.57675 39.0659 8.55864 39.0619 8.53851C39.0176 8.34729 39.0539 8.14601 39.1646 7.98901C39.3779 7.68306 39.8006 7.60858 40.1086 7.82395C40.4145 8.03933 40.491 8.46202 40.2777 8.76596C40.167 8.92497 39.9918 9.02964 39.7966 9.05178C39.7765 9.05379 39.7604 9.06788 39.7563 9.08801L39.7523 9.09002Z" fill="#6747C7"/>
<path d="M56.8492 47.0639C56.8492 46.6916 57.1531 46.3876 57.5275 46.3876C57.7207 46.3876 57.9059 46.4702 58.0368 46.6131C58.0508 46.6272 58.071 46.6332 58.0891 46.6252C58.1072 46.6191 58.1193 46.601 58.1193 46.5809V44.3647H60.1905C60.0737 44.5056 60.0093 44.6808 60.0093 44.8619C60.0093 45.2886 60.3555 45.6348 60.7823 45.6348C61.209 45.6348 61.5532 45.2886 61.5532 44.8619C61.5532 44.6808 61.4888 44.5036 61.374 44.3647H63.4573V46.5809C63.4573 46.601 63.4694 46.6171 63.4875 46.6252C63.5056 46.6332 63.5257 46.6272 63.5398 46.6131C63.6707 46.4702 63.8558 46.3876 64.0491 46.3876C64.4214 46.3876 64.7254 46.6916 64.7254 47.0639C64.7254 47.4363 64.4214 47.7423 64.0491 47.7423C63.8558 47.7423 63.6707 47.6597 63.5398 47.5148C63.5277 47.5007 63.5056 47.4947 63.4875 47.5027C63.4694 47.5088 63.4573 47.5269 63.4573 47.547V49.7068H61.374C61.4888 49.5679 61.5532 49.3908 61.5532 49.2096C61.5532 48.7829 61.207 48.4367 60.7823 48.4367C60.3575 48.4367 60.0093 48.7829 60.0093 49.2096C60.0093 49.3908 60.0737 49.5659 60.1905 49.7068H58.1173V47.547C58.1173 47.5269 58.1052 47.5108 58.0871 47.5027C58.069 47.4967 58.0488 47.5027 58.0347 47.5148C57.9039 47.6597 57.7187 47.7423 57.5255 47.7423C57.1511 47.7423 56.8472 47.4383 56.8472 47.0639H56.8492Z" fill="#6747C7"/>
<path d="M63.5521 42.1023C63.5521 42.0822 63.54 42.0661 63.5219 42.0581C63.5038 42.05 63.4836 42.056 63.4696 42.0701C63.3387 42.2151 63.1535 42.2976 62.9603 42.2976C62.5859 42.2976 62.282 41.9936 62.282 41.6193C62.282 41.2449 62.5859 40.9429 62.9603 40.9429C63.1535 40.9429 63.3387 41.0255 63.4696 41.1704C63.4816 41.1845 63.5038 41.1905 63.5219 41.1825C63.54 41.1764 63.5521 41.1583 63.5521 41.1382V38.9321H65.6333C65.5186 39.069 65.4542 39.2441 65.4542 39.4273C65.4542 39.854 65.8004 40.2002 66.2271 40.2002C66.6538 40.2002 67.0001 39.854 67.0001 39.4273C67.0001 39.2441 66.9356 39.069 66.8209 38.9321H68.8881V41.1382C68.8881 41.1583 68.9002 41.1744 68.9183 41.1825C68.9364 41.1905 68.9565 41.1825 68.9706 41.1704C69.1014 41.0255 69.2866 40.9429 69.4799 40.9429C69.8542 40.9429 70.1582 41.2469 70.1582 41.6193C70.1582 41.9916 69.8542 42.2976 69.4799 42.2976C69.2866 42.2976 69.1014 42.2151 68.9706 42.0701C68.9585 42.056 68.9364 42.05 68.9183 42.0581C68.9002 42.0641 68.8881 42.0822 68.8881 42.1023V44.2722H66.8189C66.9356 44.1333 66.998 43.9602 66.998 43.775C66.998 43.3503 66.6518 43.0041 66.2251 43.0041C65.7984 43.0041 65.4522 43.3503 65.4522 43.775C65.4522 43.9602 65.5146 44.1333 65.6313 44.2722H63.5501V42.1023H63.5521Z" fill="#6747C7"/>
<path d="M62.8173 25.4664L64.9972 25.7019L64.7738 27.7631C64.649 27.6322 64.4799 27.5497 64.2988 27.5296C63.874 27.4833 63.4936 27.7912 63.4473 28.216C63.401 28.6407 63.709 29.0211 64.1337 29.0674C64.3149 29.0875 64.496 29.0412 64.647 28.9386L64.4236 31.0098L62.2437 30.7743C62.2235 30.7722 62.2054 30.7823 62.1974 30.8004C62.1893 30.8185 62.1913 30.8387 62.2034 30.8528C62.3322 30.9977 62.3946 31.1909 62.3725 31.3841C62.3322 31.7565 61.9981 32.0262 61.6277 31.986C61.2554 31.9457 60.9856 31.6096 61.0259 31.2392C61.046 31.048 61.1487 30.8729 61.3077 30.7582C61.3238 30.7461 61.3298 30.726 61.3258 30.7078C61.3198 30.6897 61.3057 30.6756 61.2856 30.6736L59.1157 30.4401L59.3391 28.3689C59.466 28.4998 59.633 28.5843 59.8142 28.6044C60.2389 28.6507 60.6193 28.3428 60.6656 27.9181C60.7119 27.4933 60.4039 27.1129 59.9792 27.0666C59.7981 27.0465 59.6149 27.0928 59.466 27.1934L59.6894 25.1323L61.8592 25.3658C61.8793 25.3678 61.8974 25.3577 61.9055 25.3396C61.9136 25.3215 61.9115 25.3014 61.8995 25.2873C61.7666 25.1383 61.7062 24.9491 61.7264 24.7559C61.7666 24.3855 62.1007 24.1158 62.4731 24.1561C62.8435 24.1963 63.1132 24.5305 63.0729 24.9008C63.0528 25.0961 62.9522 25.2672 62.7932 25.3839C62.7771 25.396 62.771 25.4161 62.775 25.4342C62.7811 25.4523 62.7952 25.4664 62.8153 25.4684L62.8173 25.4664Z" fill="#6747C7"/>
<path d="M60.3013 44.2722H58.1194V42.2131C58.2583 42.3278 58.4334 42.3922 58.6166 42.3922C59.0433 42.3922 59.3895 42.046 59.3895 41.6193C59.3895 41.1926 59.0433 40.8484 58.6166 40.8484C58.4334 40.8484 58.2583 40.9128 58.1194 41.0295V38.9342H60.3013C60.3214 38.9342 60.3375 38.9221 60.3456 38.904C60.3516 38.8859 60.3476 38.8657 60.3335 38.8516C60.1886 38.7188 60.106 38.5336 60.106 38.3424C60.106 37.968 60.41 37.6641 60.7844 37.6641C61.1588 37.6641 61.4607 37.968 61.4607 38.3424C61.4607 38.5356 61.3782 38.7208 61.2352 38.8516C61.2212 38.8637 61.2151 38.8859 61.2232 38.904C61.2312 38.9221 61.2473 38.9342 61.2675 38.9342H63.4594V41.0295C63.3205 40.9148 63.1454 40.8484 62.9622 40.8484C62.5355 40.8484 62.1893 41.1946 62.1893 41.6193C62.1893 42.044 62.5355 42.3922 62.9622 42.3922C63.1454 42.3922 63.3205 42.3278 63.4594 42.2131V44.2722H61.2675C61.2473 44.2722 61.2312 44.2843 61.2232 44.3024C61.2151 44.3205 61.2212 44.3406 61.2352 44.3547C61.3782 44.4855 61.4607 44.6707 61.4607 44.864C61.4607 45.2383 61.1567 45.5423 60.7844 45.5423C60.412 45.5423 60.106 45.2383 60.106 44.864C60.106 44.6727 60.1886 44.4876 60.3335 44.3547C60.3476 44.3406 60.3536 44.3205 60.3456 44.3024C60.3375 44.2843 60.3214 44.2722 60.3013 44.2722Z" fill="#6747C7"/>
<path d="M72.5976 19.3715C72.5775 19.3715 72.5593 19.3795 72.5513 19.3976C72.5432 19.4157 72.5452 19.4359 72.5593 19.45C72.6942 19.5969 72.7606 19.7841 72.7425 19.9773C72.7103 20.3497 72.3822 20.6254 72.0098 20.5932C71.6375 20.561 71.3597 20.2329 71.3919 19.8606C71.408 19.6653 71.5046 19.4922 71.6636 19.3735C71.6797 19.3614 71.6858 19.3413 71.6797 19.3231C71.6737 19.305 71.6576 19.2909 71.6395 19.2889L69.4395 19.0977L69.6206 17.0003C69.7494 17.1271 69.9205 17.2056 70.0997 17.2218C70.5244 17.258 70.8988 16.944 70.937 16.5213C70.9732 16.0966 70.6572 15.7222 70.2325 15.684C70.0514 15.6678 69.8702 15.7182 69.7213 15.8208L69.7655 15.3015C71.3456 15.7886 72.668 16.3965 73.769 17.0929C73.8697 17.3647 74.1173 17.57 74.4272 17.5961C74.4534 17.5982 74.4816 17.5961 74.5078 17.5961C74.6426 17.6948 74.7734 17.7954 74.9003 17.8961L74.7573 19.5586L72.5956 19.3715H72.5976Z" fill="#6747C7"/>
<path d="M53.9569 47.0642C53.9569 46.6394 53.6107 46.2932 53.1839 46.2932C53.0028 46.2932 52.8257 46.3576 52.6868 46.4724V44.367H54.8606C54.8807 44.367 54.8969 44.3549 54.9049 44.3368C54.9109 44.3187 54.9049 44.2985 54.8928 44.2844C54.7439 44.1536 54.6634 43.9724 54.6634 43.7752C54.6634 43.4028 54.9673 43.0989 55.3417 43.0989C55.7161 43.0989 56.02 43.4028 56.02 43.7752C56.02 43.9704 55.9375 44.1516 55.7885 44.2844C55.7744 44.2965 55.7684 44.3187 55.7765 44.3368C55.7825 44.3549 55.8006 44.367 55.8207 44.367H58.0268V46.4724C57.8879 46.3576 57.7108 46.2932 57.5296 46.2932C57.1029 46.2932 56.7567 46.6394 56.7567 47.0642C56.7567 47.4889 57.1029 47.8371 57.5296 47.8371C57.7128 47.8371 57.8879 47.7727 58.0268 47.6579V49.707H55.8207C55.8006 49.707 55.7845 49.7191 55.7765 49.7372C55.7704 49.7553 55.7765 49.7754 55.7885 49.7895C55.9355 49.9204 56.02 50.1055 56.02 50.2988C56.02 50.6732 55.7161 50.9771 55.3417 50.9771C54.9673 50.9771 54.6634 50.6732 54.6634 50.2988C54.6634 50.1035 54.7479 49.9183 54.8928 49.7895C54.9069 49.7774 54.913 49.7553 54.9049 49.7372C54.8989 49.7191 54.8807 49.707 54.8606 49.707H52.6868V47.6579C52.8257 47.7727 53.0028 47.8371 53.1839 47.8371C53.6107 47.8371 53.9569 47.4909 53.9569 47.0642Z" fill="#6747C7"/>
<path d="M52.5921 46.581C52.5921 46.6011 52.6042 46.6172 52.6223 46.6253C52.6404 46.6333 52.6605 46.6273 52.6746 46.6132C52.8054 46.4703 52.9906 46.3878 53.1839 46.3878C53.5582 46.3878 53.8622 46.6917 53.8622 47.0641C53.8622 47.4365 53.5582 47.7424 53.1839 47.7424C52.9906 47.7424 52.8054 47.6599 52.6746 47.5149C52.6605 47.5009 52.6404 47.4948 52.6223 47.5029C52.6042 47.5089 52.5921 47.527 52.5921 47.5472V49.7069H52.5538C52.5458 47.525 52.3163 45.6491 52.105 44.3689H52.5941V46.585L52.5921 46.581Z" fill="#6747C7"/>
<path d="M67.4227 17.9425C67.4408 17.9485 67.4609 17.9445 67.475 17.9304C67.6058 17.7855 67.791 17.7029 67.9843 17.7029C68.3586 17.7029 68.6626 18.0069 68.6626 18.3813C68.6626 18.7556 68.3586 19.0576 67.9843 19.0576C67.791 19.0576 67.6058 18.975 67.475 18.8321C67.4609 18.818 67.4408 18.812 67.4227 18.8201C67.4046 18.8261 67.3925 18.8442 67.3925 18.8643V21.0805H65.3233C65.438 20.9416 65.5044 20.7665 65.5044 20.5833C65.5044 20.1566 65.1582 19.8104 64.7315 19.8104C64.3048 19.8104 63.9586 20.1566 63.9586 20.5833C63.9586 20.7665 64.023 20.9416 64.1377 21.0805H62.0565V18.8643C62.0565 18.8442 62.0444 18.8281 62.0263 18.8201C62.0082 18.812 61.988 18.818 61.9739 18.8321C61.8431 18.975 61.6579 19.0576 61.4647 19.0576C61.0903 19.0576 60.7864 18.7536 60.7864 18.3813C60.7864 18.0089 61.0903 17.7029 61.4647 17.7029C61.6579 17.7029 61.8431 17.7855 61.9739 17.9304C61.986 17.9445 62.0082 17.9505 62.0263 17.9425C62.0444 17.9364 62.0565 17.9183 62.0565 17.8982V16.6804C62.8012 16.6945 63.5117 16.7328 64.1901 16.7891C64.329 16.926 64.5202 17.0105 64.7315 17.0105C64.8865 17.0105 65.0314 16.9642 65.1522 16.8837C65.9473 16.9763 66.692 17.0971 67.3925 17.246V17.8982C67.3925 17.9183 67.4046 17.9344 67.4227 17.9425Z" fill="#6747C7"/>
<path d="M74.4153 20.9395C75.1298 21.4286 75.7417 21.968 76.2651 22.5437H74.4153V20.9395Z" fill="#6747C7"/>
<path d="M65.8528 18.2686C66.0661 18.2867 66.2755 18.3088 66.4808 18.331C66.4023 18.3632 66.3157 18.3813 66.2252 18.3813C66.0863 18.3813 65.9595 18.339 65.8528 18.2686Z" fill="#6747C7"/>
<path d="M31.707 33.89C31.8258 34.2986 32.2545 34.5361 32.6652 34.4173C33.0738 34.2986 33.3113 33.8698 33.1925 33.4592C33.1422 33.2841 33.0315 33.1332 32.8805 33.0325L34.9014 32.4468L35.5133 34.5542C35.5193 34.5723 35.5354 34.5864 35.5556 34.5884C35.5757 34.5904 35.5938 34.5804 35.6019 34.5623C35.6864 34.3851 35.8414 34.2523 36.0266 34.2C36.3869 34.0953 36.7633 34.3026 36.8679 34.6629C36.9726 35.0232 36.7653 35.3996 36.405 35.5043C36.2178 35.5586 36.0165 35.5304 35.8515 35.4258C35.8354 35.4157 35.8132 35.4157 35.7971 35.4278C35.781 35.4399 35.775 35.46 35.779 35.4781L36.3869 37.5755L34.366 38.1612C34.4385 37.9961 34.4505 37.809 34.4002 37.6338C34.2815 37.2252 33.8527 36.9877 33.4421 37.1065C33.1221 37.1991 32.9107 37.4829 32.8886 37.7969C32.7215 37.5714 32.5645 37.34 32.4236 37.1045C31.7413 35.9712 31.1696 34.8179 30.7188 33.6605L31.7433 33.3646C31.6688 33.5317 31.6567 33.7189 31.707 33.892V33.89Z" fill="#6747C7"/>
<path d="M34.8109 20.4887C34.8209 20.4726 34.8189 20.4504 34.8068 20.4363C34.6821 20.2813 34.6317 20.0881 34.6639 19.8969C34.7243 19.5285 35.0746 19.281 35.4449 19.3413C35.8133 19.4037 36.0649 19.752 36.0025 20.1203C35.9703 20.3135 35.8616 20.4786 35.6945 20.5853C35.6784 20.5953 35.6703 20.6155 35.6744 20.6336C35.6784 20.6517 35.6945 20.6678 35.7126 20.6698L37.8986 21.0341L37.5584 23.0772C37.4437 22.9403 37.2806 22.8477 37.0995 22.8175C36.6788 22.747 36.2802 23.0329 36.2098 23.4535C36.1393 23.8742 36.4252 24.2728 36.8458 24.3432C37.025 24.3734 37.2081 24.3372 37.3631 24.2446L37.021 26.2997L34.835 25.9354C34.8149 25.9313 34.7968 25.9414 34.7867 25.9575C34.7767 25.9736 34.7787 25.9958 34.7907 26.0098C34.9115 26.1608 34.9638 26.3581 34.9316 26.5493C34.8692 26.9176 34.519 27.1692 34.1507 27.1068C33.7823 27.0444 33.5307 26.6942 33.5931 26.3259C33.6253 26.1366 33.738 25.9676 33.9051 25.8609C33.9212 25.8508 33.9293 25.8307 33.9252 25.8126C33.9212 25.7945 33.9051 25.7784 33.887 25.7764L32.7175 25.5811C32.7719 24.8967 32.8604 24.2265 32.9832 23.5763C33.2207 23.4777 33.4039 23.2643 33.4502 22.9906C33.4905 22.7491 33.412 22.5176 33.259 22.3485C33.4401 21.6621 33.6615 21.0019 33.9232 20.3679L34.7626 20.5068C34.7827 20.5108 34.8008 20.5007 34.8109 20.4846V20.4887Z" fill="#6747C7"/>
<path d="M77.5493 28.0066C77.5432 28.0248 77.5493 28.0449 77.5613 28.059C77.7083 28.1878 77.7908 28.373 77.7908 28.5682C77.7908 28.9426 77.4869 29.2465 77.1125 29.2465C76.7381 29.2465 76.4341 28.9426 76.4341 28.5682C76.4341 28.375 76.5187 28.1898 76.6656 28.059C76.6797 28.0469 76.6858 28.0248 76.6777 28.0066C76.6717 27.9885 76.6536 27.9764 76.6334 27.9764H74.4153V25.8851C74.5542 25.9999 74.7293 26.0643 74.9125 26.0643C75.3392 26.0643 75.6854 25.7181 75.6854 25.2913C75.6854 24.8646 75.3392 24.5184 74.9125 24.5184C74.7293 24.5184 74.5542 24.5828 74.4153 24.6976V22.6384H76.3516C77.7666 24.2346 78.5054 26.1025 78.8495 27.9744H77.5935C77.5734 27.9744 77.5573 27.9865 77.5493 28.0046V28.0066Z" fill="#6747C7"/>
<path d="M74.3207 38.8417H72.2616C72.3783 38.7008 72.4427 38.5257 72.4427 38.3445C72.4427 37.9178 72.0965 37.5716 71.6718 37.5716C71.2471 37.5716 70.8989 37.9178 70.8989 38.3445C70.8989 38.5277 70.9633 38.7028 71.078 38.8417H68.9807V36.6578C68.9807 36.6376 68.9686 36.6195 68.9505 36.6135C68.9324 36.6074 68.9102 36.6135 68.8981 36.6276C68.7713 36.7745 68.5882 36.857 68.3929 36.857C68.0185 36.857 67.7146 36.5531 67.7146 36.1787C67.7146 35.8043 68.0185 35.5004 68.3929 35.5004C68.5862 35.5004 68.7713 35.5849 68.9002 35.7299C68.9122 35.7439 68.9344 35.75 68.9525 35.7419C68.9706 35.7359 68.9827 35.7178 68.9827 35.6976V33.5037H71.08C70.9653 33.6425 70.9009 33.8177 70.9009 34.0008C70.9009 34.4276 71.2471 34.7738 71.6738 34.7738C72.1005 34.7738 72.4447 34.4276 72.4447 34.0008C72.4447 33.8197 72.3803 33.6446 72.2636 33.5037H74.3227V35.6976C74.3227 35.7178 74.3348 35.7339 74.3529 35.7419C74.371 35.748 74.3911 35.7439 74.4052 35.7299C74.5361 35.5829 74.7213 35.4984 74.9145 35.4984C75.2889 35.4984 75.5928 35.8023 75.5928 36.1767C75.5928 36.5511 75.2889 36.855 74.9145 36.855C74.7192 36.855 74.5341 36.7705 74.4052 36.6256C74.3932 36.6115 74.371 36.6054 74.3529 36.6135C74.3348 36.6195 74.3227 36.6376 74.3227 36.6578V38.8417H74.3207Z" fill="#6747C7"/>
<path d="M40.5514 41.086C40.8875 40.9189 41.2941 41.0578 41.4612 41.3919C41.5477 41.565 41.5558 41.7683 41.4833 41.9495C41.4753 41.9676 41.4813 41.9877 41.4954 42.0018C41.5095 42.0159 41.5316 42.0179 41.5477 42.0099L43.5324 41.0256L44.4623 42.9016C44.2892 42.8593 44.104 42.8794 43.939 42.9599C43.5565 43.1491 43.3995 43.6121 43.5887 43.9925C43.7779 44.375 44.2429 44.532 44.6254 44.3407C44.7884 44.2602 44.9172 44.1254 44.9897 43.9603L45.9035 45.8041L45.4506 46.0275C44.8065 45.1398 44.3737 44.6447 44.3737 44.6447C44.3737 44.6447 41.9906 43.5296 40.2052 41.8851C40.1106 41.5731 40.2515 41.2309 40.5514 41.082V41.086Z" fill="#6747C7"/>
<path d="M70.2528 41.6215C70.2528 41.1968 69.9066 40.8506 69.4798 40.8506C69.2967 40.8506 69.1216 40.915 68.9827 41.0317V38.9364H71.1907C71.2109 38.9364 71.227 38.9243 71.235 38.9062C71.2411 38.888 71.237 38.8679 71.2229 38.8538C71.078 38.723 70.9955 38.5378 70.9955 38.3446C70.9955 37.9702 71.2994 37.6663 71.6738 37.6663C72.0482 37.6663 72.3501 37.9702 72.3501 38.3446C72.3501 38.5358 72.2676 38.721 72.1227 38.8538C72.1086 38.8659 72.1026 38.888 72.1106 38.9062C72.1166 38.9243 72.1348 38.9364 72.1549 38.9364H74.3247V41.0317C74.1858 40.917 74.0107 40.8506 73.8275 40.8506C73.4008 40.8506 73.0546 41.1968 73.0546 41.6215C73.0546 42.0462 73.4008 42.3944 73.8275 42.3944C74.0107 42.3944 74.1858 42.33 74.3247 42.2153V44.2744H72.1549C72.1348 44.2744 72.1187 44.2865 72.1106 44.3046C72.1046 44.3227 72.1086 44.3428 72.1227 44.3569C72.2676 44.4897 72.3501 44.6749 72.3501 44.8661C72.3501 45.2405 72.0462 45.5445 71.6738 45.5445C71.3014 45.5445 70.9955 45.2405 70.9955 44.8661C70.9955 44.6729 71.078 44.4877 71.2229 44.3569C71.237 44.3448 71.2431 44.3227 71.235 44.3046C71.229 44.2865 71.2109 44.2744 71.1907 44.2744H68.9827V42.2153C69.1216 42.33 69.2967 42.3944 69.4798 42.3944C69.9066 42.3944 70.2528 42.0482 70.2528 41.6215Z" fill="#6747C7"/>
<path d="M77.8874 32.912C77.8874 32.4852 77.5412 32.139 77.1145 32.139C76.6878 32.139 76.3416 32.4852 76.3416 32.912C76.3416 33.0931 76.408 33.2702 76.5247 33.4091H74.4173V31.2131C74.4173 31.193 74.4052 31.1769 74.3871 31.1688C74.369 31.1608 74.3489 31.1688 74.3348 31.1809C74.204 31.3279 74.0168 31.4124 73.8255 31.4124C73.4512 31.4124 73.1472 31.1085 73.1472 30.7341C73.1472 30.3597 73.4512 30.0558 73.8255 30.0558C74.0208 30.0558 74.206 30.1403 74.3348 30.2852C74.3469 30.2993 74.369 30.3053 74.3871 30.2973C74.4052 30.2913 74.4173 30.2731 74.4173 30.253V28.0691H76.5247C76.408 28.21 76.3416 28.3851 76.3416 28.5663C76.3416 28.993 76.6878 29.3392 77.1145 29.3392C77.5412 29.3392 77.8874 28.993 77.8874 28.5663C77.8874 28.3831 77.823 28.208 77.7063 28.0691H78.8697C79.1998 29.937 79.1414 31.8049 78.9703 33.4071H77.7063C77.823 33.2682 77.8874 33.0931 77.8874 32.9099V32.912Z" fill="#6747C7"/>
<path opacity="0.7" d="M65.6716 62.8848C64.7296 59.5254 67.6804 53.7707 67.6804 53.7707C67.6804 53.7707 73.0184 55.7574 75.2204 54.8758C76.2248 54.4752 76.6817 50.9487 76.8971 50.0993C77.0078 49.6666 78.2155 48.9963 78.3705 48.6441C78.6322 48.0462 77.7667 47.1364 77.7667 47.1364C77.7667 47.1364 78.9562 46.3494 79.1072 46.0314C79.4514 45.3068 78.5718 45.4276 78.9401 43.1832C78.9401 43.1832 81.7541 42.513 81.7541 41.3737C81.7541 41.3737 78.1853 38.4551 78.6724 35.5426C78.7711 34.9427 78.8777 34.2564 78.9583 33.5096H77.4889L77.6278 33.3445C77.7304 33.2218 77.7868 33.0688 77.7868 32.9118C77.7868 32.5414 77.4849 32.2395 77.1145 32.2395C76.7441 32.2395 76.4422 32.5414 76.4422 32.9118C76.4422 33.0668 76.4986 33.2218 76.6012 33.3445L76.7381 33.5096H74.4213V35.5727C74.5622 35.46 74.7353 35.3976 74.9125 35.3976C75.3432 35.3976 75.6914 35.7479 75.6914 36.1766C75.6914 36.6053 75.3432 36.9556 74.9125 36.9556C74.7333 36.9556 74.5602 36.8932 74.4213 36.7825V41.2449L74.2563 41.108C74.1355 41.0074 73.9825 40.951 73.8235 40.951C73.4532 40.951 73.1512 41.2509 73.1512 41.6213C73.1512 41.9917 73.4532 42.2936 73.8235 42.2936C73.9825 42.2936 74.1355 42.2372 74.2563 42.1366L74.4213 41.9997V44.3728H72.2757C72.3884 44.5117 72.4488 44.6848 72.4488 44.864C72.4488 45.2927 72.1005 45.6429 71.6738 45.6429C71.2471 45.6429 70.8928 45.2927 70.8928 44.864C70.8928 44.6848 70.9552 44.5117 71.066 44.3728H66.6055L66.7424 44.2078C66.845 44.085 66.8994 43.936 66.8994 43.775C66.8994 43.4047 66.5975 43.1047 66.2271 43.1047C65.8568 43.1047 65.5548 43.4047 65.5548 43.775C65.5548 43.936 65.6092 44.085 65.7118 44.2078L65.8487 44.3728H63.5581V46.4581C63.697 46.3494 63.8701 46.287 64.0492 46.287C64.478 46.287 64.8262 46.6353 64.8262 47.064C64.8262 47.4927 64.478 47.8429 64.0492 47.8429C63.8701 47.8429 63.697 47.7806 63.5581 47.6698V49.8055H61.1628L61.2977 49.6404C61.3983 49.5196 61.4527 49.3646 61.4527 49.2076C61.4527 48.8373 61.1528 48.5354 60.7844 48.5354C60.4161 48.5354 60.1121 48.8373 60.1121 49.2076C60.1121 49.3646 60.1665 49.5176 60.2691 49.6404L60.406 49.8055H55.9436C56.0563 49.9443 56.1187 50.1174 56.1187 50.2966C56.1187 50.7253 55.7705 51.0756 55.3397 51.0756C54.909 51.0756 54.5608 50.7253 54.5608 50.2966C54.5608 50.1174 54.6232 49.9443 54.7359 49.8055H52.554C52.558 53.5815 51.8978 58.2593 49.3757 62.3756C45.344 64.7406 43.7197 69.7123 43.5325 73.0415H75.4398C75.317 72.4639 74.3187 69.2272 67.1128 65.268C66.3962 64.3783 65.8547 63.543 65.6716 62.8848Z" fill="white"/>
<path opacity="0.7" d="M67.6621 10.3419C67.8876 10.7043 68.3646 10.817 68.7269 10.5915C68.8819 10.4949 68.9966 10.348 69.053 10.1789L70.154 11.9562L68.3022 13.1056C68.2861 13.1156 68.2781 13.1357 68.2801 13.1539C68.2841 13.174 68.2982 13.1881 68.3183 13.1921C68.5095 13.2263 68.6786 13.339 68.7813 13.5041C68.9785 13.8221 68.8799 14.2408 68.5619 14.438C68.2438 14.6353 67.8252 14.5367 67.6279 14.2186C67.5253 14.0536 67.4991 13.8523 67.5534 13.6651C67.5595 13.647 67.5534 13.6269 67.5373 13.6148C67.5212 13.6027 67.5011 13.6027 67.483 13.6128L65.6191 14.7682L64.5161 12.9908C64.6952 13.015 64.8784 12.9787 65.0334 12.8821C65.3937 12.6587 65.5044 12.1817 65.281 11.8194C65.0555 11.457 64.5805 11.3443 64.2182 11.5678C64.0632 11.6644 63.9485 11.8113 63.8901 11.9824L62.8052 10.2332L64.6691 9.07788C64.6852 9.06782 64.6932 9.04769 64.6912 9.02958C64.6872 9.00945 64.6731 8.99536 64.653 8.99133C64.4617 8.95711 64.2927 8.84238 64.19 8.67934C63.9927 8.36132 64.0914 7.94265 64.4094 7.74539C64.7274 7.54813 65.1461 7.64676 65.3434 7.96479C65.446 8.12984 65.4722 8.33113 65.4178 8.51832C65.4118 8.53643 65.4178 8.55656 65.4339 8.56864C65.45 8.58072 65.4702 8.58072 65.4883 8.57065L67.3401 7.42334L68.425 9.17249C68.2479 9.14632 68.0647 9.18456 67.9097 9.28118C67.5474 9.50662 67.4347 9.98366 67.6601 10.346L67.6621 10.3419Z" fill="white"/>
<path opacity="0.7" d="M74.3205 27.9745H72.2614C72.3781 27.8336 72.4425 27.6605 72.4425 27.4773C72.4425 27.0526 72.0963 26.7064 71.6716 26.7064C71.2469 26.7064 70.8987 27.0526 70.8987 27.4773C70.8987 27.6625 70.9611 27.8356 71.0779 27.9745H68.9805V25.7725C68.9805 25.7523 68.9684 25.7362 68.9503 25.7282C68.9322 25.7221 68.9121 25.7282 68.898 25.7403C68.7712 25.8852 68.586 25.9677 68.3907 25.9677C68.0163 25.9677 67.7124 25.6638 67.7124 25.2894C67.7124 24.915 68.0163 24.6111 68.3907 24.6111C68.586 24.6111 68.7691 24.6936 68.898 24.8385C68.91 24.8526 68.9322 24.8586 68.9503 24.8506C68.9684 24.8445 68.9805 24.8264 68.9805 24.8063V22.6365H71.0779C70.9611 22.7754 70.8987 22.9485 70.8987 23.1336C70.8987 23.5584 71.2449 23.9046 71.6716 23.9046C72.0984 23.9046 72.4425 23.5584 72.4425 23.1336C72.4425 22.9505 72.3781 22.7774 72.2614 22.6365H74.3205V24.8063C74.3205 24.8264 74.3326 24.8425 74.3507 24.8506C74.3688 24.8566 74.389 24.8526 74.403 24.8385C74.5339 24.6936 74.7191 24.6111 74.9123 24.6111C75.2867 24.6111 75.5906 24.915 75.5906 25.2894C75.5906 25.6638 75.2867 25.9677 74.9123 25.9677C74.7191 25.9677 74.5319 25.8852 74.403 25.7403C74.391 25.7262 74.3688 25.7201 74.3507 25.7282C74.3326 25.7342 74.3205 25.7523 74.3205 25.7725V27.9745Z" fill="white"/>
<path opacity="0.7" d="M49.2912 25.0517C49.2771 25.0396 49.255 25.0356 49.2389 25.0456C49.0658 25.1342 48.8625 25.1463 48.6813 25.0758C48.3331 24.939 48.16 24.5444 48.2969 24.1962C48.4338 23.848 48.8283 23.6749 49.1765 23.8118C49.3556 23.8822 49.4986 24.0271 49.567 24.2123C49.573 24.2304 49.5911 24.2425 49.6113 24.2425C49.6314 24.2425 49.6475 24.2304 49.6556 24.2123L50.4587 22.1572L52.399 22.9161C52.24 23.0046 52.1132 23.1435 52.0488 23.3126C51.8938 23.7091 52.0911 24.158 52.4876 24.313C52.8841 24.468 53.333 24.2707 53.488 23.8742C53.5544 23.7031 53.5584 23.5159 53.5001 23.3448L55.4304 24.0996L54.6272 26.1547C54.6192 26.1728 54.6252 26.1929 54.6393 26.207C54.6534 26.2211 54.6755 26.2231 54.6916 26.2131C54.8648 26.1225 55.0681 26.1124 55.2472 26.1829C55.5954 26.3198 55.7685 26.7143 55.6316 27.0625C55.4948 27.4107 55.1003 27.5838 54.752 27.4469C54.5709 27.3765 54.428 27.2316 54.3636 27.0484C54.3575 27.0303 54.3394 27.0182 54.3193 27.0162C54.2991 27.0162 54.281 27.0283 54.275 27.0464L53.484 29.0713L51.5537 28.3165C51.7127 28.2299 51.8375 28.089 51.9039 27.92C52.0589 27.5234 51.8616 27.0746 51.4651 26.9196C51.0686 26.7646 50.6197 26.9618 50.4647 27.3584C50.3983 27.5275 50.3963 27.7146 50.4546 27.8877L48.5143 27.1289L49.3053 25.104C49.3134 25.0859 49.3073 25.0658 49.2932 25.0517H49.2912Z" fill="white"/>
<path opacity="0.8" d="M63.4875 36.6135C63.4694 36.6195 63.4573 36.6376 63.4573 36.6578V38.8417H61.374C61.4888 38.7028 61.5532 38.5257 61.5532 38.3445C61.5532 37.9178 61.207 37.5716 60.7823 37.5716C60.3575 37.5716 60.0093 37.9178 60.0093 38.3445C60.0093 38.5257 60.0737 38.7008 60.1905 38.8417H58.1173V36.6578C58.1173 36.6376 58.1052 36.6215 58.0871 36.6135C58.069 36.6074 58.0488 36.6135 58.0347 36.6256C57.9059 36.7725 57.7207 36.855 57.5255 36.855C57.1511 36.855 56.8472 36.5511 56.8472 36.1767C56.8472 35.8023 57.1511 35.4984 57.5255 35.4984C57.7167 35.4984 57.9039 35.5829 58.0347 35.7299C58.0468 35.7439 58.069 35.75 58.0871 35.7419C58.1052 35.7359 58.1173 35.7178 58.1173 35.6976V33.5037H60.1885C60.0717 33.6446 60.0073 33.8197 60.0073 34.0008C60.0073 34.4276 60.3535 34.7738 60.7802 34.7738C61.207 34.7738 61.5512 34.4276 61.5512 34.0008C61.5512 33.8197 61.4867 33.6425 61.372 33.5037H63.4553V35.6976C63.4553 35.7178 63.4674 35.7339 63.4855 35.7419C63.5036 35.748 63.5237 35.7439 63.5378 35.7299C63.6686 35.5829 63.8538 35.4984 64.0471 35.4984C64.4194 35.4984 64.7234 35.8023 64.7234 36.1767C64.7234 36.5511 64.4194 36.855 64.0471 36.855C63.8518 36.855 63.6666 36.7705 63.5378 36.6256C63.5257 36.6115 63.5036 36.6054 63.4855 36.6135H63.4875Z" fill="white"/>
<path opacity="0.8" d="M53.973 15.0259C53.9529 15.0259 53.9368 15.0379 53.9287 15.0581L53.192 17.1152L51.2315 16.4127C51.3865 16.3201 51.5053 16.1752 51.5677 16.0041C51.7106 15.6035 51.5033 15.1607 51.1027 15.0158C50.7022 14.8729 50.2573 15.0822 50.1144 15.4828C50.054 15.6539 50.056 15.8411 50.1164 16.0121L48.166 15.3137L48.9027 13.2566C48.9087 13.2385 48.9027 13.2183 48.8886 13.2042C48.8725 13.1922 48.8524 13.1902 48.8342 13.1982C48.6632 13.2928 48.4599 13.3089 48.2767 13.2425C47.9244 13.1157 47.7413 12.7272 47.8661 12.375C47.9929 12.0227 48.3814 11.8395 48.7336 11.9643C48.9148 12.0288 49.0617 12.1717 49.1362 12.3528C49.1442 12.3709 49.1623 12.383 49.1805 12.383C49.2006 12.383 49.2167 12.3709 49.2247 12.3528L49.9655 10.2856L51.9159 10.9841C51.7589 11.0767 51.6381 11.2216 51.5777 11.3907C51.4348 11.7912 51.6442 12.2361 52.0447 12.379C52.4453 12.5219 52.8861 12.3126 53.031 11.912C53.0914 11.7409 53.0914 11.5537 53.031 11.3846L54.9915 12.0871L54.2508 14.1543C54.2447 14.1724 54.2508 14.1925 54.2649 14.2066C54.2789 14.2207 54.3011 14.2207 54.3172 14.2127C54.4903 14.1181 54.6936 14.102 54.8747 14.1664C55.225 14.2912 55.4081 14.6817 55.2813 15.0339C55.1545 15.3862 54.7661 15.5713 54.4158 15.4445C54.2327 15.3781 54.0857 15.2372 54.0153 15.056C54.0072 15.0379 53.9911 15.0259 53.971 15.0259H53.973Z" fill="white"/>
<path opacity="0.8" d="M56.8492 47.0639C56.8492 46.6916 57.1531 46.3876 57.5275 46.3876C57.7207 46.3876 57.9059 46.4702 58.0368 46.6131C58.0508 46.6272 58.071 46.6332 58.0891 46.6252C58.1072 46.6191 58.1193 46.601 58.1193 46.5809V44.3647H60.1905C60.0737 44.5056 60.0093 44.6808 60.0093 44.8619C60.0093 45.2886 60.3555 45.6348 60.7823 45.6348C61.209 45.6348 61.5532 45.2886 61.5532 44.8619C61.5532 44.6808 61.4888 44.5036 61.374 44.3647H63.4573V46.5809C63.4573 46.601 63.4694 46.6171 63.4875 46.6252C63.5056 46.6332 63.5257 46.6272 63.5398 46.6131C63.6707 46.4702 63.8558 46.3876 64.0491 46.3876C64.4214 46.3876 64.7254 46.6916 64.7254 47.0639C64.7254 47.4363 64.4214 47.7423 64.0491 47.7423C63.8558 47.7423 63.6707 47.6597 63.5398 47.5148C63.5277 47.5007 63.5056 47.4947 63.4875 47.5027C63.4694 47.5088 63.4573 47.5269 63.4573 47.547V49.7068H61.374C61.4888 49.5679 61.5532 49.3908 61.5532 49.2096C61.5532 48.7829 61.207 48.4367 60.7823 48.4367C60.3575 48.4367 60.0093 48.7829 60.0093 49.2096C60.0093 49.3908 60.0737 49.5659 60.1905 49.7068H58.1173V47.547C58.1173 47.5269 58.1052 47.5108 58.0871 47.5027C58.069 47.4967 58.0488 47.5027 58.0347 47.5148C57.9039 47.6597 57.7187 47.7423 57.5255 47.7423C57.1511 47.7423 56.8472 47.4383 56.8472 47.0639H56.8492Z" fill="white"/>
<path opacity="0.8" d="M63.5521 42.1023C63.5521 42.0822 63.54 42.0661 63.5219 42.0581C63.5038 42.05 63.4836 42.056 63.4696 42.0701C63.3387 42.2151 63.1535 42.2976 62.9603 42.2976C62.5859 42.2976 62.282 41.9936 62.282 41.6193C62.282 41.2449 62.5859 40.9429 62.9603 40.9429C63.1535 40.9429 63.3387 41.0255 63.4696 41.1704C63.4816 41.1845 63.5038 41.1905 63.5219 41.1825C63.54 41.1764 63.5521 41.1583 63.5521 41.1382V38.9321H65.6333C65.5186 39.069 65.4542 39.2441 65.4542 39.4273C65.4542 39.854 65.8004 40.2002 66.2271 40.2002C66.6538 40.2002 67.0001 39.854 67.0001 39.4273C67.0001 39.2441 66.9356 39.069 66.8209 38.9321H68.8881V41.1382C68.8881 41.1583 68.9002 41.1744 68.9183 41.1825C68.9364 41.1905 68.9565 41.1825 68.9706 41.1704C69.1014 41.0255 69.2866 40.9429 69.4799 40.9429C69.8542 40.9429 70.1582 41.2469 70.1582 41.6193C70.1582 41.9916 69.8542 42.2976 69.4799 42.2976C69.2866 42.2976 69.1014 42.2151 68.9706 42.0701C68.9585 42.056 68.9364 42.05 68.9183 42.0581C68.9002 42.0641 68.8881 42.0822 68.8881 42.1023V44.2722H66.8189C66.9356 44.1333 66.998 43.9602 66.998 43.775C66.998 43.3503 66.6518 43.0041 66.2251 43.0041C65.7984 43.0041 65.4522 43.3503 65.4522 43.775C65.4522 43.9602 65.5146 44.1333 65.6313 44.2722H63.5501V42.1023H63.5521Z" fill="white"/>
<path opacity="0.8" d="M62.8173 25.4664L64.9972 25.7019L64.7738 27.7631C64.649 27.6322 64.4799 27.5497 64.2988 27.5296C63.874 27.4833 63.4936 27.7912 63.4473 28.216C63.401 28.6407 63.709 29.0211 64.1337 29.0674C64.3149 29.0875 64.496 29.0412 64.647 28.9386L64.4236 31.0098L62.2437 30.7743C62.2235 30.7722 62.2054 30.7823 62.1974 30.8004C62.1893 30.8185 62.1913 30.8387 62.2034 30.8528C62.3322 30.9977 62.3946 31.1909 62.3725 31.3841C62.3322 31.7565 61.9981 32.0262 61.6277 31.986C61.2554 31.9457 60.9856 31.6096 61.0259 31.2392C61.046 31.048 61.1487 30.8729 61.3077 30.7582C61.3238 30.7461 61.3298 30.726 61.3258 30.7078C61.3198 30.6897 61.3057 30.6756 61.2856 30.6736L59.1157 30.4401L59.3391 28.3689C59.466 28.4998 59.633 28.5843 59.8142 28.6044C60.2389 28.6507 60.6193 28.3428 60.6656 27.9181C60.7119 27.4933 60.4039 27.1129 59.9792 27.0666C59.7981 27.0465 59.6149 27.0928 59.466 27.1934L59.6894 25.1323L61.8592 25.3658C61.8793 25.3678 61.8974 25.3577 61.9055 25.3396C61.9136 25.3215 61.9115 25.3014 61.8995 25.2873C61.7666 25.1383 61.7062 24.9491 61.7264 24.7559C61.7666 24.3855 62.1007 24.1158 62.4731 24.1561C62.8435 24.1963 63.1132 24.5305 63.0729 24.9008C63.0528 25.0961 62.9522 25.2672 62.7932 25.3839C62.7771 25.396 62.771 25.4161 62.775 25.4342C62.7811 25.4523 62.7952 25.4664 62.8153 25.4684L62.8173 25.4664Z" fill="white"/>
<path d="M46.1188 30.2286L48.2987 30.4641L48.0753 32.5253C47.9505 32.3944 47.7814 32.3119 47.6003 32.2918C47.1756 32.2455 46.7951 32.5535 46.7488 32.9782C46.7025 33.4029 47.0105 33.7833 47.4352 33.8296C47.6164 33.8497 47.7975 33.8034 47.9485 33.7008L47.7251 35.772L45.5452 35.5365C45.525 35.5345 45.5069 35.5445 45.4989 35.5626C45.4908 35.5807 45.4928 35.6009 45.5049 35.615C45.6337 35.7599 45.6961 35.9531 45.674 36.1464C45.6337 36.5187 45.2996 36.7884 44.9292 36.7482C44.5569 36.7079 44.2872 36.3718 44.3274 36.0014C44.3475 35.8102 44.4502 35.6351 44.6092 35.5204C44.6253 35.5083 44.6313 35.4882 44.6273 35.47C44.6213 35.4519 44.6072 35.4378 44.5871 35.4358L42.4172 35.2023L42.6407 33.1311C42.7675 33.262 42.9345 33.3465 43.1157 33.3666C43.5404 33.4129 43.9208 33.105 43.9671 32.6803C44.0134 32.2556 43.7054 31.8751 43.2807 31.8288C43.0996 31.8087 42.9164 31.855 42.7675 31.9556L42.9909 29.8945L45.1607 30.128C45.1809 30.13 45.199 30.1199 45.207 30.1018C45.2151 30.0837 45.2131 30.0636 45.201 30.0495C45.0681 29.9005 45.0077 29.7113 45.0279 29.5181C45.0681 29.1477 45.4023 28.878 45.7746 28.9183C46.145 28.9585 46.4147 29.2927 46.3745 29.663C46.3543 29.8583 46.2537 30.0294 46.0947 30.1461C46.0786 30.1582 46.0725 30.1783 46.0766 30.1964C46.0826 30.2145 46.0967 30.2286 46.1168 30.2307L46.1188 30.2286Z" fill="#6747C7"/>
<path opacity="0.8" d="M46.1188 30.2286L48.2987 30.4641L48.0753 32.5253C47.9505 32.3944 47.7814 32.3119 47.6003 32.2918C47.1756 32.2455 46.7951 32.5535 46.7488 32.9782C46.7025 33.4029 47.0105 33.7833 47.4352 33.8296C47.6164 33.8497 47.7975 33.8034 47.9485 33.7008L47.7251 35.772L45.5452 35.5365C45.525 35.5345 45.5069 35.5445 45.4989 35.5626C45.4908 35.5807 45.4928 35.6009 45.5049 35.615C45.6337 35.7599 45.6961 35.9531 45.674 36.1464C45.6337 36.5187 45.2996 36.7884 44.9292 36.7482C44.5569 36.7079 44.2872 36.3718 44.3274 36.0014C44.3475 35.8102 44.4502 35.6351 44.6092 35.5204C44.6253 35.5083 44.6313 35.4882 44.6273 35.47C44.6213 35.4519 44.6072 35.4378 44.5871 35.4358L42.4172 35.2023L42.6407 33.1311C42.7675 33.262 42.9345 33.3465 43.1157 33.3666C43.5404 33.4129 43.9208 33.105 43.9671 32.6803C44.0134 32.2556 43.7054 31.8751 43.2807 31.8288C43.0996 31.8087 42.9164 31.855 42.7675 31.9556L42.9909 29.8945L45.1607 30.128C45.1809 30.13 45.199 30.1199 45.207 30.1018C45.2151 30.0837 45.2131 30.0636 45.201 30.0495C45.0681 29.9005 45.0077 29.7113 45.0279 29.5181C45.0681 29.1477 45.4023 28.878 45.7746 28.9183C46.145 28.9585 46.4147 29.2927 46.3745 29.663C46.3543 29.8583 46.2537 30.0294 46.0947 30.1461C46.0786 30.1582 46.0725 30.1783 46.0766 30.1964C46.0826 30.2145 46.0967 30.2286 46.1168 30.2307L46.1188 30.2286Z" fill="white"/>
<path opacity="0.7" d="M60.3013 44.2722H58.1194V42.2131C58.2583 42.3278 58.4334 42.3922 58.6166 42.3922C59.0433 42.3922 59.3895 42.046 59.3895 41.6193C59.3895 41.1926 59.0433 40.8484 58.6166 40.8484C58.4334 40.8484 58.2583 40.9128 58.1194 41.0295V38.9342H60.3013C60.3214 38.9342 60.3375 38.9221 60.3456 38.904C60.3516 38.8859 60.3476 38.8657 60.3335 38.8516C60.1886 38.7188 60.106 38.5336 60.106 38.3424C60.106 37.968 60.41 37.6641 60.7844 37.6641C61.1588 37.6641 61.4607 37.968 61.4607 38.3424C61.4607 38.5356 61.3782 38.7208 61.2352 38.8516C61.2212 38.8637 61.2151 38.8859 61.2232 38.904C61.2312 38.9221 61.2473 38.9342 61.2675 38.9342H63.4594V41.0295C63.3205 40.9148 63.1454 40.8484 62.9622 40.8484C62.5355 40.8484 62.1893 41.1946 62.1893 41.6193C62.1893 42.044 62.5355 42.3922 62.9622 42.3922C63.1454 42.3922 63.3205 42.3278 63.4594 42.2131V44.2722H61.2675C61.2473 44.2722 61.2312 44.2843 61.2232 44.3024C61.2151 44.3205 61.2212 44.3406 61.2352 44.3547C61.3782 44.4855 61.4607 44.6707 61.4607 44.864C61.4607 45.2383 61.1567 45.5423 60.7844 45.5423C60.412 45.5423 60.106 45.2383 60.106 44.864C60.106 44.6727 60.1886 44.4876 60.3335 44.3547C60.3476 44.3406 60.3536 44.3205 60.3456 44.3024C60.3375 44.2843 60.3214 44.2722 60.3013 44.2722Z" fill="white"/>
<path opacity="0.8" d="M72.5976 19.3715C72.5775 19.3715 72.5593 19.3795 72.5513 19.3976C72.5432 19.4157 72.5452 19.4359 72.5593 19.45C72.6942 19.5969 72.7606 19.7841 72.7425 19.9773C72.7103 20.3497 72.3822 20.6254 72.0098 20.5932C71.6375 20.561 71.3597 20.2329 71.3919 19.8606C71.408 19.6653 71.5046 19.4922 71.6636 19.3735C71.6797 19.3614 71.6858 19.3413 71.6797 19.3231C71.6737 19.305 71.6576 19.2909 71.6395 19.2889L69.4395 19.0977L69.6206 17.0003C69.7494 17.1271 69.9205 17.2056 70.0997 17.2218C70.5244 17.258 70.8988 16.944 70.937 16.5213C70.9732 16.0966 70.6572 15.7222 70.2325 15.684C70.0514 15.6678 69.8702 15.7182 69.7213 15.8208L69.7655 15.3015C71.3456 15.7886 72.668 16.3965 73.769 17.0929C73.8697 17.3647 74.1173 17.57 74.4272 17.5961C74.4534 17.5982 74.4816 17.5961 74.5078 17.5961C74.6426 17.6948 74.7734 17.7954 74.9003 17.8961L74.7573 19.5586L72.5956 19.3715H72.5976Z" fill="white"/>
<path opacity="0.7" d="M53.9569 47.0642C53.9569 46.6394 53.6107 46.2932 53.1839 46.2932C53.0028 46.2932 52.8257 46.3576 52.6868 46.4724V44.367H54.8606C54.8807 44.367 54.8969 44.3549 54.9049 44.3368C54.9109 44.3187 54.9049 44.2985 54.8928 44.2844C54.7439 44.1536 54.6634 43.9724 54.6634 43.7752C54.6634 43.4028 54.9673 43.0989 55.3417 43.0989C55.7161 43.0989 56.02 43.4028 56.02 43.7752C56.02 43.9704 55.9375 44.1516 55.7885 44.2844C55.7744 44.2965 55.7684 44.3187 55.7765 44.3368C55.7825 44.3549 55.8006 44.367 55.8207 44.367H58.0268V46.4724C57.8879 46.3576 57.7108 46.2932 57.5296 46.2932C57.1029 46.2932 56.7567 46.6394 56.7567 47.0642C56.7567 47.4889 57.1029 47.8371 57.5296 47.8371C57.7128 47.8371 57.8879 47.7727 58.0268 47.6579V49.707H55.8207C55.8006 49.707 55.7845 49.7191 55.7765 49.7372C55.7704 49.7553 55.7765 49.7754 55.7885 49.7895C55.9355 49.9204 56.02 50.1055 56.02 50.2988C56.02 50.6732 55.7161 50.9771 55.3417 50.9771C54.9673 50.9771 54.6634 50.6732 54.6634 50.2988C54.6634 50.1035 54.7479 49.9183 54.8928 49.7895C54.9069 49.7774 54.913 49.7553 54.9049 49.7372C54.8989 49.7191 54.8807 49.707 54.8606 49.707H52.6868V47.6579C52.8257 47.7727 53.0028 47.8371 53.1839 47.8371C53.6107 47.8371 53.9569 47.4909 53.9569 47.0642Z" fill="white"/>
<path opacity="0.7" d="M52.5921 46.581C52.5921 46.6011 52.6042 46.6172 52.6223 46.6253C52.6404 46.6333 52.6605 46.6273 52.6746 46.6132C52.8054 46.4703 52.9906 46.3878 53.1839 46.3878C53.5582 46.3878 53.8622 46.6917 53.8622 47.0641C53.8622 47.4365 53.5582 47.7424 53.1839 47.7424C52.9906 47.7424 52.8054 47.6599 52.6746 47.5149C52.6605 47.5009 52.6404 47.4948 52.6223 47.5029C52.6042 47.5089 52.5921 47.527 52.5921 47.5472V49.7069H52.5538C52.5458 47.525 52.3163 45.6491 52.105 44.3689H52.5941V46.585L52.5921 46.581Z" fill="white"/>
<path opacity="0.7" d="M67.4227 17.9425C67.4408 17.9485 67.4609 17.9445 67.475 17.9304C67.6058 17.7855 67.791 17.7029 67.9843 17.7029C68.3586 17.7029 68.6626 18.0069 68.6626 18.3813C68.6626 18.7556 68.3586 19.0576 67.9843 19.0576C67.791 19.0576 67.6058 18.975 67.475 18.8321C67.4609 18.818 67.4408 18.812 67.4227 18.8201C67.4046 18.8261 67.3925 18.8442 67.3925 18.8643V21.0805H65.3233C65.438 20.9416 65.5044 20.7665 65.5044 20.5833C65.5044 20.1566 65.1582 19.8104 64.7315 19.8104C64.3048 19.8104 63.9586 20.1566 63.9586 20.5833C63.9586 20.7665 64.023 20.9416 64.1377 21.0805H62.0565V18.8643C62.0565 18.8442 62.0444 18.8281 62.0263 18.8201C62.0082 18.812 61.988 18.818 61.9739 18.8321C61.8431 18.975 61.6579 19.0576 61.4647 19.0576C61.0903 19.0576 60.7864 18.7536 60.7864 18.3813C60.7864 18.0089 61.0903 17.7029 61.4647 17.7029C61.6579 17.7029 61.8431 17.7855 61.9739 17.9304C61.986 17.9445 62.0082 17.9505 62.0263 17.9425C62.0444 17.9364 62.0565 17.9183 62.0565 17.8982V16.6804C62.8012 16.6945 63.5117 16.7328 64.1901 16.7891C64.329 16.926 64.5202 17.0105 64.7315 17.0105C64.8865 17.0105 65.0314 16.9642 65.1522 16.8837C65.9473 16.9763 66.692 17.0971 67.3925 17.246V17.8982C67.3925 17.9183 67.4046 17.9344 67.4227 17.9425Z" fill="white"/>
<path opacity="0.8" d="M74.4153 20.9395C75.1298 21.4286 75.7417 21.968 76.2651 22.5437H74.4153V20.9395Z" fill="white"/>
<path opacity="0.7" d="M31.707 33.89C31.8258 34.2986 32.2545 34.5361 32.6652 34.4173C33.0738 34.2986 33.3113 33.8698 33.1925 33.4592C33.1422 33.2841 33.0315 33.1332 32.8805 33.0325L34.9014 32.4468L35.5133 34.5542C35.5193 34.5723 35.5354 34.5864 35.5556 34.5884C35.5757 34.5904 35.5938 34.5804 35.6019 34.5623C35.6864 34.3851 35.8414 34.2523 36.0266 34.2C36.3869 34.0953 36.7633 34.3026 36.8679 34.6629C36.9726 35.0232 36.7653 35.3996 36.405 35.5043C36.2178 35.5586 36.0165 35.5304 35.8515 35.4258C35.8354 35.4157 35.8132 35.4157 35.7971 35.4278C35.781 35.4399 35.775 35.46 35.779 35.4781L36.3869 37.5755L34.366 38.1612C34.4385 37.9961 34.4505 37.809 34.4002 37.6338C34.2815 37.2252 33.8527 36.9877 33.4421 37.1065C33.1221 37.1991 32.9107 37.4829 32.8886 37.7969C32.7215 37.5714 32.5645 37.34 32.4236 37.1045C31.7413 35.9712 31.1696 34.8179 30.7188 33.6605L31.7433 33.3646C31.6688 33.5317 31.6567 33.7189 31.707 33.892V33.89Z" fill="white"/>
<path opacity="0.8" d="M34.8109 20.4887C34.8209 20.4726 34.8189 20.4504 34.8068 20.4363C34.6821 20.2813 34.6317 20.0881 34.6639 19.8969C34.7243 19.5285 35.0746 19.281 35.4449 19.3413C35.8133 19.4037 36.0649 19.752 36.0025 20.1203C35.9703 20.3135 35.8616 20.4786 35.6945 20.5853C35.6784 20.5953 35.6703 20.6155 35.6744 20.6336C35.6784 20.6517 35.6945 20.6678 35.7126 20.6698L37.8986 21.0341L37.5584 23.0772C37.4437 22.9403 37.2806 22.8477 37.0995 22.8175C36.6788 22.747 36.2802 23.0329 36.2098 23.4535C36.1393 23.8742 36.4252 24.2728 36.8458 24.3432C37.025 24.3734 37.2081 24.3372 37.3631 24.2446L37.021 26.2997L34.835 25.9354C34.8149 25.9313 34.7968 25.9414 34.7867 25.9575C34.7767 25.9736 34.7787 25.9958 34.7907 26.0098C34.9115 26.1608 34.9638 26.3581 34.9316 26.5493C34.8692 26.9176 34.519 27.1692 34.1507 27.1068C33.7823 27.0444 33.5307 26.6942 33.5931 26.3259C33.6253 26.1366 33.738 25.9676 33.9051 25.8609C33.9212 25.8508 33.9293 25.8307 33.9252 25.8126C33.9212 25.7945 33.9051 25.7784 33.887 25.7764L32.7175 25.5811C32.7719 24.8967 32.8604 24.2265 32.9832 23.5763C33.2207 23.4777 33.4039 23.2643 33.4502 22.9906C33.4905 22.7491 33.412 22.5176 33.259 22.3485C33.4401 21.6621 33.6615 21.0019 33.9232 20.3679L34.7626 20.5068C34.7827 20.5108 34.8008 20.5007 34.8109 20.4846V20.4887Z" fill="white"/>
<path opacity="0.7" d="M77.5493 28.0066C77.5432 28.0248 77.5493 28.0449 77.5613 28.059C77.7083 28.1878 77.7908 28.373 77.7908 28.5682C77.7908 28.9426 77.4869 29.2465 77.1125 29.2465C76.7381 29.2465 76.4341 28.9426 76.4341 28.5682C76.4341 28.375 76.5187 28.1898 76.6656 28.059C76.6797 28.0469 76.6858 28.0248 76.6777 28.0066C76.6717 27.9885 76.6536 27.9764 76.6334 27.9764H74.4153V25.8851C74.5542 25.9999 74.7293 26.0643 74.9125 26.0643C75.3392 26.0643 75.6854 25.7181 75.6854 25.2913C75.6854 24.8646 75.3392 24.5184 74.9125 24.5184C74.7293 24.5184 74.5542 24.5828 74.4153 24.6976V22.6384H76.3516C77.7666 24.2346 78.5054 26.1025 78.8495 27.9744H77.5935C77.5734 27.9744 77.5573 27.9865 77.5493 28.0046V28.0066Z" fill="white"/>
<path opacity="0.7" d="M74.3207 38.8417H72.2616C72.3783 38.7008 72.4427 38.5257 72.4427 38.3445C72.4427 37.9178 72.0965 37.5716 71.6718 37.5716C71.2471 37.5716 70.8989 37.9178 70.8989 38.3445C70.8989 38.5277 70.9633 38.7028 71.078 38.8417H68.9807V36.6578C68.9807 36.6376 68.9686 36.6195 68.9505 36.6135C68.9324 36.6074 68.9102 36.6135 68.8981 36.6276C68.7713 36.7745 68.5882 36.857 68.3929 36.857C68.0185 36.857 67.7146 36.5531 67.7146 36.1787C67.7146 35.8043 68.0185 35.5004 68.3929 35.5004C68.5862 35.5004 68.7713 35.5849 68.9002 35.7299C68.9122 35.7439 68.9344 35.75 68.9525 35.7419C68.9706 35.7359 68.9827 35.7178 68.9827 35.6976V33.5037H71.08C70.9653 33.6425 70.9009 33.8177 70.9009 34.0008C70.9009 34.4276 71.2471 34.7738 71.6738 34.7738C72.1005 34.7738 72.4447 34.4276 72.4447 34.0008C72.4447 33.8197 72.3803 33.6446 72.2636 33.5037H74.3227V35.6976C74.3227 35.7178 74.3348 35.7339 74.3529 35.7419C74.371 35.748 74.3911 35.7439 74.4052 35.7299C74.5361 35.5829 74.7213 35.4984 74.9145 35.4984C75.2889 35.4984 75.5928 35.8023 75.5928 36.1767C75.5928 36.5511 75.2889 36.855 74.9145 36.855C74.7192 36.855 74.5341 36.7705 74.4052 36.6256C74.3932 36.6115 74.371 36.6054 74.3529 36.6135C74.3348 36.6195 74.3227 36.6376 74.3227 36.6578V38.8417H74.3207Z" fill="white"/>
<path opacity="0.7" d="M40.5514 41.086C40.8875 40.9189 41.2941 41.0578 41.4612 41.3919C41.5477 41.565 41.5558 41.7683 41.4833 41.9495C41.4753 41.9676 41.4813 41.9877 41.4954 42.0018C41.5095 42.0159 41.5316 42.0179 41.5477 42.0099L43.5324 41.0256L44.4623 42.9016C44.2892 42.8593 44.104 42.8794 43.939 42.9599C43.5565 43.1491 43.3995 43.6121 43.5887 43.9925C43.7779 44.375 44.2429 44.532 44.6254 44.3407C44.7884 44.2602 44.9172 44.1254 44.9897 43.9603L45.9035 45.8041L45.4506 46.0275C44.8065 45.1398 44.3737 44.6447 44.3737 44.6447C44.3737 44.6447 41.9906 43.5296 40.2052 41.8851C40.1106 41.5731 40.2515 41.2309 40.5514 41.082V41.086Z" fill="white"/>
<path opacity="0.7" d="M70.2528 41.6215C70.2528 41.1968 69.9066 40.8506 69.4798 40.8506C69.2967 40.8506 69.1216 40.915 68.9827 41.0317V38.9364H71.1907C71.2109 38.9364 71.227 38.9243 71.235 38.9062C71.2411 38.888 71.237 38.8679 71.2229 38.8538C71.078 38.723 70.9955 38.5378 70.9955 38.3446C70.9955 37.9702 71.2994 37.6663 71.6738 37.6663C72.0482 37.6663 72.3501 37.9702 72.3501 38.3446C72.3501 38.5358 72.2676 38.721 72.1227 38.8538C72.1086 38.8659 72.1026 38.888 72.1106 38.9062C72.1166 38.9243 72.1348 38.9364 72.1549 38.9364H74.3247V41.0317C74.1858 40.917 74.0107 40.8506 73.8275 40.8506C73.4008 40.8506 73.0546 41.1968 73.0546 41.6215C73.0546 42.0462 73.4008 42.3944 73.8275 42.3944C74.0107 42.3944 74.1858 42.33 74.3247 42.2153V44.2744H72.1549C72.1348 44.2744 72.1187 44.2865 72.1106 44.3046C72.1046 44.3227 72.1086 44.3428 72.1227 44.3569C72.2676 44.4897 72.3501 44.6749 72.3501 44.8661C72.3501 45.2405 72.0462 45.5445 71.6738 45.5445C71.3014 45.5445 70.9955 45.2405 70.9955 44.8661C70.9955 44.6729 71.078 44.4877 71.2229 44.3569C71.237 44.3448 71.2431 44.3227 71.235 44.3046C71.229 44.2865 71.2109 44.2744 71.1907 44.2744H68.9827V42.2153C69.1216 42.33 69.2967 42.3944 69.4798 42.3944C69.9066 42.3944 70.2528 42.0482 70.2528 41.6215Z" fill="white"/>
<path opacity="0.8" d="M77.8874 32.912C77.8874 32.4852 77.5412 32.139 77.1145 32.139C76.6878 32.139 76.3416 32.4852 76.3416 32.912C76.3416 33.0931 76.408 33.2702 76.5247 33.4091H74.4173V31.2131C74.4173 31.193 74.4052 31.1769 74.3871 31.1688C74.369 31.1608 74.3489 31.1688 74.3348 31.1809C74.204 31.3279 74.0168 31.4124 73.8255 31.4124C73.4512 31.4124 73.1472 31.1085 73.1472 30.7341C73.1472 30.3597 73.4512 30.0558 73.8255 30.0558C74.0208 30.0558 74.206 30.1403 74.3348 30.2852C74.3469 30.2993 74.369 30.3053 74.3871 30.2973C74.4052 30.2913 74.4173 30.2731 74.4173 30.253V28.0691H76.5247C76.408 28.21 76.3416 28.3851 76.3416 28.5663C76.3416 28.993 76.6878 29.3392 77.1145 29.3392C77.5412 29.3392 77.8874 28.993 77.8874 28.5663C77.8874 28.3831 77.823 28.208 77.7063 28.0691H78.8697C79.1998 29.937 79.1414 31.8049 78.9703 33.4071H77.7063C77.823 33.2682 77.8874 33.0931 77.8874 32.9099V32.912Z" fill="white"/>
<path opacity="0.7" d="M39.7523 9.09002C39.7483 9.10814 39.7543 9.12827 39.7704 9.14034L41.5619 10.3923L40.3682 12.0992C40.3199 11.9261 40.2112 11.7711 40.0623 11.6685C39.7121 11.4249 39.231 11.5094 38.9874 11.8577C38.7439 12.2079 38.8284 12.689 39.1787 12.9345C39.3276 13.0372 39.5088 13.0855 39.6899 13.0714L38.5024 14.7702L36.7109 13.5182C36.6948 13.5062 36.6727 13.5062 36.6566 13.5182C36.6405 13.5303 36.6324 13.5484 36.6365 13.5686C36.6828 13.7578 36.6445 13.9591 36.5338 14.1181C36.3184 14.424 35.8957 14.5005 35.5898 14.2851C35.2838 14.0698 35.2074 13.6471 35.4227 13.3391C35.5334 13.1821 35.7085 13.0774 35.9038 13.0533C35.9239 13.0513 35.94 13.0372 35.944 13.0171C35.9481 12.9989 35.942 12.9788 35.9259 12.9667L34.1265 11.7087L35.314 10.0099C35.3623 10.185 35.469 10.34 35.618 10.4426C35.9682 10.6862 36.4493 10.6017 36.6948 10.2514C36.9384 9.90321 36.8518 9.42214 36.5036 9.17657C36.3547 9.07191 36.1735 9.0236 35.9944 9.03769L37.188 7.33081L38.9874 8.58883C39.0036 8.60091 39.0257 8.60091 39.0418 8.58883C39.0579 8.57675 39.0659 8.55864 39.0619 8.53851C39.0176 8.34729 39.0539 8.14601 39.1646 7.98901C39.3779 7.68306 39.8006 7.60858 40.1086 7.82395C40.4145 8.03933 40.491 8.46202 40.2777 8.76596C40.167 8.92497 39.9918 9.02964 39.7966 9.05178C39.7765 9.05379 39.7604 9.06788 39.7563 9.08801L39.7523 9.09002Z" fill="white"/>
<path d="M78.467 58.0883C78.5093 58.3842 77.7062 58.5794 77.052 58.6881C77.1063 59.2255 77.4626 59.769 77.9558 60.2762C78.5777 59.926 79.4634 59.4631 79.6264 59.5778C79.8056 59.7006 78.8978 60.2883 78.3301 60.6325C78.7287 60.9868 79.1796 61.3169 79.6163 61.6067C79.8941 61.3471 80.2202 61.1176 80.4154 61.2424C80.6167 61.3712 80.5624 61.7738 80.4637 62.1321C81.1401 62.5266 81.6453 62.7661 81.6453 62.7661C81.6453 62.7661 81.9291 61.9066 82.0961 60.8479C82.0619 60.7815 82.0277 60.713 81.9975 60.6406C81.8888 60.389 81.9955 60.2823 82.1747 60.246C82.2209 59.7831 82.235 59.3061 82.1867 58.8632C81.4219 58.7022 80.4919 58.4063 80.8401 57.9474C81.0495 57.6716 81.4339 57.6394 81.8345 57.7079C81.7781 57.6153 81.7157 57.5287 81.6453 57.4502C80.2544 55.9165 79.2822 57.4502 79.2822 57.4502C78.4731 56.7759 77.3378 56.9591 77.0923 58.0118C77.5472 57.8951 78.4147 57.722 78.467 58.0883Z" fill="#6747C7"/>
<path opacity="0.3" d="M78.467 58.0883C78.5093 58.3842 77.7062 58.5794 77.052 58.6881C77.1063 59.2255 77.4626 59.769 77.9558 60.2762C78.5777 59.926 79.4634 59.4631 79.6264 59.5778C79.8056 59.7006 78.8978 60.2883 78.3301 60.6325C78.7287 60.9868 79.1796 61.3169 79.6163 61.6067C79.8941 61.3471 80.2202 61.1176 80.4154 61.2424C80.6167 61.3712 80.5624 61.7738 80.4637 62.1321C81.1401 62.5266 81.6453 62.7661 81.6453 62.7661C81.6453 62.7661 81.9291 61.9066 82.0961 60.8479C82.0619 60.7815 82.0277 60.713 81.9975 60.6406C81.8888 60.389 81.9955 60.2823 82.1747 60.246C82.2209 59.7831 82.235 59.3061 82.1867 58.8632C81.4219 58.7022 80.4919 58.4063 80.8401 57.9474C81.0495 57.6716 81.4339 57.6394 81.8345 57.7079C81.7781 57.6153 81.7157 57.5287 81.6453 57.4502C80.2544 55.9165 79.2822 57.4502 79.2822 57.4502C78.4731 56.7759 77.3378 56.9591 77.0923 58.0118C77.5472 57.8951 78.4147 57.722 78.467 58.0883Z" fill="black"/>
<path d="M80.2019 69.358L80.0007 69.3419C80.0087 69.2392 80.8239 58.9698 78.5212 58.0036C78.2737 57.8989 78.0442 57.905 77.8228 58.0217C76.9895 58.4545 76.5909 60.2519 76.5869 60.2701L76.3896 60.2278C76.4058 60.1493 76.8123 58.3196 77.7282 57.8426C78.0039 57.6997 78.2958 57.6916 78.5977 57.8184C81.0353 58.843 80.2362 68.9313 80.1999 69.36L80.2019 69.358Z" fill="#6747C7"/>
<path d="M80.4938 69.1346C80.4535 68.6737 79.5115 57.8084 81.2707 56.6551C81.6934 56.3793 82.0678 56.3189 82.3878 56.482C83.2191 56.9006 83.3278 58.678 83.3318 58.7524L83.1306 58.7645C83.1306 58.7464 83.0239 57.0274 82.2972 56.6611C82.0477 56.5363 81.7397 56.5886 81.3814 56.8241C79.7228 57.9131 80.685 69.0058 80.695 69.1165L80.4938 69.1346Z" fill="#6747C7"/>
<path d="M80.7575 70.0142C80.7434 69.66 80.4556 61.345 82.0558 60.6163C82.3718 60.4734 82.6939 60.4694 83.0079 60.6083C84.1069 61.0914 84.7852 63.1404 84.8134 63.227L84.6222 63.2894C84.6161 63.2692 83.9438 61.2403 82.9274 60.7935C82.6637 60.6767 82.406 60.6787 82.1383 60.7995C80.9105 61.3571 80.8703 67.6351 80.9568 70.0062L80.7555 70.0142H80.7575Z" fill="#6747C7"/>
<path d="M80.3488 69.6337L80.1495 69.6116C80.4313 67.1358 80.9708 60.5417 80.0892 59.7547C79.9583 59.638 79.8396 59.6018 79.7289 59.644C79.1391 59.8715 78.7788 62.0151 78.6902 62.8223L78.491 62.8001C78.5252 62.4902 78.8472 59.7668 79.6584 59.4548C79.8436 59.3844 80.0348 59.4327 80.226 59.6038C81.3653 60.6202 80.3931 69.2654 80.3508 69.6337H80.3488Z" fill="#6747C7"/>
<path d="M76.9915 64.9419H84.2215L83.6177 73.0415H77.5953L76.9915 64.9419Z" fill="#263238"/>
<path opacity="0.2" d="M79.1875 64.9419L79.3888 73.0415H83.6177L84.2216 64.9419H79.1875Z" fill="white"/>
<path d="M77.9759 61.969C77.9014 62.1663 77.3398 62.0113 76.897 61.8543C76.746 62.2045 76.7803 62.6614 76.9111 63.1425C77.4143 63.1405 78.1188 63.1586 78.1812 63.2834C78.2496 63.4203 77.4868 63.4706 77.0198 63.4887C77.1446 63.845 77.3076 64.2012 77.4787 64.5313C77.7404 64.4669 78.0181 64.4367 78.0966 64.5797C78.1772 64.7286 78.0061 64.9581 77.8209 65.1453C78.1027 65.6203 78.3322 65.9403 78.3322 65.9403C78.3322 65.9403 78.8011 65.5076 79.2681 64.9118C79.2701 64.8594 79.2721 64.8051 79.2782 64.7507C79.2983 64.5575 79.399 64.5293 79.5217 64.5676C79.7089 64.2979 79.88 64.008 80.0028 63.7182C79.5861 63.3579 79.1151 62.8547 79.4875 62.6916C79.7109 62.593 79.9605 62.7057 80.1819 62.8849C80.1799 62.8084 80.1699 62.7339 80.1538 62.6614C79.8216 61.2384 78.6965 61.8523 78.6965 61.8523C78.4288 61.1599 77.6659 60.8821 77.1526 61.4477C77.4727 61.5322 78.0685 61.7234 77.9759 61.967V61.969Z" fill="#6747C7"/>
<path opacity="0.3" d="M77.9759 61.969C77.9014 62.1663 77.3398 62.0113 76.897 61.8543C76.746 62.2045 76.7803 62.6614 76.9111 63.1425C77.4143 63.1405 78.1188 63.1586 78.1812 63.2834C78.2496 63.4203 77.4868 63.4706 77.0198 63.4887C77.1446 63.845 77.3076 64.2012 77.4787 64.5313C77.7404 64.4669 78.0181 64.4367 78.0966 64.5797C78.1772 64.7286 78.0061 64.9581 77.8209 65.1453C78.1027 65.6203 78.3322 65.9403 78.3322 65.9403C78.3322 65.9403 78.8011 65.5076 79.2681 64.9118C79.2701 64.8594 79.2721 64.8051 79.2782 64.7507C79.2983 64.5575 79.399 64.5293 79.5217 64.5676C79.7089 64.2979 79.88 64.008 80.0028 63.7182C79.5861 63.3579 79.1151 62.8547 79.4875 62.6916C79.7109 62.593 79.9605 62.7057 80.1819 62.8849C80.1799 62.8084 80.1699 62.7339 80.1538 62.6614C79.8216 61.2384 78.6965 61.8523 78.6965 61.8523C78.4288 61.1599 77.6659 60.8821 77.1526 61.4477C77.4727 61.5322 78.0685 61.7234 77.9759 61.967V61.969Z" fill="black"/>
<path d="M83.346 62.9311C83.1185 62.9472 82.8991 62.9995 82.6858 63.07C82.6294 62.917 82.5932 62.758 82.5891 62.5909C82.5428 61.1316 83.5875 61.7476 84.139 61.3188C84.4148 61.1055 84.7509 60.9686 85.0629 61.029C85.0166 61.1095 84.9743 61.192 84.9381 61.2786C84.8797 61.4175 84.9723 61.5644 85.1152 61.5906C85.2501 61.6167 85.4011 61.6046 85.5238 61.5422C85.5621 61.5221 85.5943 61.4939 85.6285 61.4698C85.705 61.6006 85.7734 61.7596 85.8298 61.9569C85.8861 62.1602 85.9143 62.3695 85.9244 62.5809C85.8419 62.599 85.7614 62.6211 85.6808 62.6493C85.556 62.6936 85.4876 62.8949 85.5903 62.9955C85.6788 63.0841 85.7815 63.1545 85.8922 63.2069C85.856 63.4464 85.7895 63.6758 85.709 63.8912C85.6849 63.8952 85.6587 63.8973 85.6345 63.9033C85.5822 63.9134 85.5299 63.9275 85.4775 63.9415C85.4474 63.9496 85.4192 63.9597 85.391 63.9737C85.3185 64.008 85.2662 64.0704 85.2541 64.1509C85.242 64.2314 85.2763 64.3119 85.3407 64.3622C85.3749 64.3884 85.4111 64.4085 85.4494 64.4286C85.2823 64.6923 85.0871 64.8996 84.8717 65.0124C84.8717 65.0124 84.606 64.8956 84.2578 64.6883C84.3021 64.6299 84.3443 64.5716 84.3846 64.5112C84.4329 64.4407 84.453 64.3662 84.447 64.2817C84.4409 64.1992 84.3906 64.1267 84.3282 64.0764C84.2698 64.0261 84.1752 64.0039 84.0988 64.014C84.0243 64.0241 83.9357 64.0683 83.8935 64.1328C83.8451 64.2052 83.7908 64.2737 83.7385 64.3421C83.4728 64.1408 83.2071 63.8993 82.9977 63.6235C83.0058 63.6215 83.0138 63.6195 83.0199 63.6175C83.1547 63.5833 83.2916 63.5591 83.4305 63.549C83.6036 63.537 83.7123 63.3618 83.6982 63.2008C83.6841 63.0277 83.513 62.921 83.35 62.9331L83.346 62.9311Z" fill="#6747C7"/>
<path d="M83.7628 57.901C83.8896 57.8104 84.0284 57.742 84.1714 57.6836C84.1331 57.5789 84.0828 57.4783 84.0124 57.3897C83.3964 56.6027 83.1187 57.3837 82.6396 57.4018C82.4021 57.4099 82.1646 57.4864 82.0277 57.6554C82.0881 57.6776 82.1465 57.7017 82.2028 57.7319C82.2954 57.7802 82.3095 57.897 82.2471 57.9735C82.1867 58.0459 82.1022 58.1063 82.0116 58.1285C81.9834 58.1345 81.9532 58.1345 81.925 58.1365C81.9412 58.2392 81.9754 58.3519 82.0337 58.4807C82.0941 58.6115 82.1706 58.7343 82.2572 58.849C82.3075 58.8229 82.3598 58.7987 82.4162 58.7786C82.5007 58.7464 82.6255 58.8229 82.6154 58.9215C82.6074 59.0081 82.5853 59.0886 82.551 59.1651C82.6758 59.2758 82.8107 59.3663 82.9476 59.4428C82.9617 59.4348 82.9757 59.4247 82.9918 59.4167C83.0241 59.3985 83.0583 59.3824 83.0925 59.3684C83.1126 59.3603 83.1327 59.3523 83.1529 59.3462C83.2052 59.3321 83.2616 59.3422 83.3018 59.3784C83.3421 59.4146 83.3622 59.473 83.3501 59.5274C83.3441 59.5555 83.332 59.5837 83.3219 59.6099C83.5252 59.6743 83.7205 59.6985 83.8815 59.6622C83.8815 59.6622 83.9701 59.4851 84.0627 59.2214C84.0144 59.2093 83.9661 59.1993 83.9177 59.1852C83.8614 59.1691 83.8191 59.1389 83.7849 59.0926C83.7527 59.0463 83.7467 58.9859 83.7567 58.9336C83.7668 58.8813 83.805 58.8289 83.8493 58.8007C83.8916 58.7726 83.96 58.7585 84.0083 58.7726C84.0647 58.7887 84.1231 58.8007 84.1814 58.8148C84.2338 58.5914 84.266 58.3478 84.2539 58.1123C84.2478 58.1144 84.2438 58.1164 84.2398 58.1184C84.1532 58.1586 84.0707 58.207 83.9942 58.2633C83.8976 58.3317 83.7648 58.2875 83.7004 58.1989C83.6319 58.1023 83.6762 57.9694 83.7648 57.905L83.7628 57.901Z" fill="#6747C7"/>
<path opacity="0.3" d="M83.7628 57.901C83.8896 57.8104 84.0284 57.742 84.1714 57.6836C84.1331 57.5789 84.0828 57.4783 84.0124 57.3897C83.3964 56.6027 83.1187 57.3837 82.6396 57.4018C82.4021 57.4099 82.1646 57.4864 82.0277 57.6554C82.0881 57.6776 82.1465 57.7017 82.2028 57.7319C82.2954 57.7802 82.3095 57.897 82.2471 57.9735C82.1867 58.0459 82.1022 58.1063 82.0116 58.1285C81.9834 58.1345 81.9532 58.1345 81.925 58.1365C81.9412 58.2392 81.9754 58.3519 82.0337 58.4807C82.0941 58.6115 82.1706 58.7343 82.2572 58.849C82.3075 58.8229 82.3598 58.7987 82.4162 58.7786C82.5007 58.7464 82.6255 58.8229 82.6154 58.9215C82.6074 59.0081 82.5853 59.0886 82.551 59.1651C82.6758 59.2758 82.8107 59.3663 82.9476 59.4428C82.9617 59.4348 82.9757 59.4247 82.9918 59.4167C83.0241 59.3985 83.0583 59.3824 83.0925 59.3684C83.1126 59.3603 83.1327 59.3523 83.1529 59.3462C83.2052 59.3321 83.2616 59.3422 83.3018 59.3784C83.3421 59.4146 83.3622 59.473 83.3501 59.5274C83.3441 59.5555 83.332 59.5837 83.3219 59.6099C83.5252 59.6743 83.7205 59.6985 83.8815 59.6622C83.8815 59.6622 83.9701 59.4851 84.0627 59.2214C84.0144 59.2093 83.9661 59.1993 83.9177 59.1852C83.8614 59.1691 83.8191 59.1389 83.7849 59.0926C83.7527 59.0463 83.7467 58.9859 83.7567 58.9336C83.7668 58.8813 83.805 58.8289 83.8493 58.8007C83.8916 58.7726 83.96 58.7585 84.0083 58.7726C84.0647 58.7887 84.1231 58.8007 84.1814 58.8148C84.2338 58.5914 84.266 58.3478 84.2539 58.1123C84.2478 58.1144 84.2438 58.1164 84.2398 58.1184C84.1532 58.1586 84.0707 58.207 83.9942 58.2633C83.8976 58.3317 83.7648 58.2875 83.7004 58.1989C83.6319 58.1023 83.6762 57.9694 83.7648 57.905L83.7628 57.901Z" fill="black"/>
<path d="M77.8712 59.3622C77.8289 59.6581 78.632 59.8534 79.2862 59.962C79.2318 60.4995 78.8756 61.0429 78.3824 61.5502C77.7605 61.1999 76.8748 60.737 76.7118 60.8517C76.5326 60.9745 77.4404 61.5622 78.008 61.9064C77.6095 62.2607 77.1586 62.5908 76.7218 62.8806C76.4441 62.621 76.118 62.3915 75.9227 62.5163C75.7215 62.6451 75.7758 63.0477 75.8744 63.406C75.1981 63.8005 74.6929 64.04 74.6929 64.04C74.6929 64.04 74.4091 63.1806 74.242 62.1218C74.2762 62.0554 74.3105 61.987 74.3407 61.9145C74.4493 61.6629 74.3427 61.5562 74.1635 61.52C74.1172 61.057 74.1031 60.58 74.1514 60.1372C74.9163 59.9761 75.8462 59.6803 75.498 59.2213C75.2887 58.9456 74.9042 58.9134 74.5037 58.9818C74.56 58.8892 74.6224 58.8027 74.6929 58.7242C76.0838 57.1904 77.056 58.7242 77.056 58.7242C77.8651 58.0499 79.0003 58.233 79.2459 59.2857C78.791 59.169 77.9235 58.9959 77.8712 59.3622Z" fill="#6747C7"/>
<path d="M61.0479 55.26H52.7249C51.9423 55.26 51.3079 55.8944 51.3079 56.677V70.4911C51.3079 71.2737 51.9423 71.9081 52.7249 71.9081H61.0479C61.8305 71.9081 62.465 71.2737 62.465 70.4911V56.677C62.465 55.8944 61.8305 55.26 61.0479 55.26Z" fill="#263238"/>
<path opacity="0.5" d="M61.0479 55.26H52.7249C51.9423 55.26 51.3079 55.8944 51.3079 56.677V70.4911C51.3079 71.2737 51.9423 71.9081 52.7249 71.9081H61.0479C61.8305 71.9081 62.465 71.2737 62.465 70.4911V56.677C62.465 55.8944 61.8305 55.26 61.0479 55.26Z" fill="white"/>
<path opacity="0.1" d="M60.1744 71.9081H52.7229C51.9399 71.9081 51.3059 71.2741 51.3059 70.4911V56.677C51.3059 55.894 51.9399 55.26 52.7229 55.26H60.1744C59.3934 55.26 58.7594 55.894 58.7594 56.677V70.4911C58.7594 71.2741 59.3934 71.9081 60.1744 71.9081Z" fill="black"/>
<path d="M36.9123 73.0413H60.7522V71.4753H36.9123V73.0413Z" fill="#263238"/>
<path opacity="0.2" d="M36.9123 73.0413H60.7522V71.4753H36.9123V73.0413Z" fill="white"/>
<path opacity="0.2" d="M47.2361 73.0413H60.7522V71.4753H47.2361V73.0413Z" fill="white"/>
<path d="M53.4999 62.5666H35.9058L33.2247 48.7204C32.9308 47.2067 34.0902 45.8018 35.632 45.8018H48.2283C49.4038 45.8018 50.4122 46.6351 50.6357 47.7884L53.4979 62.5666H53.4999Z" fill="#263238"/>
<path opacity="0.6" d="M53.4999 62.5666H35.9058L33.2247 48.7204C32.9308 47.2067 34.0902 45.8018 35.632 45.8018H48.2283C49.4038 45.8018 50.4122 46.6351 50.6357 47.7884L53.4979 62.5666H53.4999Z" fill="white"/>
<path opacity="0.1" d="M40.9036 62.5666H35.9077L33.2267 48.7204C32.9328 47.2067 34.0922 45.8018 35.634 45.8018C36.8095 45.8018 37.8179 46.6351 38.0413 47.7884L40.9036 62.5666Z" fill="black"/>
<path d="M61.3982 62.3955H36.4754C35.7928 62.3955 35.2395 62.9488 35.2395 63.6314V70.6702C35.2395 71.3528 35.7928 71.9061 36.4754 71.9061H61.3982C62.0808 71.9061 62.6341 71.3528 62.6341 70.6702V63.6314C62.6341 62.9488 62.0808 62.3955 61.3982 62.3955Z" fill="#263238"/>
<path opacity="0.6" d="M61.3982 62.3955H36.4754C35.7928 62.3955 35.2395 62.9488 35.2395 63.6314V70.6702C35.2395 71.3528 35.7928 71.9061 36.4754 71.9061H61.3982C62.0808 71.9061 62.6341 71.3528 62.6341 70.6702V63.6314C62.6341 62.9488 62.0808 62.3955 61.3982 62.3955Z" fill="white"/>
<path opacity="0.1" d="M47.1414 62.3955H36.4754C35.7928 62.3955 35.2395 62.9488 35.2395 63.6314V70.6702C35.2395 71.3528 35.7928 71.9061 36.4754 71.9061H47.1414C47.8239 71.9061 48.3772 71.3528 48.3772 70.6702V63.6314C48.3772 62.9488 47.8239 62.3955 47.1414 62.3955Z" fill="black"/>
<path d="M56.0724 45.8501C56.0583 46.1842 55.9959 46.6532 55.6437 47.1403C55.4766 47.3758 55.2451 47.5831 55.0157 47.72C54.7802 47.8649 54.5668 47.9394 54.3615 47.9978C54.279 48.0199 54.1985 48.034 54.1159 48.038L53.969 48.0441C53.6127 48.0602 53.3007 48.0481 53.0129 48.0179C52.7794 47.9978 52.56 47.9656 52.3426 47.9293C52.1031 47.8891 51.8716 47.8428 51.6422 47.7925C51.4167 47.7401 51.1953 47.6818 50.9759 47.6234C50.5371 47.5066 50.1144 47.3637 49.6958 47.2148C49.6837 47.2107 49.6716 47.2067 49.6595 47.2007C49.4643 47.1302 49.269 47.0558 49.0758 46.9752C48.8665 46.8907 48.6773 46.8062 48.4518 46.6995C47.5179 46.2607 47.1173 45.1476 47.5561 44.2136C47.9728 43.326 48.9993 42.9214 49.9031 43.2596L49.9453 43.2777L50.4727 43.477L51.0162 43.6863C51.3765 43.8292 51.7388 43.962 52.093 44.0969C52.2057 44.1372 52.3144 44.1754 52.4272 44.2157C52.4111 44.1754 52.395 44.1392 52.3809 44.0989C52.1876 43.6259 51.9642 43.1408 51.7347 42.6537L51.0363 41.1864L51.0242 41.1622C50.8008 40.6932 51.0001 40.1336 51.4691 39.9102C51.8233 39.7411 52.2339 39.8156 52.5077 40.0652C52.9525 40.4738 53.343 40.8885 53.7335 41.3293C54.1179 41.7721 54.4863 42.233 54.8365 42.7322C55.0096 42.9838 55.1747 43.2455 55.3377 43.5232C55.5007 43.803 55.6578 44.1009 55.7926 44.4512C55.861 44.6263 55.9255 44.8155 55.9798 45.0369C56.0321 45.2603 56.0784 45.5139 56.0724 45.8501Z" fill="#6747C7"/>
<path opacity="0.2" d="M53.0128 48.0179C52.7793 47.9978 52.5599 47.9656 52.3425 47.9294C52.103 47.8891 51.8715 47.8428 51.6421 47.7925C51.4166 47.7402 51.1952 47.6818 50.9758 47.6234C50.537 47.5067 50.1143 47.3638 49.6957 47.2148C49.6836 47.2108 49.6715 47.2068 49.6594 47.2007C49.9291 46.7217 50.2733 46.3433 50.6377 46.1782C50.6377 46.1782 51.9178 46.5667 53.0128 48.0179Z" fill="black"/>
<path d="M61.0723 68.9312L63.6265 69.1184L63.548 72.1376L61.4124 71.9866L61.0723 68.9312Z" fill="#E4897B"/>
<path opacity="0.2" d="M61.0723 68.9331L63.6286 69.1183L63.5823 70.8111L61.2635 70.644L61.0723 68.9331Z" fill="black"/>
<path d="M61.1104 73.0413H61.6659L61.8169 72.8139L62.1088 73.0413L65.4682 73.0353C65.5326 72.7011 65.3233 72.2664 65.3233 72.2664C65.3233 72.2664 64.3189 72.1778 63.9304 71.6766C63.9002 71.6384 63.8539 71.6162 63.8056 71.6283C63.4715 71.6988 62.143 71.9524 61.4103 71.6907C61.3318 71.6625 61.2473 71.7169 61.2473 71.8014C61.2392 72.3791 61.1084 73.0433 61.1084 73.0433L61.1104 73.0413Z" fill="#263238"/>
<path d="M47.0771 55.874C47.0771 55.874 43.2749 62.9652 47.7856 62.9652C53.4618 62.9652 58.8662 61.5361 58.8662 61.5361C58.8662 61.5361 58.5583 64.5634 60.7503 70.304L63.8158 70.2798C63.8158 70.2798 65.0094 57.9452 62.7228 55.874C60.8811 54.2074 54.3414 54.7428 54.3414 54.7428L47.0771 55.874Z" fill="#263238"/>
<path opacity="0.2" d="M59.5385 65.6342C59.5002 65.7831 59.462 65.9301 59.4217 66.073C58.7072 63.0839 58.8642 61.5341 58.8642 61.5341C58.8642 61.5341 53.4597 62.9632 47.7835 62.9632C45.0401 62.9632 45.3722 60.3405 46.0545 58.2854C47.9889 57.0575 50.0299 55.9444 51.4851 55.1856L54.3393 54.7408C54.3393 54.7408 55.5148 54.6442 57.0103 54.6603C59.2224 55.6486 61.348 58.3699 59.5385 65.6342Z" fill="black"/>
<path d="M54.1703 54.8393C50.8713 56.6629 42.4778 55.3405 40.9762 55.0849C40.789 52.6011 40.5374 49.4449 39.7464 46.5102C39.3881 45.1798 40.1993 43.807 41.5479 43.5232C43.7096 43.0703 46.5195 42.8549 48.6391 42.9314C49.4724 42.9616 50.3681 43.3662 50.6358 44.1572C51.8636 47.8005 53.812 50.7613 54.1703 54.8393Z" fill="#6747C7"/>
<path d="M46.5759 44.8356C45.1911 44.9061 43.9894 43.7265 43.3413 43.3179C44.0418 42.8288 44.3759 41.9512 44.5148 41.4641C44.5752 41.2487 44.5993 41.1099 44.5993 41.1099L46.9503 42.1565C46.8114 42.5188 46.7953 42.8248 46.8799 43.0985C47.1818 43.2072 47.4495 43.5454 47.53 43.7668C47.532 43.7728 47.534 43.7809 47.5381 43.7869C47.7112 44.264 47.9406 44.7652 46.5759 44.8356Z" fill="#E4897B"/>
<path opacity="0.2" d="M47.5382 43.7869C46.1372 44.3666 44.7665 42.6738 44.5149 41.4641C44.5753 41.2487 44.5994 41.1099 44.5994 41.1099L46.9504 42.1565C46.8115 42.5188 46.7954 42.8248 46.88 43.0985C47.1819 43.2072 47.4496 43.5454 47.5301 43.7668C47.5321 43.7728 47.5341 43.7809 47.5382 43.7869Z" fill="black"/>
<path d="M46.6585 44.8295L46.1372 44.3645L45.332 44.7671C45.332 44.7671 45.7749 45.2179 46.6605 44.8275L46.6585 44.8295Z" fill="#6747C7"/>
<path opacity="0.5" d="M46.6585 44.8295L46.1372 44.3645L45.332 44.7671C45.332 44.7671 45.7749 45.2179 46.6605 44.8275L46.6585 44.8295Z" fill="white"/>
<path d="M43.6754 42.9717C43.6754 42.9717 44.6678 44.3284 46.1371 44.3646C45.2354 44.7933 44.9938 45.7655 44.9938 45.7655C44.9938 45.7655 43.2105 45.2422 43.0615 43.2817C43.3131 42.9616 43.6774 42.9717 43.6774 42.9717H43.6754Z" fill="#6747C7"/>
<path d="M46.6584 44.8297L47.3629 44.2339L48.162 44.4613C48.162 44.4613 47.4676 45.1819 46.6584 44.8297Z" fill="#6747C7"/>
<path opacity="0.5" d="M46.6584 44.8297L47.3629 44.2339L48.162 44.4613C48.162 44.4613 47.4676 45.1819 46.6584 44.8297Z" fill="white"/>
<path d="M46.8779 43.0964C46.8779 43.0964 47.3852 43.7526 47.363 44.2337C48.0333 44.4148 48.2628 45.4232 48.2628 45.4232C48.2628 45.4232 48.5365 43.968 47.5321 43.2071C47.2865 43.038 46.8779 43.0964 46.8779 43.0964Z" fill="#6747C7"/>
<path opacity="0.8" d="M43.6754 42.9717C43.6754 42.9717 44.6678 44.3284 46.1371 44.3646C45.2354 44.7933 44.9938 45.7655 44.9938 45.7655C44.9938 45.7655 43.2105 45.2422 43.0615 43.2817C43.3131 42.9616 43.6774 42.9717 43.6774 42.9717H43.6754Z" fill="white"/>
<path opacity="0.8" d="M46.8779 43.0964C46.8779 43.0964 47.3852 43.7526 47.363 44.2337C48.0333 44.4148 48.2628 45.4232 48.2628 45.4232C48.2628 45.4232 48.5365 43.968 47.5321 43.2071C47.2865 43.038 46.8779 43.0964 46.8779 43.0964Z" fill="white"/>
<path d="M44.3377 37.8351C45.8896 36.3235 48.3835 37.346 49.0699 38.1572C49.7562 38.9683 49.3174 40.641 48.4036 41.2992C47.4898 41.9574 44.3357 37.8351 44.3357 37.8351H44.3377Z" fill="#263238"/>
<path opacity="0.4" d="M44.3377 37.8351C45.8896 36.3235 48.3835 37.346 49.0699 38.1572C49.7562 38.9683 49.3174 40.641 48.4036 41.2992C47.4898 41.9574 44.3357 37.8351 44.3357 37.8351H44.3377Z" fill="white"/>
<path d="M44.5108 39.1395C44.4545 40.7034 44.4524 41.7682 45.3441 42.5593C47.1174 44.1313 48.3473 43.4489 48.9008 41.9534C49.4 40.6068 49.408 38.276 47.8481 37.4426C46.3123 36.6214 44.5672 37.5755 44.5108 39.1395Z" fill="#E4897B"/>
<path d="M46.1372 38.0745C46.4472 38.6401 45.787 41.2407 45.1248 40.9992C44.4626 40.7556 43.8164 40.3913 43.8164 40.3913C43.8164 40.3913 43.4239 39.0205 44.2975 37.8853C45.1711 36.7501 46.1372 38.0745 46.1372 38.0745Z" fill="#263238"/>
<path d="M47.375 39.8378C47.3589 39.9726 47.4173 40.0914 47.5058 40.1014C47.5944 40.1115 47.6809 40.0088 47.697 39.874C47.7131 39.7391 47.6548 39.6204 47.5662 39.6103C47.4776 39.6002 47.3911 39.7029 47.375 39.8378Z" fill="#263238"/>
<path d="M48.772 40.045C48.7559 40.1799 48.8142 40.2986 48.9028 40.3087C48.9914 40.3188 49.0779 40.2161 49.094 40.0813C49.1101 39.9464 49.0517 39.8276 48.9632 39.8176C48.8746 39.8075 48.7881 39.9102 48.772 40.045Z" fill="#263238"/>
<path d="M48.293 40.0955L48.144 41.2347C48.144 41.2347 48.3332 41.3032 48.5426 41.3011C48.6634 41.3011 48.7298 41.1562 48.6553 41.0616C48.3997 40.7275 48.293 40.0955 48.293 40.0955Z" fill="#DE5753"/>
<path d="M46.9322 39.242C46.9201 39.238 46.9081 39.23 46.898 39.2199C46.8698 39.1857 46.8738 39.1354 46.906 39.1072C47.2442 38.8153 47.6025 38.9119 47.6166 38.916C47.6588 38.928 47.683 38.9723 47.6709 39.0146C47.6588 39.0569 47.6146 39.081 47.5723 39.0689C47.5602 39.0649 47.2804 38.9924 47.0107 39.2259C46.9886 39.2461 46.9564 39.2501 46.9302 39.242H46.9322Z" fill="#263238"/>
<path d="M48.6774 39.1614C48.7036 39.1634 48.7278 39.1795 48.7398 39.2036C48.9049 39.5156 49.1927 39.5458 49.2048 39.5478C49.2491 39.5519 49.2813 39.5901 49.2773 39.6344C49.2732 39.6787 49.235 39.7109 49.1907 39.7069C49.1746 39.7069 48.8063 39.6706 48.5989 39.2801C48.5788 39.2419 48.5929 39.1916 48.6332 39.1714C48.6472 39.1634 48.6633 39.1614 48.6795 39.1614H48.6774Z" fill="#263238"/>
<path d="M46.9585 41.3936C46.9585 41.3936 47.9709 41.2567 48.1441 42.0176" stroke="#263238" stroke-width="0.75" stroke-linecap="round" stroke-linejoin="round"/>
<path opacity="0.4" d="M46.1372 38.0745C46.4472 38.6401 45.787 41.2407 45.1248 40.9992C44.4626 40.7556 43.8164 40.3913 43.8164 40.3913C43.8164 40.3913 43.4239 39.0205 44.2975 37.8853C45.1711 36.7501 46.1372 38.0745 46.1372 38.0745Z" fill="white"/>
<path d="M43.6815 40.7315C43.8707 41.1421 44.233 41.4259 44.5853 41.5467C45.1146 41.7298 45.4186 41.2629 45.3018 40.7476C45.1972 40.2826 44.7966 39.6264 44.2511 39.6687C43.7117 39.7089 43.4661 40.2645 43.6815 40.7335V40.7315Z" fill="#E4897B"/>
<path d="M45.7809 38.2155C45.7628 38.2155 45.7467 38.2054 45.7366 38.1893C45.7246 38.1671 45.7306 38.139 45.7507 38.1229C45.7628 38.1148 46.6444 37.513 47.6609 37.5714C47.1476 37.4687 46.4089 37.4727 45.5273 37.9196C45.5052 37.9296 45.479 37.9256 45.4649 37.9055C45.4508 37.8874 45.4508 37.8592 45.4669 37.8411C45.475 37.833 46.0688 37.1829 47.0872 37.1829H47.0893C46.6424 37.1104 46.0225 37.1265 45.4247 37.5291C45.4025 37.5452 45.3703 37.5391 45.3542 37.515C45.3381 37.4929 45.3441 37.4606 45.3683 37.4445C46.5176 36.6696 47.7535 37.2714 47.7656 37.2775C47.7897 37.2896 47.7998 37.3157 47.7897 37.3399C47.7797 37.364 47.7535 37.3781 47.7293 37.3701C46.8296 37.1305 46.1694 37.4365 45.8212 37.676C47.4153 37.0359 48.4862 37.7787 48.4982 37.7847C48.5204 37.8008 48.5264 37.829 48.5123 37.8511C48.4982 37.8733 48.4701 37.8833 48.4479 37.8713C47.6931 37.511 46.9061 37.6941 46.3888 37.9055C47.6166 37.6277 48.8304 38.0605 48.8444 38.0645C48.8706 38.0746 48.8847 38.1027 48.8746 38.1289C48.8646 38.1551 48.8364 38.1692 48.8102 38.1591C48.7941 38.1531 47.1657 37.5754 45.8031 38.2074C45.797 38.2114 45.789 38.2114 45.7829 38.2114L45.7809 38.2155Z" fill="#263238"/>
<g opacity="0.4">
<path d="M45.7809 38.2155C45.7628 38.2155 45.7467 38.2054 45.7366 38.1893C45.7246 38.1671 45.7306 38.139 45.7507 38.1229C45.7628 38.1148 46.6444 37.513 47.6609 37.5714C47.1476 37.4687 46.4089 37.4727 45.5273 37.9196C45.5052 37.9296 45.479 37.9256 45.4649 37.9055C45.4508 37.8874 45.4508 37.8592 45.4669 37.8411C45.475 37.833 46.0688 37.1829 47.0872 37.1829H47.0893C46.6424 37.1104 46.0225 37.1265 45.4247 37.5291C45.4025 37.5452 45.3703 37.5391 45.3542 37.515C45.3381 37.4929 45.3441 37.4606 45.3683 37.4445C46.5176 36.6696 47.7535 37.2714 47.7656 37.2775C47.7897 37.2896 47.7998 37.3157 47.7897 37.3399C47.7797 37.364 47.7535 37.3781 47.7293 37.3701C46.8296 37.1305 46.1694 37.4365 45.8212 37.676C47.4153 37.0359 48.4862 37.7787 48.4982 37.7847C48.5204 37.8008 48.5264 37.829 48.5123 37.8511C48.4982 37.8733 48.4701 37.8833 48.4479 37.8713C47.6931 37.511 46.9061 37.6941 46.3888 37.9055C47.6166 37.6277 48.8304 38.0605 48.8444 38.0645C48.8706 38.0746 48.8847 38.1027 48.8746 38.1289C48.8646 38.1551 48.8364 38.1692 48.8102 38.1591C48.7941 38.1531 47.1657 37.5754 45.8031 38.2074C45.797 38.2114 45.789 38.2114 45.7829 38.2114L45.7809 38.2155Z" fill="white"/>
</g>
<path d="M48.9854 41.6996C48.9854 41.6996 48.5144 41.3212 47.8522 41.14L47.8019 41.2628C47.8381 41.2749 47.8723 41.287 47.9106 41.3011C48.3836 41.4883 48.5889 42.0116 48.3494 42.2652C48.1682 42.4584 47.5885 42.235 47.6711 41.8566L47.3732 41.7419C47.2785 42.0559 46.8458 42.0559 46.6606 41.8566C46.3869 41.5627 46.5861 40.8764 47.6932 41.2226L47.7234 41.1078C47.3369 41.0193 46.8941 41.0052 46.4452 41.1662C46.4452 41.1662 45.7689 41.1139 45.6099 40.4355L45.314 40.8059C45.314 40.8059 45.0181 42.1022 45.5073 42.9154C45.9944 43.7285 49.1002 44.2539 48.9874 41.6996H48.9854Z" fill="#263238"/>
<path opacity="0.4" d="M48.9854 41.6996C48.9854 41.6996 48.5144 41.3212 47.8522 41.14L47.8019 41.2628C47.8381 41.2749 47.8723 41.287 47.9106 41.3011C48.3836 41.4883 48.5889 42.0116 48.3494 42.2652C48.1682 42.4584 47.5885 42.235 47.6711 41.8566L47.3732 41.7419C47.2785 42.0559 46.8458 42.0559 46.6606 41.8566C46.3869 41.5627 46.5861 40.8764 47.6932 41.2226L47.7234 41.1078C47.3369 41.0193 46.8941 41.0052 46.4452 41.1662C46.4452 41.1662 45.7689 41.1139 45.6099 40.4355L45.314 40.8059C45.314 40.8059 45.0181 42.1022 45.5073 42.9154C45.9944 43.7285 49.1002 44.2539 48.9874 41.6996H48.9854Z" fill="white"/>
<path d="M56.1792 69.1729L58.7254 68.9092L59.1763 71.8962L57.0487 72.1217L56.1792 69.1729Z" fill="#E4897B"/>
<path opacity="0.2" d="M56.1792 69.1749L58.7274 68.9092L58.979 70.5839L56.6663 70.8254L56.1792 69.1749Z" fill="black"/>
<path d="M56.6783 73.0413H57.2338L57.3848 72.8139L57.6766 73.0413L61.0361 73.0353C61.1005 72.7011 60.8911 72.2664 60.8911 72.2664C60.8911 72.2664 59.8867 72.1778 59.4983 71.6766C59.4681 71.6384 59.4218 71.6162 59.3735 71.6283C59.0393 71.6988 57.7109 71.9524 56.9782 71.6907C56.8997 71.6625 56.8152 71.7169 56.8152 71.8014C56.8071 72.3791 56.6763 73.0433 56.6763 73.0433L56.6783 73.0413Z" fill="#263238"/>
<path d="M41.0346 55.874C41.0346 55.874 39.4464 61.1155 43.7197 62.5607C47.9929 64.0039 52.2158 61.4576 52.2158 61.4576C52.2158 61.4576 52.2158 62.5607 56.0221 70.6724L59.1782 70.0786C59.1782 70.0786 58.0651 57.9392 56.6803 55.8761C55.2954 53.8129 48.2989 54.7449 48.2989 54.7449L41.0346 55.8761V55.874Z" fill="#263238"/>
<path d="M52.3366 40.1599L51.6341 40.9791C50.6397 41.5226 50.1627 40.1237 50.1627 40.1237L49.422 39.2964C49.2529 39.0991 49.269 38.7871 49.4622 38.5577L49.9493 37.982C50.1708 37.7203 50.5411 37.66 50.7706 37.8512L51.5234 38.5275C51.6723 38.6523 51.7891 38.8113 51.8615 38.9925L52.3345 40.1639L52.3366 40.1599Z" fill="#E4897B"/>
<path opacity="0.2" d="M45.507 55.6525C43.3855 55.4794 41.5941 55.1915 40.9761 55.0869C40.8151 52.9372 40.6038 50.2843 40.0361 47.7058C40.8393 47.2227 41.4733 46.8987 41.4733 46.8987C41.4733 46.8987 42.6488 49.7408 40.9842 51.4396C40.9842 51.4396 42.0127 53.1284 44.8508 54.6601C45.3721 54.9419 45.5593 55.2861 45.507 55.6525Z" fill="black"/>
<path d="M42.8622 46.8584C42.2282 47.8326 41.6062 48.8773 41.1151 49.9179C40.7226 50.7653 40.3019 51.8543 40.3442 52.6856L40.0603 52.0173C39.9939 51.9609 40.0322 52.0354 40.1066 52.1139C40.7507 52.7057 41.6485 53.1163 42.4435 53.5511C42.824 53.7524 43.2265 53.9496 43.5969 54.159C44.0538 54.4146 44.2188 54.9923 43.9632 55.4492C43.7901 55.7592 43.4681 55.9343 43.1359 55.9363C42.1859 55.9302 41.3083 55.8155 40.3844 55.6062C39.2351 55.3183 37.3169 54.7085 37.029 53.3055C36.7452 51.8684 36.9787 50.7593 37.339 49.5093C37.8724 47.8548 38.6735 46.325 39.6618 44.912C40.2475 43.9197 41.4834 43.5695 42.4415 44.2579C43.2789 44.8617 43.454 46.0312 42.8622 46.8604V46.8584Z" fill="#6747C7"/>
<path d="M43.8665 54.3503L42.9809 54.9663C42.3408 55.9002 43.6854 56.5161 43.6854 56.5161L44.2127 57.0737C44.3919 57.2629 44.7038 57.277 44.9514 57.1059L45.5734 56.6792C45.8572 56.486 45.9538 56.1236 45.7868 55.8761L45.4124 55.3225C45.3037 55.1615 45.1567 55.0287 44.9836 54.9381L43.8665 54.3503Z" fill="#E4897B"/>
<path d="M43.7097 54.1831L44.227 54.5313C43.5104 55.1774 42.973 56.1698 42.973 56.1698H42.196C42.196 56.1698 42.4939 54.6038 43.7097 54.1831Z" fill="#6747C7"/>
<path opacity="0.5" d="M43.7097 54.1831L44.227 54.5313C43.5104 55.1774 42.973 56.1698 42.973 56.1698H42.196C42.196 56.1698 42.4939 54.6038 43.7097 54.1831Z" fill="white"/>
<path d="M51.1551 41.4945L50.7424 41.0275C51.5979 40.5826 52.3688 39.7554 52.3688 39.7554L53.1196 39.9506C53.1196 39.9506 52.4372 41.3918 51.1571 41.4945H51.1551Z" fill="#6747C7"/>
<path opacity="0.5" d="M51.1551 41.4945L50.7424 41.0275C51.5979 40.5826 52.3688 39.7554 52.3688 39.7554L53.1196 39.9506C53.1196 39.9506 52.4372 41.3918 51.1571 41.4945H51.1551Z" fill="white"/>
<path opacity="0.2" d="M52.4271 44.2156C52.4271 44.2156 52.7592 45.2824 53.0128 45.5199C53.2664 45.7594 51.6079 45.4575 52.4271 44.2156Z" fill="black"/>
<path d="M42.9205 55.26H34.5974C33.8148 55.26 33.1804 55.8944 33.1804 56.677V70.4911C33.1804 71.2737 33.8148 71.9081 34.5974 71.9081H42.9205C43.7031 71.9081 44.3375 71.2737 44.3375 70.4911V56.677C44.3375 55.8944 43.7031 55.26 42.9205 55.26Z" fill="#263238"/>
<path opacity="0.6" d="M42.9205 55.26H34.5974C33.8148 55.26 33.1804 55.8944 33.1804 56.677V70.4911C33.1804 71.2737 33.8148 71.9081 34.5974 71.9081H42.9205C43.7031 71.9081 44.3375 71.2737 44.3375 70.4911V56.677C44.3375 55.8944 43.7031 55.26 42.9205 55.26Z" fill="white"/>
<path opacity="0.2" d="M42.0489 71.9081H34.5974C33.8145 71.9081 33.1804 71.2741 33.1804 70.4911V56.677C33.1804 55.894 33.8145 55.26 34.5974 55.26H42.0489C41.268 55.26 40.6339 55.894 40.6339 56.677V70.4911C40.6339 71.2741 41.268 71.9081 42.0489 71.9081Z" fill="black"/>
<path d="M53.2885 26.2896H48.1095C47.1252 26.2896 46.3281 27.0866 46.3281 28.0709V33.103C46.3281 34.0872 47.1252 34.8843 48.1095 34.8843H49.3957L48.7858 36.2712L50.1907 34.8843H53.2885C54.2728 34.8843 55.0698 34.0872 55.0698 33.103V28.0709C55.0698 27.0866 54.2728 26.2896 53.2885 26.2896Z" fill="#6747C7"/>
<g opacity="0.3">
<path d="M53.2885 26.2896H48.1095C47.1252 26.2896 46.3281 27.0866 46.3281 28.0709V33.103C46.3281 34.0872 47.1252 34.8843 48.1095 34.8843H49.3957L48.7858 36.2712L50.1907 34.8843H53.2885C54.2728 34.8843 55.0698 34.0872 55.0698 33.103V28.0709C55.0698 27.0866 54.2728 26.2896 53.2885 26.2896Z" fill="white"/>
</g>
<path d="M51.3118 29.4878C51.3118 29.0994 51.0139 28.8357 50.5368 28.8357C50.0598 28.8357 49.7418 29.0309 49.5264 29.3711L48.9246 28.9343C49.2728 28.407 49.8303 28.0869 50.6053 28.0869C51.5171 28.0869 52.125 28.5519 52.125 29.351C52.125 30.4822 51.0642 30.5868 51.0642 31.4061H50.2772C50.2772 30.3775 51.3138 30.1843 51.3138 29.4899L51.3118 29.4878ZM50.1765 32.5232C50.1765 32.2253 50.3818 31.9878 50.6737 31.9878C50.9656 31.9878 51.1648 32.2233 51.1648 32.5232C51.1648 32.8231 50.9595 33.0646 50.6737 33.0646C50.3879 33.0646 50.1765 32.8211 50.1765 32.5232Z" fill="white"/>
<path d="M36.57 71.1433H21.7253V73.0394H36.57V71.1433Z" fill="#263238"/>
<path opacity="0.2" d="M36.57 71.1433H27.4277V73.0394H36.57V71.1433Z" fill="white"/>
<path d="M27.5666 57.7279H25.284L24.9841 54.5315H27.8665L27.5666 57.7279Z" fill="#263238"/>
<path opacity="0.7" d="M27.5666 57.7279H25.284L24.9841 54.5315H27.8665L27.5666 57.7279Z" fill="white"/>
<path opacity="0.5" d="M27.4921 57.6312H25.3585L25.1995 55.8096H27.6511L27.4921 57.6312Z" fill="white"/>
<path d="M34.8207 54.8616H33.5002V57.7178H34.8207V54.8616Z" fill="#263238"/>
<path opacity="0.5" d="M34.8205 55.542H34.3274V57.1261H34.8205V55.542Z" fill="white"/>
<path d="M33.4017 54.8616H34.9214V54.5496H33.4017V54.8616Z" fill="#6747C7"/>
<path d="M30.936 57.7681L30.5797 57.756C30.5274 57.756 30.4851 57.7097 30.4871 57.6574C30.4871 57.605 30.5334 57.5628 30.5858 57.5648L30.942 57.5768C30.9944 57.5768 31.0366 57.6231 31.0346 57.6775C31.0346 57.7298 30.9883 57.7721 30.934 57.7701L30.936 57.7681Z" fill="#6747C7"/>
<path opacity="0.7" d="M30.775 57.762L30.5778 57.756C30.5254 57.756 30.4832 57.7097 30.4852 57.6574C30.4852 57.605 30.5315 57.5628 30.5838 57.5648L30.7811 57.5708L30.775 57.764V57.762Z" fill="white"/>
<path d="M30.7851 57.569L30.4691 57.7341C30.4228 57.7582 30.3645 57.7401 30.3403 57.6938C30.3161 57.6475 30.3343 57.5871 30.3806 57.563L30.6966 57.3979C30.7429 57.3738 30.8032 57.3919 30.8274 57.4382C30.8516 57.4845 30.8334 57.5428 30.7851 57.569Z" fill="#6747C7"/>
<path opacity="0.7" d="M30.6442 57.6416L30.4691 57.7321C30.4228 57.7563 30.3645 57.7382 30.3403 57.6919C30.3161 57.6456 30.3343 57.5852 30.3806 57.561L30.5557 57.4705L30.6442 57.6416Z" fill="white"/>
<path d="M33.6232 56.6128H30.6804V57.7178H33.6232V56.6128Z" fill="#263238"/>
<path opacity="0.5" d="M33.6232 56.6128H30.6804V57.7178H33.6232V56.6128Z" fill="white"/>
<path opacity="0.5" d="M32.9026 56.6128H31.4956V57.3656H32.9026V56.6128Z" fill="white"/>
<path d="M28.0114 57.4299H26.844V57.7178H28.0114V57.4299Z" fill="#6747C7"/>
<path d="M30.2536 57.7722L29.8973 57.7601C29.845 57.7601 29.8027 57.7138 29.8048 57.6615C29.8048 57.6092 29.8511 57.5669 29.9034 57.5689L30.2597 57.581C30.312 57.581 30.3543 57.6273 30.3522 57.6816C30.3522 57.734 30.306 57.7762 30.2516 57.7742L30.2536 57.7722Z" fill="#6747C7"/>
<path opacity="0.7" d="M30.0946 57.7681L29.8973 57.7621C29.845 57.7621 29.8027 57.7158 29.8048 57.6635C29.8048 57.6111 29.8511 57.5689 29.9034 57.5709L30.1006 57.5769L30.0946 57.7701V57.7681Z" fill="white"/>
<path d="M31.383 57.7722L31.0267 57.7601C30.9744 57.7601 30.9321 57.7138 30.9342 57.6615C30.9342 57.6092 30.9804 57.5669 31.0328 57.5689L31.3891 57.581C31.4414 57.581 31.4837 57.6273 31.4816 57.6816C31.4816 57.734 31.4353 57.7762 31.381 57.7742L31.383 57.7722Z" fill="#6747C7"/>
<path opacity="0.7" d="M31.224 57.7681L31.0267 57.7621C30.9744 57.7621 30.9321 57.7158 30.9342 57.6635C30.9342 57.6111 30.9804 57.5689 31.0328 57.5709L31.23 57.5769L31.224 57.7701V57.7681Z" fill="white"/>
<path d="M29.0119 57.7703L28.6556 57.7582C28.6033 57.7582 28.561 57.7119 28.5631 57.6596C28.5631 57.6072 28.6094 57.565 28.6617 57.567L29.018 57.579C29.0703 57.579 29.1126 57.6253 29.1105 57.6797C29.1085 57.734 29.0643 57.7743 29.0099 57.7723L29.0119 57.7703Z" fill="#6747C7"/>
<path opacity="0.7" d="M28.8529 57.7642L28.6556 57.7582C28.6033 57.7582 28.561 57.7119 28.5631 57.6596C28.5631 57.6072 28.6094 57.565 28.6617 57.567L28.8589 57.573L28.8529 57.7662V57.7642Z" fill="white"/>
<path d="M29.8895 57.6293L29.5553 57.7561C29.505 57.7742 29.4507 57.7501 29.4306 57.6997C29.4124 57.6494 29.4366 57.5931 29.4869 57.5749L29.821 57.4481C29.8714 57.43 29.9277 57.4542 29.9458 57.5045C29.964 57.5548 29.9398 57.6092 29.8895 57.6293Z" fill="#6747C7"/>
<path opacity="0.7" d="M29.7405 57.6855L29.5553 57.756C29.505 57.7741 29.4507 57.75 29.4306 57.6996C29.4124 57.6493 29.4366 57.593 29.4869 57.5748L29.6721 57.5044L29.7405 57.6855Z" fill="white"/>
<path d="M36.8096 58.2371H21.3933V72.2363H36.8096V58.2371Z" fill="#6747C7"/>
<path opacity="0.4" d="M36.8096 58.2371H21.3933V72.2363H36.8096V58.2371Z" fill="white"/>
<path opacity="0.2" d="M27.0655 58.2371H21.3933V72.2363H27.0655V58.2371Z" fill="black"/>
<path d="M37.2664 58.237C37.2664 58.3779 37.21 58.5068 37.1174 58.5993C37.0248 58.6919 36.898 58.7483 36.7571 58.7483H21.4455C21.1637 58.7483 20.9363 58.5188 20.9363 58.237C20.9363 58.0961 20.9926 57.9693 21.0852 57.8767C21.1778 57.7841 21.3046 57.7278 21.4455 57.7278H36.7571C37.0389 57.7278 37.2664 57.9552 37.2664 58.237Z" fill="#6747C7"/>
<path opacity="0.2" d="M37.2663 58.237C37.2663 58.3779 37.2099 58.5068 37.1174 58.5993C37.0248 58.6919 36.898 58.7483 36.7571 58.7483H27.0854C26.8036 58.7483 26.5762 58.5188 26.5762 58.237C26.5762 58.0961 26.6325 57.9693 26.7251 57.8767C26.8177 57.7841 26.9445 57.7278 27.0854 57.7278H36.7571C37.0389 57.7278 37.2663 57.9552 37.2663 58.237Z" fill="white"/>
<path opacity="0.3" d="M36.103 59.4771H27.8745V62.2809H36.103V59.4771Z" fill="white"/>
<path opacity="0.3" d="M36.103 62.8364H27.8745V71.3668H36.103V62.8364Z" fill="white"/>
<path opacity="0.2" d="M31.9888 60.3666C32.1356 60.3666 32.2545 60.2476 32.2545 60.1009C32.2545 59.9542 32.1356 59.8352 31.9888 59.8352C31.8421 59.8352 31.7231 59.9542 31.7231 60.1009C31.7231 60.2476 31.8421 60.3666 31.9888 60.3666Z" fill="black"/>
<path opacity="0.2" d="M31.9888 63.9899C32.1356 63.9899 32.2545 63.8709 32.2545 63.7242C32.2545 63.5775 32.1356 63.4585 31.9888 63.4585C31.8421 63.4585 31.7231 63.5775 31.7231 63.7242C31.7231 63.8709 31.8421 63.9899 31.9888 63.9899Z" fill="black"/>
<path d="M19.2012 34.7012H18.2451V72.4739H19.2012V34.7012Z" fill="#263238"/>
<path opacity="0.2" d="M19.2012 34.7012H18.2451V72.4739H19.2012V34.7012Z" fill="white"/>
<path d="M18.3337 70.0142H19.1147C19.6461 70.0142 20.0788 70.4469 20.0788 70.9783V72.7214H17.3716V70.9783C17.3716 70.4469 17.8043 70.0142 18.3357 70.0142H18.3337Z" fill="#263238"/>
<path d="M22.3312 30.9734H15.1132C14.9542 37.0582 12.6958 40.2988 12.6958 40.2988H24.7486C24.7486 40.2988 22.4902 37.0582 22.3312 30.9734Z" fill="#6747C7"/>
<path opacity="0.3" d="M18.3337 70.0142H19.1147C19.6461 70.0142 20.0788 70.4469 20.0788 70.9783V72.7214H17.3716V70.9783C17.3716 70.4469 17.8043 70.0142 18.3357 70.0142H18.3337Z" fill="white"/>
<path d="M15.9284 71.9082H21.518C22.144 71.9082 22.6512 72.4154 22.6512 73.0414H14.7952C14.7952 72.4154 15.3024 71.9082 15.9284 71.9082Z" fill="#263238"/>
<path opacity="0.4" d="M15.9284 71.9082H21.518C22.144 71.9082 22.6512 72.4154 22.6512 73.0414H14.7952C14.7952 72.4154 15.3024 71.9082 15.9284 71.9082Z" fill="white"/>
<path opacity="0.5" d="M24.7486 40.3008H12.6978C12.6978 40.3008 13.4284 39.2522 14.0886 37.2252C14.5878 35.6915 15.0467 33.5961 15.1152 30.9734H22.3332C22.4016 33.5961 22.8605 35.6894 23.3577 37.2232C24.0179 39.2501 24.7486 40.3008 24.7486 40.3008Z" fill="white"/>
<path opacity="0.2" d="M23.3577 37.2232C22.313 38.6483 20.6263 39.5722 18.7242 39.5722C16.822 39.5722 15.1353 38.6483 14.0886 37.2252C14.5878 35.6915 15.0467 33.5961 15.1152 30.9734H22.3332C22.4016 33.5961 22.8605 35.6894 23.3577 37.2232Z" fill="white"/>
</g>
<defs>
<clipPath id="clip0_1477_2850">
<rect width="100.641" height="75" fill="white" transform="translate(0.679199)"/>
</clipPath>
</defs>
</svg>
