<svg width="69" height="76" viewBox="0 0 69 76" fill="none" xmlns="http://www.w3.org/2000/svg">
<path d="M61.6941 23.5498C59.7506 18.5086 55.867 15.1413 51.2106 12.4711C41.0904 6.66698 33.9479 5.92379 27.1031 11.2807C20.2582 16.6375 14.3045 26.9057 9.99004 29.1385C5.67397 31.3713 2.25071 34.1994 2.54831 42.6819C2.84591 51.1644 8.94761 49.6764 9.69079 56.5213C10.4356 63.3662 15.1973 68.8727 23.0846 70.3607C30.9719 71.8487 33.5024 66.1942 40.4952 65.0038C47.4897 63.8134 48.5305 67.6823 57.6082 66.4918C66.686 65.3014 69.514 49.974 67.7267 41.4899C66.8109 37.1409 65.3887 32.764 63.6211 28.6962C62.901 27.0355 62.3551 25.2631 61.6941 23.5498Z" fill="#6747C7"/>
<path opacity="0.7" d="M61.6941 23.5498C59.7506 18.5086 55.867 15.1413 51.2106 12.4711C41.0904 6.66698 33.9479 5.92379 27.1031 11.2807C20.2582 16.6375 14.3045 26.9057 9.99004 29.1385C5.67397 31.3713 2.25071 34.1994 2.54831 42.6819C2.84591 51.1644 8.94761 49.6764 9.69079 56.5213C10.4356 63.3662 15.1973 68.8727 23.0846 70.3607C30.9719 71.8487 33.5024 66.1942 40.4952 65.0038C47.4897 63.8134 48.5305 67.6823 57.6082 66.4918C66.686 65.3014 69.514 49.974 67.7267 41.4899C66.8109 37.1409 65.3887 32.764 63.6211 28.6962C62.901 27.0355 62.3551 25.2631 61.6941 23.5498Z" fill="white"/>
<path d="M25.0819 37.4073C25.0819 37.4073 22.0812 38.3018 20.4436 36.8697C18.8059 35.4376 23.0809 33.8262 24.536 34.3639C25.9912 34.9015 24.9915 36.6905 22.808 35.8864C20.6261 35.0808 19.2614 33.7374 22.8984 33.2902C26.5354 32.843 24.444 34.4543 23.1713 32.3958C21.8987 30.3372 25.4453 27.5618 27.2638 28.0994C29.0823 28.6371 25.8991 30.5164 24.809 29.4427C23.7172 28.3691 19.0789 26.0409 26.6275 25.6824C34.1761 25.324 31.9021 27.5618 30.3566 27.5618C28.811 27.5618 25.0819 23.8014 27.4463 23.4446C29.8107 23.0862 32.9035 25.2352 32.8114 26.4881C32.7193 27.741 28.8094 24.6087 30.8104 22.5502C32.8114 20.4916 35.2662 22.5502 35.6296 24.8768C35.993 27.2033 33.2652 27.6522 34.084 25.1448C34.9028 22.639 36.1755 20.758 37.3577 23.0862C38.5398 25.4128 38.7224 28.4562 38.0844 28.0994C37.4481 27.741 36.6293 20.9389 39.8125 23.4446C42.9957 25.9504 42.7227 27.9202 42.0864 28.5466C41.4501 29.1731 37.994 21.6541 42.7227 24.9655C47.4515 28.277 42.5402 30.7844 43.632 32.843C44.7237 34.9015 47.9974 33.2902 47.1786 29.1731C46.3597 25.056 44.3587 26.3089 43.1765 28.6354C41.9943 30.962 45.8139 37.0489 47.1786 34.5431C47.5091 33.9364 47.6784 33.231 47.731 32.5404C47.8938 30.3816 46.8925 28.3921 45.9964 30.1563C44.8142 32.4829 46.8152 34.3639 49.0891 33.647C51.3631 32.9301 50.0823 30.4572 48.9066 31.498C47.731 32.5388 47.4515 33.0206 48.4512 34.4527C49.4509 35.8848 50.1793 40.0019 47.1786 38.8394C44.1779 37.6753 47.4515 34.8111 50.3618 35.7072C53.272 36.6017 52.2724 37.945 51.4535 39.2883C50.6347 40.6316 48.3608 40.8109 48.9987 42.0638C49.635 43.3167 51.1806 45.1072 51.9994 42.511C52.8182 39.9148 49.908 39.1091 47.7244 40.1844" stroke="#263238" stroke-width="0.164422" stroke-miterlimit="10" stroke-linecap="round" stroke-linejoin="round"/>
<path d="M25.5358 38.7507C25.5358 38.7507 21.6259 37.677 20.9879 35.1695C20.3516 32.6638 22.716 33.4694 22.6256 35.0808C22.5351 36.6921 21.9893 39.1091 20.3516 38.6619C18.714 38.2146 19.2599 31.5901 21.7163 30.8748C24.1711 30.158 27.1735 32.4862 25.7184 33.2014C24.2632 33.9183 22.9906 31.0524 24.5362 28.8146C26.0817 26.5769 28.992 27.6505 28.9016 28.7259C28.8111 29.7995 24.9916 25.6824 25.082 24.4295C25.1725 23.1766 26.5372 20.9388 27.8098 22.4597C29.0824 23.9823 32.1752 29.4411 30.3567 27.5617C28.5382 25.6824 28.1748 24.1599 29.9012 23.175C31.6293 22.1901 32.8115 22.0109 32.8115 24.2487C32.8115 26.4864 32.1834 28.4513 32.5435 24.8291C32.9036 21.2052 35.6313 19.4163 36.631 22.2805C37.6307 25.1447 37.8132 28.1882 36.9944 25.8616C36.1756 23.5351 41.5423 22.1917 41.0869 23.0862C40.6314 23.9806 37.8132 24.7863 38.7225 25.5032C39.6317 26.2201 43.7242 24.5183 45.3618 25.9504C46.9995 27.3825 44.0892 27.1145 43.1799 28.6354C42.2707 30.1563 48.0912 27.8298 48.4546 29.4411C48.818 31.0524 43.9067 31.4997 43.6354 32.843C43.3625 34.1863 53.5484 36.8713 50.0922 37.677C46.6361 38.4826 45.273 37.7658 45.181 38.0354" stroke="#263238" stroke-width="0.164422" stroke-miterlimit="10" stroke-linecap="round" stroke-linejoin="round"/>
<path d="M24.6266 36.4224C24.6266 36.4224 20.9895 38.8394 21.3529 39.5546C21.7163 40.2715 25.6279 38.3905 24.9899 39.6434C24.3536 40.8963 21.8067 41.7019 22.9889 42.0604C24.1711 42.4188 25.9896 41.8812 26.4451 41.0755" stroke="#263238" stroke-width="0.164422" stroke-miterlimit="10" stroke-linecap="round" stroke-linejoin="round"/>
<path d="M27.1731 42.7789C27.1731 42.7789 24.8992 41.8844 23.6266 40.1827C22.3539 38.4826 24.082 34.543 25.3546 34.1846" stroke="#263238" stroke-width="0.164422" stroke-miterlimit="10" stroke-linecap="round" stroke-linejoin="round"/>
<path d="M47.6144 37.4883C47.6144 37.4883 51.0557 38.5308 52.9318 36.8635C54.8078 35.1946 49.908 33.3186 48.2392 33.9434C46.5703 34.5682 47.7179 36.6547 50.2204 35.7159C52.7229 34.777 54.2866 33.2134 50.1169 32.6921C45.9455 32.1709 48.3444 34.047 49.8045 31.6497C51.2645 29.2508 47.1984 26.0199 45.1119 26.6447C43.027 27.2695 46.6755 29.4596 47.9268 28.2084C49.178 26.9571 54.4954 24.2458 45.8419 23.8298C37.1867 23.4122 39.7945 26.0199 41.5669 26.0199C43.3394 26.0199 47.6144 21.6413 44.903 21.2237C42.1917 20.8061 38.6468 23.3086 38.7504 24.7686C38.854 26.2287 43.3378 22.5785 41.0441 20.1813C38.7504 17.7824 35.9355 20.1813 35.5179 22.8926C35.1002 25.6039 38.2292 26.1251 37.2903 23.205C36.3515 20.2849 34.8914 18.0964 33.5366 20.8061C32.1817 23.5158 31.9729 27.0623 32.703 26.6447C33.433 26.2271 34.3718 18.3036 30.7217 21.2221C27.0715 24.1422 27.3856 26.4359 28.1156 27.1659C28.8456 27.896 32.8082 19.1372 27.3856 22.9945C21.9629 26.8519 27.5944 29.772 26.3431 32.1709C25.0919 34.5698 21.3381 32.6921 22.277 27.8959C23.2158 23.0998 25.5095 24.5598 26.8643 27.2711C28.2192 29.9825 23.8406 37.0723 22.277 34.1522C21.8988 33.4452 21.7031 32.6231 21.6439 31.8207C21.4581 29.3067 22.6058 26.9883 23.6334 29.0436C24.9883 31.7549 22.6946 33.945 20.0885 33.1098C17.4824 32.2761 18.9491 29.3938 20.2973 30.6073C21.6456 31.8207 21.9662 32.3797 20.8185 34.0486C19.6709 35.7175 18.8373 40.5137 22.2786 39.1572C25.72 37.8024 21.9662 34.4646 18.6284 35.507C17.7948 35.7685 17.2407 36.0611 16.8938 36.3785" stroke="#263238" stroke-width="0.164422" stroke-miterlimit="10" stroke-linecap="round" stroke-linejoin="round"/>
<path d="M47.0915 39.0518C47.0915 39.0518 51.5753 37.8006 52.3053 34.8804C53.0353 31.9603 50.324 32.8992 50.4293 34.7769C50.5328 36.6529 51.1593 39.4695 53.0353 38.9482C54.9114 38.427 54.2866 30.7107 51.4717 29.8771C48.6568 29.0435 45.2154 31.7531 46.8843 32.5884C48.5532 33.422 50.0116 30.0859 48.2392 27.4798C46.4667 24.8737 43.1306 26.125 43.2342 27.3762C43.3377 28.6275 47.7179 23.8313 47.6127 22.3712C47.5091 20.9112 45.9438 18.3051 44.4854 20.0775C43.0253 21.85 39.4804 28.2098 41.5653 26.0214C43.6501 23.8313 44.0678 22.0588 42.0865 20.9128C40.1052 19.7651 38.7504 19.558 38.7504 22.1641C38.7504 24.7701 39.4705 27.0605 39.0578 22.8398C38.6451 18.6191 35.5178 16.5343 34.3702 19.8704C33.2225 23.2065 33.0153 26.7514 33.9525 24.0418C34.8914 21.3304 28.7387 19.7668 29.26 20.8092C29.7812 21.8517 33.0137 22.7905 31.9713 23.6241C30.9288 24.4577 26.2362 22.4765 24.3602 24.1453C22.4841 25.8142 25.8202 25.5002 26.8627 27.2726C27.9051 29.0451 21.2329 26.3338 20.8153 28.2115C20.3976 30.0875 26.0291 30.6104 26.3415 32.1741C26.6539 33.7377 14.9766 36.8667 18.9376 37.8039C22.9001 38.7427 24.4638 37.9074 24.5674 38.2215" stroke="#263238" stroke-width="0.164422" stroke-miterlimit="10" stroke-linecap="round" stroke-linejoin="round"/>
<path d="M48.1353 36.3406C48.1353 36.3406 52.3067 39.1555 51.8891 39.9907C51.4715 40.8244 46.9877 38.6359 47.7177 40.0943C48.4477 41.5544 51.3679 42.4932 50.0114 42.9092C48.6566 43.3269 46.57 42.7004 46.0488 41.7616" stroke="#263238" stroke-width="0.164422" stroke-miterlimit="10" stroke-linecap="round" stroke-linejoin="round"/>
<path d="M45.2153 43.7444C45.2153 43.7444 47.8214 42.7019 49.2815 40.7207C50.7415 38.7394 48.7603 34.152 47.3002 33.7344" stroke="#263238" stroke-width="0.164422" stroke-miterlimit="10" stroke-linecap="round" stroke-linejoin="round"/>
<path d="M36.0571 6.59931C36.0571 6.59931 33.8769 6.14879 33.5003 8.02813C33.1238 9.90747 33.7256 12.0877 36.0571 12.0121C38.3869 11.9364 39.8914 12.5382 40.8681 11.5616C41.8447 10.5849 42.4465 7.9525 40.8681 6.97583C39.2896 5.99917 37.3346 6.52532 36.8841 6.52532C36.432 6.52532 36.0571 6.59931 36.0571 6.59931Z" stroke="#263238" stroke-width="0.164422" stroke-miterlimit="10" stroke-linecap="round" stroke-linejoin="round"/>
<path d="M35.3848 8.91626L36.9336 9.37171" stroke="#263238" stroke-width="0.164422" stroke-miterlimit="10" stroke-linecap="round" stroke-linejoin="round"/>
<path d="M36.0835 7.88354L37.2673 9.03779" stroke="#263238" stroke-width="0.164422" stroke-miterlimit="10" stroke-linecap="round" stroke-linejoin="round"/>
<path d="M38.4512 9.5247L39.7879 9.46387" stroke="#263238" stroke-width="0.164422" stroke-miterlimit="10" stroke-linecap="round" stroke-linejoin="round"/>
<path d="M38.2095 9.15962L39.6054 8.03662" stroke="#263238" stroke-width="0.164422" stroke-miterlimit="10" stroke-linecap="round" stroke-linejoin="round"/>
<path d="M36.1443 10.8006C36.1443 10.8006 36.751 10.133 37.481 10.1939C38.2094 10.2547 38.6649 11.0439 38.6649 11.0439" stroke="#263238" stroke-width="0.164422" stroke-miterlimit="10" stroke-linecap="round" stroke-linejoin="round"/>
<path d="M41.1546 8.21729C41.1546 8.21729 41.125 8.55106 40.8208 8.70397C40.5166 8.85524 40.5166 8.85524 40.5166 8.85524" stroke="#263238" stroke-width="0.164422" stroke-miterlimit="10" stroke-linecap="round" stroke-linejoin="round"/>
<path d="M40.5771 9.22034C40.5771 9.22034 40.7597 9.03783 40.9718 9.1595C41.1839 9.28117 41.123 9.49328 41.123 9.49328" stroke="#263238" stroke-width="0.164422" stroke-miterlimit="10" stroke-linecap="round" stroke-linejoin="round"/>
<path d="M41.5505 9.34208C41.5505 9.34208 41.4897 9.12997 41.5801 9.0083" stroke="#263238" stroke-width="0.164422" stroke-miterlimit="10" stroke-linecap="round" stroke-linejoin="round"/>
<path d="M47.8744 12.3577C47.8744 12.3577 47.1345 10.7299 45.8767 10.582C44.6188 10.434 43.731 11.6178 43.731 12.5057C43.731 13.3936 45.9507 17.907 45.9507 17.907V16.4272L46.5426 16.5011L46.8385 15.0953H47.6524L47.2085 13.0976L47.8744 13.3936V12.3577Z" stroke="#263238" stroke-width="0.164422" stroke-miterlimit="10" stroke-linecap="round" stroke-linejoin="round"/>
<path d="M48.6142 12.4318V13.9116L48.0963 14.2815L48.3183 15.1694L47.3564 15.9093L47.2084 16.9452L46.6165 17.1671L46.3945 18.7949C46.3945 18.7949 47.4304 17.907 48.7622 17.3151C50.094 16.7232 52.1657 15.5394 51.6478 14.0596C51.1299 12.5798 49.5761 11.9878 48.6142 12.4318Z" stroke="#263238" stroke-width="0.164422" stroke-miterlimit="10" stroke-linecap="round" stroke-linejoin="round"/>
<path d="M45.8521 19.0085C45.8521 19.0085 45.6532 19.3078 45.8028 19.3324C45.9524 19.3571 46.2764 19.4327 46.301 19.3324C46.3257 19.2321 46.3503 19.1088 46.2764 19.0085C46.2024 18.9082 46.0774 18.7849 46.0774 18.7849L45.8521 19.0085Z" stroke="#263238" stroke-width="0.164422" stroke-miterlimit="10" stroke-linecap="round" stroke-linejoin="round"/>
<path d="M45.4789 18.2046C45.4789 18.2046 45.5249 17.9842 45.4312 18.0056C45.3391 18.0253 45.1336 18.0582 45.1418 18.1224C45.1501 18.1865 45.1649 18.2638 45.2323 18.3049C45.2997 18.346 45.4 18.3887 45.4 18.3887L45.4789 18.2046Z" stroke="#263238" stroke-width="0.164422" stroke-miterlimit="10" stroke-linecap="round" stroke-linejoin="round"/>
<path d="M45.38 19.0923C45.38 19.0923 45.4261 18.8719 45.3323 18.8933C45.2403 18.913 45.0347 18.9459 45.043 19.01C45.0512 19.0742 45.066 19.1514 45.1334 19.1926C45.2008 19.2337 45.3011 19.2764 45.3011 19.2764L45.38 19.0923Z" stroke="#263238" stroke-width="0.164422" stroke-miterlimit="10" stroke-linecap="round" stroke-linejoin="round"/>
<path d="M24.4802 17.6834C24.4802 17.6834 23.7781 18.2095 20.8826 19.2635C17.9871 20.3158 17.1091 21.1938 17.022 21.8959C16.9348 22.598 16.8461 23.1241 16.583 24.0021C16.3199 24.8801 15.3547 25.0544 16.0568 25.8453C16.7589 26.6345 17.7241 27.5125 18.7764 27.5125C19.8287 27.5125 21.3216 27.6884 21.4959 26.6345C21.6718 25.5822 21.4088 24.0893 21.8461 23.5631C22.2851 23.037 22.4611 23.476 23.4262 22.7739C24.3914 22.0718 25.4437 21.6328 25.4437 21.6328L26.3217 20.7548L27.7258 21.1938L27.1109 19.6137C27.1109 19.6137 27.2868 19.6137 27.5499 18.9988C27.813 18.3838 27.9889 17.9465 27.374 17.5075C26.759 17.0684 26.759 16.8925 26.2329 16.8054C25.7084 16.7182 24.4802 17.6834 24.4802 17.6834Z" stroke="#263238" stroke-width="0.164422" stroke-miterlimit="10" stroke-linecap="round" stroke-linejoin="round"/>
<path d="M24.4801 19.0002C24.3042 19.2633 23.3391 19.8783 23.3391 19.8783C23.3391 19.8783 22.5498 20.6675 22.1108 20.9306C21.6718 21.1936 20.4436 21.4567 19.8303 22.3347C19.2154 23.2127 18.6892 24.704 18.6892 24.704" stroke="#263238" stroke-width="0.164422" stroke-miterlimit="10" stroke-linecap="round" stroke-linejoin="round"/>
<path d="M19.7417 25.4047C19.7417 25.4047 20.2678 23.9134 20.5309 23.4744C20.794 23.0354 22.111 22.3333 22.111 22.3333L23.0762 21.4553L25.0065 19.7881" stroke="#263238" stroke-width="0.164422" stroke-miterlimit="10" stroke-linecap="round" stroke-linejoin="round"/>
<path d="M24.6826 7.64697C24.6826 7.64697 24.7664 7.88867 22.9298 8.2915C21.0933 8.69434 18.839 8.45264 18.5053 9.25666C18.1715 10.0607 18.839 10.9469 17.2524 11.5898C15.6657 12.2343 14.5805 12.4744 14.4144 13.1189C14.2467 13.7635 15.3336 14.4869 15.6673 15.3715C16.0011 16.2561 15.6673 17.6241 16.9202 18.188C18.1731 18.752 18.8407 17.384 20.0097 16.9812C21.1788 16.5784 21.5125 16.9006 22.9315 16.1772C24.3504 15.4537 24.8519 14.8092 25.4356 14.2452C26.0193 13.6812 26.437 13.6007 26.8546 13.6812C27.2722 13.7618 28.5251 13.4395 28.5251 13.4395L29.88 14.5066C30.023 14.6201 30.2351 14.4935 30.1907 14.3192C30.0855 13.9032 30.0049 13.3804 30.1956 13.1978C30.5294 12.8756 31.1148 12.7144 31.2808 12.3133C31.4485 11.9104 30.8632 11.2675 30.3617 9.8979C29.9539 8.78477 30.0181 6.89227 28.5103 6.45491C27.3479 6.11785 25.4208 6.77225 24.6826 7.64697Z" stroke="#263238" stroke-width="0.164422" stroke-miterlimit="10" stroke-linecap="round" stroke-linejoin="round"/>
<path d="M17.7554 13.7276C17.7554 13.7276 18.7123 13.5796 19.1908 12.9121C19.6692 12.2445 19.4308 11.6526 20.0688 11.355C20.7067 11.0574 21.8232 11.207 22.3822 10.9851C22.9412 10.7631 23.9771 10.3915 23.9771 10.3915L25.0935 9.50198L25.6525 9.354" stroke="#263238" stroke-width="0.164422" stroke-miterlimit="10" stroke-linecap="round" stroke-linejoin="round"/>
<path d="M18.1548 14.9867C18.1548 14.9867 19.7497 14.1712 20.0687 13.5793C20.3876 12.9857 21.1851 12.3198 21.9825 12.2458C22.78 12.1718 24.2959 11.7262 24.6149 11.3563C24.9339 10.9863 25.4124 10.6147 25.8119 10.6147" stroke="#263238" stroke-width="0.164422" stroke-miterlimit="10" stroke-linecap="round" stroke-linejoin="round"/>
<path d="M18.5544 16.1722C18.5544 16.1722 20.5489 15.2087 20.7873 14.7648C21.0257 14.3209 21.5847 13.1337 22.7817 12.9858C23.9787 12.8378 25.0951 12.7638 25.812 12.3182C26.5305 11.8743 27.2474 11.5767 27.2474 11.5767" stroke="#263238" stroke-width="0.164422" stroke-miterlimit="10" stroke-linecap="round" stroke-linejoin="round"/>
<path d="M9.21357 19.0875L10.9679 19.9655L11.5829 18.7373L13.3373 20.4917L13.6003 19.2635L15.4435 22.2461L13.5132 21.1938L13.0742 22.1589L11.5829 20.9307L11.0551 21.6328L8.59863 20.3158L9.21357 19.0875Z" stroke="#263238" stroke-width="0.164422" stroke-miterlimit="10" stroke-linecap="round" stroke-linejoin="round"/>
<path d="M32.9039 1.97754L32.2018 3.64478L31.4126 3.20577L31.2366 4.96179L30.2715 4.78586L31.1495 7.06639L31.8499 5.92695L32.6408 6.01409L33.167 4.43564L33.869 4.69872L34.9213 2.76841L32.9039 1.97754Z" stroke="#263238" stroke-width="0.164422" stroke-miterlimit="10" stroke-linecap="round" stroke-linejoin="round"/>
<path d="M49.293 22.6156C49.293 22.6156 49.5626 20.9566 50.7054 20.8382C51.8481 20.7198 53.1931 22.2013 52.856 23.03C52.5206 23.8587 51.5784 24.5706 51.5784 24.5706L51.3088 25.6953H50.166C50.166 25.6953 50.0986 24.3914 50.5015 24.1546C50.9043 23.9179 51.8464 23.6219 51.6442 22.7324C51.442 21.8445 50.9043 21.5485 50.5015 22.0221C50.0986 22.4956 50.2318 23.1467 49.6267 23.2059C49.0233 23.2667 49.293 22.6156 49.293 22.6156Z" stroke="#263238" stroke-width="0.164422" stroke-miterlimit="10" stroke-linecap="round" stroke-linejoin="round"/>
<path d="M50.9058 26.1704C50.9058 26.1704 49.9653 26.052 49.9653 26.5847C49.9653 27.1175 50.235 27.9478 50.4356 27.9478C50.6378 27.9478 51.2429 28.007 51.3761 27.5334C51.5109 27.0599 51.4435 26.9415 51.4435 26.6456C51.4435 26.348 50.9058 26.1704 50.9058 26.1704Z" stroke="#263238" stroke-width="0.164422" stroke-miterlimit="10" stroke-linecap="round" stroke-linejoin="round"/>
<path d="M9.24805 11.1935C9.24805 11.1935 9.5177 9.5345 10.6604 9.41611C11.8032 9.29773 13.1481 10.7792 12.8111 11.6079C12.4756 12.4365 11.5335 13.1485 11.5335 13.1485L11.2639 14.2731H10.1211C10.1211 14.2731 10.0537 12.9693 10.4565 12.7325C10.8594 12.4957 11.8015 12.1998 11.5993 11.3103C11.397 10.4224 10.8594 10.1264 10.4565 10.5999C10.0537 11.0735 10.1869 11.7246 9.58182 11.7838C8.9784 11.8446 9.24805 11.1935 9.24805 11.1935Z" stroke="#263238" stroke-width="0.164422" stroke-miterlimit="10" stroke-linecap="round" stroke-linejoin="round"/>
<path d="M10.8609 14.7468C10.8609 14.7468 9.92041 14.6284 9.92041 15.1611C9.92041 15.6939 10.1901 16.5242 10.3907 16.5242C10.5929 16.5242 11.198 16.5834 11.3311 16.1099C11.466 15.6363 11.3986 15.5179 11.3986 15.222C11.3986 14.9244 10.8609 14.7468 10.8609 14.7468Z" stroke="#263238" stroke-width="0.164422" stroke-miterlimit="10" stroke-linecap="round" stroke-linejoin="round"/>
<path d="M13.9028 29.6151C13.9028 29.6151 14.1725 27.9561 15.3152 27.8377C16.4579 27.7194 17.8029 29.2008 17.4659 30.0295C17.1304 30.8582 16.1883 31.5701 16.1883 31.5701L15.9186 32.6948H14.7759C14.7759 32.6948 14.7085 31.3909 15.1113 31.1541C15.5142 30.9174 16.4563 30.6214 16.2541 29.7319C16.0518 28.844 15.5142 28.548 15.1113 29.0216C14.7085 29.4951 14.8417 30.1462 14.2366 30.2054C13.6332 30.2663 13.9028 29.6151 13.9028 29.6151Z" stroke="#263238" stroke-width="0.164422" stroke-miterlimit="10" stroke-linecap="round" stroke-linejoin="round"/>
<path d="M15.5157 33.1699C15.5157 33.1699 14.5752 33.0515 14.5752 33.5842C14.5752 34.117 14.8448 34.9473 15.0454 34.9473C15.2477 34.9473 15.8528 35.0065 15.9859 34.533C16.1208 34.0594 16.0533 33.941 16.0533 33.6451C16.0533 33.3475 15.5157 33.1699 15.5157 33.1699Z" stroke="#263238" stroke-width="0.164422" stroke-miterlimit="10" stroke-linecap="round" stroke-linejoin="round"/>
<path d="M44.311 3.98655C44.311 3.98655 44.482 2.93425 45.2071 2.86026C45.9322 2.78462 46.7855 3.72511 46.5718 4.24962C46.358 4.77577 45.7612 5.22629 45.7612 5.22629L45.5902 5.93988H44.8651C44.8651 5.93988 44.8223 5.11283 45.0788 4.96321C45.3353 4.81359 45.9322 4.6245 45.8039 4.06218C45.6757 3.49821 45.3353 3.31077 45.0788 3.61166C44.8223 3.91256 44.9078 4.32525 44.5247 4.36307C44.1416 4.39924 44.311 3.98655 44.311 3.98655Z" stroke="#263238" stroke-width="0.164422" stroke-miterlimit="10" stroke-linecap="round" stroke-linejoin="round"/>
<path d="M45.3351 6.24061C45.3351 6.24061 44.7383 6.16497 44.7383 6.50368C44.7383 6.84239 44.9093 7.36854 45.0375 7.36854C45.1658 7.36854 45.5489 7.40636 45.6344 7.10547C45.7199 6.80457 45.6771 6.73058 45.6771 6.5415C45.6755 6.35241 45.3351 6.24061 45.3351 6.24061Z" stroke="#263238" stroke-width="0.164422" stroke-miterlimit="10" stroke-linecap="round" stroke-linejoin="round"/>
<path d="M32.0554 13.9377C32.0554 13.9377 32.2264 12.8854 32.9515 12.8114C33.6766 12.7358 34.53 13.6763 34.3162 14.2008C34.1025 14.7269 33.5056 15.1775 33.5056 15.1775L33.3346 15.891H32.6095C32.6095 15.891 32.5668 15.064 32.8233 14.9144C33.0798 14.7648 33.6766 14.5757 33.5484 14.0134C33.4201 13.4494 33.0798 13.2619 32.8233 13.5628C32.5668 13.8637 32.6523 14.2764 32.2692 14.3142C31.8844 14.3521 32.0554 13.9377 32.0554 13.9377Z" stroke="#263238" stroke-width="0.164422" stroke-miterlimit="10" stroke-linecap="round" stroke-linejoin="round"/>
<path d="M33.0798 16.192C33.0798 16.192 32.4829 16.1164 32.4829 16.4551C32.4829 16.7938 32.6539 17.32 32.7822 17.32C32.9104 17.32 33.2935 17.3578 33.379 17.0569C33.4645 16.756 33.4218 16.682 33.4218 16.4929C33.4201 16.3055 33.0798 16.192 33.0798 16.192Z" stroke="#263238" stroke-width="0.164422" stroke-miterlimit="10" stroke-linecap="round" stroke-linejoin="round"/>
<path d="M52.1061 7.7092C52.1061 7.7092 52.2771 6.6569 53.0022 6.58291C53.7273 6.50728 54.5807 7.44777 54.3669 7.97228C54.1532 8.49843 53.5563 8.94894 53.5563 8.94894L53.3853 9.66253H52.6602C52.6602 9.66253 52.6175 8.83549 52.874 8.68587C53.1305 8.53624 53.7273 8.34716 53.5991 7.78484C53.4708 7.22087 53.1305 7.03343 52.874 7.33432C52.6175 7.63521 52.703 8.04791 52.3199 8.08573C51.9368 8.12354 52.1061 7.7092 52.1061 7.7092Z" stroke="#263238" stroke-width="0.164422" stroke-miterlimit="10" stroke-linecap="round" stroke-linejoin="round"/>
<path d="M53.1305 9.96351C53.1305 9.96351 52.5337 9.88787 52.5337 10.2266C52.5337 10.5653 52.7047 11.0914 52.8329 11.0914C52.9612 11.0914 53.3443 11.1293 53.4298 10.8284C53.5153 10.5275 53.4725 10.4535 53.4725 10.2644C53.4709 10.077 53.1305 9.96351 53.1305 9.96351Z" stroke="#263238" stroke-width="0.164422" stroke-miterlimit="10" stroke-linecap="round" stroke-linejoin="round"/>
<path d="M50.7876 10.9587C54.9228 14.3688 53.4644 19.6978 48.6978 20.4919C43.433 21.3699 43.8803 16.3172 38.6073 16.1051C33.3359 15.893 35.7118 17.5964 38.6944 18.4745C41.677 19.3525 40.7119 21.2828 36.062 19.2637C31.4122 17.2462 29.7449 16.018 26.9366 16.1923C24.1283 16.3682 15.2676 19.7898 15.4419 22.2463C15.6178 24.7028 14.3896 26.9849 15.7921 28.2132C17.1963 29.4414 21.4959 31.8979 22.5482 28.3891C23.3308 25.7797 25.373 23.8511 26.6949 22.9599" stroke="#263238" stroke-width="0.164422" stroke-linecap="round" stroke-linejoin="round"/>
<path d="M27.7258 22.4224L26.6093 23.792L26.6307 23.0192L25.9697 22.618L27.7258 22.4224Z" fill="#263238"/>
<path d="M24.3091 6.03047C25.2545 5.62434 26.0848 5.29714 26.6735 5.13601C29.5689 4.34679 31.0602 7.24225 32.2885 9.87465C33.5167 12.507 36.5881 15.0506 39.3948 13.5593C42.2031 12.068 43.4313 6.7161 49.3094 9.96179C49.4952 10.0637 49.6728 10.169 49.8438 10.2775" stroke="#263238" stroke-width="0.164422" stroke-linecap="round" stroke-linejoin="round"/>
<path d="M50.7878 10.9584L49.063 10.5687L49.7651 10.2431L49.8292 9.47363L50.7878 10.9584Z" fill="#263238"/>
<path d="M25.2693 4.69849C25.2693 4.69849 16.407 7.59395 15.7049 9.17405C15.1968 10.3168 19.6477 8.10695 23.2453 6.4989" stroke="#263238" stroke-width="0.164422" stroke-linecap="round" stroke-linejoin="round"/>
<path d="M24.3093 6.03052L23.091 7.30972L23.1715 6.54187L22.5435 6.08971L24.3093 6.03052Z" fill="#263238"/>
<path d="M6.55664 21.4681C8.05781 22.1636 11.0569 21.9613 13.1615 23.211C15.9698 24.8782 12.2835 26.9844 13.0743 28.7388C13.8635 30.4932 18.6893 31.4583 21.0586 30.8451C23.428 30.2301 24.9193 28.3886 26.1475 25.7562C27.3757 23.1238 29.482 20.8433 30.4471 20.5802C31.4123 20.3171 41.59 22.6864 43.2572 23.2997C44.9245 23.9147 45.1875 24.8798 47.1178 26.1081C49.0482 27.3363 48.7851 25.406 48.3461 24.2649C47.9071 23.1238 45.8896 23.2126 44.1352 21.5454C42.3809 19.8781 40.7136 18.1237 41.2398 19.5279C41.7659 20.9321 42.7311 22.3362 40.2746 21.6341C37.8182 20.9321 33.9016 19.1152 33.4643 19.1152C33.4643 19.1152 30.5047 17.568 29.4951 18.1731C28.4856 18.7781 29.5625 18.913 32.7918 19.9225C33.7602 20.2251 34.4376 20.4372 34.9128 20.5851" stroke="#263238" stroke-width="0.164422" stroke-linecap="round" stroke-linejoin="round"/>
<path d="M36.0176 20.9305L34.2583 21.0801L34.8272 20.5573L34.6562 19.8042L36.0176 20.9305Z" fill="#263238"/>
<path d="M23.0596 1.88379C17.7323 3.47375 14.7974 5.73455 15.3548 5.66385C16.0569 5.5767 19.8303 4.43561 23.1632 3.20738C26.4976 1.97915 29.4803 2.76838 26.3217 3.38332C23.1632 3.99825 16.2312 6.629 14.827 7.50701C13.4228 8.38503 15.0901 9.7004 15.1772 10.6656C15.2644 11.6307 13.8618 12.0697 13.1598 13.0349C12.4577 14 14.1249 17.7735 13.2469 18.1237C12.3837 18.469 6.08468 18.4739 5.12939 20.1461" stroke="#263238" stroke-width="0.164422" stroke-linecap="round" stroke-linejoin="round"/>
<path d="M5.62273 21.2002L4.54248 19.801L5.2906 19.9983L5.83155 19.4458L5.62273 21.2002Z" fill="#263238"/>
<path d="M39.3522 5.35818C38.2736 5.18389 37.0799 4.79421 35.9734 4.2582C33.2538 2.94282 41.0622 3.55611 41.6771 3.11711C42.2921 2.6781 35.7991 -0.48044 27.6388 0.836578C26.4073 1.03553 25.2498 1.28545 24.1777 1.56826" stroke="#263238" stroke-width="0.164422" stroke-linecap="round" stroke-linejoin="round"/>
<path d="M23.0596 1.8843L24.4703 0.818848L24.2664 1.56532L24.8123 2.1112L23.0596 1.8843Z" fill="#263238"/>
<path d="M51.0651 5.75063C51.0651 5.75063 50.802 3.99625 47.7306 2.76802C44.6592 1.53979 43.5198 3.03109 42.7289 4.5224C42.3803 5.18009 41.5549 5.46289 40.5076 5.4596" stroke="#263238" stroke-width="0.164422" stroke-linecap="round" stroke-linejoin="round"/>
<path d="M39.3516 5.35783L41.032 4.8103L40.5962 5.4499L40.9349 6.14376L39.3516 5.35783Z" fill="#263238"/>
<path d="M57.1066 18.3394C56.7679 20 56.0937 20.98 55.3654 21.368C54.05 22.0701 53.3479 22.6834 53.9612 23.3855C54.5761 24.0875 55.5413 23.4726 55.6284 24.7008C55.7156 25.9291 55.1023 28.2984 52.4699 29.3507C50.3423 30.2024 48.7885 30.0215 47.6211 28.9939" stroke="#263238" stroke-width="0.164422" stroke-linecap="round" stroke-linejoin="round"/>
<path d="M46.855 28.1255L48.4515 28.8818L47.6952 29.0462L47.465 29.7829L46.855 28.1255Z" fill="#263238"/>
<path d="M48.8722 6.54049C48.8722 6.54049 50.8025 8.12058 50.2764 6.80356C49.7502 5.48819 48.6963 4.52303 47.7311 5.57533C46.766 6.62763 47.907 8.0318 49.3983 8.29487C50.8897 8.55795 53.4349 8.29487 54.9262 12.9447C56.4175 17.5946 53.083 17.9464 52.82 19.1747C52.5569 20.4029 55.9785 19.7896 56.1544 16.8053C56.3304 13.8227 54.3113 11.1903 54.4001 9.87332C54.4872 8.55795 56.4175 7.85586 57.1196 12.9447C57.3514 14.6202 57.3827 16.0293 57.2725 17.1901" stroke="#263238" stroke-width="0.164422" stroke-linecap="round" stroke-linejoin="round"/>
<path d="M57.1062 18.3391L56.6655 16.6274L57.2755 17.1043L57.9908 16.8099L57.1062 18.3391Z" fill="#263238"/>
<path d="M0.765625 50.2619C0.765625 50.2619 4.96002 49.3789 5.29051 48.6062C5.621 47.8334 5.07019 45.515 6.61575 45.0744C8.16132 44.6321 10.9203 45.6268 11.5829 45.4049C12.2456 45.1846 13.459 42.5357 14.1216 42.2036C14.3995 42.0655 15.1821 42.0424 15.996 42.0638" stroke="#263238" stroke-width="0.328844" stroke-linecap="round" stroke-linejoin="round"/>
<path d="M18.3146 42.2053L14.9785 43.3743L15.822 42.0787L15.115 40.7041L18.3146 42.2053Z" fill="#263238"/>
<path d="M5.29053 58.8712C5.29053 58.8712 8.49182 58.5407 8.93247 57.6578C9.37476 56.7748 8.49017 55.4496 9.70525 54.0159C10.9187 52.5805 12.1338 54.2362 13.3472 53.6854C14.5606 53.1329 15.4436 51.9195 15.7757 51.6991C16.1062 51.4788 16.5485 51.8093 16.9891 51.4788C17.3048 51.2421 18.0118 50.3887 18.5133 49.7573" stroke="#263238" stroke-width="0.328844" stroke-linecap="round" stroke-linejoin="round"/>
<path d="M20.3006 48.2759L18.6926 51.4246L18.4098 49.9037L16.9497 49.3972L20.3006 48.2759Z" fill="#263238"/>
<path d="M64.5597 53.1326C64.5597 53.1326 61.3584 53.0224 60.4754 52.47C59.5925 51.9175 59.262 50.4838 58.4892 50.1516C57.7164 49.8211 54.9574 49.3788 54.9574 49.3788C54.9574 49.3788 54.2948 49.2687 53.3017 48.2756C52.4467 47.4206 52.9005 47.5472 52.5503 47.3877" stroke="#263238" stroke-width="0.328844" stroke-linecap="round" stroke-linejoin="round"/>
<path d="M50.3208 46.7299L53.8526 46.5967L52.6655 47.5865L52.9351 49.109L50.3208 46.7299Z" fill="#263238"/>
<path d="M67.6492 44.634C67.6492 44.634 65.9935 44.8543 65.0004 44.8543C64.0073 44.8543 61.3585 44.1917 61.3585 44.1917L59.3722 43.4189C59.3722 43.4189 57.2759 43.6393 56.6132 43.6393C56.2252 43.6393 55.4935 43.6771 54.9575 43.7083" stroke="#263238" stroke-width="0.328844" stroke-linecap="round" stroke-linejoin="round"/>
<path d="M52.6392 43.8613L55.8191 42.3174L55.1285 43.7018L55.9901 44.9859L52.6392 43.8613Z" fill="#263238"/>
<path d="M57.8271 65.0514C57.8271 65.0514 56.2815 62.7331 55.3986 62.1823C54.5156 61.6298 52.7498 60.0859 52.7498 60.0859L52.3075 57.437L51.5659 56.4834" stroke="#263238" stroke-width="0.328844" stroke-linecap="round" stroke-linejoin="round"/>
<path d="M50.4316 54.4561L53.2317 56.6133H51.6862L50.92 57.9566L50.4316 54.4561Z" fill="#263238"/>
<path d="M14.3403 63.0655C14.3403 63.0655 15.2233 61.1895 15.6656 60.4167C16.1079 59.6439 16.218 59.2032 16.7688 58.0983C17.0418 57.5525 17.4775 57.0608 17.8474 56.7024" stroke="#263238" stroke-width="0.328844" stroke-linecap="round" stroke-linejoin="round"/>
<path d="M19.3075 54.8989L18.2552 58.2729L17.7175 56.8227L16.1934 56.5695L19.3075 54.8989Z" fill="#263238"/>
<path d="M23.1388 72.3666C23.1388 72.3666 22.8395 73.7034 23.1667 73.9763C23.4939 74.2492 25.6215 75.1486 32.1951 75.4758C38.7687 75.803 44.3607 74.1128 44.7701 73.6754C45.1795 73.2397 44.8243 71.2485 44.8243 71.2485C44.8243 71.2485 41.5244 73.1854 37.7591 73.6211C33.9955 74.0569 28.4858 73.5389 26.3581 72.9388C24.2305 72.3387 23.2752 72.0657 23.2752 72.0657L23.1388 72.3666Z" fill="#6747C7" stroke="#263238" stroke-width="0.164422" stroke-miterlimit="10" stroke-linecap="round" stroke-linejoin="round"/>
<path d="M32.2117 44.6993C32.2117 44.6993 26.9502 44.8012 26.5425 45.1597C26.1331 45.5165 24.3968 65.5414 23.938 67.4816C23.4776 69.4234 22.2527 71.8749 22.7114 72.5392C23.1718 73.2035 30.5774 74.583 34.9198 74.583C39.2621 74.583 43.7048 72.8467 44.5746 71.8749C45.4427 70.9048 44.984 69.6273 44.8295 69.014C44.6749 68.4007 43.8594 64.2129 43.9103 64.06C43.9613 63.907 45.4427 58.8494 45.4427 58.8494C45.4427 58.8494 49.1209 50.5741 48.6095 49.7059C48.0982 48.8378 42.9402 46.0278 42.9402 46.0278L33.5419 44.5464L32.2117 44.6993Z" fill="#6747C7" stroke="#263238" stroke-width="0.164422" stroke-miterlimit="10" stroke-linecap="round" stroke-linejoin="round"/>
<path d="M23.9363 67.4815C23.9363 67.4815 25.4605 67.179 26.7298 67.2447C27.9991 67.3105 28.9117 67.5703 28.9117 67.5703C28.9117 67.5703 27.4796 65.8767 26.6969 65.7468C25.9159 65.6169 24.2553 66.2023 24.2553 66.2023L23.9363 67.4815Z" fill="#263238" stroke="#263238" stroke-width="0.164422" stroke-miterlimit="10" stroke-linecap="round" stroke-linejoin="round"/>
<path d="M36.511 47.6028C39.0264 47.6028 41.0655 46.1394 41.0655 44.3341C41.0655 42.5289 39.0264 41.0654 36.511 41.0654C33.9957 41.0654 31.9565 42.5289 31.9565 44.3341C31.9565 46.1394 33.9957 47.6028 36.511 47.6028Z" fill="#263238" stroke="#263238" stroke-width="0.164422" stroke-miterlimit="10" stroke-linecap="round" stroke-linejoin="round"/>
<path d="M35.1953 55.8387C35.4452 55.6612 35.6853 55.5132 35.9073 55.408" stroke="#263238" stroke-width="0.164422" stroke-miterlimit="10" stroke-linecap="round" stroke-linejoin="round"/>
<path d="M31.2292 59.8059C31.2292 59.8059 33.0231 57.6075 34.6525 56.2593" stroke="#263238" stroke-width="0.164422" stroke-miterlimit="10" stroke-linecap="round" stroke-linejoin="round"/>
<path d="M33.334 56.0161C33.334 56.0161 31.8378 57.9333 31.4629 58.6354" stroke="#263238" stroke-width="0.164422" stroke-miterlimit="10" stroke-linecap="round" stroke-linejoin="round"/>
<path d="M33.7632 50.3569C33.8569 50.4819 33.9473 50.5921 34.0361 50.6825" stroke="#263238" stroke-width="0.164422" stroke-miterlimit="10" stroke-linecap="round" stroke-linejoin="round"/>
<path d="M31.6963 46.5669C31.6963 46.5669 32.6861 48.7767 33.5575 50.0674" stroke="#263238" stroke-width="0.164422" stroke-miterlimit="10" stroke-linecap="round" stroke-linejoin="round"/>
<path d="M31.1816 46.3794C31.1816 46.3794 32.0712 49.2321 32.4444 49.7944" stroke="#263238" stroke-width="0.164422" stroke-miterlimit="10" stroke-linecap="round" stroke-linejoin="round"/>
<path d="M29.7578 55.2959C29.8022 55.5721 29.8499 55.8089 29.8976 55.9865" stroke="#263238" stroke-width="0.164422" stroke-miterlimit="10" stroke-linecap="round" stroke-linejoin="round"/>
<path d="M29.2019 49.4263C29.2019 49.4263 29.414 52.9169 29.7034 54.941" stroke="#263238" stroke-width="0.164422" stroke-miterlimit="10" stroke-linecap="round" stroke-linejoin="round"/>
<path d="M26.3 72.2231C27.0991 72.8118 28.6003 73.7901 30.2429 74.2126" stroke="#263238" stroke-width="0.164422" stroke-miterlimit="10" stroke-linecap="round" stroke-linejoin="round"/>
<path d="M25.6965 71.748C25.6965 71.748 25.8281 71.8615 26.0615 72.0424" stroke="#263238" stroke-width="0.164422" stroke-miterlimit="10" stroke-linecap="round" stroke-linejoin="round"/>
<path d="M22.6933 63.9629C22.6933 63.9629 22.2921 65.0925 22.1408 65.418C21.9896 65.7436 22.0899 66.1464 22.2921 66.3207C22.4927 66.4967 22.8939 66.9225 23.2967 66.9981C23.6979 67.0738 23.8245 66.9735 23.8738 66.7975C23.9248 66.6216 23.9248 66.6216 23.9248 66.6216C23.9248 66.6216 24.7272 66.9735 25.2796 66.9225C25.8321 66.8715 26.3582 66.5213 26.3582 66.5213L27.1869 66.6216L28.0403 64.3378C28.0403 64.3378 26.7857 63.9366 26.3089 63.7853C25.8321 63.6341 23.8245 63.1079 23.272 63.2329C22.7179 63.3595 22.6933 63.9629 22.6933 63.9629Z" fill="#EBC0BB" stroke="#263238" stroke-width="0.164422" stroke-miterlimit="10" stroke-linecap="round" stroke-linejoin="round"/>
<path d="M23.9231 66.6234L22.9695 66.3965" stroke="#263238" stroke-width="0.164422" stroke-miterlimit="10" stroke-linecap="round" stroke-linejoin="round"/>
<path d="M27.8603 64.3898C27.8603 64.3898 26.8787 65.6526 26.831 66.261C26.785 66.8693 27.2996 66.9153 27.7205 67.0568C28.1414 67.1965 30.0356 64.2501 29.8975 64.2155C29.7577 64.1794 28.393 63.8357 27.8603 64.3898Z" fill="#263238" stroke="#263238" stroke-width="0.164422" stroke-miterlimit="10" stroke-linecap="round" stroke-linejoin="round"/>
<path d="M43.0168 51.8532C43.0168 51.8532 39.4143 58.7293 38.7599 60.413C38.1055 62.0967 37.9641 62.6113 37.9641 62.6113L37.7306 64.0155C37.7306 64.0155 29.8713 63.9694 29.3106 64.1552C28.7499 64.3427 26.7374 66.2598 27.7206 67.0556C28.7039 67.8514 31.8377 68.5519 35.1591 69.4414C38.4804 70.3309 40.9122 70.6104 41.4745 69.6288C42.0352 68.6472 46.9941 59.244 47.9297 56.0624C48.8653 52.8808 50.9238 50.6825 49.7548 48.8591C48.5857 47.034 44.1414 46.8942 43.5331 46.988" fill="#6747C7"/>
<path d="M43.0168 51.8532C43.0168 51.8532 39.4143 58.7293 38.7599 60.413C38.1055 62.0967 37.9641 62.6113 37.9641 62.6113L37.7306 64.0155C37.7306 64.0155 29.8713 63.9694 29.3106 64.1552C28.7499 64.3427 26.7374 66.2598 27.7206 67.0556C28.7039 67.8514 31.8377 68.5519 35.1591 69.4414C38.4804 70.3309 40.9122 70.6104 41.4745 69.6288C42.0352 68.6472 46.9941 59.244 47.9297 56.0624C48.8653 52.8808 50.9238 50.6825 49.7548 48.8591C48.5857 47.034 44.1414 46.8942 43.5331 46.988" stroke="#263238" stroke-width="0.164422" stroke-miterlimit="10" stroke-linecap="round" stroke-linejoin="round"/>
<path d="M47.3475 55.1746C46.2311 56.0855 44.3123 57.5554 42.9426 58.1161" stroke="#263238" stroke-width="0.164422" stroke-miterlimit="10" stroke-linecap="round" stroke-linejoin="round"/>
<path d="M48.3177 54.3535C48.3177 54.3535 48.099 54.541 47.7422 54.8336" stroke="#263238" stroke-width="0.164422" stroke-miterlimit="10" stroke-linecap="round" stroke-linejoin="round"/>
<path d="M44.8486 57.5308C44.8486 57.5308 43.3819 58.2641 42.356 58.6538" stroke="#263238" stroke-width="0.164422" stroke-miterlimit="10" stroke-linecap="round" stroke-linejoin="round"/>
<path d="M37.5928 68.0176C37.6947 68.1754 37.8032 68.3119 37.9167 68.4171" stroke="#263238" stroke-width="0.164422" stroke-miterlimit="10" stroke-linecap="round" stroke-linejoin="round"/>
<path d="M36.4233 64.7012C36.4233 64.7012 36.7423 66.2615 37.2718 67.4174" stroke="#263238" stroke-width="0.164422" stroke-miterlimit="10" stroke-linecap="round" stroke-linejoin="round"/>
<path d="M35.2773 65.3259C35.2773 65.3259 35.3119 67.0968 35.4862 67.5127" stroke="#263238" stroke-width="0.164422" stroke-miterlimit="10" stroke-linecap="round" stroke-linejoin="round"/>
<path d="M38.3379 64.9316L42.9812 66.8488L43.5205 66.099L38.3379 64.9316Z" fill="#263238" stroke="#263238" stroke-width="0.164422" stroke-miterlimit="10" stroke-linecap="round" stroke-linejoin="round"/>
<path d="M37.687 61.717C37.687 61.717 40.4279 61.375 40.7699 61.0313C41.1119 60.6893 42.1395 59.7554 42.4519 59.6929C42.7627 59.6305 44.226 59.9724 44.5697 59.9724C44.9117 59.9724 45.4099 59.3493 45.7847 59.3805C46.158 59.4118 46.3454 59.8787 46.2205 60.252C46.0955 60.6252 45.3803 61.0297 45.2241 61.0609C45.0679 61.0922 44.8196 61.1859 44.8196 61.1859C44.8196 61.1859 46.1267 61.4358 46.5329 61.5904C46.9373 61.7466 46.9373 62.1198 46.7811 62.493C46.6249 62.8663 46.4704 63.0849 46.2829 63.2099C46.0955 63.3349 45.691 63.8643 45.691 63.8643C45.691 63.8643 45.8472 64.3937 45.5973 64.7357C45.3474 65.0777 45.1616 65.2652 45.0366 65.3589C44.9117 65.4526 45.1846 65.5036 44.9133 65.8291C44.7226 66.056 44.6979 66.1465 43.7903 66.2928C43.4993 66.3405 42.2957 66.1054 41.4555 65.8259C40.6153 65.5463 39.152 65.2027 39.152 65.2027L37.1592 64.7357L37.687 61.717Z" fill="#EBC0BB" stroke="#263238" stroke-width="0.164422" stroke-miterlimit="10" stroke-linecap="round" stroke-linejoin="round"/>
<path d="M45.9061 62.4255C45.9061 62.4255 45.9357 63.1177 45.7565 63.3578C45.5756 63.5979 45.306 63.7491 45.306 63.7491C45.306 63.7491 45.3964 64.1092 45.2451 64.4413C45.0955 64.7718 45.0955 64.7718 45.0955 64.7718C45.0955 64.7718 44.8505 65.0662 44.9409 65.2635" stroke="#263238" stroke-width="0.164422" stroke-miterlimit="10" stroke-linecap="round" stroke-linejoin="round"/>
<path d="M35.7876 61.3518L37.7278 61.6576L37.1655 64.7225L35.9915 64.4676L35.7876 61.3518Z" fill="#263238" stroke="#263238" stroke-width="0.164422" stroke-miterlimit="10" stroke-linecap="round" stroke-linejoin="round"/>
<path d="M28.9937 45.1087C28.9937 45.1087 26.4402 43.8822 24.8059 44.4955C23.1715 45.1087 23.0696 48.5813 23.0186 49.0417C22.9676 49.5021 21.1804 61.0971 20.9748 62.9863C20.771 64.8755 30.4751 65.7963 32.6718 65.7453C34.8685 65.6944 35.8386 65.0301 35.9915 64.4678C36.1444 63.9054 36.9106 61.5559 36.4009 61.25C35.8895 60.9442 26.746 59.0024 26.746 59.0024L26.2347 58.3891C26.2347 58.3891 27.3577 51.6462 27.5632 50.5741" fill="#6747C7"/>
<path d="M28.9937 45.1087C28.9937 45.1087 26.4402 43.8822 24.8059 44.4955C23.1715 45.1087 23.0696 48.5813 23.0186 49.0417C22.9676 49.5021 21.1804 61.0971 20.9748 62.9863C20.771 64.8755 30.4751 65.7963 32.6718 65.7453C34.8685 65.6944 35.8386 65.0301 35.9915 64.4678C36.1444 63.9054 36.9106 61.5559 36.4009 61.25C35.8895 60.9442 26.746 59.0024 26.746 59.0024L26.2347 58.3891C26.2347 58.3891 27.3577 51.6462 27.5632 50.5741" stroke="#263238" stroke-width="0.164422" stroke-miterlimit="10" stroke-linecap="round" stroke-linejoin="round"/>
<path d="M23.6733 59.2952C23.5483 59.3428 23.4316 59.3988 23.3247 59.4612" stroke="#263238" stroke-width="0.164422" stroke-miterlimit="10" stroke-linecap="round" stroke-linejoin="round"/>
<path d="M26.7461 59.0023C26.7461 59.0023 25.3912 58.8823 24.2534 59.1273" stroke="#263238" stroke-width="0.164422" stroke-miterlimit="10" stroke-linecap="round" stroke-linejoin="round"/>
<path d="M23.0171 58.0322C23.0171 58.0322 24.7024 57.8283 25.7251 58.2871" stroke="#263238" stroke-width="0.164422" stroke-miterlimit="10" stroke-linecap="round" stroke-linejoin="round"/>
<path d="M33.2644 45.7319C33.2644 45.7319 35.3641 46.9092 36.9507 46.5507C38.5374 46.1923 38.3845 42.455 38.3845 42.455L37.1053 41.5852L33.2644 45.7319Z" fill="#EBC0BB" stroke="#263238" stroke-width="0.164422" stroke-miterlimit="10" stroke-linecap="round" stroke-linejoin="round"/>
<path d="M37.0724 42.8347L35.4085 43.4168L33.2644 45.7318C33.2644 45.7318 33.8218 46.0442 34.5765 46.2974L37.0724 42.8347Z" fill="#263238" stroke="#263238" stroke-width="0.164422" stroke-miterlimit="10" stroke-linecap="round" stroke-linejoin="round"/>
<path d="M30.3045 29.6976C30.3045 29.6976 26.2433 33.3083 26.2022 36.2629C26.1611 39.2176 28.0487 42.3762 28.0487 42.3762C28.0487 42.3762 25.9967 45.8224 25.9556 46.3568C25.9145 46.8895 27.1871 48.0799 27.3088 48.0799C27.4321 48.0799 28.6619 47.054 28.6619 47.054L27.9648 48.5716L30.0579 49.6798C30.0579 49.6798 31.0395 45.9457 31.5755 44.7553C31.5755 44.7553 29.3196 40.5708 29.1552 38.9299C28.9908 37.2889 29.073 35.7713 29.5252 34.9903C29.9757 34.211 32.151 33.1028 32.2743 33.0206C32.3976 32.9383 35.1878 35.237 35.6384 37.164C36.0889 39.0926 37.6164 42.5044 37.6164 42.5044C37.6164 42.5044 36.9093 46.2318 36.5821 47.2167C36.2533 48.2016 35.1467 49.3098 35.1467 49.3098C35.1467 49.3098 36.7877 49.9248 37.4437 50.0481C38.0998 50.1714 38.2642 50.1714 38.2642 50.1714C38.2642 50.1714 39.2491 48.5305 39.3313 48.4071C39.4135 48.2838 39.4135 50.0481 39.4135 50.0481C39.4135 50.0481 41.1366 49.9248 42.942 48.9399C44.7473 47.955 45.8144 46.7235 45.8144 46.7235C45.8144 46.7235 46.9226 46.2318 47.4554 44.5893C47.9881 42.9483 46.8404 41.2663 45.4856 39.6648C44.1324 38.065 43.6391 37.5717 43.1886 35.1926C42.7381 32.8134 41.916 30.3092 39.7012 28.7916C37.4848 27.274 34.4496 27.2329 32.9731 28.0534C31.4933 28.8771 30.3045 29.6976 30.3045 29.6976Z" fill="#263238" stroke="#263238" stroke-width="0.164422" stroke-miterlimit="10" stroke-linecap="round" stroke-linejoin="round"/>
<path d="M32.2914 31.4993C32.2914 31.4993 29.169 33.9048 28.707 34.4687C28.2466 35.0327 28.6051 36.2609 28.5015 37.8476C28.3995 39.4343 29.2183 41.1245 29.6787 41.9943C30.1391 42.8641 31.369 45.5787 32.2897 45.7826C33.2105 45.9881 33.2631 45.7316 33.2631 45.7316C33.2631 45.7316 36.642 44.1449 37.6154 42.5057C37.6154 42.5057 37.0004 38.9213 36.6946 37.5401C36.3871 36.1573 36.2342 35.7989 36.2342 35.7989C36.2342 35.7989 34.544 33.5463 33.7761 32.8294C33.0066 32.1126 32.2914 31.4993 32.2914 31.4993Z" fill="#EBC0BB" stroke="#263238" stroke-width="0.164422" stroke-miterlimit="10" stroke-linecap="round" stroke-linejoin="round"/>
<path d="M29.9121 39.0154C29.9121 39.0154 30.2508 38.6043 30.6224 38.8082" stroke="#263238" stroke-width="0.164422" stroke-miterlimit="10" stroke-linecap="round" stroke-linejoin="round"/>
<path d="M31.0234 39.2125C31.081 39.4723 30.9955 39.7124 30.8327 39.7486C30.6699 39.7847 30.4907 39.6039 30.4315 39.3441C30.374 39.0843 30.4595 38.8442 30.6222 38.8081C30.7867 38.7719 30.9659 38.9528 31.0234 39.2125Z" fill="#263238"/>
<path d="M34.3923 39.1784C34.4499 39.4382 34.3644 39.6782 34.2016 39.7144C34.0388 39.7506 33.8596 39.5697 33.8004 39.3099C33.7429 39.0501 33.8284 38.8101 33.9911 38.7739C34.1556 38.7377 34.3348 38.9186 34.3923 39.1784Z" fill="#263238"/>
<path d="M33.22 38.843C33.22 38.843 33.6294 38.5865 34.1325 38.843" stroke="#263238" stroke-width="0.164422" stroke-miterlimit="10" stroke-linecap="round" stroke-linejoin="round"/>
<path d="M32.2915 31.4994C32.2915 31.4994 33.5181 34.8536 36.2343 35.8007C36.2343 35.8007 33.4951 34.0923 33.0594 31.2429" fill="#263238"/>
<path d="M32.2915 31.4994C32.2915 31.4994 33.5181 34.8536 36.2343 35.8007C36.2343 35.8007 33.4951 34.0923 33.0594 31.2429" stroke="#263238" stroke-width="0.164422" stroke-miterlimit="10" stroke-linecap="round" stroke-linejoin="round"/>
<path d="M32.3258 37.2196C32.3258 37.2196 32.1055 37.4382 32.533 37.6158C32.9605 37.795 34.3811 38.1091 34.6803 37.8953C34.9796 37.6832 33.1117 37.0897 32.3258 37.2196Z" fill="#263238" stroke="#263238" stroke-width="0.164422" stroke-miterlimit="10" stroke-linecap="round" stroke-linejoin="round"/>
<path d="M30.4334 37.2048C30.4334 37.2048 29.2331 37.7244 28.9503 38.0121C28.6691 38.3015 30.2657 37.953 30.5485 37.6636C30.8313 37.3758 30.4334 37.2048 30.4334 37.2048Z" fill="#263238" stroke="#263238" stroke-width="0.164422" stroke-miterlimit="10" stroke-linecap="round" stroke-linejoin="round"/>
<path d="M30.856 38.0713C30.856 38.0713 31.2719 38.7569 31.3344 39.0677C31.3969 39.3784 31.4281 39.875 31.4281 39.875" stroke="#263238" stroke-width="0.164422" stroke-miterlimit="10" stroke-linecap="round" stroke-linejoin="round"/>
<path d="M31.5202 41.7661C31.5202 41.7661 31.4577 42.2002 31.6139 42.3564C31.7684 42.5109 32.1417 42.7592 32.824 42.4189" stroke="#263238" stroke-width="0.164422" stroke-miterlimit="10" stroke-linecap="round" stroke-linejoin="round"/>
<path d="M32.1106 43.5664C32.1106 43.5664 32.3276 43.6897 32.7617 43.5664" stroke="#263238" stroke-width="0.164422" stroke-miterlimit="10" stroke-linecap="round" stroke-linejoin="round"/>
<path d="M32.1959 37.4186C32.1959 37.4186 31.8539 36.8283 32.1959 36.3318" stroke="#263238" stroke-width="0.164422" stroke-miterlimit="10" stroke-linecap="round" stroke-linejoin="round"/>
</svg>
