<svg width="151" height="30" viewBox="0 0 151 30" fill="none" xmlns="http://www.w3.org/2000/svg">
<path d="M6.01234 18.3641V28.5254H0.771301V0.97419H6.01234V3.49386C7.53926 1.55248 9.72647 0.478516 12.1613 0.478516C17.2785 0.478516 20.9926 4.27868 20.9926 10.929C20.9926 17.5792 17.2785 21.4207 12.1613 21.4207C9.809 21.4207 7.6218 20.4294 6.01234 18.3641ZM15.5453 10.929C15.5453 7.50055 13.5231 5.1461 10.5106 5.1461C8.81857 5.1461 6.87897 6.13745 6.01234 7.41794V14.4813C6.87897 15.7205 8.81857 16.7531 10.5106 16.7531C13.5231 16.7531 15.5453 14.3987 15.5453 10.929Z" fill="#A283FF"/>
<path d="M23.1782 18.3228L25.448 14.6465C26.8924 16.0096 29.8637 17.3727 32.3397 17.3727C34.6095 17.3727 35.6825 16.5879 35.6825 15.3487C35.6825 13.9443 33.9492 13.4486 31.6795 12.9943C28.2542 12.3334 23.8385 11.5072 23.8385 6.75704C23.8385 3.41125 26.7686 0.478516 32.0096 0.478516C35.3936 0.478516 38.076 1.63509 40.0156 3.20472L37.9522 6.79835C36.7554 5.51786 34.4857 4.48521 32.0509 4.48521C30.1525 4.48521 28.9145 5.18741 28.9145 6.34398C28.9145 7.58317 30.4827 8.03753 32.7112 8.4919C36.1364 9.1528 40.7172 10.0615 40.7172 15.0183C40.7172 18.6945 37.6221 21.4207 32.0921 21.4207C28.6256 21.4207 25.2829 20.2641 23.1782 18.3228Z" fill="#A283FF"/>
<path d="M43.8767 28.7319L44.6608 24.023C45.1148 24.2295 45.8163 24.3534 46.3116 24.3534C47.6734 24.3534 48.5813 23.9817 49.0765 22.9077L49.8193 21.2142L41.7308 0.97419H47.3433L52.543 14.853L57.7428 0.97419H63.3965L54.0287 24.1882C52.543 27.9471 49.9019 28.9384 46.4766 29.021C45.8576 29.021 44.537 28.8971 43.8767 28.7319Z" fill="#A283FF"/>
<path d="M84.4307 20.925H79.1896V8.86365C79.1896 6.09615 77.7452 5.1461 75.5168 5.1461C73.4534 5.1461 71.8439 6.30268 70.9773 7.50055V20.925H65.7362V0.97419H70.9773V3.57647C72.2566 2.04815 74.6914 0.478516 77.9516 0.478516C82.326 0.478516 84.4307 2.95688 84.4307 6.83966V20.925Z" fill="#A283FF"/>
<path d="M88.3553 10.929C88.3553 5.14611 92.6059 0.478516 98.6723 0.478516C104.615 0.478516 108.659 4.93957 108.659 11.4659V12.6225H93.844C94.1741 15.1422 96.1962 17.2488 99.5802 17.2488C101.437 17.2488 103.624 16.5053 104.904 15.2661L107.215 18.6532C105.193 20.512 102.098 21.4207 99.0025 21.4207C92.9361 21.4207 88.3553 17.3314 88.3553 10.929ZM98.6723 4.65043C95.4122 4.65043 94.009 7.08749 93.7614 9.07019H103.583C103.459 7.1701 102.139 4.65043 98.6723 4.65043Z" fill="#A283FF"/>
<path d="M150.771 20.925H145.53V18.8597C144.168 20.4707 141.816 21.4207 139.216 21.4207C136.039 21.4207 132.283 19.2728 132.283 14.8117C132.283 10.1441 136.039 8.45059 139.216 8.45059C141.857 8.45059 144.21 9.27672 145.53 10.8877V8.12015C145.53 6.09615 143.797 4.77435 141.156 4.77435C139.01 4.77435 137.029 5.55917 135.337 7.1288L133.356 3.61778C135.791 1.46986 138.927 0.478516 142.064 0.478516C146.603 0.478516 150.771 2.29598 150.771 8.03753V20.925ZM145.53 16.1335V13.6552C144.664 12.4986 143.013 11.9203 141.321 11.9203C139.258 11.9203 137.566 13.0356 137.566 14.9357C137.566 16.7944 139.258 17.8684 141.321 17.8684C143.013 17.8684 144.664 17.2901 145.53 16.1335Z" fill="#A283FF"/>
<path d="M125.423 0.478516H130.547L115.518 21.0114H110.342L125.423 0.478516Z" fill="#6747C7"/>
<path d="M115.502 0.478516H110.325L115.502 7.17327H120.539L115.502 0.478516Z" fill="#6747C7"/>
<path d="M125.527 14.3856H120.367L125.527 21.0459H130.547L125.527 14.3856Z" fill="#6747C7"/>
</svg>
