<svg width="350" height="317" viewBox="0 0 350 317" fill="none" xmlns="http://www.w3.org/2000/svg">
<path d="M332.716 158.448C332.716 245.791 261.911 316.596 174.568 316.596C87.2251 316.596 16.4198 245.791 16.4198 158.448C16.4198 71.1054 87.2251 0.300049 174.568 0.300049C261.911 0.300049 332.716 71.1054 332.716 158.448Z" fill="#A283FF"/>
<path d="M291.235 40.4852C291.235 61.2471 274.404 78.0778 253.642 78.0778C232.88 78.0778 216.049 61.2471 216.049 40.4852C216.049 19.7234 232.88 2.89264 253.642 2.89264C274.404 2.89264 291.235 19.7234 291.235 40.4852Z" fill="white"/>
<path d="M348.272 101.843C348.272 121.173 332.602 136.843 313.272 136.843C293.942 136.843 278.272 121.173 278.272 101.843C278.272 82.5133 293.942 66.8433 313.272 66.8433C332.602 66.8433 348.272 82.5133 348.272 101.843Z" fill="white"/>
<path d="M272.222 279.868C272.222 299.198 256.552 314.868 237.222 314.868C217.892 314.868 202.222 299.198 202.222 279.868C202.222 260.538 217.892 244.868 237.222 244.868C256.552 244.868 272.222 260.538 272.222 279.868Z" fill="white"/>
<path d="M178.025 282.461C178.025 295.109 167.771 305.362 155.123 305.362C142.475 305.362 132.222 295.109 132.222 282.461C132.222 269.813 142.475 259.559 155.123 259.559C167.771 259.559 178.025 269.813 178.025 282.461Z" fill="white"/>
<path d="M262.716 119.127C262.716 130.343 253.624 139.436 242.407 139.436C231.191 139.436 222.099 130.343 222.099 119.127C222.099 107.911 231.191 98.8186 242.407 98.8186C253.624 98.8186 262.716 107.911 262.716 119.127Z" fill="white"/>
<path d="M210.864 76.7815C210.864 104.225 188.617 126.473 161.173 126.473C133.729 126.473 111.481 104.225 111.481 76.7815C111.481 49.3378 133.729 27.0902 161.173 27.0902C188.617 27.0902 210.864 49.3378 210.864 76.7815Z" fill="white"/>
<path d="M114.938 149.374C114.938 167.75 100.042 182.646 81.6667 182.646C63.2913 182.646 48.3951 167.75 48.3951 149.374C48.3951 130.999 63.2913 116.103 81.6667 116.103C100.042 116.103 114.938 130.999 114.938 149.374Z" fill="white"/>
<path d="M123.58 248.757C123.58 276.201 101.333 298.448 73.8889 298.448C46.4451 298.448 24.1975 276.201 24.1975 248.757C24.1975 221.313 46.4451 199.065 73.8889 199.065C101.333 199.065 123.58 221.313 123.58 248.757Z" fill="white"/>
<path d="M241.975 192.584C241.975 225.755 215.085 252.646 181.914 252.646C148.742 252.646 121.852 225.755 121.852 192.584C121.852 159.413 148.742 132.522 181.914 132.522C215.085 132.522 241.975 159.413 241.975 192.584Z" fill="white"/>
<path d="M98.5185 62.9544C98.5185 82.7616 82.4616 98.8186 62.6543 98.8186C42.8471 98.8186 26.7901 82.7616 26.7901 62.9544C26.7901 43.1471 42.8471 27.0902 62.6543 27.0902C82.4616 27.0902 98.5185 43.1471 98.5185 62.9544Z" fill="white"/>
<path d="M38.0247 121.72C38.0247 131.027 30.4799 138.572 21.1728 138.572C11.8658 138.572 4.32099 131.027 4.32099 121.72C4.32099 112.413 11.8658 104.868 21.1728 104.868C30.4799 104.868 38.0247 112.413 38.0247 121.72Z" fill="white"/>
<path d="M42.3457 182.214C42.3457 193.907 32.8663 203.386 21.1728 203.386C9.4794 203.386 0 193.907 0 182.214C0 170.52 9.4794 161.041 21.1728 161.041C32.8663 161.041 42.3457 170.52 42.3457 182.214Z" fill="white"/>
<path d="M350 200.362C350 228.283 327.366 250.917 299.444 250.917C271.523 250.917 248.889 228.283 248.889 200.362C248.889 172.441 271.523 149.806 299.444 149.806C327.366 149.806 350 172.441 350 200.362Z" fill="white"/>
<path d="M70.5401 251.177H65.679V245.214H70.5401V240.244H76.3735V245.214H81.2346V251.177H76.3735V256.146H70.5401V251.177ZM73.4568 229.312L57.9012 235.275V247.38C57.9012 257.418 64.5318 266.78 73.4568 269.065C82.3818 266.78 89.0123 257.418 89.0123 247.38V235.275L73.4568 229.312Z" fill="#A283FF"/>
<path d="M93.1884 144.783C92.5378 143.234 91.5914 141.825 90.4018 140.637C89.2159 139.446 87.807 138.499 86.2554 137.85C84.6658 137.182 82.958 136.84 81.2332 136.843H81.1752C79.4209 136.852 77.7247 137.199 76.127 137.882C74.5886 138.538 73.193 139.486 72.0182 140.674C70.8402 141.86 69.9046 143.264 69.2635 144.806C68.5981 146.41 68.2609 148.131 68.2719 149.867C68.2806 151.875 68.7619 153.869 69.6608 155.651V160.049C69.6608 160.784 70.2581 161.38 70.9917 161.38H75.3934C77.1879 162.284 79.1681 162.759 81.1781 162.769H81.239C82.973 162.769 84.6519 162.434 86.2351 161.777C87.7789 161.136 89.1824 160.2 90.3671 159.022C91.5617 157.839 92.5012 156.456 93.1594 154.913C93.8408 153.316 94.1888 151.618 94.1975 149.864C94.2033 148.102 93.8611 146.392 93.1884 144.783ZM75.4455 151.195C74.68 151.195 74.0566 150.573 74.0566 149.806C74.0566 149.039 74.68 148.417 75.4455 148.417C76.2111 148.417 76.8345 149.039 76.8345 149.806C76.8345 150.573 76.214 151.195 75.4455 151.195ZM81.2332 151.195C80.4677 151.195 79.8443 150.573 79.8443 149.806C79.8443 149.039 80.4677 148.417 81.2332 148.417C81.9987 148.417 82.6221 149.039 82.6221 149.806C82.6221 150.573 81.9987 151.195 81.2332 151.195ZM87.0209 151.195C86.2554 151.195 85.632 150.573 85.632 149.806C85.632 149.039 86.2554 148.417 87.0209 148.417C87.7864 148.417 88.4098 149.039 88.4098 149.806C88.4098 150.573 87.7864 151.195 87.0209 151.195Z" fill="#A283FF"/>
<path d="M286.049 190.058C286.049 188.351 287.433 186.967 289.141 186.967H294.293C296 186.967 297.384 188.351 297.384 190.058V195.21C297.384 196.917 296 198.301 294.293 198.301H289.141C287.433 198.301 286.049 196.917 286.049 195.21V190.058Z" fill="#A283FF"/>
<path d="M301.505 190.058C301.505 188.351 302.889 186.967 304.596 186.967H309.748C311.456 186.967 312.84 188.351 312.84 190.058V195.21C312.84 196.917 311.456 198.301 309.748 198.301H304.596C302.889 198.301 301.505 196.917 301.505 195.21V190.058Z" fill="#A283FF"/>
<path d="M286.049 205.514C286.049 203.807 287.433 202.423 289.141 202.423H294.293C296 202.423 297.384 203.807 297.384 205.514V210.666C297.384 212.373 296 213.757 294.293 213.757H289.141C287.433 213.757 286.049 212.373 286.049 210.666V205.514Z" fill="#A283FF"/>
<path d="M301.505 205.514C301.505 203.807 302.889 202.423 304.596 202.423H309.748C311.456 202.423 312.84 203.807 312.84 205.514V210.666C312.84 212.373 311.456 213.757 309.748 213.757H304.596C302.889 213.757 301.505 212.373 301.505 210.666V205.514Z" fill="#A283FF"/>
<path d="M254.93 27.9544V31.7607C259.188 32.3763 262.467 36.0193 262.467 40.4538C262.467 41.5844 262.241 42.6522 261.864 43.6446L265.13 45.5667C265.834 44.0089 266.236 42.2754 266.236 40.4538C266.236 33.9466 261.274 28.5825 254.93 27.9544ZM253.673 49.2474C248.812 49.2474 244.88 45.3154 244.88 40.4538C244.88 36.0193 248.159 32.3763 252.417 31.7607V27.9544C246.061 28.5825 241.111 33.934 241.111 40.4538C241.111 47.3882 246.726 53.0161 253.661 53.0161C257.819 53.0161 261.5 50.9936 263.786 47.8781L260.52 45.9561C259.7 46.985 258.659 47.8155 257.473 48.3854C256.288 48.9553 254.989 49.25 253.673 49.2474Z" fill="#A283FF"/>
<path fill-rule="evenodd" clip-rule="evenodd" d="M54.4202 67.8528C54.643 67.8528 54.8567 67.9413 55.0142 68.0988C55.1717 68.2563 55.2602 68.47 55.2602 68.6927V70.9327C55.2602 71.0872 55.3856 71.2127 55.5402 71.2127H68.9799C69.0541 71.2127 69.1253 71.1832 69.1778 71.1307C69.2304 71.0782 69.2598 71.007 69.2598 70.9327V68.6927C69.2598 68.47 69.3484 68.2563 69.5059 68.0988C69.6634 67.9413 69.8771 67.8528 70.0998 67.8528C70.3226 67.8528 70.5363 67.9413 70.6938 68.0988C70.8513 68.2563 70.9398 68.47 70.9398 68.6927V70.9327C70.9398 71.4525 70.7333 71.951 70.3658 72.3186C69.9982 72.6861 69.4997 72.8926 68.9799 72.8926H55.5402C55.0204 72.8926 54.5219 72.6861 54.1543 72.3186C53.7867 71.951 53.5802 71.4525 53.5802 70.9327V68.6927C53.5802 68.47 53.6687 68.2563 53.8263 68.0988C53.9838 67.9413 54.1975 67.8528 54.4202 67.8528ZM60.8466 67.715C60.5687 67.7152 60.3007 67.6113 60.0957 67.4236C59.8906 67.236 59.7634 66.9783 59.739 66.7014C59.5674 64.7387 59.5374 62.7662 59.6494 60.7992C59.3726 60.7837 59.0959 60.7658 58.8195 60.7454L57.1507 60.6234C57.0038 60.6126 56.8621 60.5638 56.7396 60.4819C56.6171 60.4 56.518 60.2876 56.452 60.1559C56.386 60.0242 56.3553 59.8775 56.3629 59.7304C56.3705 59.5832 56.4162 59.4405 56.4955 59.3163C57.6848 57.4548 59.2173 55.8364 61.0113 54.5475L61.6799 54.067C61.849 53.9456 62.0519 53.8803 62.26 53.8803C62.4682 53.8803 62.6711 53.9456 62.8402 54.067L63.5088 54.5486C65.3026 55.8373 66.8351 57.4552 68.0245 59.3163C68.1038 59.4405 68.1495 59.5832 68.1572 59.7304C68.1648 59.8775 68.1341 60.0242 68.0681 60.1559C68.002 60.2876 67.9029 60.4 67.7804 60.4819C67.658 60.5638 67.5163 60.6126 67.3693 60.6234L65.7006 60.7454C65.4251 60.7656 65.1484 60.7835 64.8718 60.7981C64.9838 62.7659 64.9524 64.7381 64.78 66.7003C64.7559 66.9772 64.6289 67.235 64.424 67.4229C64.2192 67.6107 63.9514 67.7149 63.6734 67.715H60.8466Z" fill="#A283FF"/>
<path d="M194.925 201.32V216.349H176.032V210.929H173.256C169.402 210.929 166.275 207.804 166.275 203.944V198.995H163.901C163.522 198.995 163.159 198.845 162.891 198.577C162.622 198.31 162.471 197.947 162.469 197.568C162.469 197.369 162.505 197.181 162.576 197.013L166.275 187.697C166.275 187.697 166.658 183.838 167.006 182.361C168.546 175.714 175.956 169.683 183.99 169.683C193.764 169.683 201.692 177.611 201.692 187.394C201.692 193.044 199.045 198.079 194.925 201.32ZM170.625 187.275C170.102 187.276 169.602 187.484 169.233 187.854C168.864 188.224 168.656 188.725 168.656 189.247C168.655 189.771 168.861 190.273 169.23 190.645C169.6 191.016 170.101 191.226 170.625 191.227C170.885 191.228 171.143 191.177 171.383 191.077C171.624 190.978 171.842 190.832 172.026 190.648C172.211 190.464 172.357 190.246 172.457 190.005C172.556 189.765 172.608 189.507 172.608 189.247C172.606 188.723 172.396 188.221 172.024 187.851C171.652 187.481 171.149 187.274 170.625 187.275ZM187.776 182.977C187.776 183.472 187.973 183.946 188.322 184.295C188.672 184.645 189.146 184.841 189.64 184.841C190.135 184.841 190.609 184.645 190.959 184.295C191.308 183.946 191.505 183.472 191.505 182.977C191.505 182.483 191.308 182.009 190.959 181.659C190.609 181.309 190.135 181.113 189.64 181.113C189.146 181.113 188.672 181.309 188.322 181.659C187.973 182.009 187.776 182.483 187.776 182.977ZM173.686 180.953C173.686 181.199 173.735 181.442 173.829 181.668C173.923 181.895 174.061 182.101 174.234 182.275C174.408 182.448 174.614 182.586 174.841 182.679C175.068 182.773 175.311 182.821 175.557 182.821C176.053 182.821 176.529 182.624 176.879 182.273C177.23 181.922 177.427 181.447 177.427 180.951C177.427 180.455 177.23 179.979 176.879 179.628C176.529 179.278 176.053 179.081 175.557 179.081C175.311 179.081 175.068 179.129 174.841 179.223C174.614 179.317 174.407 179.455 174.233 179.629C174.06 179.803 173.922 180.009 173.828 180.237C173.734 180.464 173.686 180.707 173.686 180.953ZM195.815 185.053L198.524 184.587V181.978L195.914 181.529C195.79 181.058 195.613 180.602 195.388 180.171L196.97 177.924L195.134 176.082L192.966 177.61C192.639 177.416 192.295 177.251 191.94 177.117C191.838 177.08 191.737 177.053 191.635 177.022L191.162 174.314H188.555L188.115 176.922C187.641 177.045 187.183 177.222 186.749 177.449L184.506 175.864L182.656 177.709L184.192 179.869C183.996 180.198 183.831 180.545 183.697 180.904C183.658 181.006 183.633 181.107 183.6 181.209L181.362 181.592V180.349L179.653 180.056C179.574 179.759 179.462 179.473 179.318 179.201L180.366 177.721L179.155 176.513L177.729 177.518C177.52 177.393 177.3 177.285 177.073 177.197C177.013 177.174 176.951 177.169 176.889 177.15L176.579 175.366H174.877L174.58 177.078C174.28 177.157 173.994 177.274 173.72 177.417L172.237 176.373L171.032 177.582L172.04 179.007C171.914 179.216 171.807 179.435 171.72 179.662C171.697 179.724 171.683 179.785 171.664 179.848L169.89 180.153V181.864L171.611 182.159C171.69 182.453 171.798 182.738 171.937 183.009L170.891 184.491L172.097 185.701L173.528 184.693C173.736 184.815 173.951 184.929 174.185 185.016C174.245 185.039 174.308 185.044 174.368 185.064L174.677 186.848L176.379 186.846L176.677 185.137C176.974 185.056 177.261 184.943 177.534 184.8L179.011 185.842L180.222 184.634L179.216 183.208C179.336 183.002 179.448 182.789 179.533 182.557C179.558 182.496 179.562 182.431 179.584 182.368L180.897 182.141V184.282L183.503 184.73C183.626 185.206 183.805 185.662 184.032 186.096L182.45 188.334L184.289 190.178L186.456 188.651C186.78 188.839 187.118 189.007 187.483 189.141C187.584 189.18 187.686 189.206 187.787 189.238L188.26 191.948H190.523L190.336 193.033C190.009 193.107 189.701 193.236 189.411 193.399L188.329 192.635L187.481 193.484L188.213 194.52C188.087 194.72 187.977 194.933 187.893 195.163C187.86 195.254 187.847 195.346 187.821 195.438L186.508 195.663V196.859L187.764 197.077C187.837 197.406 187.966 197.714 188.13 198.006L187.366 199.087L188.211 199.938L189.248 199.203C189.448 199.33 189.662 199.44 189.892 199.525C189.984 199.559 190.078 199.572 190.172 199.598L190.387 200.904H191.588L191.808 199.653C192.137 199.58 192.445 199.451 192.737 199.287L193.813 200.05L194.664 199.201L193.932 198.17C194.061 197.968 194.172 197.754 194.258 197.522C194.29 197.431 194.303 197.339 194.329 197.248L195.631 197.023V195.822L194.381 195.608C194.306 195.282 194.182 194.97 194.015 194.681L194.777 193.598L193.927 192.75L192.892 193.478C192.69 193.348 192.475 193.24 192.25 193.156C192.162 193.124 192.071 193.111 191.981 193.087L191.752 191.781H190.894L191.308 189.337C191.781 189.215 192.238 189.039 192.669 188.812L194.916 190.398L196.757 188.556L195.226 186.389C195.417 186.064 195.586 185.724 195.721 185.359C195.759 185.257 195.785 185.156 195.818 185.054L195.815 185.053ZM189.202 196.421C189.202 196.918 189.4 197.393 189.751 197.744C190.102 198.094 190.578 198.291 191.074 198.291C191.319 198.29 191.562 198.242 191.788 198.147C192.014 198.053 192.219 197.915 192.392 197.742C192.565 197.568 192.702 197.362 192.795 197.136C192.888 196.909 192.936 196.666 192.935 196.421C192.936 196.177 192.888 195.934 192.795 195.708C192.702 195.481 192.565 195.275 192.392 195.102C192.219 194.928 192.014 194.791 191.788 194.697C191.561 194.603 191.319 194.554 191.074 194.554C190.578 194.553 190.102 194.75 189.751 195.1C189.4 195.45 189.203 195.925 189.202 196.421Z" fill="#A283FF"/>
<path d="M247.353 112.646H236.598C235.753 112.646 235.062 113.337 235.062 114.182V124.937C235.062 125.782 235.753 126.473 236.598 126.473H247.353C248.198 126.473 248.889 125.782 248.889 124.937V114.182C248.889 113.337 248.198 112.646 247.353 112.646ZM239.671 123.4H238.134V118.023H239.671V123.4ZM242.743 123.4H241.207V115.718H242.743V123.4ZM245.816 123.4H244.28V120.327H245.816V123.4Z" fill="#A283FF"/>
<path fill-rule="evenodd" clip-rule="evenodd" d="M155.555 277.707C156.897 277.707 158.186 278.227 159.152 279.158C160.118 280.089 160.686 281.358 160.737 282.698L160.74 282.893V288.942H161.604C161.825 288.942 162.037 289.027 162.197 289.178C162.357 289.329 162.453 289.536 162.466 289.756C162.479 289.975 162.408 290.192 162.266 290.361C162.125 290.53 161.924 290.638 161.706 290.664L161.604 290.67H149.506C149.285 290.67 149.074 290.586 148.913 290.435C148.753 290.283 148.657 290.077 148.644 289.857C148.631 289.637 148.703 289.42 148.844 289.252C148.985 289.083 149.186 288.974 149.405 288.948L149.506 288.942H150.37V282.893C150.37 281.517 150.916 280.199 151.889 279.226C152.861 278.254 154.18 277.707 155.555 277.707ZM154.814 282.016L153.526 284.163C153.446 284.295 153.403 284.447 153.401 284.601C153.399 284.756 153.438 284.908 153.515 285.042C153.591 285.177 153.701 285.289 153.835 285.366C153.968 285.444 154.12 285.485 154.274 285.485H155.325L154.814 286.336C154.701 286.533 154.67 286.765 154.726 286.985C154.783 287.204 154.924 287.392 155.118 287.509C155.312 287.626 155.544 287.661 155.764 287.609C155.985 287.556 156.175 287.419 156.296 287.227L157.584 285.079C157.664 284.947 157.707 284.795 157.709 284.641C157.711 284.486 157.672 284.334 157.596 284.2C157.519 284.065 157.409 283.953 157.275 283.876C157.142 283.798 156.99 283.757 156.836 283.757H155.785L156.296 282.905C156.404 282.709 156.431 282.479 156.373 282.263C156.315 282.047 156.175 281.862 155.983 281.747C155.791 281.632 155.562 281.595 155.344 281.646C155.126 281.696 154.936 281.829 154.814 282.016ZM149.974 276.098L150.055 276.17L150.666 276.781C150.821 276.937 150.911 277.145 150.918 277.365C150.925 277.584 150.848 277.798 150.702 277.963C150.557 278.127 150.355 278.231 150.136 278.251C149.918 278.272 149.699 278.209 149.526 278.075L149.444 278.003L148.833 277.392C148.678 277.237 148.588 277.028 148.582 276.808C148.575 276.589 148.652 276.375 148.797 276.21C148.942 276.046 149.145 275.943 149.363 275.922C149.582 275.901 149.8 275.964 149.974 276.098ZM162.277 276.17C162.439 276.332 162.53 276.552 162.53 276.781C162.53 277.01 162.439 277.23 162.277 277.392L161.666 278.003C161.586 278.086 161.491 278.151 161.385 278.197C161.28 278.242 161.166 278.266 161.052 278.267C160.937 278.268 160.823 278.246 160.717 278.202C160.611 278.159 160.514 278.095 160.433 278.014C160.352 277.933 160.288 277.836 160.244 277.73C160.201 277.624 160.179 277.51 160.18 277.395C160.181 277.28 160.205 277.167 160.25 277.062C160.295 276.956 160.361 276.861 160.444 276.781L161.055 276.17C161.217 276.008 161.437 275.917 161.666 275.917C161.895 275.917 162.115 276.008 162.277 276.17ZM155.555 273.386C155.784 273.386 156.004 273.478 156.166 273.64C156.328 273.802 156.419 274.021 156.419 274.251V275.115C156.419 275.344 156.328 275.564 156.166 275.726C156.004 275.888 155.784 275.979 155.555 275.979C155.326 275.979 155.106 275.888 154.944 275.726C154.782 275.564 154.691 275.344 154.691 275.115V274.251C154.691 274.021 154.782 273.802 154.944 273.64C155.106 273.478 155.326 273.386 155.555 273.386Z" fill="#A283FF"/>
<path d="M236.142 269.065V290.67C230.633 290.13 226.42 285.485 226.42 279.868C226.42 274.251 230.633 269.606 236.142 269.065ZM238.302 269.065V278.788H248.025C247.485 273.603 243.488 269.606 238.302 269.065ZM238.302 280.948V290.67C243.38 290.13 247.485 286.133 248.025 280.948H238.302Z" fill="#A283FF"/>
<path d="M30.2469 182.214C30.2469 187.225 26.184 191.288 21.1728 191.288C16.1617 191.288 12.0988 187.225 12.0988 182.214C12.0988 180.833 12.4065 179.525 12.9585 178.353C12.6119 179.217 12.4313 180.138 12.4262 181.069C12.4262 185.178 15.7435 185.772 17.1553 185.759C19.3006 185.74 21.8088 184.689 23.9215 182.741L23.5654 184.745C23.4852 185.203 23.7847 185.606 24.2429 185.609H24.4319C24.9061 185.609 25.2433 185.222 25.3288 184.745L26.0895 180.463C26.1802 179.988 25.8679 179.601 25.393 179.601H21.1033C20.6269 179.601 20.1906 179.854 20.1051 180.333L20.0719 180.526C20.0038 180.982 20.3214 181.325 20.7758 181.325H23.0141C22.978 181.36 22.9422 181.395 22.9067 181.43C21.3642 182.89 19.4616 183.69 17.8858 183.69C16.3129 183.69 14.551 182.697 14.551 180.462C14.551 175.828 18.8968 173.14 21.1728 173.14C26.1742 173.14 30.2469 177.202 30.2469 182.214Z" fill="#A283FF"/>
<path d="M309.772 113.51C309.13 113.51 308.58 113.281 308.123 112.824C307.666 112.367 307.438 111.817 307.438 111.177V107.677H303.938C303.297 107.677 302.747 107.448 302.29 106.991C301.832 106.533 301.604 105.984 301.605 105.343V103.01H309.13L311.113 105.985C311.211 106.14 311.347 106.267 311.522 106.364C311.697 106.461 311.881 106.51 312.076 106.51C312.329 106.51 312.562 106.432 312.776 106.277C312.99 106.121 313.135 105.927 313.213 105.693L314.788 100.968L315.78 102.485C315.897 102.64 316.042 102.767 316.217 102.864C316.392 102.961 316.577 103.01 316.772 103.01H324.938V105.343C324.938 105.985 324.71 106.534 324.252 106.992C323.795 107.449 323.246 107.677 322.605 107.677H319.105V111.177C319.105 111.818 318.876 112.368 318.419 112.825C317.962 113.282 317.413 113.511 316.772 113.51H309.772ZM311.755 102.718L310.734 101.202C310.637 101.046 310.501 100.92 310.326 100.822C310.151 100.725 309.966 100.677 309.772 100.677H301.605V98.3433C301.605 97.7016 301.834 97.1521 302.291 96.6948C302.748 96.2374 303.297 96.0091 303.938 96.0099H307.438V92.5099C307.438 91.8683 307.667 91.3188 308.124 90.8614C308.582 90.4041 309.131 90.1758 309.772 90.1766H316.772C317.413 90.1766 317.963 90.4053 318.42 90.8626C318.877 91.3199 319.106 91.869 319.105 92.5099V96.0099H322.605C323.247 96.0099 323.796 96.2386 324.253 96.6959C324.711 97.1533 324.939 97.7024 324.938 98.3433V100.677H317.384L315.401 97.7016C315.304 97.546 315.167 97.4197 314.992 97.3224C314.817 97.2252 314.633 97.1766 314.438 97.1766C314.186 97.1766 313.957 97.2544 313.752 97.4099C313.548 97.5655 313.407 97.7599 313.33 97.9933L311.755 102.718Z" fill="#A283FF"/>
<path d="M16.0396 117.174H27.1018C27.2311 117.174 27.3602 117.182 27.4883 117.198C27.4449 116.893 27.3401 116.6 27.1804 116.337C27.0206 116.073 26.8092 115.845 26.5588 115.666C26.3084 115.486 26.0243 115.359 25.7235 115.292C25.4228 115.226 25.1116 115.221 24.8088 115.277L15.7112 116.831H15.7008C15.1298 116.94 14.6219 117.263 14.2811 117.734C14.7946 117.369 15.4094 117.173 16.0396 117.174ZM27.1018 118.003H16.0396C15.453 118.004 14.8907 118.237 14.4759 118.652C14.0611 119.067 13.8278 119.629 13.8272 120.216V126.853C13.8278 127.44 14.0611 128.002 14.4759 128.417C14.8907 128.832 15.453 129.065 16.0396 129.065H27.1018C27.6884 129.065 28.2508 128.832 28.6656 128.417C29.0803 128.002 29.3137 127.44 29.3143 126.853V120.216C29.3137 119.629 29.0803 119.067 28.6656 118.652C28.2508 118.237 27.6884 118.004 27.1018 118.003ZM25.4598 124.641C25.241 124.641 25.0271 124.576 24.8452 124.454C24.6633 124.333 24.5215 124.16 24.4378 123.958C24.354 123.756 24.3321 123.533 24.3748 123.319C24.4175 123.104 24.5229 122.907 24.6776 122.752C24.8323 122.597 25.0294 122.492 25.244 122.449C25.4586 122.407 25.681 122.429 25.8831 122.512C26.0853 122.596 26.258 122.738 26.3796 122.92C26.5011 123.102 26.566 123.316 26.566 123.534C26.566 123.828 26.4495 124.109 26.242 124.317C26.0346 124.524 25.7532 124.641 25.4598 124.641Z" fill="#A283FF"/>
<path d="M179.753 77.2136C179.753 81.7976 177.932 86.1939 174.691 89.4352C171.449 92.6766 167.053 94.4976 162.469 94.4976C157.885 94.4976 153.489 92.6766 150.248 89.4352C147.006 86.1939 145.185 81.7976 145.185 77.2136C145.185 72.6296 147.006 68.2334 150.248 64.992C153.489 61.7507 157.885 59.9297 162.469 59.9297C167.053 59.9297 171.449 61.7507 174.691 64.992C177.932 68.2334 179.753 72.6296 179.753 77.2136ZM162.469 67.4914C162.469 67.2049 162.355 66.9301 162.153 66.7276C161.95 66.525 161.675 66.4112 161.389 66.4112C161.102 66.4112 160.828 66.525 160.625 66.7276C160.422 66.9301 160.309 67.2049 160.309 67.4914V79.3741C160.309 79.5645 160.359 79.7515 160.455 79.9162C160.55 80.0809 160.688 80.2173 160.853 80.3118L168.415 84.6328C168.663 84.7669 168.954 84.7986 169.225 84.7212C169.496 84.6437 169.726 84.4633 169.866 84.2184C170.006 83.9735 170.045 83.6835 169.974 83.4106C169.903 83.1376 169.728 82.9032 169.486 82.7575L162.469 78.7476V67.4914Z" fill="#A283FF"/>
</svg>
