<svg width="75" height="76" viewBox="0 0 75 76" fill="none" xmlns="http://www.w3.org/2000/svg">
<path d="M44.328 35.1256C34.0695 32.5951 30.8745 10.9336 15.39 23.1106C4.40554 31.7506 10.59 52.1416 24.201 49.4701C32.439 47.8531 31.176 47.7316 38.0475 51.4921C45.012 55.3036 52.7295 57.1291 60.4065 49.9591C64.38 46.2481 66.0945 37.3711 62.4045 32.8711C57.7905 27.2446 50.595 36.6721 44.328 35.1256Z" fill="#6747C7"/>
<path opacity="0.9" d="M44.328 35.1256C34.0695 32.5951 30.8745 10.9336 15.39 23.1106C4.40554 31.7506 10.59 52.1416 24.201 49.4701C32.439 47.8531 31.176 47.7316 38.0475 51.4921C45.012 55.3036 52.7295 57.1291 60.4065 49.9591C64.38 46.2481 66.0945 37.3711 62.4045 32.8711C57.7905 27.2446 50.595 36.6721 44.328 35.1256Z" fill="white"/>
<path d="M37.5 64.6516C53.5624 64.6516 66.5835 63.8914 66.5835 62.9536C66.5835 62.0158 53.5624 61.2556 37.5 61.2556C21.4376 61.2556 8.4165 62.0158 8.4165 62.9536C8.4165 63.8914 21.4376 64.6516 37.5 64.6516Z" fill="#F5F5F5"/>
<path d="M38.8425 15.4202H32.0055C30.7065 15.4202 29.655 16.4732 29.655 17.7707V24.4157C29.655 25.7147 30.708 26.7662 32.0055 26.7662H36.5235L38.145 29.2487V26.7662H38.8425C40.1415 26.7662 41.193 25.7132 41.193 24.4157V17.7707C41.193 16.4732 40.1415 15.4202 38.8425 15.4202Z" fill="#6747C7"/>
<path opacity="0.7" d="M38.8425 15.4202H32.0055C30.7065 15.4202 29.655 16.4732 29.655 17.7707V24.4157C29.655 25.7147 30.708 26.7662 32.0055 26.7662H36.5235L38.145 29.2487V26.7662H38.8425C40.1415 26.7662 41.193 25.7132 41.193 24.4157V17.7707C41.193 16.4732 40.1415 15.4202 38.8425 15.4202Z" fill="white"/>
<path d="M34.7041 25.3967C34.2016 25.3967 33.6661 25.2737 33.1501 25.0277C32.4946 24.7157 32.0566 24.2642 31.9156 23.7677C31.8646 23.7437 31.8151 23.7167 31.7656 23.6882C31.2736 23.3942 30.9226 22.8482 30.8056 22.1912C30.6481 21.3092 30.8326 20.4122 31.1971 19.6127C31.1611 19.4177 31.1491 19.2182 31.1611 19.0157C31.2031 18.3077 31.5571 17.6747 32.0836 17.3642C32.4271 17.1617 32.8456 17.1182 33.2131 17.2142C33.7021 16.8932 34.3426 16.5992 35.0866 16.5512C35.7691 16.5077 36.4381 16.6997 36.9481 17.0687C37.5526 16.8992 38.2456 17.0162 38.7301 17.4182C39.1231 17.7437 39.3946 18.2462 39.4756 18.7967C39.5131 19.0577 39.5101 19.3292 39.4681 19.6082C39.9781 20.2472 40.2031 21.0497 40.0486 21.7712C39.9226 22.3622 39.5371 22.9187 38.9866 23.3282C39.0481 23.4812 39.0781 23.6432 39.0661 23.8007C39.0271 24.3362 38.5786 24.7262 38.1511 24.8747C37.6696 25.0412 37.1596 24.9842 36.7606 24.9107C36.3736 25.1807 35.9086 25.2152 35.6911 25.2152C35.6896 25.2152 35.6896 25.2152 35.6881 25.2152C35.3881 25.3367 35.0536 25.3967 34.7041 25.3967ZM32.1346 23.8547C32.3581 24.3992 32.9506 24.7352 33.2266 24.8657C34.0606 25.2632 34.9426 25.3262 35.6296 25.0472C35.6326 25.0457 35.6371 25.0442 35.6416 25.0427C35.7016 25.0172 35.7601 24.9902 35.8171 24.9602C35.9281 24.9017 36.0361 24.8327 36.1396 24.7517C35.9266 24.6737 35.7151 24.5642 35.5366 24.4037C35.4661 24.3407 35.4001 24.2702 35.3401 24.1922C34.9021 24.1787 34.4446 24.1202 34.0081 23.9567C33.9106 23.9207 33.8161 23.8802 33.7276 23.8367C33.2776 23.9552 32.6836 24.0332 32.1346 23.8547ZM36.3436 24.8177C36.2656 24.8837 36.1861 24.9422 36.1051 24.9977C36.2341 24.9707 36.3721 24.9287 36.5041 24.8597C36.4531 24.8462 36.3991 24.8327 36.3436 24.8177ZM36.9421 24.7607C37.2916 24.8147 37.7071 24.8402 38.0926 24.7052C38.4646 24.5762 38.8546 24.2417 38.8876 23.7872C38.8966 23.6687 38.8771 23.5487 38.8366 23.4332C38.7271 23.5052 38.6131 23.5712 38.4931 23.6327C38.1151 23.8232 37.7161 23.9462 37.3261 24.0272C37.2556 24.3527 37.1146 24.5882 36.9421 24.7607ZM36.5011 24.6737C36.5761 24.6917 36.6481 24.7082 36.7186 24.7217C36.8986 24.5762 37.0516 24.3662 37.1311 24.0647C37.0801 24.0737 37.0291 24.0827 36.9781 24.0902C36.8281 24.3152 36.6691 24.5087 36.5011 24.6737ZM35.5786 24.1952C35.6041 24.2222 35.6296 24.2462 35.6566 24.2702C35.8426 24.4367 36.0721 24.5432 36.3001 24.6167C36.4531 24.4772 36.5986 24.3137 36.7366 24.1217C36.5131 24.1487 36.3001 24.1652 36.1036 24.1757C35.9356 24.1862 35.7601 24.1937 35.5786 24.1952ZM35.4331 24.0152C35.6611 24.0182 35.8831 24.0107 36.0931 23.9972C36.3331 23.9837 36.5971 23.9627 36.8716 23.9237C36.9511 23.7992 37.0291 23.6657 37.1056 23.5217C37.1281 23.4797 37.1491 23.4392 37.1701 23.3972C37.1401 23.1812 37.0726 22.9517 36.9646 22.7012C36.6601 22.8212 36.3406 22.8977 36.0196 22.9307C35.7331 23.0387 35.4511 23.1632 35.1751 23.2847C35.1586 23.2922 35.1436 23.2997 35.1271 23.3057C35.1991 23.5877 35.3011 23.8232 35.4331 24.0152ZM33.9931 23.7587C34.0186 23.7692 34.0441 23.7797 34.0711 23.7887C34.4431 23.9282 34.8346 23.9882 35.2156 24.0077C35.1091 23.8277 35.0236 23.6192 34.9606 23.3792C34.6456 23.5172 34.3231 23.6522 33.9931 23.7587ZM37.1836 23.7542C37.1581 23.7992 37.1326 23.8442 37.1071 23.8862C37.1281 23.8832 37.1491 23.8787 37.1701 23.8742C37.1716 23.8667 37.1731 23.8577 37.1731 23.8502C37.1791 23.8187 37.1821 23.7872 37.1836 23.7542ZM37.3561 23.4287C37.3711 23.5697 37.3726 23.7062 37.3576 23.8382C37.7116 23.7602 38.0716 23.6462 38.4121 23.4737C38.5336 23.4122 38.6506 23.3432 38.7601 23.2697C38.6491 23.0732 38.4706 22.9022 38.2516 22.7927C38.0851 22.7102 37.8976 22.6562 37.6906 22.6337C37.5931 22.9052 37.4821 23.1707 37.3561 23.4287ZM32.0701 23.6387C32.5381 23.8322 33.0646 23.7992 33.4951 23.7077C32.9506 23.3687 32.6191 22.8737 32.5201 22.2452C32.2336 22.6532 32.0041 23.0762 32.0551 23.5412C32.0581 23.5742 32.0626 23.6072 32.0701 23.6387ZM32.6746 22.0322C32.7301 22.7537 33.0991 23.3057 33.7471 23.6462C34.1461 23.5337 34.5376 23.3702 34.9186 23.2037C34.8946 23.0897 34.8751 22.9757 34.8616 22.8602C34.6456 22.8092 34.4356 22.7372 34.2376 22.6427C33.9631 22.5122 33.3211 22.1417 33.2986 21.5012C33.2971 21.4802 33.2971 21.4577 33.2986 21.4367C33.2371 21.4382 33.1741 21.4367 33.1111 21.4322C33.0226 21.5612 32.9296 21.6917 32.8291 21.8252L32.7736 21.8987C32.7421 21.9422 32.7076 21.9872 32.6746 22.0322ZM31.2676 19.8992C30.9796 20.6117 30.8461 21.3917 30.9826 22.1597C31.0891 22.7567 31.4161 23.2712 31.8571 23.5337C31.8631 23.5367 31.8676 23.5397 31.8736 23.5427C31.8166 22.9517 32.1601 22.4237 32.5096 21.9527C32.5096 21.9527 32.5096 21.9512 32.5111 21.9512C32.5516 21.8972 32.5921 21.8432 32.6311 21.7907L32.6866 21.7172C32.7646 21.6122 32.8396 21.5102 32.9101 21.4082C32.5861 21.3527 32.2711 21.2177 32.0056 21.0077C31.6591 20.7317 31.4041 20.3402 31.2676 19.8992ZM37.7476 22.4597C37.9606 22.4867 38.1556 22.5437 38.3311 22.6322C38.5756 22.7552 38.7766 22.9457 38.9056 23.1662C39.4081 22.7837 39.7576 22.2752 39.8731 21.7352C40.0066 21.1112 39.8326 20.4197 39.4216 19.8452C39.3541 20.1362 39.2431 20.4332 39.0916 20.7272C38.7781 21.3362 38.3386 21.8507 37.8151 22.2332C37.7956 22.3082 37.7716 22.3847 37.7476 22.4597ZM35.0476 22.8977C35.0581 22.9757 35.0716 23.0522 35.0866 23.1287C35.0926 23.1257 35.0971 23.1242 35.1031 23.1212C35.2351 23.0627 35.3686 23.0042 35.5021 22.9472C35.3491 22.9397 35.1976 22.9232 35.0476 22.8977ZM37.1341 22.6397C37.2061 22.8077 37.2616 22.9697 37.3006 23.1242C37.3741 22.9592 37.4416 22.7912 37.5031 22.6217C37.3861 22.6202 37.2631 22.6247 37.1341 22.6397ZM35.0281 22.7117C35.3371 22.7717 35.6581 22.7867 35.9791 22.7552C36.2686 22.6472 36.5656 22.5557 36.8716 22.4987C36.7516 22.2602 36.6016 22.0232 36.4276 21.7967C35.9866 21.9527 35.5051 21.9932 35.0431 21.9152C35.0101 22.1777 35.0056 22.4462 35.0281 22.7117ZM33.4801 21.4232C33.4786 21.4472 33.4786 21.4712 33.4786 21.4952C33.4981 22.0517 34.1236 22.3907 34.3156 22.4807C34.4851 22.5602 34.6621 22.6247 34.8451 22.6712C34.8271 22.4072 34.8346 22.1417 34.8676 21.8792C34.6801 21.8342 34.4971 21.7697 34.3231 21.6842C34.1341 21.5912 33.9646 21.4787 33.8176 21.3497C33.7066 21.3842 33.5941 21.4082 33.4801 21.4232ZM36.6001 21.7277C36.7786 21.9677 36.9346 22.2182 37.0561 22.4687C37.2676 22.3742 37.4701 22.2572 37.6606 22.1222C37.9096 21.2252 37.9891 20.2742 37.8811 19.3427C37.8526 19.0892 37.8091 18.8582 37.7536 18.6467C37.3531 18.5012 36.9031 18.4022 36.4111 18.3482C36.1981 18.3257 35.9956 18.3137 35.8051 18.3137C35.6431 18.6257 35.5201 18.9692 35.3986 19.3067L35.3776 19.3652C35.2516 19.7147 35.1061 20.0852 34.9066 20.4167C35.0296 20.4467 35.1541 20.4902 35.2771 20.5457C35.2936 20.5127 35.3116 20.4782 35.3296 20.4452C35.5741 20.0042 35.8531 19.7117 36.1846 19.5512C36.6121 19.3457 37.1146 19.4072 37.4056 19.7027C37.6771 19.9772 37.7461 20.4482 37.5721 20.8457C37.3921 21.2582 37.0246 21.5147 36.7471 21.6587C36.6991 21.6827 36.6496 21.7067 36.6001 21.7277ZM37.4971 22.4417C37.5196 22.4417 37.5421 22.4432 37.5631 22.4432C37.5691 22.4252 37.5751 22.4087 37.5796 22.3907C37.5541 22.4087 37.5256 22.4252 37.4971 22.4417ZM37.9591 18.7262C38.0026 18.9107 38.0356 19.1102 38.0596 19.3232C38.1601 20.1992 38.1016 21.0932 37.8931 21.9452C38.3146 21.5987 38.6701 21.1547 38.9341 20.6432C39.1036 20.3132 39.2191 19.9802 39.2776 19.6577C39.1771 19.5392 39.0661 19.4267 38.9446 19.3232C38.6626 19.0817 38.3326 18.8837 37.9591 18.7262ZM35.0686 21.7367C35.4811 21.8072 35.9116 21.7772 36.3091 21.6467C36.1321 21.4322 35.9341 21.2297 35.7241 21.0497C35.6056 20.9477 35.4826 20.8607 35.3566 20.7887C35.2201 21.0902 35.1241 21.4097 35.0686 21.7367ZM34.0066 21.2747C34.1251 21.3692 34.2571 21.4517 34.4011 21.5222C34.5586 21.5987 34.7236 21.6587 34.8931 21.7007C34.9516 21.3572 35.0536 21.0227 35.1976 20.7077C35.0656 20.6462 34.9321 20.6027 34.8016 20.5772C34.6246 20.8307 34.4086 21.0512 34.1341 21.2087C34.0921 21.2312 34.0501 21.2537 34.0066 21.2747ZM35.4361 20.6267C35.5756 20.7047 35.7121 20.8007 35.8426 20.9132C36.0751 21.1127 36.2941 21.3392 36.4876 21.5807C36.5476 21.5552 36.6076 21.5282 36.6646 21.4982C36.9166 21.3692 37.2496 21.1382 37.4071 20.7737C37.5526 20.4407 37.4986 20.0522 37.2781 19.8287C37.0126 19.5602 36.5656 19.5677 36.2626 19.7132C35.9656 19.8557 35.7121 20.1242 35.4871 20.5322C35.4691 20.5637 35.4526 20.5952 35.4361 20.6267ZM33.2281 21.2582C33.2596 21.2582 33.2911 21.2582 33.3226 21.2567C33.3496 21.1427 33.3961 21.0347 33.4591 20.9387C33.4531 20.9297 33.4471 20.9207 33.4426 20.9117C33.3751 21.0257 33.3031 21.1412 33.2281 21.2582ZM31.3846 19.6322C31.4866 20.1257 31.7446 20.5697 32.1181 20.8667C32.3821 21.0767 32.7001 21.2042 33.0226 21.2447C33.1396 21.0677 33.2461 20.8952 33.3421 20.7257C33.2866 20.6057 33.2476 20.4797 33.2251 20.3522C33.1186 19.7357 33.4261 19.0727 33.9901 18.6497C33.9976 18.2837 33.9181 17.9867 33.7546 17.7632C33.6301 17.5952 33.4516 17.4752 33.2461 17.4062C33.1036 17.5022 32.9761 17.6012 32.8651 17.6942C32.3011 18.1637 31.7536 18.8477 31.3846 19.6322ZM33.5746 21.0992C33.5506 21.1442 33.5311 21.1907 33.5146 21.2372C33.5656 21.2297 33.6166 21.2192 33.6676 21.2057C33.6346 21.1712 33.6046 21.1352 33.5746 21.0992ZM33.6811 20.9432C33.7336 21.0122 33.7936 21.0797 33.8581 21.1427C33.9226 21.1172 33.9856 21.0872 34.0456 21.0512C34.2661 20.9252 34.4461 20.7512 34.5991 20.5502C34.5151 20.5457 34.4341 20.5502 34.3531 20.5607C34.1041 20.5982 33.8506 20.7392 33.6811 20.9432ZM33.5431 20.7302C33.5536 20.7497 33.5641 20.7677 33.5746 20.7872C33.7741 20.5697 34.0531 20.4242 34.3261 20.3837C34.4521 20.3657 34.5826 20.3642 34.7146 20.3807C34.9276 20.0492 35.0776 19.6652 35.2081 19.3037L35.2291 19.2452C35.3416 18.9317 35.4556 18.6137 35.6011 18.3182C35.1106 18.3407 34.6951 18.4457 34.3426 18.6362C34.2826 18.6692 34.2226 18.7052 34.1641 18.7472C34.1596 18.8297 34.1521 18.9137 34.1386 19.0022C34.0621 19.5677 33.8686 20.1332 33.5431 20.7302ZM33.9721 18.9002C33.5836 19.2512 33.3061 19.7777 33.4006 20.3207C33.4126 20.3882 33.4291 20.4542 33.4516 20.5187C33.7261 19.9862 33.8926 19.4807 33.9631 18.9752C33.9661 18.9512 33.9691 18.9257 33.9721 18.9002ZM37.9036 18.5117C38.3461 18.6827 38.7331 18.9077 39.0601 19.1882C39.1486 19.2632 39.2311 19.3442 39.3091 19.4267C39.3286 19.2197 39.3256 19.0187 39.2971 18.8237C39.2221 18.3167 38.9746 17.8547 38.6146 17.5577C38.2081 17.2217 37.6396 17.1047 37.1221 17.2097C37.2286 17.3027 37.3246 17.4032 37.4116 17.5127C37.6261 17.7827 37.7896 18.1127 37.9036 18.5117ZM32.8321 17.3417C32.6056 17.3417 32.3761 17.3987 32.1751 17.5172C31.6996 17.7977 31.3801 18.3752 31.3411 19.0262C31.3351 19.1237 31.3351 19.2227 31.3426 19.3202C31.7176 18.6107 32.2276 17.9942 32.7496 17.5592C32.8291 17.4932 32.9176 17.4242 33.0121 17.3552C32.9521 17.3447 32.8921 17.3417 32.8321 17.3417ZM33.4291 17.2892C33.6151 17.3732 33.7786 17.4977 33.8986 17.6582C34.0666 17.8877 34.1581 18.1787 34.1686 18.5297C34.1986 18.5117 34.2286 18.4952 34.2586 18.4787C34.6591 18.2627 35.1346 18.1487 35.6971 18.1367C35.8591 17.8472 36.0586 17.5847 36.3271 17.3777C36.4531 17.2802 36.5911 17.2022 36.7366 17.1422C36.2761 16.8452 35.6941 16.6922 35.0986 16.7312C34.4476 16.7717 33.8791 17.0117 33.4291 17.2892ZM35.9056 18.1352C36.0736 18.1382 36.2491 18.1502 36.4321 18.1697C36.8896 18.2192 37.3111 18.3077 37.6936 18.4352C37.5886 18.1157 37.4491 17.8472 37.2736 17.6222C37.1686 17.4902 37.0486 17.3702 36.9136 17.2652C36.7426 17.3222 36.5806 17.4077 36.4381 17.5172C36.2176 17.6867 36.0466 17.8982 35.9056 18.1352Z" fill="#263238"/>
<path d="M43.092 47.754C39.336 46.8615 35.0325 44.8365 32.9025 41.454C32.724 41.181 32.5785 40.8795 32.49 40.563C31.656 37.2345 36.252 35.2725 38.691 34.3245C39.567 34.0005 40.4325 33.717 41.352 33.4875L41.976 35.1765C40.4745 35.9985 36.0615 38.3115 35.589 39.7785C35.6055 39.7725 35.6145 39.69 35.6055 39.63C35.6025 39.6105 35.601 39.5956 35.5965 39.5806C35.598 39.5761 35.5995 39.5745 35.598 39.57C37.422 41.9895 40.794 43.287 43.629 44.133L43.89 44.2035L43.092 47.754Z" fill="#EBC0BB"/>
<path d="M43.0274 49.911L42.0869 49.347L41.5064 48.999L36.8369 46.2015L37.7834 41.2275C37.7834 41.2275 40.5134 42.9015 41.9129 43.3755C41.9129 43.3755 42.7694 44.1795 43.0499 45.7995C43.0919 46.038 43.1204 46.2945 43.1324 46.5675C43.1384 46.7205 43.1444 46.869 43.1474 47.013C43.1954 48.8685 43.0274 49.911 43.0274 49.911Z" fill="#6747C7"/>
<path opacity="0.2" d="M43.0274 49.9109L42.0869 49.3469C42.2684 48.4484 42.7454 47.6024 43.1474 47.0129C43.1954 48.8684 43.0274 49.9109 43.0274 49.9109Z" fill="black"/>
<path d="M42.5026 30.6735C42.4846 30.6735 42.4681 30.66 42.4651 30.6405C42.4636 30.633 42.3586 29.8515 41.8456 29.5575C41.8276 29.547 41.8216 29.5245 41.8321 29.5065C41.8426 29.4885 41.8651 29.4825 41.8831 29.493C42.4306 29.805 42.5356 30.5985 42.5401 30.6315C42.5431 30.6525 42.5281 30.6705 42.5071 30.6735C42.5056 30.6735 42.5041 30.6735 42.5026 30.6735Z" fill="#263238"/>
<path d="M57.4423 60.1336C57.5938 55.4206 57.1648 51.2701 56.6218 48.0541C56.4643 47.1166 56.2963 46.2601 56.1298 45.4906C55.5238 42.6796 54.9403 41.0491 54.9403 41.0491C54.9403 41.0491 50.7958 44.0551 47.4748 44.0551C44.4043 44.0551 41.9128 43.3756 41.9128 43.3756C43.1743 49.3981 43.3738 56.6116 43.3873 60.1336H57.4423Z" fill="#6747C7"/>
<path d="M40.674 34.473L40.5945 31.71L43.1325 32.496C43.1325 32.496 42.792 35.1 41.973 35.157L40.674 34.473Z" fill="#EEC1BB"/>
<path d="M42.4005 30.0181L44.022 31.0231L43.1325 32.4946L40.5945 31.7086L42.4005 30.0181Z" fill="#EEC1BB"/>
<path d="M46.0844 42.801C46.4309 42.516 50.0294 41.5425 50.4989 41.6985C50.9684 41.8545 49.1174 45.234 47.3174 44.6115C45.5174 43.989 45.6809 43.1325 46.0844 42.801Z" fill="#6747C7"/>
<path d="M50.814 42.5085C50.814 42.5085 50.757 43.9785 47.8035 44.7525C47.679 44.8875 47.319 45.306 47.133 45.8055C46.968 45.5475 46.8375 45.138 46.788 44.9685C44.022 45.4095 45.555 43.7535 45.555 43.7535C46.494 43.275 46.842 42.681 46.8735 42.0435C46.8915 41.6955 46.8135 41.3355 46.6875 40.974C46.6035 40.725 46.4955 40.4715 46.3755 40.224L46.812 39.636L49.077 37.458C49.1115 38.091 49.1835 38.8035 49.3125 39.495C49.5585 40.797 50.01 42.0255 50.814 42.5085Z" fill="#EEC1BB"/>
<path opacity="0.2" d="M49.3125 39.495C48.882 40.509 47.8785 41.4915 46.8735 42.0435C46.8915 41.6955 46.8135 41.3355 46.6875 40.974C46.6035 40.725 46.4955 40.4715 46.3755 40.224L46.812 39.636L49.077 37.458C49.1115 38.091 49.1835 38.8035 49.3125 39.495Z" fill="black"/>
<path d="M47.8035 44.7525L49.0275 45.951C49.0275 45.951 51.5325 44.6475 52.002 42.672L50.499 41.6985C50.499 41.6985 50.0085 43.5765 47.8035 44.7525Z" fill="#6747C7"/>
<path d="M46.788 44.9686L45.2385 46.4206C45.2385 46.4206 44.7015 44.9401 44.8605 43.8241L46.0845 42.7996C46.0845 42.8011 45.9765 44.0911 46.788 44.9686Z" fill="#6747C7"/>
<path opacity="0.2" d="M47.8035 44.7525L49.0275 45.951C49.0275 45.951 51.5325 44.6475 52.002 42.672L50.499 41.6985C50.499 41.6985 50.0085 43.5765 47.8035 44.7525Z" fill="white"/>
<path opacity="0.2" d="M46.788 44.9686L45.2385 46.4206C45.2385 46.4206 44.7015 44.9401 44.8605 43.8241L46.0845 42.7996C46.0845 42.8011 45.9765 44.0911 46.788 44.9686Z" fill="white"/>
<path d="M43.2974 32.9956C42.2789 33.8011 42.4469 37.1926 44.0819 37.5226C45.7154 37.8541 45.2249 31.4716 43.2974 32.9956Z" fill="#263238"/>
<path d="M49.4056 35.1855C49.4791 37.572 49.6411 38.961 48.5626 40.3275C46.9396 42.3825 43.9291 41.6685 43.1506 39.3765C42.4486 37.3125 42.4471 33.7575 44.6686 32.5215C46.8571 31.3035 49.3336 32.799 49.4056 35.1855Z" fill="#EEC1BB"/>
<path d="M47.964 34.0127C47.718 35.3762 48.6375 37.1972 49.3845 37.3652C50.2875 37.7912 51.369 36.2222 51.5175 35.4152C51.651 34.6922 51.45 33.1247 50.9865 32.5247L47.964 34.0127Z" fill="#263238"/>
<path d="M50.5169 37.4176C50.2334 38.0056 49.7474 38.4316 49.2944 38.6311C48.6104 38.9311 48.2849 38.3101 48.4889 37.5811C48.6719 36.9241 49.2479 35.9776 49.9274 35.9866C50.5964 35.9956 50.8409 36.7456 50.5169 37.4176Z" fill="#EEC1BB"/>
<path d="M44.4195 36.585C44.4195 36.585 44.085 37.7535 43.6545 38.3505C44.0235 38.625 44.5875 38.4075 44.5875 38.4075L44.4195 36.585Z" fill="#D4827D"/>
<path d="M45.6345 35.1526C45.6165 35.1571 45.6 35.1676 45.585 35.1811C45.54 35.2246 45.5385 35.2966 45.5835 35.3416C46.017 35.7856 46.533 35.6776 46.5555 35.6731C46.614 35.6656 46.656 35.5996 46.6425 35.5381C46.629 35.4766 46.569 35.4376 46.5075 35.4511C46.4865 35.4556 46.089 35.5321 45.747 35.1826C45.717 35.1526 45.6735 35.1421 45.6345 35.1526Z" fill="#263238"/>
<path d="M43.7549 35.1722C43.7189 35.1707 43.6829 35.1872 43.6604 35.2202C43.3589 35.6402 42.9359 35.6387 42.9329 35.6387C42.8699 35.6372 42.8189 35.6882 42.8174 35.7497C42.8159 35.8127 42.8654 35.8637 42.9284 35.8652C42.9509 35.8652 43.4759 35.8682 43.8449 35.3522C43.8809 35.3012 43.8704 35.2307 43.8194 35.1932C43.7984 35.1797 43.7759 35.1722 43.7549 35.1722Z" fill="#263238"/>
<path d="M46.1984 36.5071C46.1834 36.5071 46.1684 36.5011 46.1564 36.4891C46.0859 36.4111 45.8519 36.4111 45.7214 36.4291C45.6989 36.4336 45.6749 36.4201 45.6644 36.3991C45.6539 36.3781 45.6569 36.3526 45.6719 36.3346C45.9029 36.0766 46.1594 36.0871 46.1699 36.0886C46.2014 36.0901 46.2239 36.1171 46.2224 36.1486C46.2209 36.1801 46.1909 36.2041 46.1624 36.2011C46.1534 36.2011 46.0214 36.1966 45.8699 36.3046C45.9959 36.3046 46.1579 36.3226 46.2389 36.4111C46.2599 36.4336 46.2584 36.4696 46.2344 36.4906C46.2254 36.5026 46.2119 36.5071 46.1984 36.5071Z" fill="#263238"/>
<path d="M43.2765 36.8117C43.2675 36.8117 43.257 36.8087 43.248 36.8042C43.221 36.7892 43.212 36.7547 43.2285 36.7277C43.2885 36.6242 43.4445 36.5732 43.5675 36.5477C43.3965 36.4727 43.266 36.5042 43.26 36.5057C43.2315 36.5147 43.2 36.4952 43.191 36.4652C43.1835 36.4352 43.2 36.4052 43.23 36.3962C43.2405 36.3932 43.488 36.3287 43.7685 36.5342C43.788 36.5477 43.7955 36.5732 43.7895 36.5957C43.7835 36.6182 43.7625 36.6347 43.74 36.6362C43.608 36.6452 43.3785 36.6947 43.326 36.7847C43.314 36.8012 43.296 36.8117 43.2765 36.8117Z" fill="#263238"/>
<path d="M47.0506 38.7962C47.0371 38.9627 46.9201 39.1232 46.6786 39.1877C46.1041 39.3407 45.3286 39.7712 45.3286 39.7712C45.3286 39.7712 45.3241 39.7637 45.3166 39.7502L45.3151 39.7457C45.2671 39.6602 45.1021 39.3752 44.9416 39.2597C44.9146 39.2387 44.8876 39.2237 44.8606 39.2162C44.8606 39.2162 44.8621 39.2132 44.8666 39.2072C44.9371 39.1112 45.5716 38.2697 46.5856 38.3192C46.7041 38.3252 46.8031 38.3627 46.8796 38.4227C46.9996 38.5142 47.0611 38.6567 47.0506 38.7962Z" fill="white"/>
<path opacity="0.2" d="M44.8666 39.2073L44.9416 39.2598C44.9146 39.2388 44.8876 39.2238 44.8606 39.2163C44.8606 39.2163 44.8621 39.2133 44.8666 39.2073Z" fill="black"/>
<path opacity="0.1" d="M46.9862 38.7214C46.8242 38.7394 46.5647 38.7814 46.2692 38.8744L46.2872 38.9959L46.2152 38.8924C46.0352 38.9524 45.8432 39.0319 45.6512 39.1369L45.6932 39.2374L45.6122 39.1593C45.4667 39.2433 45.3227 39.3393 45.1862 39.4548L45.3152 39.7459C45.2672 39.6604 45.1022 39.3754 44.9417 39.2599L45.1427 39.3979C45.1427 39.3979 45.2657 39.2509 45.5297 39.0829V39.0814L45.4592 38.9149L45.5927 39.0439C45.7397 38.9554 45.9272 38.8669 46.1537 38.7904L46.0982 38.6419L46.2527 38.7574C46.4462 38.7004 46.6667 38.6524 46.9157 38.6269L46.8797 38.4229C46.9997 38.5144 47.0612 38.6569 47.0507 38.7964L46.9862 38.7214Z" fill="black"/>
<path d="M51.3525 34.8601C51.3525 34.8601 53.0745 32.6386 51.237 31.9111C51.237 31.9111 50.7585 30.3211 49.878 29.9386C48.9975 29.5561 48.288 30.4561 48.288 30.4561C48.288 30.4561 47.8095 29.2921 46.4685 29.3476C45.1275 29.4031 44.9415 30.5131 44.9415 30.5131C44.9415 30.5131 43.9125 30.0721 43.026 30.6661C42.141 31.2601 42.6615 32.1031 42.6615 32.1031C42.6615 32.1031 41.3355 32.8306 41.7375 33.7501C42.1395 34.6696 43.2435 34.2286 43.2435 34.2286C43.2435 34.2286 43.2135 34.7461 43.8645 34.7641C44.5155 34.7836 45.5655 34.0561 45.5655 34.0561C45.5655 34.0561 45.837 34.4596 46.449 34.4776C47.0625 34.4956 47.6295 34.0741 47.6295 34.0741C47.6295 34.0741 47.898 34.7716 48.651 34.9786C49.4055 35.1856 51.3525 34.8601 51.3525 34.8601Z" fill="#263238"/>
<path d="M52.6588 32.0115L51.6463 29.439L49.6213 31.158C49.6213 31.158 50.9563 33.42 51.7333 33.15L52.6588 32.0115Z" fill="#EEC1BB"/>
<path d="M49.3229 28.5916L48.2249 30.1531L49.6214 31.1581L51.6464 29.4391L49.3229 28.5916Z" fill="#EEC1BB"/>
<path d="M44.9415 30.9795C44.9385 30.9795 44.937 30.9795 44.934 30.9795C44.913 30.975 44.901 30.9555 44.904 30.936C44.9055 30.9285 45.048 30.1515 44.388 29.6925C44.3655 29.841 44.28 29.964 44.139 30.0525C43.9845 30.1485 43.896 30.0705 43.866 30.033C43.773 29.9205 43.7865 29.7045 43.893 29.5875C43.941 29.535 44.073 29.4375 44.3175 29.562C44.2995 29.3685 44.178 29.151 43.9965 28.9995C43.98 28.986 43.9785 28.962 43.992 28.947C44.0055 28.9305 44.0295 28.929 44.0445 28.9425C44.256 29.1195 44.3925 29.3805 44.394 29.607C44.406 29.6145 44.418 29.622 44.4285 29.631C45.1305 30.1185 44.9775 30.9435 44.976 30.9525C44.9745 30.9675 44.9595 30.9795 44.9415 30.9795ZM44.097 29.574C44.037 29.574 43.9875 29.595 43.9485 29.637C43.86 29.733 43.8615 29.9085 43.9245 29.9835C43.9755 30.045 44.049 30.0195 44.1 29.9865C44.2335 29.904 44.307 29.79 44.319 29.646C44.2365 29.598 44.1615 29.574 44.097 29.574Z" fill="#263238"/>
<path d="M42.915 32.2351C42.687 32.2351 41.5755 32.1706 41.175 30.9541C41.169 30.9346 41.1795 30.9136 41.199 30.9061C41.2185 30.8986 41.2395 30.9106 41.247 30.9301C41.673 32.2276 42.939 32.1586 42.951 32.1586C42.9735 32.1556 42.99 32.1736 42.9915 32.1931C42.993 32.2141 42.9765 32.2321 42.957 32.2336C42.9555 32.2336 42.9405 32.2351 42.915 32.2351Z" fill="#263238"/>
<path d="M41.6624 35.0159C41.6444 35.0159 41.6294 35.0039 41.6249 34.9859C41.6204 34.9649 41.6339 34.9454 41.6549 34.9424C42.4619 34.7909 42.9149 33.9404 42.9194 33.9314C42.9299 33.9134 42.9524 33.9059 42.9704 33.9149C42.9884 33.9239 42.9959 33.9479 42.9869 33.9659C42.9674 34.0019 42.5114 34.8584 41.6699 35.0159C41.6669 35.0159 41.6654 35.0159 41.6624 35.0159Z" fill="#263238"/>
<path d="M50.6819 29.8456C50.6369 29.8456 50.5919 29.8366 50.5484 29.8171C50.4839 29.7886 50.3744 29.7151 50.3234 29.5336C50.1284 29.6371 49.9664 29.8156 49.9649 29.8171C49.9514 29.8321 49.9274 29.8336 49.9124 29.8201C49.8974 29.8066 49.8959 29.7826 49.9094 29.7676C49.9199 29.7571 50.0924 29.5651 50.3069 29.4586C50.2874 29.3371 50.2919 29.1781 50.3399 28.9681C50.3444 28.9486 50.3639 28.9351 50.3849 28.9396C50.4044 28.9441 50.4179 28.9636 50.4134 28.9846C50.3744 29.1541 50.3639 29.3041 50.3804 29.4271C50.4404 29.4031 50.5034 29.3881 50.5649 29.3866C50.6729 29.3836 50.7659 29.4226 50.8424 29.4991C50.9249 29.5816 50.9429 29.6761 50.8919 29.7496C50.8484 29.8111 50.7689 29.8456 50.6819 29.8456ZM50.3924 29.5006C50.4224 29.6221 50.4854 29.7076 50.5784 29.7481C50.6804 29.7931 50.7899 29.7631 50.8289 29.7061C50.8589 29.6626 50.8439 29.6071 50.7869 29.5501C50.7239 29.4871 50.6504 29.4571 50.5649 29.4601C50.5079 29.4616 50.4494 29.4781 50.3924 29.5006Z" fill="#263238"/>
<path d="M48.3345 30.8881C48.3195 30.8881 48.306 30.8791 48.3 30.8656C48.297 30.8581 47.9745 30.0451 48.747 29.1181C48.7605 29.1016 48.7845 29.1001 48.7995 29.1136C48.816 29.1271 48.8175 29.1511 48.804 29.1661C48.063 30.0556 48.366 30.8296 48.369 30.8371C48.3765 30.8566 48.3675 30.8776 48.348 30.8866C48.345 30.8866 48.3405 30.8881 48.3345 30.8881Z" fill="#263238"/>
<path d="M52.203 35.2861C52.185 35.2861 52.17 35.2741 52.167 35.2561C52.0395 34.6156 51.141 34.3711 51.1305 34.3696C51.111 34.3636 51.099 34.3441 51.1035 34.3231C51.1095 34.3036 51.129 34.2901 51.15 34.2961C51.189 34.3066 52.104 34.5541 52.2405 35.2411C52.245 35.2621 52.2315 35.2816 52.2105 35.2846C52.2075 35.2861 52.206 35.2861 52.203 35.2861Z" fill="#263238"/>
<path opacity="0.2" d="M56.6219 48.0542C54.9704 47.3372 54.7739 45.3812 54.7739 45.3812C55.2419 45.2927 55.7039 45.3452 56.1299 45.4907C56.2964 46.2602 56.4644 47.1167 56.6219 48.0542Z" fill="black"/>
<path d="M53.5259 42.2251C55.8539 40.3441 58.6064 37.6861 59.3324 34.7071C59.3444 34.7596 59.3849 34.8901 59.4209 34.8946C59.4389 34.8961 59.4074 34.8436 59.3339 34.7791C57.7079 33.6391 53.8364 33.3916 51.7394 33.1696L51.6494 31.3711C54.2879 30.9946 57.7604 30.7966 60.2894 31.7776C61.9004 32.4256 62.9174 33.7471 62.5139 35.5831C61.8119 39.3061 59.1104 42.4006 56.2679 44.7121L55.9754 44.9371L55.8239 45.0496L55.6514 45.1741L53.5259 42.2251Z" fill="#EBC0BB"/>
<path d="M53.0834 42.2115C53.0834 42.2115 56.6354 39.288 57.8999 37.437L60.8099 41.049L56.4149 47.0865C56.4149 47.0865 54.7979 46.7205 53.8784 45.27C52.9604 43.821 53.0834 42.2115 53.0834 42.2115Z" fill="#6747C7"/>
<path d="M15.4291 58.1325C15.0091 50.1375 17.3341 44.868 19.3576 41.856C21.5686 38.565 23.8696 37.1925 23.9671 37.1355L24.4981 38.0415C24.4756 38.055 22.2721 39.378 20.1946 42.492C18.2761 45.3675 16.0741 50.4045 16.4776 58.077L15.4291 58.1325Z" fill="#6747C7"/>
<g opacity="0.2">
<path d="M15.4291 58.1325C15.0091 50.1375 17.3341 44.868 19.3576 41.856C21.5686 38.565 23.8696 37.1925 23.9671 37.1355L24.4981 38.0415C24.4756 38.055 22.2721 39.378 20.1946 42.492C18.2761 45.3675 16.0741 50.4045 16.4776 58.077L15.4291 58.1325Z" fill="black"/>
</g>
<g opacity="0.2">
<path d="M24.4502 38.0715L23.8892 37.1835C23.9417 37.1505 23.9702 37.134 23.9702 37.134L24.4967 38.043L24.2342 37.5885L24.4982 38.0415C24.4937 38.0445 24.4772 38.0535 24.4502 38.0715Z" fill="black"/>
<path d="M15.3901 57.1396L15.3871 56.9866L16.4371 56.9641L16.4401 57.1111L15.3901 57.1396ZM15.3796 56.0731L15.3811 55.9216L16.4311 55.9306L16.4296 56.0776L15.3796 56.0731ZM16.4506 55.0441L15.4006 55.0066L15.4066 54.8536L16.4551 54.8971L16.4506 55.0441ZM16.5046 54.0136L15.4576 53.9401L15.4681 53.7886L16.5151 53.8666L16.5046 54.0136ZM16.5946 52.9846L15.5506 52.8766L15.5671 52.7236L16.6111 52.8391L16.5946 52.9846ZM16.7206 51.9631L15.6811 51.8161L15.7036 51.6646L16.7416 51.8176L16.7206 51.9631ZM16.8841 50.9461L15.8506 50.7601L15.8776 50.6101L16.9096 50.8021L16.8841 50.9461ZM17.0881 49.9366L16.0636 49.7101L16.0966 49.5601L17.1196 49.7941L17.0881 49.9366ZM17.3311 48.9376L16.3156 48.6691L16.3561 48.5206L17.3686 48.7966L17.3311 48.9376ZM17.6161 47.9521L16.6141 47.6401L16.6606 47.4931L17.6611 47.8126L17.6161 47.9521ZM17.9446 46.9801L16.9576 46.6216L17.0101 46.4776L17.9956 46.8421L17.9446 46.9801ZM18.3166 46.0231L17.3461 45.6211L17.4061 45.4786L18.3736 45.8881L18.3166 46.0231ZM18.7306 45.0856L17.7811 44.6371L17.8471 44.4976L18.7936 44.9521L18.7306 45.0856ZM19.1911 44.1706L18.2641 43.6756L18.3376 43.5391L19.2601 44.0416L19.1911 44.1706ZM19.6951 43.2811L18.7951 42.7396L18.8746 42.6076L19.7701 43.1551L19.6951 43.2811ZM20.2441 42.4186L19.3741 41.8306L19.4596 41.7046L20.3266 42.2971L20.2441 42.4186ZM20.8381 41.5861L20.0011 40.9516L20.0941 40.8301L20.9266 41.4691L20.8381 41.5861ZM21.4756 40.7881L20.6746 40.1101L20.7751 39.9931L21.5701 40.6786L21.4756 40.7881ZM22.1566 40.0291L21.3961 39.3061C21.4321 39.2686 21.4681 39.2311 21.5041 39.1936L22.2571 39.9256L22.1566 40.0291ZM22.8811 39.3151L22.1686 38.5441L22.2826 38.4391L22.9891 39.2161L22.8811 39.3151ZM23.6476 38.6536L22.9921 37.8331C23.0341 37.8001 23.0746 37.7671 23.1151 37.7356L23.7616 38.5636C23.7241 38.5921 23.6866 38.6221 23.6476 38.6536Z" fill="black"/>
<path d="M15.4288 58.1326L15.4258 58.0546L16.4743 58.0051L16.4773 58.0711L15.4288 58.1326Z" fill="black"/>
</g>
<path d="M25.794 34.7251C25.794 34.7251 24.8775 34.2376 23.877 34.8676C22.8765 35.4961 22.9185 36.5326 22.9185 36.5326L24.045 39.0091L25.791 37.9111L27.537 36.8131L25.794 34.7251Z" fill="#6747C7"/>
<path opacity="0.2" d="M25.794 34.7251C25.794 34.7251 24.8775 34.2376 23.877 34.8676C22.8765 35.4961 22.9185 36.5326 22.9185 36.5326L24.045 39.0091L25.791 37.9111L27.537 36.8131L25.794 34.7251Z" fill="white"/>
<path d="M29.2469 37.5674C28.7879 36.8384 27.9119 36.6134 27.6659 36.5639C27.6614 36.5624 27.6584 36.5624 27.6539 36.5609C27.6194 36.5534 27.5984 36.5504 27.5984 36.5504L27.5939 36.5519C27.0689 36.4739 26.2184 36.7274 25.3784 37.2554C24.5369 37.7834 23.9399 38.4419 23.7839 38.9474L23.7809 38.9504C23.7809 38.9504 23.7749 38.9699 23.7659 39.0044C23.7644 39.0089 23.7644 39.0119 23.7629 39.0164C23.7014 39.2579 23.5244 40.1459 23.9819 40.8749C24.3569 41.4719 25.8404 41.2154 27.2939 40.3019C28.7474 39.3899 29.6219 38.1644 29.2469 37.5674Z" fill="#6747C7"/>
<path opacity="0.2" d="M23.9818 40.8765C24.3568 41.4735 25.8403 41.217 27.2938 40.3035C28.7473 39.39 29.6218 38.1645 29.2453 37.5675C28.8703 36.9705 27.3868 37.227 25.9333 38.1405C24.4813 39.054 23.6068 40.2795 23.9818 40.8765Z" fill="white"/>
<path opacity="0.2" d="M29.127 37.641C29.451 38.157 28.5885 39.2805 27.1995 40.1535C25.812 41.0265 24.4245 41.3175 24.1005 40.8015C23.9055 40.491 24.1425 39.96 24.666 39.396C25.0095 39.024 25.4775 38.6385 26.028 38.292C26.5785 37.9455 27.1305 37.692 27.6135 37.5435C28.3515 37.314 28.9335 37.332 29.127 37.641Z" fill="black"/>
<path d="M27.6465 37.587C28.1595 38.403 27.912 39.4785 27.099 39.99C26.283 40.503 25.209 40.257 24.696 39.4425C24.687 39.4275 24.6765 39.411 24.6675 39.3945C25.011 39.0225 25.479 38.637 26.0295 38.2905C26.58 37.944 27.132 37.6905 27.615 37.542C27.6255 37.5555 27.636 37.572 27.6465 37.587Z" fill="white"/>
<path d="M19.8916 59.8951V58.8946C19.8916 58.3636 19.4611 57.9331 18.9301 57.9331H13.0006C12.4696 57.9331 12.0391 58.3636 12.0391 58.8946V59.8951H19.8916Z" fill="#6747C7"/>
<path d="M19.8916 59.3777H12.0391V59.8952H19.8916V59.3777Z" fill="black"/>
<path opacity="0.2" d="M12.0391 58.9906V59.8966H19.8916V58.9906C19.8916 58.8496 19.7761 58.7341 19.6351 58.7341H12.2956C12.1546 58.7341 12.0391 58.8481 12.0391 58.9906Z" fill="black"/>
<path d="M12.1186 53.5066C12.0676 54.2686 12.6466 54.9316 13.4086 54.9856L13.6096 54.9976L13.6516 55.0006L13.7506 55.0066L13.7566 54.9286L13.7776 54.6196L13.4596 54.5986L13.4356 54.5956C12.8866 54.5566 12.4726 54.0796 12.5086 53.5336L12.5326 53.1706C12.5416 53.0536 12.6466 52.9606 12.7666 52.9696L13.1626 52.9966L13.6456 53.0296L13.6726 52.6396L13.1416 52.6036L12.7936 52.5796C12.4576 52.5586 12.1666 52.8106 12.1456 53.1466L12.1186 53.5066Z" fill="#6747C7"/>
<g opacity="0.5">
<path d="M12.1186 53.5066C12.0676 54.2686 12.6466 54.9316 13.4086 54.9856L13.6096 54.9976L13.6516 55.0006L13.7506 55.0066L13.7566 54.9286L13.7776 54.6196L13.4596 54.5986L13.4356 54.5956C12.8866 54.5566 12.4726 54.0796 12.5086 53.5336L12.5326 53.1706C12.5416 53.0536 12.6466 52.9606 12.7666 52.9696L13.1626 52.9966L13.6456 53.0296L13.6726 52.6396L13.1416 52.6036L12.7936 52.5796C12.4576 52.5586 12.1666 52.8106 12.1456 53.1466L12.1186 53.5066Z" fill="white"/>
</g>
<path d="M13.1355 52.4236V52.4596C13.1355 52.5076 13.1385 52.5556 13.1415 52.6036C13.1445 52.7386 13.1505 52.8706 13.1625 52.9966C13.2075 53.6416 13.3125 54.1906 13.4595 54.5986C13.5165 54.7456 13.5765 54.8746 13.6425 54.9826L13.6515 55.0006C13.7595 55.1746 13.8825 55.2886 14.0145 55.3366C14.0175 55.3366 14.0175 55.3366 14.0175 55.3366C14.0535 55.3516 14.0895 55.3576 14.1285 55.3606L15.9225 55.4836C16.1655 55.5016 16.4085 55.2976 16.6245 54.9256C16.7385 54.7336 16.8465 54.4936 16.9455 54.2176C17.0895 53.8036 17.2125 53.3056 17.3025 52.7446L17.3085 52.7116L13.1355 52.4236Z" fill="#6747C7"/>
<path opacity="0.6" d="M13.1355 52.4236V52.4596C13.1355 52.5076 13.1385 52.5556 13.1415 52.6036C13.1445 52.7386 13.1505 52.8706 13.1625 52.9966C13.2075 53.6416 13.3125 54.1906 13.4595 54.5986C13.5165 54.7456 13.5765 54.8746 13.6425 54.9826L13.6515 55.0006C13.7595 55.1746 13.8825 55.2886 14.0145 55.3366C14.0175 55.3366 14.0175 55.3366 14.0175 55.3366C14.0535 55.3516 14.0895 55.3576 14.1285 55.3606L15.9225 55.4836C16.1655 55.5016 16.4085 55.2976 16.6245 54.9256C16.7385 54.7336 16.8465 54.4936 16.9455 54.2176C17.0895 53.8036 17.2125 53.3056 17.3025 52.7446L17.3085 52.7116L13.1355 52.4236Z" fill="white"/>
<path opacity="0.1" d="M13.6096 54.9975L13.6516 55.0005C13.7596 55.1745 13.8826 55.2885 14.0146 55.3365C14.0176 55.3365 14.0176 55.3365 14.0176 55.3365C14.7436 55.2645 15.8206 55.0785 16.6246 54.9255C16.7386 54.7335 16.8466 54.4935 16.9456 54.2175C16.3396 54.2835 14.7406 54.4935 13.7566 54.9285C13.7176 54.9465 13.6786 54.9615 13.6426 54.9825C13.6306 54.9855 13.6216 54.9915 13.6096 54.9975Z" fill="black"/>
<path d="M17.163 56.9927L16.824 57.0452L16.764 56.6597L17.103 56.6072C17.646 56.5232 18.018 56.0117 17.934 55.4702L17.8785 55.1132C17.8605 54.9947 17.748 54.9137 17.6295 54.9317L16.7595 55.0667L16.6995 54.6812L17.5695 54.5462C17.901 54.4952 18.2115 54.7217 18.264 55.0532L18.3195 55.4102C18.4365 56.1647 17.9175 56.8742 17.163 56.9927Z" fill="#6747C7"/>
<g opacity="0.5">
<path d="M17.9325 55.4702C18.0165 56.0132 17.6445 56.5232 17.1015 56.6072L17.0745 56.6102L16.7625 56.6612L16.8015 56.9192L16.8225 57.0452L16.9185 57.0302L17.1615 56.9942C17.1705 56.9942 17.1795 56.9912 17.1885 56.9882C17.9295 56.8562 18.4365 56.1542 18.3195 55.4102L18.2625 55.0532C18.2115 54.7202 17.8995 54.4922 17.5695 54.5462L17.2245 54.6002L16.6995 54.6812L16.7595 55.0652L17.2365 54.9902L17.6295 54.9302C17.7465 54.9122 17.8605 54.9932 17.8785 55.1132L17.9325 55.4702Z" fill="white"/>
</g>
<path d="M16.4775 57.4307L14.7 57.7082C14.1525 57.7937 13.4925 56.7257 13.0905 55.0967L13.083 55.0637L17.2155 54.4187L17.217 54.4517C17.328 56.1272 17.025 57.3452 16.4775 57.4307Z" fill="#6747C7"/>
<path opacity="0.6" d="M13.0815 55.0652L13.0905 55.0952C13.2495 55.7402 13.4475 56.2952 13.6635 56.7272C13.9965 57.3872 14.3685 57.7592 14.6985 57.7082L16.4775 57.4292C16.6515 57.4022 16.8015 57.2642 16.9185 57.0302C16.9335 57.0032 16.9455 56.9762 16.9575 56.9462C17.0025 56.8472 17.0415 56.7362 17.0745 56.6102C17.1885 56.1932 17.2455 55.6382 17.2365 54.9902C17.2365 54.8642 17.2305 54.7352 17.2245 54.6002C17.2215 54.5522 17.2185 54.5042 17.2155 54.4532L17.2125 54.4202L13.0815 55.0652Z" fill="white"/>
<path opacity="0.1" d="M13.6636 56.7272C13.9966 57.3872 14.3686 57.7592 14.6986 57.7082L16.4776 57.4292C16.6516 57.4022 16.8016 57.2642 16.9186 57.0302L17.1616 56.9942C17.1706 56.9942 17.1796 56.9912 17.1886 56.9882C17.1166 56.9732 17.0416 56.9612 16.9576 56.9462C16.9066 56.9372 16.8556 56.9282 16.8016 56.9192C15.9526 56.7812 14.6926 56.6282 13.6636 56.7272Z" fill="black"/>
<path d="M13.8902 59.5244H14.2337V59.1344H13.8902C13.3412 59.1344 12.8942 58.6874 12.8942 58.1384V57.7769C12.8942 57.6569 12.9917 57.5594 13.1117 57.5594H13.9922V57.1694H13.1117C12.7772 57.1694 12.5042 57.4424 12.5042 57.7769V58.1384C12.5042 58.9034 13.1267 59.5244 13.8902 59.5244Z" fill="#6747C7"/>
<g opacity="0.5">
<path d="M13.8902 59.5244H14.2337V59.1344H13.8902C13.3412 59.1344 12.8942 58.6874 12.8942 58.1384V57.7769C12.8942 57.6569 12.9917 57.5594 13.1117 57.5594H13.9922V57.1694H13.1117C12.7772 57.1694 12.5042 57.4424 12.5042 57.7769V58.1384C12.5042 58.9034 13.1267 59.5244 13.8902 59.5244Z" fill="white"/>
</g>
<path d="M14.6341 59.8515H16.4341C16.9891 59.8515 17.4751 58.695 17.6221 57.024L17.6251 56.991H13.4431L13.4461 57.024C13.5931 58.695 14.0806 59.8515 14.6341 59.8515Z" fill="#6747C7"/>
<path opacity="0.6" d="M14.6341 59.8515H16.4341C16.9891 59.8515 17.4751 58.695 17.6221 57.024L17.6251 56.991H13.4431L13.4461 57.024C13.5931 58.695 14.0806 59.8515 14.6341 59.8515Z" fill="white"/>
<path opacity="0.4" d="M14.9702 52.5496C15.1487 52.5616 15.1022 53.1736 15.2222 53.2771C15.3422 53.3806 15.3857 52.7281 15.5342 52.7731C15.6827 52.8181 15.8507 52.9441 15.9977 52.6216L14.9702 52.5496Z" fill="black"/>
<path opacity="0.4" d="M13.2512 55.0276C13.2512 55.0276 13.3397 55.6501 13.4432 55.6576C13.5467 55.6651 13.4657 55.1311 13.6097 55.1761C13.7537 55.2211 13.9262 54.9331 13.9262 54.9331L13.2512 55.0276Z" fill="black"/>
<path d="M20.832 58.7341V59.5696C20.832 59.7841 21.084 59.8726 21.297 59.8726H38.0025C38.217 59.8726 38.475 59.7841 38.475 59.5696V58.7341H20.832Z" fill="#263238"/>
<path opacity="0.4" d="M20.832 58.7341V59.5696C20.832 59.7841 21.084 59.8726 21.297 59.8726H38.0025C38.217 59.8726 38.475 59.7841 38.475 59.5696V58.7341H20.832Z" fill="white"/>
<path opacity="0.2" d="M20.832 58.7341V59.5696C20.832 59.7841 21.084 59.8726 21.297 59.8726H32.316C32.5305 59.8726 32.7855 59.7841 32.7855 59.5696V58.7341H20.832Z" fill="black"/>
<path d="M18.0376 50.0537L20.0266 59.0747C20.0911 59.3717 20.3806 59.5877 20.6731 59.5877H31.5361C31.8256 59.5877 32.0116 59.3177 31.9441 59.0207L29.9581 50.0687C29.8906 49.7747 29.6041 49.6277 29.3131 49.6277H18.4501C18.1561 49.6277 17.9731 49.7597 18.0376 50.0537Z" fill="#263238"/>
<path opacity="0.4" d="M18.0376 50.0537L20.0266 59.0747C20.0911 59.3717 20.3806 59.5877 20.6731 59.5877H31.1671C31.4581 59.5877 31.6426 59.3177 31.5781 59.0207L29.5891 50.0687C29.5246 49.7747 29.2351 49.6277 28.9441 49.6277H18.4501C18.1561 49.6277 17.9731 49.7597 18.0376 50.0537Z" fill="white"/>
<path opacity="0.2" d="M23.394 54.6391V54.6421C23.394 55.4146 24.222 56.0416 24.8295 56.0416C25.437 56.0416 25.797 55.4146 25.623 54.6421C25.4505 53.8846 24.846 53.2681 24.252 53.2441C24.4245 54.0166 24.054 54.6421 23.4495 54.6421C23.436 54.6421 23.394 54.6421 23.394 54.6391Z" fill="black"/>
<path d="M65.0055 60.1606H10.689V62.8516H65.0055V60.1606Z" fill="#263238"/>
<path opacity="0.5" d="M65.0055 60.1606H10.689V62.8516H65.0055V60.1606Z" fill="white"/>
<path d="M65.5936 59.9011H10.1026C9.93456 59.9011 9.79956 60.0361 9.79956 60.2041V60.6391C9.79956 60.8071 9.93456 60.9421 10.1026 60.9421H65.5936C65.7616 60.9421 65.8966 60.8071 65.8966 60.6391V60.2041C65.8966 60.0376 65.7601 59.9011 65.5936 59.9011Z" fill="#263238"/>
<path opacity="0.6" d="M65.5936 59.9011H10.1026C9.93456 59.9011 9.79956 60.0361 9.79956 60.2041V60.6391C9.79956 60.8071 9.93456 60.9421 10.1026 60.9421H65.5936C65.7616 60.9421 65.8966 60.8071 65.8966 60.6391V60.2041C65.8966 60.0376 65.7601 59.9011 65.5936 59.9011Z" fill="white"/>
<path d="M53.192 55.7864H60.332V54.1034H53.192V55.7864Z" fill="#6747C7"/>
<path opacity="0.7" d="M53.192 55.7864H60.332V54.1034H53.192V55.7864Z" fill="white"/>
<path d="M57.5701 53.9475H63.1621C63.7111 53.9475 64.1581 54.3945 64.1581 54.9435C64.1581 55.4925 63.7111 55.9395 63.1621 55.9395H57.5701V55.575H58.4191C58.7671 55.575 59.0506 55.2915 59.0506 54.9435C59.0506 54.5955 58.7671 54.312 58.4191 54.312H57.5701V53.9475Z" fill="#6747C7"/>
<g opacity="0.4">
<path d="M57.5701 53.9475H63.1621C63.7111 53.9475 64.1581 54.3945 64.1581 54.9435C64.1581 55.4925 63.7111 55.9395 63.1621 55.9395H57.5701V55.575H58.4191C58.7671 55.575 59.0506 55.2915 59.0506 54.9435C59.0506 54.5955 58.7671 54.312 58.4191 54.312H57.5701V53.9475Z" fill="white"/>
</g>
<path d="M52.8271 53.9475H58.4191C58.9681 53.9475 59.4152 54.3945 59.4152 54.9435C59.4152 55.4925 58.9681 55.9395 58.4191 55.9395H52.8271V55.575H58.4191C58.7671 55.575 59.0507 55.2915 59.0507 54.9435C59.0507 54.5955 58.7671 54.312 58.4191 54.312H52.8271V53.9475Z" fill="#6747C7"/>
<g opacity="0.2">
<path d="M52.8271 53.9475H58.4191C58.9681 53.9475 59.4152 54.3945 59.4152 54.9435C59.4152 55.4925 58.9681 55.9395 58.4191 55.9395H52.8271V55.575H58.4191C58.7671 55.575 59.0507 55.2915 59.0507 54.9435C59.0507 54.5955 58.7671 54.312 58.4191 54.312H52.8271V53.9475Z" fill="white"/>
</g>
<path d="M63.4305 52.1101H56.2905V53.7931H63.4305V52.1101Z" fill="#6747C7"/>
<path opacity="0.7" d="M63.4305 52.1101H56.2905V53.7931H63.4305V52.1101Z" fill="white"/>
<path d="M59.0521 51.9556H53.4601C52.9111 51.9556 52.4641 52.4026 52.4641 52.9516C52.4641 53.5006 52.9111 53.9476 53.4601 53.9476H59.0521V53.5831H58.2031C57.8551 53.5831 57.5716 53.2996 57.5716 52.9516C57.5716 52.6036 57.8551 52.3201 58.2031 52.3201H59.0521V51.9556Z" fill="#6747C7"/>
<g opacity="0.4">
<path d="M59.0521 51.9556H53.4601C52.9111 51.9556 52.4641 52.4026 52.4641 52.9516C52.4641 53.5006 52.9111 53.9476 53.4601 53.9476H59.0521V53.5831H58.2031C57.8551 53.5831 57.5716 53.2996 57.5716 52.9516C57.5716 52.6036 57.8551 52.3201 58.2031 52.3201H59.0521V51.9556Z" fill="black"/>
</g>
<path d="M63.795 51.9556H58.203C57.654 51.9556 57.207 52.4026 57.207 52.9516C57.207 53.5006 57.654 53.9476 58.203 53.9476H63.795V53.5831H58.203C57.855 53.5831 57.5715 53.2996 57.5715 52.9516C57.5715 52.6036 57.855 52.3201 58.203 52.3201H63.795V51.9556Z" fill="#6747C7"/>
<g opacity="0.2">
<path d="M63.795 51.9556H58.203C57.654 51.9556 57.207 52.4026 57.207 52.9516C57.207 53.5006 57.654 53.9476 58.203 53.9476H63.795V53.5831H58.203C57.855 53.5831 57.5715 53.2996 57.5715 52.9516C57.5715 52.6036 57.855 52.3201 58.203 52.3201H63.795V51.9556Z" fill="black"/>
</g>
<path d="M51.7257 57.7783H58.8657V56.0953H51.7257V57.7783Z" fill="#6747C7"/>
<path opacity="0.7" d="M51.7257 57.7783H58.8657V56.0953H51.7257V57.7783Z" fill="white"/>
<path d="M56.1045 55.9412H61.6965C62.2455 55.9412 62.6925 56.3882 62.6925 56.9372C62.6925 57.4862 62.2455 57.9332 61.6965 57.9332H56.1045V57.5687H56.9535C57.3015 57.5687 57.585 57.2852 57.585 56.9372C57.585 56.5892 57.3015 56.3057 56.9535 56.3057H56.1045V55.9412Z" fill="#263238"/>
<g opacity="0.2">
<path d="M56.1045 55.9412H61.6965C62.2455 55.9412 62.6925 56.3882 62.6925 56.9372C62.6925 57.4862 62.2455 57.9332 61.6965 57.9332H56.1045V57.5687H56.9535C57.3015 57.5687 57.585 57.2852 57.585 56.9372C57.585 56.5892 57.3015 56.3057 56.9535 56.3057H56.1045V55.9412Z" fill="white"/>
</g>
<path d="M51.3601 55.9412H56.9521C57.5011 55.9412 57.9481 56.3882 57.9481 56.9372C57.9481 57.4862 57.5011 57.9332 56.9521 57.9332H51.3601V57.5687H56.9521C57.3001 57.5687 57.5836 57.2852 57.5836 56.9372C57.5836 56.5892 57.3001 56.3057 56.9521 56.3057H51.3601V55.9412Z" fill="#263238"/>
<g opacity="0.4">
<path d="M51.3601 55.9412H56.9521C57.5011 55.9412 57.9481 56.3882 57.9481 56.9372C57.9481 57.4862 57.5011 57.9332 56.9521 57.9332H51.3601V57.5687H56.9521C57.3001 57.5687 57.5836 57.2852 57.5836 56.9372C57.5836 56.5892 57.3001 56.3057 56.9521 56.3057H51.3601V55.9412Z" fill="white"/>
</g>
<path d="M63.2506 58.0876H56.1106V59.7706H63.2506V58.0876Z" fill="#6747C7"/>
<path opacity="0.7" d="M63.2506 58.0876H56.1106V59.7706H63.2506V58.0876Z" fill="white"/>
<path d="M63.6166 57.9331H58.0246C57.4756 57.9331 57.0286 58.3801 57.0286 58.9291C57.0286 59.4781 57.4756 59.9251 58.0246 59.9251H63.6166V59.5606H58.0246C57.6766 59.5606 57.3931 59.2771 57.3931 58.9291C57.3931 58.5811 57.6766 58.2976 58.0246 58.2976H63.6166V57.9331Z" fill="#263238"/>
<path d="M58.8722 57.9331H53.2802C52.7312 57.9331 52.2842 58.3801 52.2842 58.9291C52.2842 59.4781 52.7312 59.9251 53.2802 59.9251H58.8722V59.5606H58.0232C57.6752 59.5606 57.3917 59.2771 57.3917 58.9291C57.3917 58.5811 57.6752 58.2976 58.0232 58.2976H58.8722V57.9331Z" fill="#263238"/>
<g opacity="0.4">
<path d="M63.6166 57.9331H58.0246C57.4756 57.9331 57.0286 58.3801 57.0286 58.9291C57.0286 59.4781 57.4756 59.9251 58.0246 59.9251H63.6166V59.5606H58.0246C57.6766 59.5606 57.3931 59.2771 57.3931 58.9291C57.3931 58.5811 57.6766 58.2976 58.0246 58.2976H63.6166V57.9331Z" fill="white"/>
</g>
<path d="M52.3544 51.801H59.4944V50.118H52.3544V51.801Z" fill="#6747C7"/>
<path opacity="0.7" d="M52.3544 51.801H59.4944V50.118H52.3544V51.801Z" fill="white"/>
<path d="M51.99 51.9556H57.582C58.131 51.9556 58.578 51.5086 58.578 50.9596C58.578 50.4106 58.131 49.9636 57.582 49.9636H51.99V50.3281H57.582C57.93 50.3281 58.2135 50.6116 58.2135 50.9596C58.2135 51.3076 57.93 51.5911 57.582 51.5911H51.99V51.9556Z" fill="#263238"/>
<path d="M56.7329 51.9556H62.3249C62.8739 51.9556 63.3209 51.5086 63.3209 50.9596C63.3209 50.4106 62.8739 49.9636 62.3249 49.9636H56.7329V50.3281H57.5819C57.9299 50.3281 58.2134 50.6116 58.2134 50.9596C58.2134 51.3076 57.9299 51.5911 57.5819 51.5911H56.7329V51.9556Z" fill="#263238"/>
<g opacity="0.4">
<path d="M51.99 51.9556H57.582C58.131 51.9556 58.578 51.5086 58.578 50.9596C58.578 50.4106 58.131 49.9636 57.582 49.9636H51.99V50.3281H57.582C57.93 50.3281 58.2135 50.6116 58.2135 50.9596C58.2135 51.3076 57.93 51.5911 57.582 51.5911H51.99V51.9556Z" fill="white"/>
</g>
<g opacity="0.2">
<path d="M51.7246 56.4661L56.9071 56.5216L51.7246 56.5786V56.4661Z" fill="black"/>
<path d="M51.7246 56.7419L55.1716 56.7989L51.7246 56.8544V56.7419Z" fill="black"/>
<path d="M51.7246 57.0195L57.3916 57.075L51.7246 57.132V57.0195Z" fill="black"/>
<path d="M51.7246 57.2957L56.6146 57.3527L51.7246 57.4082V57.2957Z" fill="black"/>
</g>
<g opacity="0.2">
<path d="M53.1917 54.4727L58.3742 54.5297L53.1917 54.5852V54.4727Z" fill="black"/>
<path d="M53.1917 54.7502L56.6387 54.8057L53.1917 54.8627V54.7502Z" fill="black"/>
<path d="M53.1917 55.0261L58.8572 55.0831L53.1917 55.1386V55.0261Z" fill="black"/>
<path d="M53.1917 55.3037L58.0802 55.3592L53.1917 55.4162V55.3037Z" fill="black"/>
</g>
<g opacity="0.2">
<path d="M52.3381 50.4871L57.5221 50.5441L52.3381 50.5996V50.4871Z" fill="black"/>
<path d="M52.3381 50.7646L55.7851 50.8201L52.3381 50.8771V50.7646Z" fill="black"/>
<path d="M52.3381 51.0405L58.0051 51.0975L52.3381 51.153V51.0405Z" fill="black"/>
<path d="M52.3381 51.3181L57.2281 51.3736L52.3381 51.4306V51.3181Z" fill="black"/>
</g>
<g opacity="0.2">
<path d="M63.2372 59.4077L58.0547 59.3507L63.2372 59.2952V59.4077Z" fill="black"/>
<path d="M63.237 59.1315L59.79 59.0745L63.237 59.019V59.1315Z" fill="black"/>
<path d="M63.2371 58.854L57.5701 58.7985L63.2371 58.7415V58.854Z" fill="black"/>
<path d="M63.2369 58.5781L58.3469 58.5211L63.2369 58.4656V58.5781Z" fill="black"/>
</g>
<g opacity="0.2">
<path d="M63.432 53.4228L58.248 53.3673L63.432 53.3103V53.4228Z" fill="black"/>
<path d="M63.4321 53.1467L59.9851 53.0897L63.4321 53.0342V53.1467Z" fill="black"/>
<path d="M63.4321 52.8693L57.7651 52.8138L63.4321 52.7568V52.8693Z" fill="black"/>
<path d="M63.4322 52.5932L58.5422 52.5362L63.4322 52.4807V52.5932Z" fill="black"/>
</g>
<path d="M52.6592 58.8796C52.6592 58.8796 50.5907 57.8401 49.4492 57.8101H49.4417C49.4177 57.8101 49.3952 57.8101 49.3727 57.8101H38.6807L39.3422 59.8726L43.9592 59.7136L52.4732 59.5891L52.6592 58.8796Z" fill="#6747C7"/>
<path opacity="0.7" d="M52.6592 58.8796C52.6592 58.8796 50.5907 57.8401 49.4492 57.8101H49.4417C49.4177 57.8101 49.3952 57.8101 49.3727 57.8101H38.6807L39.3422 59.8726L43.9592 59.7136L52.4732 59.5891L52.6592 58.8796Z" fill="white"/>
<path d="M35.7751 58.9831C35.7751 58.9831 36.9886 57.9721 38.4586 57.8251C39.9286 57.6781 40.4431 58.8331 40.4431 58.8331C40.4431 58.8331 41.1421 57.8731 42.2446 57.8116C43.3471 57.7516 45.5941 58.8796 45.5941 58.8796L45.4051 59.5891L35.8861 59.7286L35.7751 58.9831Z" fill="#6747C7"/>
<path opacity="0.6" d="M35.7751 58.9831C35.7751 58.9831 36.9886 57.9721 38.4586 57.8251C39.9286 57.6781 40.4431 58.8331 40.4431 58.8331C40.4431 58.8331 41.1421 57.8731 42.2446 57.8116C43.3471 57.7516 45.5941 58.8796 45.5941 58.8796L45.4051 59.5891L35.8861 59.7286L35.7751 58.9831Z" fill="white"/>
<path opacity="0.2" d="M52.659 58.8796L52.6215 59.0191L52.5975 59.1076L52.4685 59.5891H45.405L45.486 59.2816L45.5115 59.1886L45.594 58.8796H52.659Z" fill="black"/>
<g opacity="0.2">
<path d="M45.4052 58.9636C44.9957 58.7836 44.5757 58.6261 44.1497 58.4911C43.7252 58.3546 43.2887 58.2451 42.8477 58.2061C42.4067 58.1716 41.9687 58.2871 41.5667 58.4716C41.1647 58.6546 40.7852 58.8991 40.4462 59.1796L40.4117 59.2081L40.3817 59.1736C40.1147 58.8691 39.7892 58.6051 39.4277 58.4191C39.2462 58.3276 39.0542 58.2571 38.8547 58.2211C38.6552 58.1866 38.4512 58.1956 38.2502 58.2271C37.8467 58.2976 37.4552 58.4386 37.0757 58.6006C36.6947 58.7596 36.3227 58.9426 35.9612 59.1436C36.3152 58.9291 36.6812 58.7341 37.0592 58.5601C37.4372 58.3891 37.8272 58.2391 38.2397 58.1581C38.4452 58.1221 38.6612 58.1041 38.8697 58.1416C39.0782 58.1776 39.2792 58.2496 39.4667 58.3441C39.8432 58.5346 40.1732 58.7986 40.4552 59.1151L40.3892 59.1091C40.7387 58.8181 41.1227 58.5796 41.5352 58.3921C41.9447 58.2076 42.4007 58.0861 42.8567 58.1326C43.3067 58.1806 43.7432 58.3006 44.1677 58.4461C44.5877 58.5961 45.0017 58.7686 45.4052 58.9636Z" fill="black"/>
</g>
<g opacity="0.2">
<path d="M36.0332 59.2337C36.3812 59.0732 36.7397 58.9352 37.1072 58.8227C37.4747 58.7117 37.8527 58.6277 38.2382 58.5977C38.6237 58.5632 39.0152 58.6097 39.3887 58.7117C39.7622 58.8152 40.1207 58.9712 40.4432 59.1962L40.3952 59.1917C40.7747 59.0177 41.1662 58.8767 41.5697 58.7672C41.9702 58.6607 42.3902 58.5872 42.8087 58.6217C43.2242 58.6547 43.6337 58.7327 44.0372 58.8212C44.4407 58.9157 44.8412 59.0222 45.2372 59.1437C44.8367 59.0387 44.4332 58.9457 44.0282 58.8677C43.6232 58.7882 43.2152 58.7177 42.8042 58.6952C42.3947 58.6712 41.9867 58.7402 41.5907 58.8497C41.1947 58.9577 40.8077 59.1047 40.4342 59.2742L40.4102 59.2847L40.3877 59.2682C40.0832 59.0537 39.7292 58.8947 39.3662 58.7912C39.0017 58.6892 38.6207 58.6427 38.2427 58.6652C37.8632 58.6862 37.4867 58.7627 37.1192 58.8617C36.7502 58.9637 36.3857 59.0867 36.0332 59.2337Z" fill="black"/>
</g>
<g opacity="0.2">
<path d="M36.51 59.2334C37.1505 59.0834 37.812 59.0219 38.4705 59.0339C38.8005 59.0369 39.1305 59.0609 39.4575 59.1074C39.786 59.1479 40.1085 59.2199 40.4295 59.2994L40.41 59.2979C40.7775 59.2334 41.148 59.1899 41.5185 59.1524C41.889 59.1164 42.261 59.0879 42.633 59.0759C43.005 59.0669 43.3785 59.0684 43.7505 59.0879C44.1225 59.1149 44.4915 59.1584 44.856 59.2334C44.121 59.1179 43.3755 59.1149 42.636 59.1494C41.8965 59.1869 41.157 59.2664 40.4265 59.3864L40.416 59.3879L40.4055 59.3849C40.089 59.3039 39.771 59.2289 39.447 59.1869C39.1245 59.1389 38.7975 59.1119 38.4705 59.0999C38.1435 59.0864 37.815 59.0924 37.488 59.1134C37.1595 59.1359 36.8325 59.1704 36.51 59.2334Z" fill="black"/>
</g>
<g opacity="0.2">
<path d="M52.6216 59.019L52.5976 59.1075L45.8281 59.064L52.6216 59.019Z" fill="black"/>
</g>
<g opacity="0.2">
<path d="M51.9661 59.2352L45.4861 59.2817L45.5116 59.1887L51.9661 59.2352Z" fill="black"/>
</g>
<path d="M40.1492 59.4602C40.1492 59.4602 40.1867 58.8857 40.4432 58.8332C40.7012 58.7807 40.6847 59.4602 40.6847 59.4602H40.1492Z" fill="#263238"/>
<path d="M52.9756 59.3433H35.3311V59.9013H52.9756V59.3433Z" fill="#263238"/>
<path opacity="0.2" d="M52.9756 59.3433H35.3311V59.9013H52.9756V59.3433Z" fill="white"/>
<path opacity="0.2" d="M52.9772 59.3433H45.9197V59.9013H52.9772V59.3433Z" fill="black"/>
<path d="M51.0076 60.4545L50.5591 59.238L51.0076 58.2555H51.8791L52.7251 57.24C52.7251 57.24 53.6791 57.24 53.9011 57.24C54.1231 57.24 55.1011 57.9555 55.1011 57.9555C55.1011 57.9555 55.0231 58.6665 55.1011 58.752C55.1791 58.836 55.6006 59.238 55.6006 59.238L55.2496 59.5365V60.2175L55.1011 60.489L53.9011 60.414C53.9011 60.414 53.7046 60.3285 53.4001 60.414C53.0941 60.4995 52.8661 60.912 52.6501 60.8115C52.4326 60.7095 51.0076 60.4545 51.0076 60.4545Z" fill="#6747C7"/>
<path opacity="0.7" d="M55.599 59.238L55.248 59.535V60.2145L55.0995 60.4875L53.901 60.411C53.901 60.411 53.7045 60.3255 53.3985 60.411C53.0925 60.498 52.8645 60.912 52.65 60.81C52.4325 60.708 51.009 60.453 51.009 60.453L50.5605 59.238L51.009 58.2555H51.879L52.725 57.2385C52.725 57.2385 53.6805 57.2385 53.901 57.2385C54.1215 57.2385 55.0995 57.954 55.0995 57.954C55.0995 57.954 55.038 58.539 55.083 58.71C55.0875 58.728 55.0935 58.7415 55.0995 58.749C55.1775 58.8345 55.599 59.238 55.599 59.238Z" fill="white"/>
<path opacity="0.4" d="M55.0816 58.7101L54.7411 57.9541L54.1081 58.9336L53.6596 58.7296V57.8071L52.7356 58.1626L52.8676 58.9336L52.5901 59.5351L51.4951 58.5511L51.2311 59.2576L50.5591 59.2366L51.0076 58.2541H51.8776L52.7236 57.2371C52.7236 57.2371 53.6791 57.2371 53.8996 57.2371C54.1201 57.2371 55.0981 57.9526 55.0981 57.9526C55.0981 57.9526 55.0366 58.5391 55.0816 58.7101Z" fill="white"/>
<path opacity="0.1" d="M51.0076 60.4531L51.5521 60.3226V59.1151L52.6171 60.0166L53.2156 58.6306L53.5411 59.1706L54.2536 59.2381L54.7021 58.7746L54.9391 59.0116L54.6841 59.4721L54.9391 59.6551L55.2481 59.5366L54.8956 59.7736L54.5971 59.5996L54.2536 59.3611L53.4436 59.2381L53.1646 59.6191L53.4166 59.8651L53.3896 59.4706L53.9971 60.1981L54.2521 59.7721L53.8471 59.6941L54.3391 59.6836L54.4006 59.8186L54.0406 60.2716C54.0406 60.2716 53.4166 60.0151 53.4511 60.0136C53.4856 60.0121 52.8271 60.6016 52.8271 60.6016L52.0171 60.3196L52.0081 59.6596L51.6826 60.4126L51.0061 60.4846" fill="black"/>
<path d="M33.2117 59.3507V59.3552C33.2117 59.3552 33.2012 59.3612 33.1817 59.3717C33.1622 59.3822 33.1382 59.3972 33.1022 59.4197C33.0902 59.4257 33.0737 59.4332 33.0587 59.4452C33.0287 59.4632 32.9942 59.4857 32.9567 59.5097C32.9417 59.5172 32.9267 59.5262 32.9117 59.5382L32.8127 59.5997C32.7287 59.6507 32.6372 59.7077 32.5502 59.7662C32.5322 59.7767 32.5127 59.7872 32.4962 59.8007C32.4617 59.8232 32.4272 59.8472 32.3942 59.8697C32.3762 59.8802 32.3597 59.8907 32.3417 59.9027C32.1767 60.0122 32.0447 60.1082 32.0012 60.1592C31.9907 60.1742 31.9757 60.1847 31.9607 60.1907C31.9532 60.1937 31.9442 60.1967 31.9352 60.1967V60.1997L31.9337 60.1982C31.9307 60.1997 31.9292 60.1997 31.9262 60.1982C31.9127 60.2012 31.8992 60.2012 31.8827 60.1997C31.8092 60.1922 31.7177 60.1472 31.6217 60.1007C31.4942 60.0407 31.3577 59.9732 31.2317 59.9717C30.9467 59.9717 30.8192 60.1097 30.8192 60.1097L29.8637 60.5147L29.6357 60.2852L29.3702 59.6117L28.9667 59.4137C28.9667 59.4137 29.0132 59.2862 29.0657 59.1437C29.0792 59.1092 29.0912 59.0717 29.1047 59.0387C29.1092 59.0207 29.1167 59.0042 29.1242 58.9847C29.1422 58.9352 29.1572 58.8887 29.1692 58.8542C29.1767 58.8272 29.1842 58.8077 29.1887 58.7957C29.1887 58.7912 29.1902 58.7837 29.1887 58.7792C29.1902 58.7717 29.1872 58.7612 29.1857 58.7507C29.1752 58.6937 29.1437 58.6022 29.1017 58.5002C29.0597 58.3967 29.0102 58.2857 28.9682 58.1942C28.9562 58.1657 28.9427 58.1387 28.9292 58.1147C28.9277 58.1087 28.9262 58.1042 28.9217 58.0997C28.9022 58.0592 28.8887 58.0292 28.8812 58.0172C28.8797 58.0142 28.8782 58.0112 28.8782 58.0112L28.8797 58.0127V58.0097C28.9112 57.9497 29.4077 57.0287 29.5847 56.9732C29.7647 56.9117 30.5522 56.6492 30.5522 56.6492L30.7982 56.8247L31.6412 57.4232L32.3567 57.1847L33.1052 58.0337L33.2117 59.3507Z" fill="#6747C7"/>
<path opacity="0.7" d="M33.2101 59.3522C33.2101 59.3522 33.1996 59.3582 33.1831 59.3717C33.1636 59.3822 33.1396 59.3972 33.1036 59.4197C33.0916 59.4257 33.0751 59.4332 33.0601 59.4452C33.0301 59.4632 32.9956 59.4857 32.9581 59.5097C32.9431 59.5172 32.9281 59.5262 32.9131 59.5382C32.8816 59.5562 32.8486 59.5757 32.8141 59.5997C32.7301 59.6507 32.6386 59.7077 32.5516 59.7662C32.5336 59.7767 32.5141 59.7872 32.4976 59.8007C32.4631 59.8232 32.4286 59.8472 32.3956 59.8697C32.3776 59.8802 32.3611 59.8907 32.3431 59.9027C32.1781 60.0122 32.0461 60.1082 32.0026 60.1592C31.9921 60.1742 31.9771 60.1847 31.9621 60.1907C31.9546 60.1937 31.9456 60.1967 31.9366 60.1967V60.1997L31.9351 60.1982C31.9321 60.1997 31.9306 60.1997 31.9276 60.1982C31.9141 60.2012 31.9006 60.2012 31.8841 60.1997C31.8106 60.1922 31.7191 60.1472 31.6231 60.1007C31.4956 60.0407 31.3591 59.9732 31.2331 59.9717C30.9481 59.9717 30.8206 60.1097 30.8206 60.1097L29.8651 60.5147L29.6371 60.2852L29.3716 59.6117L28.9681 59.4137C28.9681 59.4137 29.0146 59.2862 29.0671 59.1437C29.0806 59.1092 29.0926 59.0717 29.1061 59.0387C29.1106 59.0207 29.1181 59.0042 29.1256 58.9847C29.1421 58.9337 29.1586 58.8887 29.1706 58.8542C29.1781 58.8272 29.1856 58.8077 29.1901 58.7957C29.1901 58.7912 29.1916 58.7837 29.1901 58.7792C29.1916 58.7717 29.1886 58.7612 29.1871 58.7507C29.1766 58.6937 29.1451 58.6022 29.1031 58.5002C29.0611 58.3967 29.0116 58.2857 28.9696 58.1942C28.9576 58.1657 28.9441 58.1387 28.9306 58.1147C28.9291 58.1087 28.9276 58.1042 28.9231 58.0997C28.9036 58.0592 28.8901 58.0292 28.8826 58.0172C28.8826 58.0142 28.8826 58.0142 28.8811 58.0112L28.8796 58.0097V58.0067L28.8811 58.0082C28.9126 57.9482 29.4091 57.0272 29.5861 56.9717C29.7661 56.9102 30.5536 56.6477 30.5536 56.6477L30.7996 56.8232L31.6411 57.4247L32.3566 57.1862L33.1051 58.0322L33.2101 59.3522Z" fill="white"/>
<path opacity="0.4" d="M33.2116 59.3506C33.2086 59.3521 33.2086 59.3521 33.2086 59.3521L32.5081 59.2576L32.8246 58.0246L32.1241 58.2046L31.7491 57.5716L31.0351 57.3136L31.6846 58.1266L31.2631 58.6651L29.8591 57.4666L30.1336 58.3981L28.8796 58.0006C28.9111 57.9406 29.4076 57.0196 29.5846 56.9641C29.7646 56.9026 30.5521 56.6401 30.5521 56.6401L30.7981 56.8156L31.6411 57.4141L32.3566 57.1756L33.1051 58.0246L33.2116 59.3506Z" fill="white"/>
<path opacity="0.1" d="M31.2316 59.97C30.9466 59.97 30.8191 60.108 30.8191 60.108L29.8636 60.513L29.6356 60.2835L29.3701 59.61L28.9666 59.412C28.9666 59.412 29.0131 59.2845 29.0656 59.142C29.0791 59.1075 29.0911 59.07 29.1046 59.037C29.1091 59.019 29.1166 59.0025 29.1241 58.983C29.1406 58.932 29.1571 58.887 29.1691 58.8525C29.1766 58.8255 29.1841 58.806 29.1886 58.794L30.6136 58.956L30.5746 58.5615L31.3276 59.1495L30.5596 59.343L30.5896 59.6895L31.0936 59.685L31.2316 59.97Z" fill="black"/>
<path opacity="0.1" d="M31.9262 60.1982C31.9127 60.2012 31.8992 60.2012 31.8827 60.1997C31.8092 60.1922 31.7177 60.1472 31.6217 60.1007C31.4942 60.0407 31.3577 59.9732 31.2317 59.9717L31.9172 59.5277L31.8047 58.8617L32.3567 58.8047C32.3567 58.8047 32.1167 59.5022 32.1572 59.5187C32.1962 59.5322 31.8872 60.1832 31.9262 60.1982Z" fill="black"/>
<path d="M25.5301 58.9007L25.5286 58.9036C25.5286 58.9036 25.5316 58.9096 25.5376 58.9231C25.5436 58.9351 25.5511 58.9517 25.5616 58.9757C25.5661 58.9832 25.5721 58.9937 25.5751 59.0042C25.5841 59.0252 25.5946 59.0476 25.6051 59.0731C25.6096 59.0821 25.6141 59.0927 25.6186 59.1032L25.6486 59.1706C25.6741 59.2261 25.7026 59.2892 25.7266 59.3507C25.7311 59.3627 25.7386 59.3747 25.7431 59.3882C25.7536 59.4122 25.7641 59.4362 25.7731 59.4602C25.7791 59.4722 25.7836 59.4842 25.7881 59.4962C25.8361 59.6117 25.8706 59.7092 25.8766 59.7512C25.8766 59.7632 25.8811 59.7737 25.8871 59.7827C25.8901 59.7857 25.8931 59.7916 25.8991 59.7946V59.7962H25.9006C25.9006 59.7977 25.9021 59.7976 25.9036 59.7991C25.9096 59.8051 25.9171 59.8097 25.9261 59.8157C25.9666 59.8382 26.0311 59.8471 26.0986 59.8561C26.1871 59.8696 26.2816 59.8831 26.3491 59.9266C26.4976 60.0271 26.5171 60.1442 26.5171 60.1442L26.8741 60.6932L27.0751 60.6542L27.4516 60.3946L27.7336 60.4337C27.7336 60.4337 27.7546 60.3497 27.7771 60.2567C27.7816 60.2342 27.7891 60.2101 27.7936 60.1876C27.7981 60.1771 27.7996 60.1652 27.8026 60.1532C27.8101 60.1202 27.8191 60.0917 27.8251 60.0692C27.8296 60.0527 27.8326 60.0392 27.8356 60.0317C27.8371 60.0287 27.8386 60.0257 27.8416 60.0227C27.8431 60.0182 27.8491 60.0136 27.8536 60.0091C27.8791 59.9821 27.9286 59.9461 27.9871 59.9071C28.0456 59.8681 28.1116 59.8276 28.1656 59.7946C28.1821 59.7841 28.1986 59.7751 28.2136 59.7661C28.2166 59.7631 28.2196 59.7617 28.2226 59.7602C28.2466 59.7452 28.2646 59.7346 28.2736 59.7301C28.2751 59.7286 28.2781 59.7286 28.2781 59.7286H28.2766V59.7272C28.2811 59.6852 28.3471 59.0267 28.2736 58.9352C28.2016 58.8392 27.8821 58.4237 27.8821 58.4237L27.6916 58.4282L27.0391 58.4446L26.7481 58.0667L26.0551 58.2466L25.5301 58.9007Z" fill="#6747C7"/>
<path opacity="0.7" d="M25.5315 58.9022C25.5315 58.9022 25.5345 58.9097 25.539 58.9217C25.545 58.9337 25.5525 58.9502 25.563 58.9742C25.5675 58.9817 25.5735 58.9922 25.5765 59.0027C25.5855 59.0237 25.596 59.0462 25.6065 59.0717C25.611 59.0807 25.6155 59.0912 25.62 59.1017C25.6305 59.1227 25.6395 59.1437 25.65 59.1692C25.6755 59.2247 25.704 59.2877 25.728 59.3492C25.7325 59.3612 25.74 59.3732 25.7445 59.3867C25.755 59.4107 25.7655 59.4347 25.7745 59.4587C25.7805 59.4707 25.785 59.4827 25.7895 59.4947C25.8375 59.6102 25.872 59.7077 25.878 59.7497C25.878 59.7617 25.8825 59.7722 25.8885 59.7812C25.8915 59.7842 25.8945 59.7902 25.9005 59.7932V59.7947H25.902C25.902 59.7962 25.9035 59.7962 25.905 59.7977C25.911 59.8037 25.9185 59.8082 25.9275 59.8142C25.968 59.8367 26.0325 59.8457 26.1 59.8547C26.1885 59.8682 26.283 59.8817 26.3505 59.9252C26.499 60.0257 26.5185 60.1427 26.5185 60.1427L26.8755 60.6917L27.0765 60.6527L27.453 60.3932L27.735 60.4322C27.735 60.4322 27.756 60.3482 27.7785 60.2552C27.783 60.2327 27.7905 60.2087 27.795 60.1862C27.7995 60.1757 27.801 60.1637 27.804 60.1517C27.813 60.1202 27.8205 60.0902 27.8265 60.0677C27.831 60.0512 27.834 60.0377 27.837 60.0302C27.8385 60.0272 27.84 60.0242 27.843 60.0212C27.8445 60.0167 27.8505 60.0122 27.855 60.0077C27.8805 59.9807 27.93 59.9447 27.9885 59.9057C28.047 59.8667 28.113 59.8262 28.167 59.7932C28.1835 59.7827 28.2 59.7737 28.215 59.7647C28.218 59.7617 28.221 59.7602 28.224 59.7587C28.248 59.7437 28.266 59.7332 28.275 59.7287C28.275 59.7272 28.275 59.7272 28.278 59.7257H28.2795V59.7242H28.278C28.2825 59.6822 28.3485 59.0237 28.275 58.9322C28.203 58.8362 27.8835 58.4207 27.8835 58.4207L27.693 58.4252L27.039 58.4417L26.748 58.0637L26.0565 58.2422L25.5315 58.9022Z" fill="white"/>
<path opacity="0.4" d="M25.53 58.9007C25.53 58.9022 25.53 58.9022 25.53 58.9022L25.9305 59.1002L26.2005 58.3427L26.5035 58.6847L26.9235 58.4852L27.3885 58.6022L26.76 58.7987L26.79 59.2292L27.9495 59.0972L27.477 59.4887L28.275 59.7242C28.2795 59.6822 28.3455 59.0237 28.272 58.9322C28.2 58.8362 27.8805 58.4207 27.8805 58.4207L27.69 58.4252L27.0375 58.4417L26.7465 58.0637L26.0535 58.2437L25.53 58.9007Z" fill="white"/>
<path opacity="0.1" d="M26.3506 59.9252C26.4991 60.0257 26.5186 60.1427 26.5186 60.1427L26.8756 60.6917L27.0766 60.6527L27.4531 60.3932L27.7351 60.4322C27.7351 60.4322 27.7561 60.3482 27.7786 60.2552C27.7831 60.2327 27.7906 60.2087 27.7951 60.1862C27.7996 60.1757 27.8011 60.1637 27.8041 60.1517C27.8131 60.1202 27.8206 60.0902 27.8266 60.0677C27.8311 60.0512 27.8341 60.0377 27.8371 60.0302L27.0331 59.6117L27.1936 59.4197L26.5906 59.4617L26.9251 59.8337L26.7871 60.0047L26.5246 59.8247L26.3506 59.9252Z" fill="black"/>
<path opacity="0.1" d="M25.905 59.7977C25.911 59.8037 25.9185 59.8082 25.9275 59.8142C25.968 59.8367 26.0325 59.8457 26.1 59.8547C26.1885 59.8682 26.283 59.8817 26.3505 59.9252L26.148 59.4512L26.442 59.1422L26.1735 58.9172C26.1735 58.9172 26.052 59.3672 26.025 59.3627C25.9995 59.3552 25.9305 59.8052 25.905 59.7977Z" fill="black"/>
</svg>
