<svg width="140" height="26" viewBox="0 0 140 26" fill="none" xmlns="http://www.w3.org/2000/svg">
<path d="M18.5969 0H24.9092L6.39731 25.3198H0.0212274L18.5969 0Z" fill="#6747C7"/>
<path d="M6.37695 0H0L6.37695 8.25552H12.5821L6.37695 0Z" fill="#6747C7"/>
<path d="M18.725 17.1493H12.3696L18.725 25.3623H24.9092L18.725 17.1493Z" fill="#6747C7"/>
<path d="M34.061 17.8747V25.0141H30.3827V5.65665H34.061V7.42697C35.1326 6.06295 36.6676 5.30839 38.3764 5.30839C41.9678 5.30839 44.5745 7.97838 44.5745 12.6509C44.5745 17.3233 41.9678 20.0223 38.3764 20.0223C36.7255 20.0223 35.1905 19.3258 34.061 17.8747ZM40.7514 12.6509C40.7514 10.2421 39.3322 8.58783 37.2179 8.58783C36.0304 8.58783 34.6692 9.28435 34.061 10.184V15.1467C34.6692 16.0174 36.0304 16.7429 37.2179 16.7429C39.3322 16.7429 40.7514 15.0887 40.7514 12.6509Z" fill="#150E2C"/>
<path d="M46.1084 17.8457L47.7013 15.2628C48.715 16.2205 50.8003 17.1782 52.5381 17.1782C54.1311 17.1782 54.8841 16.6268 54.8841 15.7562C54.8841 14.7694 53.6677 14.4212 52.0747 14.1019C49.6708 13.6376 46.5718 13.0572 46.5718 9.71967C46.5718 7.36893 48.6281 5.30839 52.3064 5.30839C54.6814 5.30839 56.5639 6.121 57.9252 7.22382L56.4771 9.7487C55.6371 8.84903 54.0442 8.12349 52.3354 8.12349C51.0031 8.12349 50.1342 8.61685 50.1342 9.42946C50.1342 10.3001 51.2348 10.6193 52.7988 10.9386C55.2027 11.4029 58.4176 12.0414 58.4176 15.524C58.4176 18.1069 56.2454 20.0223 52.3643 20.0223C49.9315 20.0223 47.5855 19.2097 46.1084 17.8457Z" fill="#150E2C"/>
<path d="M60.635 25.1592L61.1853 21.8507C61.5039 21.9958 61.9963 22.0829 62.3438 22.0829C63.2996 22.0829 63.9368 21.8217 64.2844 21.0671L64.8057 19.8772L59.129 5.65665H63.0679L66.7172 15.4079L70.3665 5.65665H74.3345L67.7599 21.9668C66.7172 24.6077 64.8636 25.3043 62.4597 25.3623C62.0252 25.3623 61.0984 25.2752 60.635 25.1592Z" fill="#150E2C"/>
<path d="M89.0967 19.6741H85.4184V11.1998C85.4184 9.25533 84.4047 8.58783 82.8407 8.58783C81.3926 8.58783 80.263 9.40044 79.6548 10.2421V19.6741H75.9765V5.65665H79.6548V7.48501C80.5526 6.41121 82.2614 5.30839 84.5495 5.30839C87.6196 5.30839 89.0967 7.04969 89.0967 9.77772V19.6741Z" fill="#150E2C"/>
<path d="M91.8511 12.6509C91.8511 8.58783 94.8343 5.30839 99.0918 5.30839C103.262 5.30839 106.101 8.44272 106.101 13.0281V13.8407H95.7031C95.9348 15.6111 97.354 17.0912 99.729 17.0912C101.032 17.0912 102.567 16.5688 103.465 15.6981L105.087 18.0779C103.668 19.3839 101.496 20.0223 99.3235 20.0223C95.066 20.0223 91.8511 17.1492 91.8511 12.6509ZM99.0918 8.23957C96.8037 8.23957 95.819 9.95185 95.6452 11.3449H102.538C102.451 10.0099 101.525 8.23957 99.0918 8.23957Z" fill="#150E2C"/>
<path d="M135.656 19.6741H131.978V18.223C131.022 19.3548 129.371 20.0223 127.546 20.0223C125.316 20.0223 122.681 18.5132 122.681 15.3789C122.681 12.0994 125.316 10.9096 127.546 10.9096C129.4 10.9096 131.051 11.49 131.978 12.6218V10.6774C131.978 9.25533 130.761 8.32664 128.908 8.32664C127.402 8.32664 126.011 8.87805 124.824 9.98087L123.434 7.51403C125.143 6.00491 127.344 5.30839 129.545 5.30839C132.731 5.30839 135.656 6.58534 135.656 10.6193V19.6741ZM131.978 16.3076V14.5663C131.37 13.7537 130.211 13.3474 129.024 13.3474C127.575 13.3474 126.388 14.131 126.388 15.466C126.388 16.7719 127.575 17.5265 129.024 17.5265C130.211 17.5265 131.37 17.1202 131.978 16.3076Z" fill="#150E2C"/>
<path d="M121.905 19.8192H117.662L114.375 14.9222L111.058 19.8192H106.845L111.954 12.3685L107.143 5.30839H111.387L114.375 9.78481L117.333 5.30839H121.577L116.736 12.3685L121.905 19.8192Z" fill="#150E2C"/>
</svg>
