<svg width="140" height="27" viewBox="0 0 140 27" fill="none" xmlns="http://www.w3.org/2000/svg">
<path d="M4.89164 16.6932V26.1771H0V0.462629H4.89164V2.81432C6.31676 1.00236 8.35816 0 10.6306 0C15.4067 0 18.8733 3.54682 18.8733 9.75375C18.8733 15.9607 15.4067 19.546 10.6306 19.546C8.43519 19.546 6.3938 18.6208 4.89164 16.6932ZM13.789 9.75375C13.789 6.5539 11.9017 4.35642 9.08998 4.35642C7.51079 4.35642 5.70049 5.28167 4.89164 6.4768V13.0693C5.70049 14.2258 7.51079 15.1896 9.08998 15.1896C11.9017 15.1896 13.789 12.9921 13.789 9.75375Z" fill="#A283FF"/>
<path d="M20.9131 16.6546L23.0316 13.2235C24.3797 14.4957 27.1529 15.7679 29.4639 15.7679C31.5823 15.7679 32.5837 15.0354 32.5837 13.8788C32.5837 12.5681 30.966 12.1054 28.8476 11.6814C25.6507 11.0645 21.5294 10.2935 21.5294 5.85996C21.5294 2.73722 24.2641 0 29.1557 0C32.3141 0 34.8177 1.07947 36.628 2.54446L34.7022 5.89851C33.5852 4.70339 31.4668 3.73958 29.1943 3.73958C27.4225 3.73958 26.267 4.39497 26.267 5.47444C26.267 6.63101 27.7306 7.05508 29.8105 7.47916C33.0074 8.096 37.2828 8.94415 37.2828 13.5704C37.2828 17.0016 34.394 19.546 29.2328 19.546C25.9974 19.546 22.8775 18.4666 20.9131 16.6546Z" fill="#A283FF"/>
<path d="M40.2317 26.3698L40.9636 21.9748C41.3873 22.1676 42.042 22.2833 42.5042 22.2833C43.7753 22.2833 44.6227 21.9363 45.0849 20.9339L45.7782 19.3533L38.2289 0.462629H43.4672L48.3203 13.4162L53.1734 0.462629H58.4502L49.7069 22.1291C48.3203 25.6373 45.8552 26.5626 42.6583 26.6397C42.0806 26.6397 40.848 26.524 40.2317 26.3698Z" fill="#A283FF"/>
<path d="M78.0821 19.0834H73.1904V7.82613C73.1904 5.24312 71.8423 4.35642 69.7624 4.35642C67.8366 4.35642 66.3344 5.43588 65.5256 6.5539V19.0834H60.6339V0.462629H65.5256V2.89143C66.7196 1.46499 68.9921 0 72.0349 0C76.1177 0 78.0821 2.31314 78.0821 5.93706V19.0834Z" fill="#A283FF"/>
<path d="M81.7451 9.75375C81.7451 4.35642 85.7123 0 91.3743 0C96.9207 0 100.695 4.16366 100.695 10.2549V11.3344H86.8678C87.176 13.6861 89.0633 15.6523 92.2217 15.6523C93.9549 15.6523 95.9963 14.9583 97.1903 13.8017L99.3473 16.963C97.46 18.6979 94.5712 19.546 91.6824 19.546C86.0205 19.546 81.7451 15.7294 81.7451 9.75375ZM91.3743 3.89379C88.3315 3.89379 87.0219 6.16838 86.7908 8.01889H95.9578C95.8423 6.24548 94.6097 3.89379 91.3743 3.89379Z" fill="#A283FF"/>
<path d="M140 19.0834H135.108V17.1558C133.837 18.6593 131.642 19.546 129.215 19.546C126.249 19.546 122.744 17.5413 122.744 13.3777C122.744 9.02125 126.249 7.44061 129.215 7.44061C131.68 7.44061 133.876 8.21165 135.108 9.7152V7.13219C135.108 5.24312 133.491 4.00945 131.026 4.00945C129.023 4.00945 127.174 4.74194 125.595 6.20693L123.746 2.92998C126.018 0.925257 128.946 0 131.873 0C136.11 0 140 1.6963 140 7.05508V19.0834ZM135.108 14.6113V12.2982C134.3 11.2187 132.759 10.679 131.18 10.679C129.254 10.679 127.675 11.7199 127.675 13.4933C127.675 15.2282 129.254 16.2305 131.18 16.2305C132.759 16.2305 134.3 15.6908 135.108 14.6113Z" fill="#A283FF"/>
<path d="M116.341 0H121.124L107.097 19.164H102.266L116.341 0Z" fill="#6747C7"/>
<path d="M107.082 0H102.25L107.082 6.24844H111.784L107.082 0Z" fill="#6747C7"/>
<path d="M116.438 12.98H111.623L116.438 19.1962H121.124L116.438 12.98Z" fill="#6747C7"/>
</svg>
