<svg width="390" height="390" viewBox="0 0 390 390" fill="none" xmlns="http://www.w3.org/2000/svg">
<rect width="390" height="390" rx="10" fill="white"/>
<path d="M205.826 180.996C205.384 180.996 204.96 181.172 204.647 181.485C204.335 181.797 204.159 182.221 204.159 182.663V183.297L201.693 180.83C200.823 179.965 199.646 179.48 198.419 179.48C197.193 179.48 196.016 179.965 195.145 180.83L193.979 181.997L189.847 177.862C188.964 177.021 187.791 176.553 186.572 176.553C185.354 176.553 184.181 177.021 183.298 177.862L180.832 180.33V170.994C180.832 170.552 181.008 170.128 181.32 169.815C181.633 169.503 182.057 169.327 182.499 169.327H194.162C194.604 169.327 195.028 169.151 195.34 168.839C195.653 168.526 195.828 168.102 195.828 167.66C195.828 167.218 195.653 166.794 195.34 166.481C195.028 166.169 194.604 165.993 194.162 165.993H182.499C181.173 165.993 179.901 166.52 178.964 167.458C178.027 168.396 177.5 169.668 177.5 170.994V190.999C177.5 192.325 178.027 193.597 178.964 194.535C179.901 195.473 181.173 196 182.499 196H202.493C203.819 196 205.09 195.473 206.028 194.535C206.965 193.597 207.492 192.325 207.492 190.999V182.663C207.492 182.221 207.316 181.797 207.004 181.485C206.691 181.172 206.267 180.996 205.826 180.996ZM182.499 192.666C182.057 192.666 181.633 192.49 181.32 192.178C181.008 191.865 180.832 191.441 180.832 190.999V185.047L185.664 180.213C185.909 179.98 186.234 179.849 186.572 179.849C186.911 179.849 187.236 179.98 187.481 180.213L192.762 185.498L199.927 192.666H182.499ZM204.159 190.999C204.157 191.318 204.052 191.628 203.859 191.882L196.345 184.331L197.511 183.164C197.631 183.042 197.773 182.945 197.931 182.879C198.088 182.812 198.257 182.778 198.428 182.778C198.598 182.778 198.767 182.812 198.925 182.879C199.082 182.945 199.225 183.042 199.344 183.164L204.159 188.015V190.999ZM212.007 166.476L207.009 161.475C206.85 161.323 206.663 161.204 206.459 161.125C206.053 160.958 205.598 160.958 205.192 161.125C204.988 161.204 204.801 161.323 204.643 161.475L199.644 166.476C199.33 166.79 199.154 167.216 199.154 167.66C199.154 168.104 199.33 168.53 199.644 168.844C199.958 169.157 200.383 169.334 200.827 169.334C201.271 169.334 201.696 169.157 202.01 168.844L204.159 166.676V175.995C204.159 176.437 204.335 176.861 204.647 177.174C204.96 177.487 205.384 177.662 205.826 177.662C206.267 177.662 206.691 177.487 207.004 177.174C207.316 176.861 207.492 176.437 207.492 175.995V166.676L209.641 168.844C209.796 169 209.98 169.124 210.183 169.208C210.386 169.293 210.604 169.337 210.824 169.337C211.044 169.337 211.262 169.293 211.465 169.208C211.668 169.124 211.852 169 212.007 168.844C212.163 168.689 212.287 168.504 212.372 168.301C212.456 168.098 212.5 167.88 212.5 167.66C212.5 167.44 212.456 167.222 212.372 167.019C212.287 166.816 212.163 166.631 212.007 166.476Z" fill="#333333" fill-opacity="0.15"/>
<path d="M157.29 212V202.662H160.622C163.534 202.662 165.466 204.65 165.466 207.338C165.466 210.04 163.534 212 160.622 212H157.29ZM158.69 210.768H160.622C162.778 210.768 164.024 209.228 164.024 207.338C164.024 205.42 162.82 203.894 160.622 203.894H158.69V210.768ZM170.129 212.168C168.029 212.168 166.713 210.572 166.713 208.612C166.713 206.666 168.029 205.07 170.129 205.07C172.243 205.07 173.545 206.666 173.545 208.612C173.545 210.572 172.243 212.168 170.129 212.168ZM170.129 211.048C171.487 211.048 172.229 209.9 172.229 208.612C172.229 207.338 171.487 206.19 170.129 206.19C168.785 206.19 168.029 207.338 168.029 208.612C168.029 209.9 168.785 211.048 170.129 211.048ZM174.557 211.118L175.159 210.194C175.621 210.698 176.517 211.16 177.427 211.16C178.379 211.16 178.883 210.768 178.883 210.194C178.883 209.522 178.113 209.298 177.245 209.102C176.097 208.836 174.753 208.528 174.753 207.072C174.753 205.994 175.677 205.07 177.329 205.07C178.491 205.07 179.331 205.49 179.905 206.036L179.345 206.918C178.953 206.442 178.197 206.092 177.343 206.092C176.489 206.092 175.957 206.428 175.957 206.974C175.957 207.562 176.685 207.758 177.525 207.954C178.701 208.22 180.101 208.542 180.101 210.096C180.101 211.258 179.149 212.168 177.371 212.168C176.237 212.168 175.243 211.818 174.557 211.118ZM181.554 213.512C181.708 213.582 181.946 213.624 182.114 213.624C182.576 213.624 182.884 213.47 183.094 212.966L183.486 212.07L180.7 205.238H182.044L184.158 210.544L186.272 205.238H187.63L184.298 213.288C183.864 214.352 183.122 214.73 182.142 214.744C181.932 214.744 181.554 214.702 181.358 214.646L181.554 213.512ZM192.825 212V211.258C192.293 211.846 191.523 212.168 190.613 212.168C189.493 212.168 188.261 211.412 188.261 209.928C188.261 208.388 189.479 207.716 190.613 207.716C191.523 207.716 192.307 208.01 192.825 208.612V207.492C192.825 206.652 192.139 206.148 191.173 206.148C190.403 206.148 189.745 206.442 189.143 207.044L188.597 206.176C189.353 205.434 190.277 205.07 191.369 205.07C192.839 205.07 194.085 205.714 194.085 207.436V212H192.825ZM192.825 210.516V209.368C192.447 208.864 191.789 208.598 191.089 208.598C190.179 208.598 189.535 209.144 189.535 209.942C189.535 210.74 190.179 211.286 191.089 211.286C191.789 211.286 192.447 211.02 192.825 210.516ZM202.429 212V208.094L198.775 202.662H200.385L203.129 206.834L205.845 202.662H207.469L203.829 208.094V212H202.429ZM210.001 204.09C209.595 204.09 209.259 203.754 209.259 203.348C209.259 202.942 209.595 202.62 210.001 202.62C210.407 202.62 210.729 202.942 210.729 203.348C210.729 203.754 210.407 204.09 210.001 204.09ZM212.913 204.09C212.507 204.09 212.171 203.754 212.171 203.348C212.171 202.942 212.507 202.62 212.913 202.62C213.305 202.62 213.655 202.942 213.655 203.348C213.655 203.754 213.305 204.09 212.913 204.09ZM213.123 212V211.076C212.605 211.636 211.751 212.168 210.715 212.168C209.273 212.168 208.559 211.44 208.559 210.012V205.238H209.819V209.592C209.819 210.712 210.379 211.048 211.247 211.048C212.031 211.048 212.745 210.6 213.123 210.096V205.238H214.383V212H213.123ZM220.915 212L218.661 209.088L217.639 210.124V212H216.379V202.662H217.639V208.668L220.901 205.238H222.483L219.571 208.304L222.511 212H220.915ZM223.653 212V202.662H224.913V212H223.653ZM226.5 208.612C226.5 206.652 227.914 205.07 229.888 205.07C231.918 205.07 233.178 206.652 233.178 208.724V209.032H227.83C227.928 210.18 228.768 211.132 230.126 211.132C230.84 211.132 231.624 210.852 232.128 210.334L232.716 211.16C232.044 211.818 231.092 212.168 230 212.168C227.984 212.168 226.5 210.74 226.5 208.612ZM229.888 206.106C228.53 206.106 227.886 207.198 227.816 208.122H231.946C231.918 207.226 231.316 206.106 229.888 206.106ZM145.057 228.786C143.769 227.12 143.013 224.852 143.013 222.598C143.013 220.344 143.769 218.09 145.057 216.41L145.827 216.984C144.917 218.748 144.385 220.33 144.385 222.598C144.385 224.866 144.917 226.448 145.827 228.198L145.057 228.786ZM147.111 226V216.662H151.045C152.963 216.662 154.027 217.978 154.027 219.532C154.027 221.086 152.949 222.402 151.045 222.402H148.511V226H147.111ZM152.585 219.532C152.585 218.552 151.871 217.894 150.863 217.894H148.511V221.17H150.863C151.871 221.17 152.585 220.512 152.585 219.532ZM162.031 226L156.865 218.832V226H155.465V216.662H156.907L161.989 223.662V216.662H163.389V226H162.031ZM165.067 221.338C165.067 218.426 167.237 216.508 169.911 216.508C171.661 216.508 172.823 217.306 173.607 218.356L172.473 219.014C171.941 218.3 171.003 217.754 169.911 217.754C167.965 217.754 166.509 219.238 166.509 221.338C166.509 223.424 167.965 224.936 169.911 224.936C170.947 224.936 171.829 224.432 172.277 224.012V222.332H169.281V221.1H173.677V224.53C172.781 225.524 171.493 226.182 169.911 226.182C167.237 226.182 165.067 224.25 165.067 221.338ZM180.84 226L178.054 219.238H179.398L181.512 224.544L183.626 219.238H184.984L182.198 226H180.84ZM185.587 222.612C185.587 220.652 187.001 219.07 188.975 219.07C191.005 219.07 192.265 220.652 192.265 222.724V223.032H186.917C187.015 224.18 187.855 225.132 189.213 225.132C189.927 225.132 190.711 224.852 191.215 224.334L191.803 225.16C191.131 225.818 190.179 226.168 189.087 226.168C187.071 226.168 185.587 224.74 185.587 222.612ZM188.975 220.106C187.617 220.106 186.973 221.198 186.903 222.122H191.033C191.005 221.226 190.403 220.106 188.975 220.106ZM193.701 227.512C193.855 227.582 194.093 227.624 194.261 227.624C194.723 227.624 195.031 227.47 195.241 226.966L195.633 226.07L192.847 219.238H194.191L196.305 224.544L198.419 219.238H199.777L196.445 227.288C196.011 228.352 195.269 228.73 194.289 228.744C194.079 228.744 193.701 228.702 193.505 228.646L193.701 227.512ZM204.972 226V225.258C204.44 225.846 203.67 226.168 202.76 226.168C201.64 226.168 200.408 225.412 200.408 223.928C200.408 222.388 201.626 221.716 202.76 221.716C203.67 221.716 204.454 222.01 204.972 222.612V221.492C204.972 220.652 204.286 220.148 203.32 220.148C202.55 220.148 201.892 220.442 201.29 221.044L200.744 220.176C201.5 219.434 202.424 219.07 203.516 219.07C204.986 219.07 206.232 219.714 206.232 221.436V226H204.972ZM204.972 224.516V223.368C204.594 222.864 203.936 222.598 203.236 222.598C202.326 222.598 201.682 223.144 201.682 223.942C201.682 224.74 202.326 225.286 203.236 225.286C203.936 225.286 204.594 225.02 204.972 224.516ZM210.993 225.146L211.665 224.082C212.057 224.53 212.575 224.922 213.345 224.922C214.423 224.922 215.095 224.194 215.095 223.102V216.662H216.495V223.116C216.495 225.188 215.179 226.168 213.443 226.168C212.463 226.168 211.637 225.874 210.993 225.146ZM218.574 226V216.662H222.508C224.426 216.662 225.49 217.978 225.49 219.532C225.49 221.086 224.412 222.402 222.508 222.402H219.974V226H218.574ZM224.048 219.532C224.048 218.552 223.334 217.894 222.326 217.894H219.974V221.17H222.326C223.334 221.17 224.048 220.512 224.048 219.532ZM226.928 226V216.662H233.2V217.894H228.328V220.624H233.102V221.856H228.328V224.768H233.2V226H226.928ZM234.561 221.338C234.561 218.426 236.731 216.508 239.405 216.508C241.155 216.508 242.317 217.306 243.101 218.356L241.967 219.014C241.435 218.3 240.497 217.754 239.405 217.754C237.459 217.754 236.003 219.238 236.003 221.338C236.003 223.424 237.459 224.936 239.405 224.936C240.441 224.936 241.323 224.432 241.771 224.012V222.332H238.775V221.1H243.171V224.53C242.275 225.524 240.987 226.182 239.405 226.182C236.731 226.182 234.561 224.25 234.561 221.338ZM245.619 222.598C245.619 220.33 245.087 218.748 244.163 216.984L244.933 216.41C246.235 218.09 246.991 220.344 246.991 222.598C246.991 224.852 246.235 227.12 244.933 228.786L244.163 228.198C245.087 226.448 245.619 224.866 245.619 222.598Z" fill="#333333" fill-opacity="0.25"/>
<rect x="0.5" y="0.5" width="389" height="389" rx="9.5" stroke="#333333" stroke-opacity="0.25" stroke-linecap="round" stroke-dasharray="10 10"/>
</svg>
