<svg width="73" height="51" viewBox="0 0 73 51" fill="none" xmlns="http://www.w3.org/2000/svg">
<rect x="1.72966" y="2.22966" width="69.5407" height="46.5407" rx="2.27034" fill="white" stroke="#F3F3F3" stroke-width="3.45932"/>
<path d="M43.1834 36.7207H30.1553V13.6404H43.1834V36.7207Z" fill="#FF5F00"/>
<path d="M30.9898 25.1786C30.9898 20.4966 33.2136 16.3261 36.6767 13.6384C34.1442 11.6731 30.9482 10.5 27.4747 10.5C19.2517 10.5 12.5859 17.0717 12.5859 25.1786C12.5859 33.2855 19.2517 39.8572 27.4747 39.8572C30.9482 39.8572 34.1442 38.6841 36.6767 36.7188C33.2136 34.0311 30.9898 29.8605 30.9898 25.1786Z" fill="#EB001B"/>
<path d="M60.7547 25.1786C60.7547 33.2855 54.089 39.8572 45.866 39.8572C42.3925 39.8572 39.1965 38.6841 36.6631 36.7188C40.1271 34.0311 42.3509 29.8605 42.3509 25.1786C42.3509 20.4966 40.1271 16.3261 36.6631 13.6384C39.1965 11.6731 42.3925 10.5 45.866 10.5C54.089 10.5 60.7547 17.0717 60.7547 25.1786Z" fill="#F79E1B"/>
</svg>
