<svg width="10" height="11" viewBox="0 0 10 11" fill="none" xmlns="http://www.w3.org/2000/svg">
<path d="M5.38461 5.88461C5.38461 6.09703 5.21242 6.26923 5 6.26923C4.78758 6.26923 4.61538 6.09703 4.61538 5.88461C4.61538 5.6722 4.78758 5.5 5 5.5C5.21242 5.5 5.38461 5.6722 5.38461 5.88461Z" fill="#BC00FF"/>
<path d="M2.69231 7.42308C2.90473 7.42308 3.07692 7.25088 3.07692 7.03846C3.07692 6.82604 2.90473 6.65385 2.69231 6.65385C2.47989 6.65385 2.30769 6.82604 2.30769 7.03846C2.30769 7.25088 2.47989 7.42308 2.69231 7.42308Z" fill="#BC00FF"/>
<path d="M3.07692 8.19231C3.07692 8.40472 2.90473 8.57692 2.69231 8.57692C2.47989 8.57692 2.30769 8.40472 2.30769 8.19231C2.30769 7.97989 2.47989 7.80769 2.69231 7.80769C2.90473 7.80769 3.07692 7.97989 3.07692 8.19231Z" fill="#BC00FF"/>
<path d="M3.84615 7.42308C4.05857 7.42308 4.23077 7.25088 4.23077 7.03846C4.23077 6.82604 4.05857 6.65385 3.84615 6.65385C3.63374 6.65385 3.46154 6.82604 3.46154 7.03846C3.46154 7.25088 3.63374 7.42308 3.84615 7.42308Z" fill="#BC00FF"/>
<path d="M4.23077 8.19231C4.23077 8.40472 4.05857 8.57692 3.84615 8.57692C3.63374 8.57692 3.46154 8.40472 3.46154 8.19231C3.46154 7.97989 3.63374 7.80769 3.84615 7.80769C4.05857 7.80769 4.23077 7.97989 4.23077 8.19231Z" fill="#BC00FF"/>
<path d="M5 7.42308C5.21242 7.42308 5.38461 7.25088 5.38461 7.03846C5.38461 6.82604 5.21242 6.65385 5 6.65385C4.78758 6.65385 4.61538 6.82604 4.61538 7.03846C4.61538 7.25088 4.78758 7.42308 5 7.42308Z" fill="#BC00FF"/>
<path d="M5.38461 8.19231C5.38461 8.40472 5.21242 8.57692 5 8.57692C4.78758 8.57692 4.61538 8.40472 4.61538 8.19231C4.61538 7.97989 4.78758 7.80769 5 7.80769C5.21242 7.80769 5.38461 7.97989 5.38461 8.19231Z" fill="#BC00FF"/>
<path d="M6.15385 7.42308C6.36626 7.42308 6.53846 7.25088 6.53846 7.03846C6.53846 6.82604 6.36626 6.65385 6.15385 6.65385C5.94143 6.65385 5.76923 6.82604 5.76923 7.03846C5.76923 7.25088 5.94143 7.42308 6.15385 7.42308Z" fill="#BC00FF"/>
<path d="M6.53846 8.19231C6.53846 8.40472 6.36626 8.57692 6.15385 8.57692C5.94143 8.57692 5.76923 8.40472 5.76923 8.19231C5.76923 7.97989 5.94143 7.80769 6.15385 7.80769C6.36626 7.80769 6.53846 7.97989 6.53846 8.19231Z" fill="#BC00FF"/>
<path d="M7.30769 7.42308C7.52011 7.42308 7.69231 7.25088 7.69231 7.03846C7.69231 6.82604 7.52011 6.65385 7.30769 6.65385C7.09528 6.65385 6.92308 6.82604 6.92308 7.03846C6.92308 7.25088 7.09528 7.42308 7.30769 7.42308Z" fill="#BC00FF"/>
<path d="M6.53846 5.88461C6.53846 6.09703 6.36626 6.26923 6.15385 6.26923C5.94143 6.26923 5.76923 6.09703 5.76923 5.88461C5.76923 5.6722 5.94143 5.5 6.15385 5.5C6.36626 5.5 6.53846 5.6722 6.53846 5.88461Z" fill="#BC00FF"/>
<path d="M7.30769 6.26923C7.52011 6.26923 7.69231 6.09703 7.69231 5.88461C7.69231 5.6722 7.52011 5.5 7.30769 5.5C7.09528 5.5 6.92308 5.6722 6.92308 5.88461C6.92308 6.09703 7.09528 6.26923 7.30769 6.26923Z" fill="#BC00FF"/>
<path fill-rule="evenodd" clip-rule="evenodd" d="M2.30769 0.5C2.52011 0.5 2.69231 0.672198 2.69231 0.884615V1.65385H7.30769V0.884615C7.30769 0.672198 7.47989 0.5 7.69231 0.5C7.90472 0.5 8.07692 0.672198 8.07692 0.884615V1.65385H8.46154C9.31121 1.65385 10 2.34264 10 3.19231V8.96154C10 9.81121 9.31121 10.5 8.46154 10.5H1.53846C0.688793 10.5 0 9.81121 0 8.96154V3.19231C0 2.34264 0.688793 1.65385 1.53846 1.65385H1.92308V0.884615C1.92308 0.672198 2.09528 0.5 2.30769 0.5ZM9.23077 5.11538C9.23077 4.69055 8.88637 4.34615 8.46154 4.34615H1.53846C1.11363 4.34615 0.769231 4.69055 0.769231 5.11538V8.96154C0.769231 9.38637 1.11363 9.73077 1.53846 9.73077H8.46154C8.88637 9.73077 9.23077 9.38637 9.23077 8.96154V5.11538Z" fill="#BC00FF"/>
</svg>
