<svg width="14" height="62" viewBox="0 0 14 62" fill="none" xmlns="http://www.w3.org/2000/svg">
<path fill-rule="evenodd" clip-rule="evenodd" d="M0.152346 40.1741C0.152346 41.831 1.49549 43.1741 3.15235 43.1741H10.848C12.5049 43.1741 13.848 41.831 13.848 40.1741L13.848 3.56543C13.848 1.90858 12.5049 0.56543 10.848 0.56543H3.15235C1.49549 0.56543 0.152348 1.90858 0.152347 3.56543L0.152346 40.1741ZM7.00017 61.435C10.7821 61.435 13.848 58.3691 13.848 54.5872C13.848 50.8052 10.7821 47.7393 7.00017 47.7393C3.21822 47.7393 0.152344 50.8052 0.152344 54.5872C0.152344 58.3691 3.21822 61.435 7.00017 61.435Z" fill="#A950C9"/>
</svg>
