<svg width="20" height="22" viewBox="0 0 20 22" fill="none" xmlns="http://www.w3.org/2000/svg">
<path d="M0 19.2895C0 19.8418 0.447715 20.2895 1 20.2895C1.55228 20.2895 2 19.8418 2 19.2895H0ZM9.52632 12.7106C10.0786 12.7106 10.5263 12.2628 10.5263 11.7106C10.5263 11.1583 10.0786 10.7106 9.52632 10.7106V12.7106ZM15.7368 14.5527C15.7368 14.0004 15.2891 13.5527 14.7368 13.5527C14.1846 13.5527 13.7368 14.0004 13.7368 14.5527H15.7368ZM14.7368 16.4474H13.7368C13.7368 16.9997 14.1846 17.4474 14.7368 17.4474V16.4474ZM16.6316 17.4474C17.1839 17.4474 17.6316 16.9997 17.6316 16.4474C17.6316 15.8951 17.1839 15.4474 16.6316 15.4474V17.4474ZM12.7895 5.07897C12.7895 6.35795 11.7527 7.39476 10.4737 7.39476V9.39476C12.8572 9.39476 14.7895 7.46252 14.7895 5.07897H12.7895ZM10.4737 7.39476C9.19471 7.39476 8.1579 6.35795 8.1579 5.07897H6.1579C6.1579 7.46252 8.09014 9.39476 10.4737 9.39476V7.39476ZM8.1579 5.07897C8.1579 3.8 9.19471 2.76318 10.4737 2.76318V0.763184C8.09014 0.763184 6.1579 2.69543 6.1579 5.07897H8.1579ZM10.4737 2.76318C11.7527 2.76318 12.7895 3.8 12.7895 5.07897H14.7895C14.7895 2.69543 12.8572 0.763184 10.4737 0.763184V2.76318ZM2 19.2895C2 15.7633 5.2557 12.7106 9.52632 12.7106V10.7106C4.37914 10.7106 0 14.4438 0 19.2895H2ZM18 15.9737C18 17.7759 16.539 19.2369 14.7368 19.2369V21.2369C17.6436 21.2369 20 18.8805 20 15.9737H18ZM14.7368 19.2369C12.9346 19.2369 11.4737 17.7759 11.4737 15.9737H9.47368C9.47368 18.8805 11.8301 21.2369 14.7368 21.2369V19.2369ZM11.4737 15.9737C11.4737 14.1715 12.9346 12.7106 14.7368 12.7106V10.7106C11.8301 10.7106 9.47368 13.0669 9.47368 15.9737H11.4737ZM14.7368 12.7106C16.539 12.7106 18 14.1715 18 15.9737H20C20 13.0669 17.6436 10.7106 14.7368 10.7106V12.7106ZM13.7368 14.5527V16.4474H15.7368V14.5527H13.7368ZM14.7368 17.4474H16.6316V15.4474H14.7368V17.4474Z" fill="black" fill-opacity="0.5"/>
</svg>
