<svg width="17" height="15" viewBox="0 0 17 15" fill="none" xmlns="http://www.w3.org/2000/svg">
<path d="M9.27241 5.83417L6.97342 4.10804V10.892L9.27241 9.16583L11.496 7.5L9.27241 5.83417ZM9.27241 5.83417L6.97342 4.10804V10.892L9.27241 9.16583L11.496 7.5L9.27241 5.83417ZM9.27241 5.83417L6.97342 4.10804V10.892L9.27241 9.16583L11.496 7.5L9.27241 5.83417ZM7.72719 1.52261V0C6.21211 0.150754 4.83272 0.753769 3.71714 1.66583L4.78749 2.74372C5.63921 2.07881 6.65503 1.65685 7.72719 1.52261ZM3.72468 3.80653L2.64679 2.73618C1.7082 3.87934 1.12862 5.27452 0.980957 6.74623H2.50357C2.63925 5.64573 3.07643 4.64322 3.72468 3.80653ZM2.50357 8.25377H0.980957C1.13171 9.76884 1.73473 11.1482 2.64679 12.2638L3.72468 11.1859C3.05861 10.3377 2.63644 9.324 2.50357 8.25377ZM3.71714 13.3342C4.86104 14.2715 6.25583 14.8509 7.72719 15V13.4774C6.65503 13.3431 5.63921 12.9212 4.78749 12.2563L3.71714 13.3342ZM16.0186 7.5C16.0186 11.3894 13.0639 14.6005 9.27241 15V13.4774C12.2272 13.0854 14.5111 10.5528 14.5111 7.5C14.5111 4.44724 12.2272 1.91457 9.27241 1.52261V0C13.0639 0.399497 16.0186 3.61055 16.0186 7.5Z" fill="white"/>
</svg>
