<svg width="17" height="11" viewBox="0 0 17 11" fill="none" xmlns="http://www.w3.org/2000/svg">
<path d="M16.1583 1.60257C16.0361 1.53204 15.8976 1.49491 15.7565 1.49491C15.6155 1.49491 15.4769 1.53204 15.3547 1.60257L12.5181 3.00078C12.4952 2.37687 12.2312 1.78616 11.7816 1.35301C11.3319 0.919863 10.7318 0.678048 10.1074 0.678467H2.87531C2.23595 0.678467 1.62277 0.932452 1.17068 1.38455C0.718584 1.83664 0.4646 2.44981 0.4646 3.08917V7.91058C0.4646 8.54994 0.718584 9.16311 1.17068 9.61521C1.62277 10.0673 2.23595 10.3213 2.87531 10.3213H10.1074C10.7318 10.3217 11.3319 10.0799 11.7816 9.64674C12.2312 9.21359 12.4952 8.62289 12.5181 7.99897L15.3788 9.42933C15.4884 9.48548 15.6093 9.51572 15.7324 9.51772C15.8829 9.5182 16.0304 9.47644 16.1583 9.39718C16.2741 9.32481 16.3696 9.22411 16.4356 9.1046C16.5017 8.98509 16.5363 8.85071 16.536 8.71415V2.2856C16.5363 2.14904 16.5017 2.01466 16.4356 1.89515C16.3696 1.77565 16.2741 1.67495 16.1583 1.60257ZM10.911 7.91058C10.911 8.1237 10.8263 8.32809 10.6756 8.47879C10.5249 8.62949 10.3205 8.71415 10.1074 8.71415H2.87531C2.66219 8.71415 2.4578 8.62949 2.3071 8.47879C2.1564 8.32809 2.07174 8.1237 2.07174 7.91058V3.08917C2.07174 2.87605 2.1564 2.67166 2.3071 2.52096C2.4578 2.37027 2.66219 2.2856 2.87531 2.2856H10.1074C10.3205 2.2856 10.5249 2.37027 10.6756 2.52096C10.8263 2.67166 10.911 2.87605 10.911 3.08917V7.91058ZM14.9288 7.41237L12.5181 6.20702V4.79274L14.9288 3.58738V7.41237Z" fill="#6747C7"/>
</svg>
