<svg width="16" height="21" viewBox="0 0 16 21" fill="none" xmlns="http://www.w3.org/2000/svg">
<path d="M15.0019 0.130859H11.2541C11.0553 0.130859 10.8646 0.209831 10.7241 0.350401C10.5835 0.490972 10.5045 0.681626 10.5045 0.880423C10.5045 1.07922 10.5835 1.26987 10.7241 1.41044C10.8646 1.55101 11.0553 1.62999 11.2541 1.62999H13.1926L10.8362 3.98642C10.1443 3.3416 9.30965 2.8696 8.40047 2.60896C7.49129 2.34831 6.53334 2.30643 5.60488 2.48672C4.67642 2.66702 3.80378 3.06438 3.05822 3.64635C2.31266 4.22832 1.71534 4.97839 1.31503 5.83531C0.91473 6.69222 0.722802 7.63167 0.754925 8.57693C0.787047 9.52219 1.04231 10.4464 1.49986 11.2742C1.95742 12.102 2.60428 12.8098 3.38763 13.3398C4.17098 13.8698 5.06859 14.207 6.00714 14.3238V15.8717H3.75845C3.55966 15.8717 3.369 15.9507 3.22843 16.0912C3.08786 16.2318 3.00889 16.4225 3.00889 16.6212C3.00889 16.82 3.08786 17.0107 3.22843 17.1513C3.369 17.2918 3.55966 17.3708 3.75845 17.3708H6.00714V19.6195C6.00714 19.8183 6.08612 20.009 6.22669 20.1495C6.36726 20.2901 6.55791 20.3691 6.75671 20.3691C6.9555 20.3691 7.14616 20.2901 7.28673 20.1495C7.4273 20.009 7.50627 19.8183 7.50627 19.6195V17.3708H9.75496C9.95376 17.3708 10.1444 17.2918 10.285 17.1513C10.4256 17.0107 10.5045 16.82 10.5045 16.6212C10.5045 16.4225 10.4256 16.2318 10.285 16.0912C10.1444 15.9507 9.95376 15.8717 9.75496 15.8717H7.50627V14.3238C8.51099 14.1983 9.46749 13.8201 10.2864 13.2246C11.1052 12.6291 11.7598 11.8357 12.1888 10.9185C12.6178 10.0014 12.8073 8.99043 12.7395 7.98017C12.6717 6.96991 12.3489 5.99333 11.8013 5.14169L14.2523 2.68968V4.62824C14.2523 4.82703 14.3313 5.01769 14.4719 5.15826C14.6125 5.29883 14.8031 5.3778 15.0019 5.3778C15.2007 5.3778 15.3914 5.29883 15.5319 5.15826C15.6725 5.01769 15.7515 4.82703 15.7515 4.62824V0.880423C15.7515 0.681626 15.6725 0.490972 15.5319 0.350401C15.3914 0.209831 15.2007 0.130859 15.0019 0.130859ZM6.75671 12.8734C5.86721 12.8734 4.99769 12.6097 4.2581 12.1155C3.51851 11.6213 2.94207 10.9189 2.60167 10.0971C2.26128 9.27534 2.17221 8.37107 2.34574 7.49866C2.51928 6.62625 2.94761 5.8249 3.57658 5.19593C4.20555 4.56696 5.00691 4.13862 5.87931 3.96509C6.75172 3.79156 7.65599 3.88062 8.47778 4.22102C9.29957 4.56141 10.002 5.13785 10.4961 5.87744C10.9903 6.61703 11.2541 7.48656 11.2541 8.37605C11.2528 9.56845 10.7786 10.7117 9.93546 11.5548C9.09231 12.398 7.94911 12.8722 6.75671 12.8734Z" fill="black" fill-opacity="0.25"/>
</svg>
