<svg width="16" height="18" viewBox="0 0 16 18" fill="none" xmlns="http://www.w3.org/2000/svg">
<path d="M1.6 3.2H3.2V5.6H11.2V3.2H12.8V7.2H14.4V1.6H9.456C9.12 0.672 8.24 0 7.2 0C6.16 0 5.28 0.672 4.944 1.6H0V16H5.6V14.4H1.6V3.2ZM7.2 1.6C7.64 1.6 8 1.96 8 2.4C8 2.84 7.64 3.2 7.2 3.2C6.76 3.2 6.4 2.84 6.4 2.4C6.4 1.96 6.76 1.6 7.2 1.6Z" fill="#0093B3"/>
<path d="M13.84 14.32C14.16 13.76 14.4 13.12 14.4 12.4C14.4 10.4 12.8 8.8 10.8 8.8C8.8 8.8 7.2 10.4 7.2 12.4C7.2 14.4 8.8 16 10.8 16C11.52 16 12.16 15.76 12.72 15.44L14.88 17.6L16 16.48L13.84 14.32ZM10.8 14.4C9.68 14.4 8.8 13.52 8.8 12.4C8.8 11.28 9.68 10.4 10.8 10.4C11.92 10.4 12.8 11.28 12.8 12.4C12.8 13.52 11.92 14.4 10.8 14.4Z" fill="#0093B3"/>
</svg>
