<svg width="24" height="26" viewBox="0 0 24 26" fill="none" xmlns="http://www.w3.org/2000/svg">
<path d="M20.2382 6.75H23.3334V25.5H3.21438V6.75H6.30962V5.1875H7.85724V6.75H18.6906V5.1875H20.2382V6.75ZM21.7858 8.3125H20.2382V9.875H21.7858V8.3125ZM18.6906 8.3125H7.85724V9.875H18.6906V8.3125ZM6.30962 8.3125H4.762V9.875H6.30962V8.3125ZM4.762 23.9375H21.7858V11.4375H4.762V23.9375ZM3.21438 5.1875V3.625H1.66676V20.8125H0.119141V2.0625H3.21438V0.5H4.762V2.0625H15.5953V0.5H17.143V2.0625H20.2382V3.625H17.143V5.1875H15.5953V3.625H4.762V5.1875H3.21438ZM7.85724 17.6875V16.125H9.40485V17.6875H7.85724ZM10.9525 17.6875V16.125H12.5001V17.6875H10.9525ZM14.0477 17.6875V16.125H15.5953V17.6875H14.0477ZM17.143 17.6875V16.125H18.6906V17.6875H17.143ZM7.85724 20.8125V19.25H9.40485V20.8125H7.85724ZM10.9525 20.8125V19.25H12.5001V20.8125H10.9525ZM14.0477 20.8125V19.25H15.5953V20.8125H14.0477ZM10.9525 14.5625V13H12.5001V14.5625H10.9525ZM14.0477 14.5625V13H15.5953V14.5625H14.0477ZM17.143 14.5625V13H18.6906V14.5625H17.143Z" fill="#BC00FF"/>
</svg>
