<svg width="17" height="20" viewBox="0 0 17 20" fill="none" xmlns="http://www.w3.org/2000/svg">
<path d="M5.31119 0.000850049C5.13299 0.0347428 4.9725 0.130523 4.85807 0.271272C4.74364 0.412021 4.68264 0.588681 4.68583 0.770048V1.53925H1.92134C1.30598 1.53925 0.839844 2.00538 0.839844 2.62074V18.8462C0.839844 19.5385 1.30598 20 1.92134 20H15.07C15.6854 20 16.1515 19.5339 16.1515 18.9185V2.62074C16.2284 2.00538 15.7577 1.53925 15.1423 1.53925H12.3778V0.770048C12.3778 0.566044 12.2968 0.370396 12.1525 0.226143C12.0083 0.0818903 11.8126 0.000850049 11.6086 0.000850049H5.45503C5.43094 -0.00028335 5.40682 -0.00028335 5.38273 0.000850049C5.35864 -0.00028335 5.33528 -0.00028335 5.31119 0.000850049ZM6.22423 1.53925H10.8394V3.07764H6.22423V1.53925ZM2.37824 3.07764H4.68583V3.84684C4.68583 4.05084 4.76687 4.24649 4.91113 4.39075C5.05538 4.535 5.25103 4.61604 5.45503 4.61604H11.6086C11.8126 4.61604 12.0083 4.535 12.1525 4.39075C12.2968 4.24649 12.3778 4.05084 12.3778 3.84684V3.07764H14.6854V18.4616H2.37824V3.07764ZM3.91664 6.92363V10.0004H6.99343V6.92363H3.91664ZM4.68583 7.69283H6.22423V9.23123H4.68583V7.69283ZM8.53182 7.69283V9.23123H13.147V7.69283H8.53182ZM3.91664 11.5388V14.6156H6.99343V11.5388H3.91664ZM8.53182 12.308V13.8464H13.147V12.308H8.53182Z" fill="#6747C7"/>
</svg>
