<svg width="24" height="22" viewBox="0 0 24 22" fill="none" xmlns="http://www.w3.org/2000/svg">
<path d="M7.38235 16.2941V11.5882C7.38235 10.3402 7.87815 9.1432 8.76067 8.26067C9.6432 7.37815 10.8402 6.88235 12.0882 6.88235C13.3363 6.88235 14.5333 7.37815 15.4158 8.26067C16.2983 9.1432 16.7941 10.3402 16.7941 11.5882V16.2941M1.5 11.5882H2.67647M12.0882 1V2.17647M21.5 11.5882H22.6765M4.55882 4.05882L5.38235 4.88235M19.6176 4.05882L18.7941 4.88235M5.02941 17.4706C5.02941 17.1586 5.15336 16.8593 5.37399 16.6387C5.59462 16.4181 5.89386 16.2941 6.20588 16.2941H17.9706C18.2826 16.2941 18.5818 16.4181 18.8025 16.6387C19.0231 16.8593 19.1471 17.1586 19.1471 17.4706V19.8235C19.1471 20.1355 19.0231 20.4348 18.8025 20.6554C18.5818 20.8761 18.2826 21 17.9706 21H6.20588C5.89386 21 5.59462 20.8761 5.37399 20.6554C5.15336 20.4348 5.02941 20.1355 5.02941 19.8235V17.4706Z" stroke="#D63928" stroke-width="1.8" stroke-linecap="round" stroke-linejoin="round"/>
</svg>
