<svg width="18" height="20" viewBox="0 0 18 20" fill="none" xmlns="http://www.w3.org/2000/svg">
<path d="M9 0.181641L4.90909 2.63619L9 5.09073V3.45437C13.0541 3.45437 16.3636 6.76391 16.3636 10.818C16.3636 14.8721 13.0541 18.1816 9 18.1816C4.94591 18.1816 1.63636 14.8721 1.63636 10.818C1.63636 8.811 2.35882 7.07891 3.68182 5.7551L2.53145 4.60555C0.908182 6.228 0 8.40682 0 10.818C0 15.7639 4.05409 19.818 9 19.818C13.9459 19.818 18 15.7639 18 10.818C18 5.8721 13.9459 1.818 9 1.818V0.181641ZM7.28673 5.55137L5.80418 6.26728L7.875 10.3582C7.81229 10.5037 7.77759 10.6597 7.77273 10.818V10.8695L5.139 13.5016L6.31636 14.6798L8.95009 12.0461H9C9.32549 12.0461 9.63765 11.9168 9.86781 11.6866C10.098 11.4565 10.2273 11.1443 10.2273 10.8188C10.2273 10.2543 9.85173 9.78546 9.33218 9.64228L7.28673 5.55137Z" fill="black" fill-opacity="0.5"/>
</svg>
