<svg width="21" height="21" viewBox="0 0 21 21" fill="none" xmlns="http://www.w3.org/2000/svg">
<path d="M2 20.525C1.45 20.525 0.979002 20.3293 0.587002 19.938C0.195002 19.5467 -0.000664969 19.0757 1.69779e-06 18.525V4.525C1.69779e-06 3.975 0.196002 3.504 0.588002 3.112C0.980002 2.72 1.45067 2.52433 2 2.525H10.925L8.925 4.525H2V18.525H16V11.575L18 9.575V18.525C18 19.075 17.804 19.546 17.412 19.938C17.02 20.33 16.5493 20.5257 16 20.525H2ZM13.175 3.1L14.6 4.5L8 11.1V12.525H9.4L16.025 5.9L17.45 7.3L10.25 14.525H6V10.275L13.175 3.1ZM17.45 7.3L13.175 3.1L15.675 0.6C16.075 0.2 16.5543 0 17.113 0C17.6717 0 18.1423 0.2 18.525 0.6L19.925 2.025C20.3083 2.40833 20.5 2.875 20.5 3.425C20.5 3.975 20.3083 4.44167 19.925 4.825L17.45 7.3Z" fill="white"/>
</svg>
