<svg width="25" height="26" viewBox="0 0 25 26" fill="none" xmlns="http://www.w3.org/2000/svg">
<path d="M0.274414 13.1594C0.274414 9.91374 1.56375 6.80101 3.85877 4.50599C6.1538 2.21096 9.26652 0.921631 12.5122 0.921631C15.7578 0.921631 18.8706 2.21096 21.1656 4.50599C23.4606 6.80101 24.7499 9.91374 24.7499 13.1594C24.7499 16.405 23.4606 19.5178 21.1656 21.8128C18.8706 24.1078 15.7578 25.3972 12.5122 25.3972C9.26652 25.3972 6.1538 24.1078 3.85877 21.8128C1.56375 19.5178 0.274414 16.405 0.274414 13.1594ZM12.5122 3.21621C9.87508 3.21621 7.34599 4.26379 5.48129 6.1285C3.61658 7.99321 2.56899 10.5223 2.56899 13.1594C2.56899 15.7965 3.61658 18.3256 5.48129 20.1903C7.34599 22.055 9.87508 23.1026 12.5122 23.1026C15.1493 23.1026 17.6784 22.055 19.5431 20.1903C21.4078 18.3256 22.4554 15.7965 22.4554 13.1594C22.4554 10.5223 21.4078 7.99321 19.5431 6.1285C17.6784 4.26379 15.1493 3.21621 12.5122 3.21621ZM10.8601 10.23C10.7242 10.5022 10.4872 10.7093 10.1986 10.8057C9.91001 10.9021 9.59494 10.8799 9.32271 10.744C9.05048 10.6081 8.84339 10.3696 8.747 10.081C8.65061 9.79237 8.67281 9.47729 8.80872 9.20507C9.06725 8.68649 9.47568 8.13273 10.1075 7.71053C10.7453 7.28527 11.5469 7.04051 12.5122 7.04051C13.4112 7.03437 14.2886 7.31576 15.0163 7.84362C15.7858 8.42032 16.3365 9.31979 16.3365 10.4824C16.3365 11.1677 16.1606 11.7521 15.8332 12.2416C15.5196 12.7112 15.1142 13.0263 14.7746 13.2542C14.6079 13.3644 14.4381 13.4653 14.2958 13.5525L14.2867 13.5586C14.1521 13.637 14.0195 13.7186 13.8889 13.8034C13.7251 13.8996 13.5817 14.0269 13.4667 14.1782C13.2964 14.4277 13.0345 14.5999 12.738 14.6576C12.4414 14.7152 12.1341 14.6535 11.8828 14.4859C11.6314 14.3184 11.4563 14.0584 11.3954 13.7625C11.3345 13.4666 11.3928 13.1586 11.5576 12.9055C11.8391 12.5016 12.2001 12.1574 12.6162 11.8943C12.7738 11.7918 12.9328 11.6924 13.095 11.596L13.1057 11.5899C13.2587 11.4966 13.3841 11.4216 13.5004 11.3436C13.6644 11.247 13.8082 11.1198 13.9241 10.9688C13.9807 10.8862 14.0419 10.7531 14.0419 10.4824C14.0477 10.3257 14.0141 10.17 13.944 10.0297C13.874 9.88934 13.7698 9.76886 13.6411 9.67928C13.3096 9.45025 12.9151 9.32997 12.5122 9.33509C11.9477 9.33509 11.602 9.47277 11.3802 9.62115C11.1563 9.77486 10.9769 9.98486 10.8601 10.23ZM14.0419 17.7486C14.0419 18.1543 13.8807 18.5434 13.5939 18.8302C13.307 19.1171 12.9179 19.2783 12.5122 19.2783C12.1065 19.2783 11.7174 19.1171 11.4305 18.8302C11.1436 18.5434 10.9825 18.1543 10.9825 17.7486C10.9825 17.3428 11.1436 16.9538 11.4305 16.6669C11.7174 16.38 12.1065 16.2188 12.5122 16.2188C12.9179 16.2188 13.307 16.38 13.5939 16.6669C13.8807 16.9538 14.0419 17.3428 14.0419 17.7486Z" fill="#6747C7"/>
</svg>
