<svg width="26" height="26" viewBox="0 0 26 26" fill="none" xmlns="http://www.w3.org/2000/svg">
<path d="M16.0244 18.6875L11.5869 14.25V8H14.0869V13.2187L17.7744 16.9062L16.0244 18.6875ZM11.5869 5.5V3H14.0869V5.5H11.5869ZM20.3369 14.25V11.75H22.8369V14.25H20.3369ZM11.5869 23V20.5H14.0869V23H11.5869ZM2.83691 14.25V11.75H5.33691V14.25H2.83691ZM12.8369 25.5C11.1077 25.5 9.48275 25.1717 7.96191 24.515C6.44108 23.8583 5.11816 22.9679 3.99316 21.8437C2.86816 20.7188 1.97775 19.3958 1.32191 17.875C0.666081 16.3542 0.337747 14.7292 0.336914 13C0.336914 11.2708 0.665247 9.64583 1.32191 8.125C1.97858 6.60417 2.869 5.28125 3.99316 4.15625C5.11816 3.03125 6.44108 2.14083 7.96191 1.485C9.48275 0.829167 11.1077 0.500833 12.8369 0.5C14.5661 0.5 16.1911 0.828333 17.7119 1.485C19.2327 2.14167 20.5557 3.03208 21.6807 4.15625C22.8057 5.28125 23.6965 6.60417 24.3532 8.125C25.0098 9.64583 25.3377 11.2708 25.3369 13C25.3369 14.7292 25.0086 16.3542 24.3519 17.875C23.6952 19.3958 22.8048 20.7188 21.6807 21.8437C20.5557 22.9687 19.2327 23.8596 17.7119 24.5162C16.1911 25.1729 14.5661 25.5008 12.8369 25.5ZM12.8369 23C15.6286 23 17.9932 22.0312 19.9307 20.0937C21.8682 18.1562 22.8369 15.7917 22.8369 13C22.8369 10.2083 21.8682 7.84375 19.9307 5.90625C17.9932 3.96875 15.6286 3 12.8369 3C10.0452 3 7.68066 3.96875 5.74316 5.90625C3.80566 7.84375 2.83691 10.2083 2.83691 13C2.83691 15.7917 3.80566 18.1562 5.74316 20.0937C7.68066 22.0312 10.0452 23 12.8369 23Z" fill="#BC00FF"/>
</svg>
