<svg width="18" height="16" viewBox="0 0 18 16" fill="none" xmlns="http://www.w3.org/2000/svg">
<path d="M1.4 14.9326C1.06667 15.066 0.75 15.0366 0.45 14.8446C0.15 14.6526 0 14.3736 0 14.0076V10.2826C0 10.0493 0.0666667 9.84095 0.2 9.65762C0.333333 9.47429 0.516667 9.35762 0.75 9.30762L8 7.50762L0.75 5.70762C0.516667 5.65762 0.333333 5.54095 0.2 5.35762C0.0666667 5.17429 0 4.96595 0 4.73262V1.00762C0 0.640953 0.15 0.36162 0.45 0.16962C0.75 -0.0223801 1.06667 -0.0513805 1.4 0.0826195L16.8 6.58262C17.2167 6.76595 17.425 7.07429 17.425 7.50762C17.425 7.94095 17.2167 8.24929 16.8 8.43262L1.4 14.9326Z" fill="#7B7B7B"/>
</svg>
