<svg width="22" height="20" viewBox="0 0 22 20" fill="none" xmlns="http://www.w3.org/2000/svg">
<path d="M1.5 10.7593C1.5 12.3604 2.62341 13.754 4.20746 13.987C5.27548 14.144 6.35495 14.2659 7.44464 14.3513C7.91142 14.388 8.33828 14.6324 8.598 15.022L11.25 19L13.902 15.0221C14.1617 14.6325 14.5886 14.388 15.0553 14.3514C16.145 14.2659 17.2245 14.1441 18.2925 13.9871C19.8766 13.7542 21 12.3606 21 10.7595V4.74056C21 3.13946 19.8766 1.74583 18.2925 1.51293C15.994 1.17501 13.6426 1 11.2503 1C8.85776 1 6.50612 1.17504 4.20747 1.51302C2.62342 1.74593 1.5 3.13956 1.5 4.74064V10.7593Z" stroke="#A950C9" stroke-width="2" stroke-linecap="round" stroke-linejoin="round"/>
</svg>
