<svg width="30" height="30" viewBox="0 0 30 30" fill="none" xmlns="http://www.w3.org/2000/svg">
<mask id="path-1-inside-1_1220_1521" fill="white">
<path fill-rule="evenodd" clip-rule="evenodd" d="M15 5.25C15 8.15025 12.6503 10.5 9.75 10.5C6.84975 10.5 4.5 8.15025 4.5 5.25C4.5 2.34975 6.84975 0 9.75 0C12.6503 0 15 2.34975 15 5.25ZM0 16.05C0 12.858 6.49575 11.25 9.75 11.25C11.772 11.25 15.045 11.871 17.235 13.1063C15.8822 13.8135 14.7142 14.8283 13.8248 16.069C12.9354 17.3097 12.3494 18.7417 12.114 20.25H0V16.05ZM19.5 14.25C19.5 14.0511 19.579 13.8603 19.7197 13.7197C19.8603 13.579 20.0511 13.5 20.25 13.5H23.25C23.4489 13.5 23.6397 13.579 23.7803 13.7197C23.921 13.8603 24 14.0511 24 14.25C24 14.4489 23.921 14.6397 23.7803 14.7803C23.6397 14.921 23.4489 15 23.25 15H22.5V16.5525C23.3687 16.6771 24.1921 17.0186 24.894 17.5455L25.9395 16.5L25.7197 16.2803C25.5831 16.1388 25.5075 15.9493 25.5092 15.7527C25.511 15.5561 25.5898 15.3679 25.7289 15.2289C25.8679 15.0898 26.0561 15.011 26.2527 15.0092C26.4493 15.0075 26.6388 15.0831 26.7803 15.2197L28.2803 16.7197C28.4169 16.8612 28.4925 17.0507 28.4908 17.2473C28.489 17.4439 28.4102 17.6321 28.2711 17.7711C28.1321 17.9102 27.9439 17.989 27.7473 17.9908C27.5507 17.9925 27.3612 17.9169 27.2197 17.7803L27 17.5605L25.9545 18.606C26.4814 19.3079 26.8229 20.1313 26.9475 21H28.5V20.25C28.5 20.0511 28.579 19.8603 28.7197 19.7197C28.8603 19.579 29.0511 19.5 29.25 19.5C29.4489 19.5 29.6397 19.579 29.7803 19.7197C29.921 19.8603 30 20.0511 30 20.25V23.25C30 23.4489 29.921 23.6397 29.7803 23.7803C29.6397 23.921 29.4489 24 29.25 24C29.0511 24 28.8603 23.921 28.7197 23.7803C28.579 23.6397 28.5 23.4489 28.5 23.25V22.5H26.9475C26.8489 23.1881 26.6138 23.8495 26.256 24.4455L27.75 25.9395L27.9697 25.7197C28.1112 25.5831 28.3007 25.5075 28.4973 25.5092C28.6939 25.511 28.8821 25.5898 29.0211 25.7289C29.1602 25.8679 29.239 26.0561 29.2408 26.2527C29.2425 26.4493 29.1669 26.6388 29.0303 26.7803L27.5303 28.2803C27.3888 28.4169 27.1993 28.4925 27.0027 28.4908C26.8061 28.489 26.6179 28.4102 26.4789 28.2711C26.3398 28.1321 26.261 27.9439 26.2592 27.7473C26.2575 27.5507 26.3331 27.3612 26.4697 27.2197L26.6895 27L25.3035 25.6147C24.5253 26.3321 23.5477 26.7966 22.5 26.9468V28.5H23.25C23.4489 28.5 23.6397 28.579 23.7803 28.7197C23.921 28.8603 24 29.0511 24 29.25C24 29.4489 23.921 29.6397 23.7803 29.7803C23.6397 29.921 23.4489 30 23.25 30H20.25C20.0511 30 19.8603 29.921 19.7197 29.7803C19.579 29.6397 19.5 29.4489 19.5 29.25C19.5 29.0511 19.579 28.8603 19.7197 28.7197C19.8603 28.579 20.0511 28.5 20.25 28.5H21V26.9475C20.1313 26.8229 19.3079 26.4814 18.606 25.9545L17.5605 27L17.7803 27.2197C17.9169 27.3612 17.9925 27.5507 17.9908 27.7473C17.989 27.9439 17.9102 28.1321 17.7711 28.2711C17.6321 28.4102 17.4439 28.489 17.2473 28.4908C17.0507 28.4925 16.8612 28.4169 16.7197 28.2803L15.2197 26.7803C15.0831 26.6388 15.0075 26.4493 15.0092 26.2527C15.011 26.0561 15.0898 25.8679 15.2289 25.7289C15.3679 25.5898 15.5561 25.511 15.7527 25.5092C15.9493 25.5075 16.1388 25.5831 16.2803 25.7197L16.5 25.9395L17.5455 24.894C17.0186 24.1921 16.6771 23.3687 16.5525 22.5H15V23.25C15 23.4489 14.921 23.6397 14.7803 23.7803C14.6397 23.921 14.4489 24 14.25 24C14.0511 24 13.8603 23.921 13.7197 23.7803C13.579 23.6397 13.5 23.4489 13.5 23.25V20.25C13.5 20.0511 13.579 19.8603 13.7197 19.7197C13.8603 19.579 14.0511 19.5 14.25 19.5C14.4489 19.5 14.6397 19.579 14.7803 19.7197C14.921 19.8603 15 20.0511 15 20.25V21H16.5525C16.6771 20.1313 17.0186 19.3079 17.5455 18.606L16.5 17.5605L16.2803 17.7803C16.1388 17.9169 15.9493 17.9925 15.7527 17.9908C15.5561 17.989 15.3679 17.9102 15.2289 17.7711C15.0898 17.6321 15.011 17.4439 15.0092 17.2473C15.0075 17.0507 15.0831 16.8612 15.2197 16.7197L16.7197 15.2197C16.8612 15.0831 17.0507 15.0075 17.2473 15.0092C17.4439 15.011 17.6321 15.0898 17.7711 15.2289C17.9102 15.3679 17.989 15.5561 17.9908 15.7527C17.9925 15.9493 17.9169 16.1388 17.7803 16.2803L17.5605 16.5L18.606 17.5455C19.3079 17.0186 20.1313 16.6771 21 16.5525V15H20.25C20.0511 15 19.8603 14.921 19.7197 14.7803C19.579 14.6397 19.5 14.4489 19.5 14.25Z"/>
</mask>
<path fill-rule="evenodd" clip-rule="evenodd" d="M15 5.25C15 8.15025 12.6503 10.5 9.75 10.5C6.84975 10.5 4.5 8.15025 4.5 5.25C4.5 2.34975 6.84975 0 9.75 0C12.6503 0 15 2.34975 15 5.25ZM0 16.05C0 12.858 6.49575 11.25 9.75 11.25C11.772 11.25 15.045 11.871 17.235 13.1063C15.8822 13.8135 14.7142 14.8283 13.8248 16.069C12.9354 17.3097 12.3494 18.7417 12.114 20.25H0V16.05ZM19.5 14.25C19.5 14.0511 19.579 13.8603 19.7197 13.7197C19.8603 13.579 20.0511 13.5 20.25 13.5H23.25C23.4489 13.5 23.6397 13.579 23.7803 13.7197C23.921 13.8603 24 14.0511 24 14.25C24 14.4489 23.921 14.6397 23.7803 14.7803C23.6397 14.921 23.4489 15 23.25 15H22.5V16.5525C23.3687 16.6771 24.1921 17.0186 24.894 17.5455L25.9395 16.5L25.7197 16.2803C25.5831 16.1388 25.5075 15.9493 25.5092 15.7527C25.511 15.5561 25.5898 15.3679 25.7289 15.2289C25.8679 15.0898 26.0561 15.011 26.2527 15.0092C26.4493 15.0075 26.6388 15.0831 26.7803 15.2197L28.2803 16.7197C28.4169 16.8612 28.4925 17.0507 28.4908 17.2473C28.489 17.4439 28.4102 17.6321 28.2711 17.7711C28.1321 17.9102 27.9439 17.989 27.7473 17.9908C27.5507 17.9925 27.3612 17.9169 27.2197 17.7803L27 17.5605L25.9545 18.606C26.4814 19.3079 26.8229 20.1313 26.9475 21H28.5V20.25C28.5 20.0511 28.579 19.8603 28.7197 19.7197C28.8603 19.579 29.0511 19.5 29.25 19.5C29.4489 19.5 29.6397 19.579 29.7803 19.7197C29.921 19.8603 30 20.0511 30 20.25V23.25C30 23.4489 29.921 23.6397 29.7803 23.7803C29.6397 23.921 29.4489 24 29.25 24C29.0511 24 28.8603 23.921 28.7197 23.7803C28.579 23.6397 28.5 23.4489 28.5 23.25V22.5H26.9475C26.8489 23.1881 26.6138 23.8495 26.256 24.4455L27.75 25.9395L27.9697 25.7197C28.1112 25.5831 28.3007 25.5075 28.4973 25.5092C28.6939 25.511 28.8821 25.5898 29.0211 25.7289C29.1602 25.8679 29.239 26.0561 29.2408 26.2527C29.2425 26.4493 29.1669 26.6388 29.0303 26.7803L27.5303 28.2803C27.3888 28.4169 27.1993 28.4925 27.0027 28.4908C26.8061 28.489 26.6179 28.4102 26.4789 28.2711C26.3398 28.1321 26.261 27.9439 26.2592 27.7473C26.2575 27.5507 26.3331 27.3612 26.4697 27.2197L26.6895 27L25.3035 25.6147C24.5253 26.3321 23.5477 26.7966 22.5 26.9468V28.5H23.25C23.4489 28.5 23.6397 28.579 23.7803 28.7197C23.921 28.8603 24 29.0511 24 29.25C24 29.4489 23.921 29.6397 23.7803 29.7803C23.6397 29.921 23.4489 30 23.25 30H20.25C20.0511 30 19.8603 29.921 19.7197 29.7803C19.579 29.6397 19.5 29.4489 19.5 29.25C19.5 29.0511 19.579 28.8603 19.7197 28.7197C19.8603 28.579 20.0511 28.5 20.25 28.5H21V26.9475C20.1313 26.8229 19.3079 26.4814 18.606 25.9545L17.5605 27L17.7803 27.2197C17.9169 27.3612 17.9925 27.5507 17.9908 27.7473C17.989 27.9439 17.9102 28.1321 17.7711 28.2711C17.6321 28.4102 17.4439 28.489 17.2473 28.4908C17.0507 28.4925 16.8612 28.4169 16.7197 28.2803L15.2197 26.7803C15.0831 26.6388 15.0075 26.4493 15.0092 26.2527C15.011 26.0561 15.0898 25.8679 15.2289 25.7289C15.3679 25.5898 15.5561 25.511 15.7527 25.5092C15.9493 25.5075 16.1388 25.5831 16.2803 25.7197L16.5 25.9395L17.5455 24.894C17.0186 24.1921 16.6771 23.3687 16.5525 22.5H15V23.25C15 23.4489 14.921 23.6397 14.7803 23.7803C14.6397 23.921 14.4489 24 14.25 24C14.0511 24 13.8603 23.921 13.7197 23.7803C13.579 23.6397 13.5 23.4489 13.5 23.25V20.25C13.5 20.0511 13.579 19.8603 13.7197 19.7197C13.8603 19.579 14.0511 19.5 14.25 19.5C14.4489 19.5 14.6397 19.579 14.7803 19.7197C14.921 19.8603 15 20.0511 15 20.25V21H16.5525C16.6771 20.1313 17.0186 19.3079 17.5455 18.606L16.5 17.5605L16.2803 17.7803C16.1388 17.9169 15.9493 17.9925 15.7527 17.9908C15.5561 17.989 15.3679 17.9102 15.2289 17.7711C15.0898 17.6321 15.011 17.4439 15.0092 17.2473C15.0075 17.0507 15.0831 16.8612 15.2197 16.7197L16.7197 15.2197C16.8612 15.0831 17.0507 15.0075 17.2473 15.0092C17.4439 15.011 17.6321 15.0898 17.7711 15.2289C17.9102 15.3679 17.989 15.5561 17.9908 15.7527C17.9925 15.9493 17.9169 16.1388 17.7803 16.2803L17.5605 16.5L18.606 17.5455C19.3079 17.0186 20.1313 16.6771 21 16.5525V15H20.25C20.0511 15 19.8603 14.921 19.7197 14.7803C19.579 14.6397 19.5 14.4489 19.5 14.25Z" stroke="#BC00FF" stroke-width="3.6" mask="url(#path-1-inside-1_1220_1521)"/>
</svg>
