<svg width="23" height="26" viewBox="0 0 23 26" fill="none" xmlns="http://www.w3.org/2000/svg">
<path d="M16.6928 13C20.0553 10.8672 22.3334 6.76875 22.3334 2.0625C22.3334 1.53281 22.3037 1.0125 22.249 0.5H0.54434C0.487728 1.0189 0.459561 1.54052 0.459965 2.0625C0.459965 6.76875 2.73653 10.8672 6.09903 13C2.73653 15.1328 0.459965 19.2313 0.459965 23.9375C0.459965 24.4672 0.489653 24.9875 0.54434 25.5H22.249C22.3053 24.9875 22.3334 24.4672 22.3334 23.9375C22.3334 19.2313 20.0553 15.1328 16.6928 13ZM2.80215 23.9375C2.80215 19.3734 4.75997 15.5047 8.2709 14.2281V11.7719C4.75997 10.4953 2.80215 6.625 2.80215 2.0625H19.9897C19.9897 6.62656 18.0318 10.4953 14.5209 11.7719V14.2281C18.0318 15.5047 19.9897 19.375 19.9897 23.9375H2.80215ZM14.024 16.8469C12.274 15.8547 12.1787 14.5672 12.1772 13.7859V12.2172C12.1772 11.4359 12.2693 10.1437 14.0272 9.15C14.9678 8.60469 15.7803 7.775 16.3959 6.74844H6.3959C7.01309 7.775 7.82715 8.60469 8.76778 9.15156C10.5178 10.1438 10.6131 11.4312 10.6147 12.2125V13.7812C10.6147 14.5625 10.5225 15.8547 8.76465 16.8484C6.99122 17.8781 5.6709 19.9172 5.2709 22.375H17.5193C17.1193 19.9156 15.7975 17.8766 14.0225 16.8469H14.024Z" fill="#BC00FF"/>
</svg>
