<svg width="72" height="51" viewBox="0 0 72 51" fill="none" xmlns="http://www.w3.org/2000/svg">
<rect x="0.5" y="1" width="71" height="49" rx="3.5" fill="white" stroke="#F3F3F3"/>
<path d="M42.5918 36.7207H29.7422V13.6404H42.5918V36.7207Z" fill="#6C6BBD"/>
<path d="M30.5658 25.1786C30.5658 20.4966 32.7592 16.3261 36.1748 13.6384C33.677 11.6731 30.5247 10.5 27.0989 10.5C18.9885 10.5 12.4141 17.0717 12.4141 25.1786C12.4141 33.2855 18.9885 39.8572 27.0989 39.8572C30.5247 39.8572 33.677 38.6841 36.1748 36.7188C32.7592 34.0311 30.5658 29.8605 30.5658 25.1786Z" fill="#EB001B"/>
<path d="M59.9218 25.1786C59.9218 33.2855 53.3474 39.8572 45.237 39.8572C41.8111 39.8572 38.6588 38.6841 36.1602 36.7188C39.5767 34.0311 41.77 29.8605 41.77 25.1786C41.77 20.4966 39.5767 16.3261 36.1602 13.6384C38.6588 11.6731 41.8111 10.5 45.237 10.5C53.3474 10.5 59.9218 17.0717 59.9218 25.1786Z" fill="#0099DF"/>
</svg>
