<svg width="72" height="51" viewBox="0 0 72 51" fill="none" xmlns="http://www.w3.org/2000/svg">
<rect x="1.72966" y="2.22966" width="68.5407" height="46.5407" rx="2.27034" fill="white" stroke="#F3F3F3" stroke-width="3.45932"/>
<path d="M31.9674 34.7917H27.1738L30.1721 17.2908H34.9654L31.9674 34.7917Z" fill="#15195A"/>
<path d="M49.3442 17.7185C48.3987 17.3644 46.8991 16.9734 45.0448 16.9734C40.311 16.9734 36.9775 19.3564 36.957 22.7633C36.9177 25.2769 39.3437 26.6731 41.1582 27.5112C43.0127 28.3676 43.6432 28.9266 43.6432 29.69C43.6243 30.8624 42.1446 31.4029 40.7645 31.4029C38.8507 31.4029 37.8252 31.1242 36.2668 30.472L35.6356 30.1923L34.9648 34.1209C36.0891 34.6044 38.1605 35.0335 40.311 35.0523C45.3407 35.0523 48.6152 32.7062 48.654 29.0756C48.6732 27.0833 47.3922 25.5568 44.6304 24.3094C42.9538 23.5086 41.927 22.9687 41.927 22.1494C41.9467 21.4045 42.7954 20.6416 44.688 20.6416C46.2464 20.6043 47.3914 20.9579 48.2588 21.3117L48.6923 21.4976L49.3442 17.7185Z" fill="#15195A"/>
<path fill-rule="evenodd" clip-rule="evenodd" d="M57.9255 17.2908H61.6333L65.5005 34.7914H61.0621C61.0621 34.7914 60.6278 32.7806 60.4901 32.1662H54.3356C54.1576 32.6314 53.3295 34.7914 53.3295 34.7914H48.2998L55.42 18.7428C55.9134 17.607 56.7821 17.2908 57.9255 17.2908ZM57.63 23.6951C57.63 23.6951 56.111 27.5863 55.7162 28.5917H59.7006C59.5035 27.7167 58.5957 23.5276 58.5957 23.5276L58.2607 22.0196C58.1197 22.408 57.9156 22.9418 57.778 23.3019C57.6848 23.546 57.622 23.7102 57.63 23.6951Z" fill="#15195A"/>
<path fill-rule="evenodd" clip-rule="evenodd" d="M18.4757 29.2247L23.1702 17.2908H28.239L20.7043 34.7731H15.6352L11.3627 19.5664C9.8886 18.7528 8.20621 18.0985 6.3252 17.6444L6.4041 17.2908H14.1165C15.1619 17.3276 16.0101 17.6441 16.2861 18.7619L17.9623 26.8031C17.9624 26.8035 17.9626 26.8039 17.9627 26.8044L18.4757 29.2247Z" fill="#15195A"/>
</svg>
